<?xml version="1.0" encoding="UTF-8" standalone="no"?>
<!-- Uploaded to: SVG Repo, www.svgrepo.com, Generator: SVG Repo Mixer Tools -->

<svg
   fill="#000000"
   height="32"
   width="32"
   version="1.1"
   id="Capa_1"
   viewBox="0 0 14.40324 14.40324"
   xml:space="preserve"
   sodipodi:docname="fixed.svg"
   inkscape:version="1.4.3 (fcd0343856, 2026-01-01)"
   xmlns:inkscape="http://www.inkscape.org/namespaces/inkscape"
   xmlns:sodipodi="http://sodipodi.sourceforge.net/DTD/sodipodi-0.dtd"
   xmlns="http://www.w3.org/2000/svg"
   xmlns:svg="http://www.w3.org/2000/svg"><defs
   id="defs1" /><sodipodi:namedview
   id="namedview1"
   pagecolor="#ffffff"
   bordercolor="#000000"
   borderopacity="0.25"
   inkscape:showpageshadow="2"
   inkscape:pageopacity="0.0"
   inkscape:pagecheckerboard="0"
   inkscape:deskcolor="#d1d1d1"
   showguides="true"
   inkscape:zoom="32.894607"
   inkscape:cx="16.005663"
   inkscape:cy="15.792862"
   inkscape:window-width="2560"
   inkscape:window-height="1371"
   inkscape:window-x="1920"
   inkscape:window-y="32"
   inkscape:window-maximized="1"
   inkscape:current-layer="Capa_1"><sodipodi:guide
     position="10.057102,7.1922295"
     orientation="0,-1"
     id="guide1"
     inkscape:locked="false" /></sodipodi:namedview>
<path
   d="m 14.353743,4.3442476 c -0.0265,-0.024587 -0.05698,-0.037039 -0.09063,-0.037039 -0.123027,0 -0.253215,0.173477 -0.368085,0.3265855 -0.04341,0.057852 -0.10055,0.1340067 -0.129791,0.1593524 -0.0034,-0.05837 0.04054,-0.2241287 0.07361,-0.3487075 0.08352,-0.3148877 0.169899,-0.640439 0.02924,-0.7161959 -0.01465,-0.00788 -0.03012,-0.011903 -0.04604,-0.011903 -0.101258,0 -0.17873,0.1517541 -0.296744,0.399359 -0.09239,0.19381 -0.20734,0.4350491 -0.302275,0.4350491 -0.0061,0 -0.01202,-9.554e-4 -0.01815,-0.00326 -0.0167,-0.029842 -0.01525,-0.166476 -0.01413,-0.2669821 0.0029,-0.2633213 0.0061,-0.5617362 -0.161026,-0.5840181 -0.005,-7.645e-4 -0.01,-9.555e-4 -0.01489,-9.555e-4 -0.144434,0 -0.228707,0.2702857 -0.317913,0.5564868 -0.04345,0.13942 -0.109139,0.3501398 -0.146303,0.364384 -0.04993,-0.00998 -0.150878,-0.1606662 -0.231967,-0.2817431 -0.133014,-0.1985466 -0.25994,-0.3853148 -0.377475,-0.3756448 -0.12259,0.010216 -0.120679,0.1842203 -0.118691,0.3684828 0.0015,0.1513147 0.0038,0.3396754 -0.07202,0.3804189 -0.0073,0.00391 -0.01527,0.00589 -0.02427,0.00589 -0.08419,0 -0.222578,-0.150879 -0.333786,-0.2721154 -0.129672,-0.1413286 -0.212791,-0.2279878 -0.28457,-0.2279878 -0.01774,0 -0.03446,0.00549 -0.04831,0.015877 -0.07898,0.059246 -0.07452,0.2383339 -0.06979,0.4279271 0.0024,0.095573 0.006,0.238255 -0.01369,0.2684536 -0.03645,-0.00494 -0.140376,-0.074048 -0.232526,-0.1352017 -0.203837,-0.1353602 -0.457492,-0.3038667 -0.662086,-0.3038667 -0.03367,0 -0.06529,0.00469 -0.09402,0.013958 -0.2219414,0.07146 -0.2645156,0.1765417 -0.2926863,0.2460921 -0.014764,0.03645 -0.022158,0.052916 -0.042611,0.061674 -0.025578,0.010913 -0.066971,0.00661 -0.1124837,-1.919e-4 -0.030115,-0.00454 -0.061315,-0.00927 -0.094463,-0.00927 -0.073091,0 -0.133571,0.024946 -0.1849774,0.076356 -0.05224,0.052248 -0.098957,0.1141931 -0.144155,0.1740751 -0.067203,0.089126 -0.130746,0.1733194 -0.1919407,0.1962781 -0.03234,0.012135 -0.097119,0.079816 -0.2796341,0.273746 -0.4013888,0.4264159 -1.236594,1.3137832 -1.6646397,1.3138235 -0.080095,0 -0.1399368,-0.032071 -0.1829097,-0.09804 C 6.7258838,6.6263237 6.6194499,6.4265844 6.4846844,6.1736481 6.0591436,5.3750487 5.4160397,4.1681384 4.868945,3.8854796 3.4188058,3.1362975 2.1794285,1.9346789 1.5136048,1.2891473 1.1504923,0.93709739 1.021497,0.81534439 0.95425564,0.81534439 c -0.0190697,0 -0.0357743,0.00868 -0.0459178,0.023831 -0.0194593,0.029005 -0.0124601,0.074365 0.0257812,0.16743011 C 1.0499448,1.2883885 1.315454,1.675056 1.5288419,1.9857254 1.6521077,2.1652131 1.7894568,2.3652708 1.8263029,2.4490256 1.7260349,2.4026306 1.533139,2.198794 1.3747007,2.0313633 1.0955826,1.7365289 0.9176865,1.5574799 0.80019172,1.5574799 c -0.0224454,0 -0.0422942,0.00645 -0.058887,0.01907 -0.0899619,0.068354 0.0393491,0.2505493 0.27565608,0.5667109 0.094179,0.1260088 0.2328434,0.3115445 0.2502708,0.3755238 C 1.2170546,2.5081234 1.1056499,2.4199886 1.0150493,2.3482909 0.86146704,2.2267744 0.7025901,2.1011223 0.58652549,2.1011223 c -0.0222816,0 -0.0426927,0.00454 -0.0607176,0.013576 -0.0265382,0.013249 -0.0438459,0.034858 -0.0501335,0.062511 -0.0191439,0.084352 0.068952,0.2059465 0.20558788,0.3818528 0.0595245,0.076595 0.14769499,0.1901506 0.1546173,0.2306155 -0.00549,0.00112 -0.011537,0.00175 -0.0180338,0.00175 -0.062152,0 -0.15314662,-0.048346 -0.24116015,-0.095136 -0.0964089,-0.051244 -0.18748472,-0.099631 -0.26268521,-0.099631 -0.0256628,0 -0.048542,0.00573 -0.067998,0.016991 -0.0855868,0.04954 -0.008201,0.2034799 0.0737676,0.3664152 0.0224,0.044603 0.0515657,0.1025736 0.0621896,0.1331714 -0.0202517,0.00287 -0.0535169,0.00287 -0.0775871,0.00287 -0.07739,1.187e-4 -0.15744411,1.918e-4 -0.20093346,0.044524 -0.01829934,0.018587 -0.02773237,0.043206 -0.02733504,0.071216 0.0017266,0.105677 1.67749099,3.698358 3.65105119,5.082966 0.2640371,0.1852554 0.3664534,0.5165362 0.4654874,0.836914 0.036164,0.116979 0.070306,0.227474 0.1116467,0.3278202 0.014882,0.03617 0.015072,0.06641 7.675e-4,0.09525 -0.062232,0.124267 -0.3840415,0.206946 -0.7247519,0.294441 -0.1965958,0.05053 -0.3998352,0.102731 -0.5970289,0.1707736 -2.45631442,0.302315 -2.45619533,0.43863 -2.45619533,0.504203 0,0.131979 0.0877738,0.194964 0.15187328,0.240961 0.0646522,0.0464 0.0740078,0.05957 0.0625903,0.08813 -0.0149603,0.03744 -0.0508861,0.07596 -0.0888883,0.116741 -0.0821625,0.08821 -0.18445835,0.197948 -0.12306561,0.361678 0.0222019,0.05917 0.0950553,0.08793 0.2226975,0.08793 0.2206668,0 0.57884526,-0.08315 0.84212746,-0.153463 -0.5911792,0.337965 -0.5912198,0.399676 -0.5912198,0.421879 0,0.03004 0,0.08602 0.340153,0.08602 0.3396761,0 0.8777386,-0.06147 1.276143,-0.234672 0.1231854,-0.05356 0.228148,-0.105044 0.3296486,-0.154779 0.095851,-0.04699 0.1865302,-0.09143 0.2777254,-0.12991 1.0395202,0.0561 2.6395433,0.121356 3.7426447,0.121356 0.6208634,0 1.0118654,-0.02077 1.1620288,-0.06171 0.2012902,-0.05491 0.4319057,-0.144035 0.6761287,-0.238374 0.4505676,-0.174077 0.9164541,-0.35412 1.2773763,-0.35412 0.07389,0 0.141328,0.0079 0.200416,0.02343 0.528711,0.139103 0.730998,0.557917 0.732988,0.562135 l 0.008,0.01699 0.01814,0.0046 c 0.0032,7.68e-4 0.02013,0.0049 0.04643,0.0049 0,0 0,0 0,0 0.07612,0 0.262527,-0.03594 0.349862,-0.368602 0.05132,-0.195523 -0.04879,-0.339715 -0.08602,-0.384838 0.0094,-0.106272 0.03088,-0.6320416 -0.410738,-0.9812276 -0.267978,-0.2119142 -0.533729,-0.3093162 -0.709554,-0.3738142 -0.08312,-0.03048 -0.196993,-0.07222 -0.195004,-0.09434 0.01806,-0.1151495 1.136564,-2.4022042 2.734439,-2.9105834 1.23524,-0.3930323 1.532023,-1.1658498 1.602291,-1.4798218 0.04301,-0.1927764 0.03382,-0.3639867 -0.02248,-0.4162682 z"
   id="path1"
   style="stroke-width:0.0397887" />
<path
   style="fill:#ffffff;stroke-width:0.0304001"
   d="m 2.3864094,26.128026 c -0.06688,-0.02409 -0.1250205,-0.04401 -0.1292005,-0.04427 -0.00418,-2.51e-4 -0.0076,-0.02623 -0.0076,-0.05772 0,-0.03149 0.05685,-0.108623 0.1263328,-0.171397 0.1409721,-0.12736 0.6307853,-0.451929 0.9624304,-0.637744 0.1193691,-0.06688 0.2173511,-0.129961 0.2177381,-0.14018 3.87e-4,-0.01022 -0.1600368,0.02088 -0.3564976,0.0691 C 2.342057,25.356313 1.5817897,25.445413 1.3680054,25.36047 1.2427307,25.31069 1.1777969,25.213323 1.1622953,25.051995 1.1437323,24.858809 1.2150623,24.709424 1.4568944,24.435021 1.7181633,24.138564 1.718196,24.136618 1.4659144,23.898061 1.2445576,23.688749 1.1625777,23.534379 1.1979442,23.393468 1.2636442,23.1317 2.778685,22.81735 5.9584248,22.405736 c 0.5054887,-0.06544 0.7944126,-0.118332 0.9880039,-0.180887 0.1504806,-0.04863 0.5950824,-0.172668 0.9880039,-0.275651 0.7843748,-0.205581 1.0827088,-0.29864 1.3252525,-0.413382 0.1628811,-0.07705 0.3467541,-0.252897 0.3467541,-0.331609 0,-0.06815 -0.4973542,-1.556335 -0.6013514,-1.799371 C 8.8096774,18.948179 8.592209,18.681556 8.1472321,18.353083 7.1384159,17.608397 6.0187166,16.487311 4.97482,15.176743 3.564076,13.405613 2.0833102,11.050128 0.85196721,8.6184339 0.36657773,7.6598719 0.17255404,7.2177992 0.19608555,7.1240422 0.22476627,7.009769 0.34097296,6.9575112 0.60694277,6.9392815 c 0.13434332,-0.00921 0.24426058,-0.026467 0.24426058,-0.038353 0,-0.011885 -0.0774775,-0.1843515 -0.17217223,-0.3832577 C 0.41458615,5.962205 0.42444318,5.7876348 0.71988402,5.7941562 0.81843772,5.7963362 0.95922125,5.8493772 1.2644861,5.999357 1.5361663,6.132836 1.7126732,6.2016239 1.7834943,6.2016239 H 1.890813 L 1.8324511,6.1027082 C 1.800352,6.0483044 1.6479274,5.834639 1.4937297,5.6278963 1.2013947,5.2359442 1.0640042,5.0013204 1.0640042,4.8940481 c 0,-0.093135 0.1335053,-0.2124297 0.2377347,-0.2124297 0.1473738,0 0.485432,0.1945392 0.9022698,0.5192207 0.4277889,0.3332118 0.6232024,0.4532795 0.6232024,0.3829138 0,-0.057739 -0.1792185,-0.3290719 -0.5356318,-0.8109341 C 1.7328271,4.0173989 1.6016076,3.7968568 1.6170471,3.6391254 c 0.00644,-0.065804 0.034181,-0.1094789 0.088971,-0.1400822 0.073406,-0.041002 0.093547,-0.037808 0.258401,0.040974 0.1492275,0.071315 0.3145052,0.2221569 0.9995927,0.9122887 C 3.7793021,5.2735997 3.9808537,5.4573422 4.0435391,5.436447 4.0870836,5.4219322 3.865737,5.0620969 3.3517242,4.3117872 2.5742468,3.1768954 2.121726,2.4018422 2.034624,2.0559289 2.0027589,1.9293809 2.0045536,1.9040332 2.04849,1.8600968 c 0.047025,-0.047025 0.059703,-0.04557 0.185796,0.021322 0.1509426,0.080075 0.4072858,0.3126053 1.4289284,1.2961894 2.7061886,2.605377 4.7466172,4.1835274 6.9160276,5.3491361 0.486475,0.2613799 0.588064,0.3375614 0.96015,0.7200126 0.76148,0.7826941 1.482001,1.9164711 2.885001,4.5396971 0.658551,1.231312 0.747247,1.35801 0.981442,1.401945 0.16849,0.03161 0.415432,-0.03158 0.721428,-0.184616 0.671231,-0.335688 1.421273,-0.993182 3.105296,-2.722135 0.333855,-0.342761 0.659053,-0.663506 0.722664,-0.712766 0.06361,-0.04926 0.214291,-0.213422 0.334844,-0.364802 0.400654,-0.503105 0.461793,-0.538256 0.8901,-0.511752 l 0.280085,0.01733 0.05432,-0.09958 c 0.168863,-0.309589 0.234223,-0.379169 0.467398,-0.497575 0.474496,-0.2409472 0.787184,-0.1534471 1.821328,0.509665 0.275881,0.1769 0.524019,0.321691 0.551419,0.321757 0.0721,1.74e-4 0.08733,-0.125637 0.08536,-0.705338 -0.0019,-0.5594342 0.02607,-0.7207411 0.140605,-0.8108319 0.131038,-0.1030743 0.226411,-0.042299 0.712223,0.4538583 0.600972,0.6137706 0.743102,0.6996006 0.876876,0.5295346 0.08114,-0.103152 0.09909,-0.230459 0.122363,-0.8675824 0.01767,-0.4837705 0.02655,-0.5505951 0.08332,-0.6269095 0.183992,-0.2473326 0.447641,-0.051899 0.97706,0.7242601 0.272305,0.3992148 0.466951,0.6343258 0.525152,0.6343258 0.05937,0 0.128707,-0.163787 0.33586,-0.7934017 0.324924,-0.9875668 0.470771,-1.243406 0.708827,-1.243406 0.137523,0 0.246899,0.1241453 0.30801,0.349602 0.04506,0.166247 0.06172,0.4762501 0.0731,1.3604048 0.0022,0.1683209 0.0052,0.1748009 0.08292,0.1748009 0.14326,0 0.288713,-0.2065247 0.665202,-0.9444998 0.451698,-0.8853949 0.580741,-1.0211299 0.795238,-0.8364827 0.0838,0.072133 0.08529,0.079221 0.08458,0.4028016 -6.47e-4,0.2982836 -0.01733,0.3960941 -0.176731,1.0361358 -0.09681,0.3887181 -0.171724,0.7505741 -0.166483,0.8041241 0.0093,0.0948 0.01591,0.08898 0.251445,-0.220357 0.576739,-0.7574618 0.879488,-0.9403243 1.071301,-0.6470726 0.08931,0.1365379 0.07202,0.6756806 -0.03298,1.0285526 -0.247102,0.83043 -0.848565,1.630618 -1.662068,2.21122 -0.384977,0.27476 -1.15554,0.654483 -1.715775,0.84551 -0.835282,0.284812 -1.592466,0.702066 -2.295209,1.264799 -0.378296,0.302926 -1.144119,1.061521 -1.529733,1.515294 -0.726991,0.855491 -1.346847,1.759292 -1.947782,2.840024 -0.272946,0.490871 -0.458124,0.897505 -0.429678,0.943532 0.0093,0.01505 0.218486,0.105512 0.464849,0.201015 1.377927,0.534156 2.02733,1.07956 2.314034,1.943453 0.0916,0.275994 0.175459,0.846848 0.140562,0.956798 -0.01117,0.0352 0.01721,0.120413 0.07308,0.219401 0.123766,0.219302 0.168608,0.439092 0.12811,0.627926 -0.114727,0.534954 -0.421999,0.88809 -0.770236,0.885204 -0.127645,-0.0011 -0.132991,-0.0053 -0.252012,-0.200383 -0.150136,-0.246071 -0.557107,-0.638157 -0.831724,-0.801304 -0.112956,-0.06711 -0.320869,-0.16617 -0.462028,-0.220142 -0.248859,-0.09515 -0.270966,-0.09815 -0.727856,-0.09881 -0.700255,-0.001 -1.028829,0.08691 -2.781611,0.744293 -0.618642,0.232024 -1.243772,0.456209 -1.389177,0.498189 -0.493725,0.142542 -0.751675,0.155297 -3.125241,0.154525 -2.408124,-7.83e-4 -2.891287,-0.01439 -7.1136277,-0.200381 l -0.8360032,-0.03682 -0.6840027,0.327621 c -0.9945856,0.476383 -1.5676673,0.648888 -2.52321,0.759516 -0.5274965,0.06107 -1.3670855,0.06168 -1.535206,0.0011 z"
   id="path2"
   transform="scale(0.45010125)" /></svg>
