<?xml version="1.0" encoding="UTF-8" standalone="no"?>
<!-- Uploaded to: SVG Repo, www.svgrepo.com, Generator: SVG Repo Mixer Tools -->

<svg
   fill="#000000"
   height="32"
   width="32"
   version="1.1"
   id="Capa_1"
   viewBox="0 0 14.40324 14.40324"
   xml:space="preserve"
   sodipodi:docname="frame_6.svg"
   inkscape:version="1.4.3 (fcd0343856, 2026-01-01)"
   xmlns:inkscape="http://www.inkscape.org/namespaces/inkscape"
   xmlns:sodipodi="http://sodipodi.sourceforge.net/DTD/sodipodi-0.dtd"
   xmlns="http://www.w3.org/2000/svg"
   xmlns:svg="http://www.w3.org/2000/svg"><defs
   id="defs1" /><sodipodi:namedview
   id="namedview1"
   pagecolor="#ffffff"
   bordercolor="#000000"
   borderopacity="0.25"
   inkscape:showpageshadow="2"
   inkscape:pageopacity="0.0"
   inkscape:pagecheckerboard="0"
   inkscape:deskcolor="#d1d1d1"
   showguides="true"
   inkscape:zoom="11.63"
   inkscape:cx="11.822872"
   inkscape:cy="-3.8263112"
   inkscape:window-width="2560"
   inkscape:window-height="1371"
   inkscape:window-x="1920"
   inkscape:window-y="32"
   inkscape:window-maximized="1"
   inkscape:current-layer="Capa_1"><sodipodi:guide
     position="6.6566995,0.893266"
     orientation="0,-1"
     id="guide2"
     inkscape:locked="false" /><sodipodi:guide
     position="6.9856643,5.8308043"
     orientation="1,0"
     id="guide3"
     inkscape:locked="false" /><sodipodi:guide
     position="3.6089374,8.1625842"
     orientation="1,0"
     id="guide4"
     inkscape:locked="false" /><sodipodi:guide
     position="10.807461,6.2565235"
     orientation="1,0"
     id="guide5"
     inkscape:locked="false" /><sodipodi:guide
     position="14.40324,4.379489"
     orientation="1,0"
     id="guide6"
     inkscape:locked="false" /><sodipodi:guide
     position="17.99631,6.17912"
     orientation="1,0"
     id="guide7"
     inkscape:locked="false" /><sodipodi:guide
     position="21.595572,6.1017165"
     orientation="1,0"
     id="guide8"
     inkscape:locked="false" /><sodipodi:guide
     position="25.214184,5.869506"
     orientation="1,0"
     id="guide9"
     inkscape:locked="false" /></sodipodi:namedview>

<g
   id="g2-5-06"
   transform="rotate(26.646246,21.691982,-12.761495)"
   style="display:none"><path
     d="m 13.885716,5.0076582 c -0.02492,-0.02807 -0.05358,-0.04228 -0.08523,-0.04228 -0.115694,0 -0.238124,0.197993 -0.34615,0.372735 -0.04082,0.06603 -0.09455,0.152947 -0.122055,0.181871 -0.0031,-0.06662 0.03813,-0.2558 0.06922,-0.397984 0.07854,-0.359382 0.159772,-0.7309376 0.02752,-0.8173985 -0.01377,-0.00898 -0.02833,-0.013599 -0.04329,-0.013599 -0.09523,0 -0.168079,0.1731993 -0.279059,0.4557909 -0.08689,0.2211996 -0.194983,0.4965256 -0.284262,0.4965256 -0.0057,0 -0.01131,-0.0013 -0.01706,-0.0037 -0.01572,-0.03406 -0.01432,-0.190001 -0.0133,-0.304711 0.0028,-0.3005291 0.0057,-0.641114 -0.151429,-0.6665443 -0.0047,-8.183e-4 -0.0093,-0.00127 -0.01398,-0.00127 -0.135828,0 -0.215078,0.3084795 -0.298966,0.6351193 -0.04087,0.159122 -0.102634,0.399619 -0.137585,0.415875 -0.04696,-0.0114 -0.141883,-0.183364 -0.218137,-0.321552 -0.125088,-0.226601 -0.244449,-0.4397621 -0.354982,-0.428729 -0.115283,0.011687 -0.113486,0.210254 -0.111617,0.420554 0.0013,0.1727 0.0035,0.387674 -0.06772,0.434177 -0.0069,0.0045 -0.01436,0.0066 -0.02283,0.0066 -0.07917,0 -0.20931,-0.172197 -0.313894,-0.310567 -0.121942,-0.161301 -0.200108,-0.260204 -0.267606,-0.260204 -0.01669,0 -0.03242,0.0062 -0.04543,0.01813 -0.07427,0.06761 -0.07008,0.27201 -0.06562,0.488395 0.0024,0.109075 0.0057,0.271924 -0.01289,0.306388 -0.03428,-0.0057 -0.132006,-0.08451 -0.218666,-0.154307 -0.191693,-0.154481 -0.430229,-0.346794 -0.6226302,-0.346794 -0.03166,0 -0.0614,0.0054 -0.08842,0.01593 -0.208712,0.08156 -0.24875,0.201492 -0.275242,0.28087 -0.01388,0.0416 -0.02083,0.0604 -0.04008,0.07039 -0.02406,0.01243 -0.06297,0.0075 -0.105775,-3.16e-4 -0.02833,-0.0052 -0.05766,-0.01062 -0.08883,-0.01062 -0.06874,0 -0.125608,0.02848 -0.173952,0.08714 -0.04913,0.05963 -0.09306,0.130327 -0.135564,0.198672 -0.0632,0.101723 -0.122952,0.19781 -0.180501,0.224015 -0.03042,0.01385 -0.09133,0.09109 -0.262971,0.312426 -0.377466,0.486673 -1.162897,1.499433 -1.565433,1.499479 -0.07532,0 -0.1316,-0.0366 -0.172009,-0.111896 -0.06683,-0.124437 -0.16692,-0.3524 -0.293653,-0.641079 -0.400184,-0.911437 -1.00496,-2.288895 -1.51945,-2.6114929 C 3.6024698,3.6286505 2.436954,2.2572319 1.8108098,1.5204802 1.4693407,1.1186827 1.348032,0.97972649 1.2847962,0.97972649 c -0.017922,0 -0.03365,0.0099 -0.043179,0.027199 -0.018299,0.033104 -0.011719,0.084871 0.02426,0.1910862 0.1089205,0.3216044 0.3586097,0.7629101 0.5592795,1.117481 C 1.9410746,2.5203402 2.0702403,2.7486679 2.1048872,2.8442568 2.0105959,2.7913068 1.8291971,2.5586664 1.6802018,2.3675759 1.4177175,2.0310791 1.2504231,1.8267306 1.1399295,1.8267306 c -0.021109,0 -0.039774,0.00735 -0.055379,0.021751 -0.084597,0.078018 0.037008,0.2859555 0.259229,0.6467936 C 1.4323465,2.6390927 1.5627477,2.8508437 1.5791342,2.923863 1.5319544,2.9116772 1.4271854,2.8111065 1.3419844,2.7292748 1.1975528,2.590593 1.0481458,2.4471828 0.93899889,2.4471828 c -0.020936,0 -0.040151,0.00524 -0.057098,0.015471 -0.024946,0.015139 -0.041233,0.039799 -0.047148,0.071339 -0.01799,0.096271 0.064847,0.2350486 0.19333721,0.4358121 0.055975,0.087417 0.1388939,0.2170201 0.1454044,0.2632031 -0.00518,0.00125 -0.010862,0.00208 -0.016962,0.00208 -0.058446,0 -0.1440168,-0.055175 -0.22678491,-0.1085767 -0.090663,-0.058493 -0.1763127,-0.1137129 -0.2470292,-0.1137129 -0.024124,0 -0.04565,0.00654 -0.063949,0.01938 -0.080483,0.056538 -0.00771,0.2322329 0.069373,0.4181914 0.021074,0.050907 0.048495,0.1170726 0.058483,0.1519938 -0.019052,0.00334 -0.050327,0.00334 -0.072964,0.00334 -0.072776,1.332e-4 -0.1480602,2.708e-4 -0.1889578,0.050818 -0.017201,0.021209 -0.026076,0.049315 -0.0257,0.081283 0.00172,0.1206123 1.57751991,4.2209686 3.43346501,5.8012316 0.248301,0.211434 0.344615,0.5895268 0.437745,0.9551758 0.03403,0.133509 0.06612,0.259619 0.104993,0.374142 0.01398,0.0413 0.01419,0.07579 6.75e-4,0.108715 -0.05852,0.14182 -0.361155,0.236183 -0.6815609,0.336043 -0.184877,0.05767 -0.3760072,0.117252 -0.5614491,0.194904 -2.30992611,0.345035 -2.30981641,0.500614 -2.30981641,0.57545 0,0.150631 0.082545,0.222514 0.14282421,0.275011 0.060804,0.05296 0.069596,0.06798 0.058857,0.100587 -0.014083,0.04274 -0.047857,0.08669 -0.083591,0.133233 -0.077265,0.100685 -0.17346571,0.225925 -0.11573291,0.412791 0.020869,0.06752 0.089392,0.100363 0.20942531,0.100363 0.2075172,0 0.5443499,-0.09491 0.7919415,-0.175149 -0.5559488,0.38572 -0.5559868,0.456153 -0.5559868,0.481492 0,0.03427 0,0.09818 0.3198817,0.09818 0.3194354,0 0.8254301,-0.07016 1.2000904,-0.267835 0.1158459,-0.06112 0.2145519,-0.119885 0.3100054,-0.176648 0.090136,-0.05363 0.1754125,-0.104355 0.261172,-0.148268 0.9775686,0.06403 2.4822367,0.138503 3.5195977,0.138503 0.583863,0 0.951564,-0.0237 1.092778,-0.07044 0.189294,-0.06267 0.406165,-0.164386 0.635836,-0.272055 0.4237129,-0.198677 0.861835,-0.404161 1.201248,-0.404161 0.06949,0 0.1329063,0.009 0.1884713,0.02674 0.497201,0.158756 0.687433,0.636753 0.689303,0.641566 l 0.0075,0.01938 0.01706,0.0053 c 0.0031,8.18e-4 0.01896,0.0055 0.04367,0.0055 0,0 0,0 0,0 0.07157,0 0.246879,-0.041 0.32901,-0.420692 0.04828,-0.223148 -0.04587,-0.38772 -0.0809,-0.439218 0.0088,-0.121289 0.02902,-0.721354 -0.38626,-1.119883 -0.252007,-0.241857 -0.501919,-0.353024 -0.667267,-0.426639 -0.07816,-0.03477 -0.1852533,-0.08242 -0.1833813,-0.107671 0.017,-0.131415 1.0688283,-2.7416498 2.5714783,-3.3218658 1.161623,-0.44857 1.440718,-1.330591 1.5068,-1.688936 0.04045,-0.220014 0.03181,-0.415421 -0.02114,-0.475091 z"
     id="path1-3-3"
     style="fill:#000000;stroke-width:0.0412209" /><path
     style="fill:#ffffff;stroke-width:0.0429923"
     d="m 3.2765975,29.970453 c -0.1013538,-0.0179 -0.2149491,-0.06321 -0.252434,-0.100693 -0.061146,-0.06115 -0.061449,-0.07773 -0.00294,-0.161261 0.088637,-0.126546 0.4448435,-0.426788 0.8532277,-0.719173 0.186102,-0.133242 0.3305293,-0.250095 0.3209495,-0.259675 -0.00958,-0.0096 -0.227133,0.04306 -0.4834514,0.116985 -0.2563184,0.07392 -0.6566173,0.166032 -0.889553,0.20469 -0.372966,0.0619 -0.4447988,0.06292 -0.6017885,0.0086 -0.1457163,-0.05041 -0.1877037,-0.09051 -0.2299372,-0.219634 -0.078626,-0.240387 -0.022822,-0.439326 0.2296497,-0.818702 0.1266313,-0.190282 0.2302387,-0.36255 0.2302387,-0.382818 0,-0.02027 -0.095675,-0.142498 -0.2126119,-0.271623 C 1.9856703,27.088596 1.9215399,26.875044 2.0477733,26.733896 2.2801948,26.474013 3.3899126,26.197099 5.8039553,25.796592 7.0249003,25.594029 7.1115323,25.573098 8.1255374,25.235677 9.6572885,24.725971 9.9169979,24.579542 9.877138,24.248092 9.8671552,24.165081 9.7705559,23.768272 9.6624734,23.366294 9.2363655,21.781526 9.2080241,21.731287 8.1290219,20.648033 6.6932257,19.20658 5.5577967,17.625141 4.1695811,15.133276 3.1051009,13.22252 1.6374028,10.05457 1.133557,8.5801741 1.0106687,8.2205684 1.0110741,8.2322623 1.1177988,8.1255374 c 0.06514,-0.06514 0.1433075,-0.085985 0.322442,-0.085985 0.1300516,0 0.2364574,-0.017306 0.2364574,-0.038458 0,-0.021152 -0.077386,-0.2313444 -0.171969,-0.4670937 C 1.3090098,7.0461681 1.2852689,6.8212193 1.4217918,6.7481544 1.5387168,6.6855778 1.6824626,6.7368706 2.0773537,6.982077 2.4286035,7.2001845 2.622528,7.2670378 2.622528,7.1700198 2.622528,7.1359188 2.4959746,6.8993225 2.3412983,6.6442502 1.9546431,6.0066279 1.8916595,5.8739781 1.8916595,5.6972657 c 0,-0.1229975 0.021889,-0.1630809 0.1113071,-0.2038223 0.1632195,-0.074368 0.3950849,0.064521 0.9213666,0.5519055 C 3.7228099,6.7848104 3.7207407,6.7098766 2.9052715,5.355046 2.6783852,4.9780943 2.4602313,4.5665151 2.4204851,4.4404255 2.3541368,4.2299443 2.3538716,4.2055192 2.4172465,4.1421442 2.5904478,3.9689429 2.8450924,4.1910936 3.706121,5.266552 4.2972707,6.0049213 4.6207645,6.356593 4.6666305,6.3107269 4.6996522,6.2777053 4.4975939,5.8823422 3.9132635,4.8366294 3.3643424,3.854285 3.0272794,3.1727032 2.8616447,2.7101304 2.7519208,2.4037014 2.7427939,2.1926053 2.8392689,2.1926053 c 0.091372,0 0.4753042,0.4041597 1.3477387,1.4187447 2.6739688,3.109653 4.6770763,4.9910976 6.6773204,6.2717592 0.385049,0.2465278 0.715578,0.5776688 1.050871,1.0528138 0.649664,0.92064 1.326968,2.245487 2.453529,4.799245 0.562971,1.276176 0.735333,1.606593 0.870117,1.668004 0.592855,0.270123 1.641191,-0.648614 3.620287,-3.172733 0.28737,-0.366509 0.588287,-0.72442 0.668704,-0.795357 0.08042,-0.07094 0.264469,-0.304939 0.409005,-0.520003 0.144537,-0.215064 0.325757,-0.444007 0.402714,-0.508761 0.132523,-0.111511 0.155467,-0.116174 0.433978,-0.0882 l 0.294057,0.02953 0.04428,-0.127022 c 0.09925,-0.284696 0.205907,-0.42356 0.429347,-0.558971 0.413174,-0.250395 0.731482,-0.162424 1.473766,0.407302 0.208757,0.160227 0.469427,0.355726 0.579268,0.434443 l 0.199711,0.14312 0.03258,-0.121624 c 0.01792,-0.06689 0.03101,-0.41389 0.02908,-0.771103 -0.0028,-0.520522 0.01038,-0.676309 0.06638,-0.784609 0.1332,-0.25758 0.266038,-0.175463 0.75558,0.467079 0.292652,0.384117 0.570027,0.644566 0.686455,0.644566 0.151075,0 0.188045,-0.161623 0.21635,-0.945829 0.02959,-0.819743 0.06207,-0.94583 0.243641,-0.94583 0.162349,0 0.346902,0.218113 0.680464,0.804202 0.495478,0.870583 0.576946,0.956938 0.671018,0.711275 0.0249,-0.06503 0.141095,-0.466466 0.258211,-0.892089 0.296377,-1.0770987 0.44896,-1.3641159 0.685304,-1.289103 0.202908,0.0644 0.296668,0.561154 0.298087,1.579301 7.17e-4,0.514457 0.0059,0.548151 0.08456,0.548151 0.139332,0 0.297621,-0.264095 0.604897,-1.009232 0.424672,-1.0298184 0.554487,-1.2063141 0.746037,-1.0143094 0.14542,0.1457644 0.120973,0.7041694 -0.07165,1.6366114 -0.144196,0.698007 -0.176884,0.89978 -0.163677,1.010318 0.0028,0.02365 0.150172,-0.179493 0.327437,-0.451419 0.328525,-0.50396 0.57713,-0.773861 0.712801,-0.773861 0.04164,0 0.115798,0.05098 0.164806,0.113279 0.131078,0.166638 0.123699,0.728145 -0.01685,1.282207 -0.3558,1.402602 -1.38041,2.588633 -2.813515,3.256763 -1.420272,0.662148 -1.735925,0.868176 -2.52199,1.646118 -1.068767,1.057722 -2.075821,2.529147 -2.942421,4.299226 -0.366484,0.748565 -0.673161,1.463494 -0.695105,1.620437 -0.01233,0.08816 0.04901,0.130487 0.54879,0.378703 0.309468,0.153697 0.692008,0.372641 0.850089,0.486542 0.841462,0.606292 1.255965,1.353599 1.303982,2.350947 0.01614,0.335259 0.0483,0.519682 0.124983,0.716705 0.126082,0.323955 0.131463,0.601635 0.01873,0.966621 -0.09956,0.322334 -0.252009,0.544612 -0.443677,0.646895 -0.22596,0.120583 -0.268698,0.100006 -0.44209,-0.212852 -0.223346,-0.402992 -0.727683,-0.893286 -1.114839,-1.083794 -0.260437,-0.128154 -0.353474,-0.15046 -0.691181,-0.165711 -0.61532,-0.02779 -1.154956,0.140297 -2.597727,0.809141 -0.98859,0.458293 -1.541698,0.677198 -1.85137,0.732717 -0.865493,0.155171 -5.692492,0.06314 -9.2539783,-0.176429 L 7.6044288,28.67081 7.3383239,28.8191 c -0.1463577,0.08156 -0.4402235,0.249848 -0.6530352,0.373973 -0.6412928,0.374043 -1.1930263,0.572431 -1.9561479,0.703375 -0.4579597,0.07858 -1.20974,0.116888 -1.4525513,0.07401 z"
     id="path2-5-2"
     transform="scale(0.45010125)" /></g><g
   id="g2-5-06-1"
   transform="rotate(26.646246,19.810289,-6.0432961)"
   style="display:none"><path
     d="m 13.885716,5.0076582 c -0.02492,-0.02807 -0.05358,-0.04228 -0.08523,-0.04228 -0.115694,0 -0.238124,0.197993 -0.34615,0.372735 -0.04082,0.06603 -0.09455,0.152947 -0.122055,0.181871 -0.0031,-0.06662 0.03813,-0.2558 0.06922,-0.397984 0.07854,-0.359382 0.159772,-0.7309376 0.02752,-0.8173985 -0.01377,-0.00898 -0.02833,-0.013599 -0.04329,-0.013599 -0.09523,0 -0.168079,0.1731993 -0.279059,0.4557909 -0.08689,0.2211996 -0.194983,0.4965256 -0.284262,0.4965256 -0.0057,0 -0.01131,-0.0013 -0.01706,-0.0037 -0.01572,-0.03406 -0.01432,-0.190001 -0.0133,-0.304711 0.0028,-0.3005291 0.0057,-0.641114 -0.151429,-0.6665443 -0.0047,-8.183e-4 -0.0093,-0.00127 -0.01398,-0.00127 -0.135828,0 -0.215078,0.3084795 -0.298966,0.6351193 -0.04087,0.159122 -0.102634,0.399619 -0.137585,0.415875 -0.04696,-0.0114 -0.141883,-0.183364 -0.218137,-0.321552 -0.125088,-0.226601 -0.244449,-0.4397621 -0.354982,-0.428729 -0.115283,0.011687 -0.113486,0.210254 -0.111617,0.420554 0.0013,0.1727 0.0035,0.387674 -0.06772,0.434177 -0.0069,0.0045 -0.01436,0.0066 -0.02283,0.0066 -0.07917,0 -0.20931,-0.172197 -0.313894,-0.310567 -0.121942,-0.161301 -0.200108,-0.260204 -0.267606,-0.260204 -0.01669,0 -0.03242,0.0062 -0.04543,0.01813 -0.07427,0.06761 -0.07008,0.27201 -0.06562,0.488395 0.0024,0.109075 0.0057,0.271924 -0.01289,0.306388 -0.03428,-0.0057 -0.132006,-0.08451 -0.218666,-0.154307 -0.191693,-0.154481 -0.430229,-0.346794 -0.6226302,-0.346794 -0.03166,0 -0.0614,0.0054 -0.08842,0.01593 -0.208712,0.08156 -0.24875,0.201492 -0.275242,0.28087 -0.01388,0.0416 -0.02083,0.0604 -0.04008,0.07039 -0.02406,0.01243 -0.06297,0.0075 -0.105775,-3.16e-4 -0.02833,-0.0052 -0.05766,-0.01062 -0.08883,-0.01062 -0.06874,0 -0.125608,0.02848 -0.173952,0.08714 -0.04913,0.05963 -0.09306,0.130327 -0.135564,0.198672 -0.0632,0.101723 -0.122952,0.19781 -0.180501,0.224015 -0.03042,0.01385 -0.09133,0.09109 -0.262971,0.312426 -0.377466,0.486673 -1.162897,1.499433 -1.565433,1.499479 -0.07532,0 -0.1316,-0.0366 -0.172009,-0.111896 -0.06683,-0.124437 -0.16692,-0.3524 -0.293653,-0.641079 -0.400184,-0.911437 -1.00496,-2.288895 -1.51945,-2.6114929 C 3.6024698,3.6286505 2.436954,2.2572319 1.8108098,1.5204802 1.4693407,1.1186827 1.348032,0.97972649 1.2847962,0.97972649 c -0.017922,0 -0.03365,0.0099 -0.043179,0.027199 -0.018299,0.033104 -0.011719,0.084871 0.02426,0.1910862 0.1089205,0.3216044 0.3586097,0.7629101 0.5592795,1.117481 C 1.9410746,2.5203402 2.0702403,2.7486679 2.1048872,2.8442568 2.0105959,2.7913068 1.8291971,2.5586664 1.6802018,2.3675759 1.4177175,2.0310791 1.2504231,1.8267306 1.1399295,1.8267306 c -0.021109,0 -0.039774,0.00735 -0.055379,0.021751 -0.084597,0.078018 0.037008,0.2859555 0.259229,0.6467936 C 1.4323465,2.6390927 1.5627477,2.8508437 1.5791342,2.923863 1.5319544,2.9116772 1.4271854,2.8111065 1.3419844,2.7292748 1.1975528,2.590593 1.0481458,2.4471828 0.93899889,2.4471828 c -0.020936,0 -0.040151,0.00524 -0.057098,0.015471 -0.024946,0.015139 -0.041233,0.039799 -0.047148,0.071339 -0.01799,0.096271 0.064847,0.2350486 0.19333721,0.4358121 0.055975,0.087417 0.1388939,0.2170201 0.1454044,0.2632031 -0.00518,0.00125 -0.010862,0.00208 -0.016962,0.00208 -0.058446,0 -0.1440168,-0.055175 -0.22678491,-0.1085767 -0.090663,-0.058493 -0.1763127,-0.1137129 -0.2470292,-0.1137129 -0.024124,0 -0.04565,0.00654 -0.063949,0.01938 -0.080483,0.056538 -0.00771,0.2322329 0.069373,0.4181914 0.021074,0.050907 0.048495,0.1170726 0.058483,0.1519938 -0.019052,0.00334 -0.050327,0.00334 -0.072964,0.00334 -0.072776,1.332e-4 -0.1480602,2.708e-4 -0.1889578,0.050818 -0.017201,0.021209 -0.026076,0.049315 -0.0257,0.081283 0.00172,0.1206123 1.57751991,4.2209686 3.43346501,5.8012316 0.248301,0.211434 0.344615,0.5895268 0.437745,0.9551758 0.03403,0.133509 0.06612,0.259619 0.104993,0.374142 0.01398,0.0413 0.01419,0.07579 6.75e-4,0.108715 -0.05852,0.14182 -0.361155,0.236183 -0.6815609,0.336043 -0.184877,0.05767 -0.3760072,0.117252 -0.5614491,0.194904 -2.30992611,0.345035 -2.30981641,0.500614 -2.30981641,0.57545 0,0.150631 0.082545,0.222514 0.14282421,0.275011 0.060804,0.05296 0.069596,0.06798 0.058857,0.100587 -0.014083,0.04274 -0.047857,0.08669 -0.083591,0.133233 -0.077265,0.100685 -0.17346571,0.225925 -0.11573291,0.412791 0.020869,0.06752 0.089392,0.100363 0.20942531,0.100363 0.2075172,0 0.5443499,-0.09491 0.7919415,-0.175149 -0.5559488,0.38572 -0.5559868,0.456153 -0.5559868,0.481492 0,0.03427 0,0.09818 0.3198817,0.09818 0.3194354,0 0.8254301,-0.07016 1.2000904,-0.267835 0.1158459,-0.06112 0.2145519,-0.119885 0.3100054,-0.176648 0.090136,-0.05363 0.1754125,-0.104355 0.261172,-0.148268 0.9775686,0.06403 2.4822367,0.138503 3.5195977,0.138503 0.583863,0 0.951564,-0.0237 1.092778,-0.07044 0.189294,-0.06267 0.406165,-0.164386 0.635836,-0.272055 0.4237129,-0.198677 0.861835,-0.404161 1.201248,-0.404161 0.06949,0 0.1329063,0.009 0.1884713,0.02674 0.497201,0.158756 0.687433,0.636753 0.689303,0.641566 l 0.0075,0.01938 0.01706,0.0053 c 0.0031,8.18e-4 0.01896,0.0055 0.04367,0.0055 0,0 0,0 0,0 0.07157,0 0.246879,-0.041 0.32901,-0.420692 0.04828,-0.223148 -0.04587,-0.38772 -0.0809,-0.439218 0.0088,-0.121289 0.02902,-0.721354 -0.38626,-1.119883 -0.252007,-0.241857 -0.501919,-0.353024 -0.667267,-0.426639 -0.07816,-0.03477 -0.1852533,-0.08242 -0.1833813,-0.107671 0.017,-0.131415 1.0688283,-2.7416498 2.5714783,-3.3218658 1.161623,-0.44857 1.440718,-1.330591 1.5068,-1.688936 0.04045,-0.220014 0.03181,-0.415421 -0.02114,-0.475091 z"
     id="path1-3-3-9"
     style="fill:#000000;stroke-width:0.0412209" /><path
     style="fill:#ffffff;stroke-width:0.0429923"
     d="m 3.2765975,29.970453 c -0.1013538,-0.0179 -0.2149491,-0.06321 -0.252434,-0.100693 -0.061146,-0.06115 -0.061449,-0.07773 -0.00294,-0.161261 0.088637,-0.126546 0.4448435,-0.426788 0.8532277,-0.719173 0.186102,-0.133242 0.3305293,-0.250095 0.3209495,-0.259675 -0.00958,-0.0096 -0.227133,0.04306 -0.4834514,0.116985 -0.2563184,0.07392 -0.6566173,0.166032 -0.889553,0.20469 -0.372966,0.0619 -0.4447988,0.06292 -0.6017885,0.0086 -0.1457163,-0.05041 -0.1877037,-0.09051 -0.2299372,-0.219634 -0.078626,-0.240387 -0.022822,-0.439326 0.2296497,-0.818702 0.1266313,-0.190282 0.2302387,-0.36255 0.2302387,-0.382818 0,-0.02027 -0.095675,-0.142498 -0.2126119,-0.271623 C 1.9856703,27.088596 1.9215399,26.875044 2.0477733,26.733896 2.2801948,26.474013 3.3899126,26.197099 5.8039553,25.796592 7.0249003,25.594029 7.1115323,25.573098 8.1255374,25.235677 9.6572885,24.725971 9.9169979,24.579542 9.877138,24.248092 9.8671552,24.165081 9.7705559,23.768272 9.6624734,23.366294 9.2363655,21.781526 9.2080241,21.731287 8.1290219,20.648033 6.6932257,19.20658 5.5577967,17.625141 4.1695811,15.133276 3.1051009,13.22252 1.6374028,10.05457 1.133557,8.5801741 1.0106687,8.2205684 1.0110741,8.2322623 1.1177988,8.1255374 c 0.06514,-0.06514 0.1433075,-0.085985 0.322442,-0.085985 0.1300516,0 0.2364574,-0.017306 0.2364574,-0.038458 0,-0.021152 -0.077386,-0.2313444 -0.171969,-0.4670937 C 1.3090098,7.0461681 1.2852689,6.8212193 1.4217918,6.7481544 1.5387168,6.6855778 1.6824626,6.7368706 2.0773537,6.982077 2.4286035,7.2001845 2.622528,7.2670378 2.622528,7.1700198 2.622528,7.1359188 2.4959746,6.8993225 2.3412983,6.6442502 1.9546431,6.0066279 1.8916595,5.8739781 1.8916595,5.6972657 c 0,-0.1229975 0.021889,-0.1630809 0.1113071,-0.2038223 0.1632195,-0.074368 0.3950849,0.064521 0.9213666,0.5519055 C 3.7228099,6.7848104 3.7207407,6.7098766 2.9052715,5.355046 2.6783852,4.9780943 2.4602313,4.5665151 2.4204851,4.4404255 2.3541368,4.2299443 2.3538716,4.2055192 2.4172465,4.1421442 2.5904478,3.9689429 2.8450924,4.1910936 3.706121,5.266552 4.2972707,6.0049213 4.6207645,6.356593 4.6666305,6.3107269 4.6996522,6.2777053 4.4975939,5.8823422 3.9132635,4.8366294 3.3643424,3.854285 3.0272794,3.1727032 2.8616447,2.7101304 2.7519208,2.4037014 2.7427939,2.1926053 2.8392689,2.1926053 c 0.091372,0 0.4753042,0.4041597 1.3477387,1.4187447 2.6739688,3.109653 4.6770763,4.9910976 6.6773204,6.2717592 0.385049,0.2465278 0.715578,0.5776688 1.050871,1.0528138 0.649664,0.92064 1.326968,2.245487 2.453529,4.799245 0.562971,1.276176 0.735333,1.606593 0.870117,1.668004 0.592855,0.270123 1.641191,-0.648614 3.620287,-3.172733 0.28737,-0.366509 0.588287,-0.72442 0.668704,-0.795357 0.08042,-0.07094 0.264469,-0.304939 0.409005,-0.520003 0.144537,-0.215064 0.325757,-0.444007 0.402714,-0.508761 0.132523,-0.111511 0.155467,-0.116174 0.433978,-0.0882 l 0.294057,0.02953 0.04428,-0.127022 c 0.09925,-0.284696 0.205907,-0.42356 0.429347,-0.558971 0.413174,-0.250395 0.731482,-0.162424 1.473766,0.407302 0.208757,0.160227 0.469427,0.355726 0.579268,0.434443 l 0.199711,0.14312 0.03258,-0.121624 c 0.01792,-0.06689 0.03101,-0.41389 0.02908,-0.771103 -0.0028,-0.520522 0.01038,-0.676309 0.06638,-0.784609 0.1332,-0.25758 0.266038,-0.175463 0.75558,0.467079 0.292652,0.384117 0.570027,0.644566 0.686455,0.644566 0.151075,0 0.188045,-0.161623 0.21635,-0.945829 0.02959,-0.819743 0.06207,-0.94583 0.243641,-0.94583 0.162349,0 0.346902,0.218113 0.680464,0.804202 0.495478,0.870583 0.576946,0.956938 0.671018,0.711275 0.0249,-0.06503 0.141095,-0.466466 0.258211,-0.892089 0.296377,-1.0770987 0.44896,-1.3641159 0.685304,-1.289103 0.202908,0.0644 0.296668,0.561154 0.298087,1.579301 7.17e-4,0.514457 0.0059,0.548151 0.08456,0.548151 0.139332,0 0.297621,-0.264095 0.604897,-1.009232 0.424672,-1.0298184 0.554487,-1.2063141 0.746037,-1.0143094 0.14542,0.1457644 0.120973,0.7041694 -0.07165,1.6366114 -0.144196,0.698007 -0.176884,0.89978 -0.163677,1.010318 0.0028,0.02365 0.150172,-0.179493 0.327437,-0.451419 0.328525,-0.50396 0.57713,-0.773861 0.712801,-0.773861 0.04164,0 0.115798,0.05098 0.164806,0.113279 0.131078,0.166638 0.123699,0.728145 -0.01685,1.282207 -0.3558,1.402602 -1.38041,2.588633 -2.813515,3.256763 -1.420272,0.662148 -1.735925,0.868176 -2.52199,1.646118 -1.068767,1.057722 -2.075821,2.529147 -2.942421,4.299226 -0.366484,0.748565 -0.673161,1.463494 -0.695105,1.620437 -0.01233,0.08816 0.04901,0.130487 0.54879,0.378703 0.309468,0.153697 0.692008,0.372641 0.850089,0.486542 0.841462,0.606292 1.255965,1.353599 1.303982,2.350947 0.01614,0.335259 0.0483,0.519682 0.124983,0.716705 0.126082,0.323955 0.131463,0.601635 0.01873,0.966621 -0.09956,0.322334 -0.252009,0.544612 -0.443677,0.646895 -0.22596,0.120583 -0.268698,0.100006 -0.44209,-0.212852 -0.223346,-0.402992 -0.727683,-0.893286 -1.114839,-1.083794 -0.260437,-0.128154 -0.353474,-0.15046 -0.691181,-0.165711 -0.61532,-0.02779 -1.154956,0.140297 -2.597727,0.809141 -0.98859,0.458293 -1.541698,0.677198 -1.85137,0.732717 -0.865493,0.155171 -5.692492,0.06314 -9.2539783,-0.176429 L 7.6044288,28.67081 7.3383239,28.8191 c -0.1463577,0.08156 -0.4402235,0.249848 -0.6530352,0.373973 -0.6412928,0.374043 -1.1930263,0.572431 -1.9561479,0.703375 -0.4579597,0.07858 -1.20974,0.116888 -1.4525513,0.07401 z"
     id="path2-5-2-4"
     transform="scale(0.45010125)" /></g><g
   id="g2-5-06-5"
   transform="rotate(26.646246,17.772693,1.4536961)"
   style="display:none"><path
     d="m 13.885716,5.0076582 c -0.02492,-0.02807 -0.05358,-0.04228 -0.08523,-0.04228 -0.115694,0 -0.238124,0.197993 -0.34615,0.372735 -0.04082,0.06603 -0.09455,0.152947 -0.122055,0.181871 -0.0031,-0.06662 0.03813,-0.2558 0.06922,-0.397984 0.07854,-0.359382 0.159772,-0.7309376 0.02752,-0.8173985 -0.01377,-0.00898 -0.02833,-0.013599 -0.04329,-0.013599 -0.09523,0 -0.168079,0.1731993 -0.279059,0.4557909 -0.08689,0.2211996 -0.194983,0.4965256 -0.284262,0.4965256 -0.0057,0 -0.01131,-0.0013 -0.01706,-0.0037 -0.01572,-0.03406 -0.01432,-0.190001 -0.0133,-0.304711 0.0028,-0.3005291 0.0057,-0.641114 -0.151429,-0.6665443 -0.0047,-8.183e-4 -0.0093,-0.00127 -0.01398,-0.00127 -0.135828,0 -0.215078,0.3084795 -0.298966,0.6351193 -0.04087,0.159122 -0.102634,0.399619 -0.137585,0.415875 -0.04696,-0.0114 -0.141883,-0.183364 -0.218137,-0.321552 -0.125088,-0.226601 -0.244449,-0.4397621 -0.354982,-0.428729 -0.115283,0.011687 -0.113486,0.210254 -0.111617,0.420554 0.0013,0.1727 0.0035,0.387674 -0.06772,0.434177 -0.0069,0.0045 -0.01436,0.0066 -0.02283,0.0066 -0.07917,0 -0.20931,-0.172197 -0.313894,-0.310567 -0.121942,-0.161301 -0.200108,-0.260204 -0.267606,-0.260204 -0.01669,0 -0.03242,0.0062 -0.04543,0.01813 -0.07427,0.06761 -0.07008,0.27201 -0.06562,0.488395 0.0024,0.109075 0.0057,0.271924 -0.01289,0.306388 -0.03428,-0.0057 -0.132006,-0.08451 -0.218666,-0.154307 -0.191693,-0.154481 -0.430229,-0.346794 -0.6226302,-0.346794 -0.03166,0 -0.0614,0.0054 -0.08842,0.01593 -0.208712,0.08156 -0.24875,0.201492 -0.275242,0.28087 -0.01388,0.0416 -0.02083,0.0604 -0.04008,0.07039 -0.02406,0.01243 -0.06297,0.0075 -0.105775,-3.16e-4 -0.02833,-0.0052 -0.05766,-0.01062 -0.08883,-0.01062 -0.06874,0 -0.125608,0.02848 -0.173952,0.08714 -0.04913,0.05963 -0.09306,0.130327 -0.135564,0.198672 -0.0632,0.101723 -0.122952,0.19781 -0.180501,0.224015 -0.03042,0.01385 -0.09133,0.09109 -0.262971,0.312426 -0.377466,0.486673 -1.162897,1.499433 -1.565433,1.499479 -0.07532,0 -0.1316,-0.0366 -0.172009,-0.111896 -0.06683,-0.124437 -0.16692,-0.3524 -0.293653,-0.641079 -0.400184,-0.911437 -1.00496,-2.288895 -1.51945,-2.6114929 C 3.6024698,3.6286505 2.436954,2.2572319 1.8108098,1.5204802 1.4693407,1.1186827 1.348032,0.97972649 1.2847962,0.97972649 c -0.017922,0 -0.03365,0.0099 -0.043179,0.027199 -0.018299,0.033104 -0.011719,0.084871 0.02426,0.1910862 0.1089205,0.3216044 0.3586097,0.7629101 0.5592795,1.117481 C 1.9410746,2.5203402 2.0702403,2.7486679 2.1048872,2.8442568 2.0105959,2.7913068 1.8291971,2.5586664 1.6802018,2.3675759 1.4177175,2.0310791 1.2504231,1.8267306 1.1399295,1.8267306 c -0.021109,0 -0.039774,0.00735 -0.055379,0.021751 -0.084597,0.078018 0.037008,0.2859555 0.259229,0.6467936 C 1.4323465,2.6390927 1.5627477,2.8508437 1.5791342,2.923863 1.5319544,2.9116772 1.4271854,2.8111065 1.3419844,2.7292748 1.1975528,2.590593 1.0481458,2.4471828 0.93899889,2.4471828 c -0.020936,0 -0.040151,0.00524 -0.057098,0.015471 -0.024946,0.015139 -0.041233,0.039799 -0.047148,0.071339 -0.01799,0.096271 0.064847,0.2350486 0.19333721,0.4358121 0.055975,0.087417 0.1388939,0.2170201 0.1454044,0.2632031 -0.00518,0.00125 -0.010862,0.00208 -0.016962,0.00208 -0.058446,0 -0.1440168,-0.055175 -0.22678491,-0.1085767 -0.090663,-0.058493 -0.1763127,-0.1137129 -0.2470292,-0.1137129 -0.024124,0 -0.04565,0.00654 -0.063949,0.01938 -0.080483,0.056538 -0.00771,0.2322329 0.069373,0.4181914 0.021074,0.050907 0.048495,0.1170726 0.058483,0.1519938 -0.019052,0.00334 -0.050327,0.00334 -0.072964,0.00334 -0.072776,1.332e-4 -0.1480602,2.708e-4 -0.1889578,0.050818 -0.017201,0.021209 -0.026076,0.049315 -0.0257,0.081283 0.00172,0.1206123 1.57751991,4.2209686 3.43346501,5.8012316 0.248301,0.211434 0.344615,0.5895268 0.437745,0.9551758 0.03403,0.133509 0.06612,0.259619 0.104993,0.374142 0.01398,0.0413 0.01419,0.07579 6.75e-4,0.108715 -0.05852,0.14182 -0.361155,0.236183 -0.6815609,0.336043 -0.184877,0.05767 -0.3760072,0.117252 -0.5614491,0.194904 -2.30992611,0.345035 -2.30981641,0.500614 -2.30981641,0.57545 0,0.150631 0.082545,0.222514 0.14282421,0.275011 0.060804,0.05296 0.069596,0.06798 0.058857,0.100587 -0.014083,0.04274 -0.047857,0.08669 -0.083591,0.133233 -0.077265,0.100685 -0.17346571,0.225925 -0.11573291,0.412791 0.020869,0.06752 0.089392,0.100363 0.20942531,0.100363 0.2075172,0 0.5443499,-0.09491 0.7919415,-0.175149 -0.5559488,0.38572 -0.5559868,0.456153 -0.5559868,0.481492 0,0.03427 0,0.09818 0.3198817,0.09818 0.3194354,0 0.8254301,-0.07016 1.2000904,-0.267835 0.1158459,-0.06112 0.2145519,-0.119885 0.3100054,-0.176648 0.090136,-0.05363 0.1754125,-0.104355 0.261172,-0.148268 0.9775686,0.06403 2.4822367,0.138503 3.5195977,0.138503 0.583863,0 0.951564,-0.0237 1.092778,-0.07044 0.189294,-0.06267 0.406165,-0.164386 0.635836,-0.272055 0.4237129,-0.198677 0.861835,-0.404161 1.201248,-0.404161 0.06949,0 0.1329063,0.009 0.1884713,0.02674 0.497201,0.158756 0.687433,0.636753 0.689303,0.641566 l 0.0075,0.01938 0.01706,0.0053 c 0.0031,8.18e-4 0.01896,0.0055 0.04367,0.0055 0,0 0,0 0,0 0.07157,0 0.246879,-0.041 0.32901,-0.420692 0.04828,-0.223148 -0.04587,-0.38772 -0.0809,-0.439218 0.0088,-0.121289 0.02902,-0.721354 -0.38626,-1.119883 -0.252007,-0.241857 -0.501919,-0.353024 -0.667267,-0.426639 -0.07816,-0.03477 -0.1852533,-0.08242 -0.1833813,-0.107671 0.017,-0.131415 1.0688283,-2.7416498 2.5714783,-3.3218658 1.161623,-0.44857 1.440718,-1.330591 1.5068,-1.688936 0.04045,-0.220014 0.03181,-0.415421 -0.02114,-0.475091 z"
     id="path1-3-3-0"
     style="fill:#000000;stroke-width:0.0412209" /><path
     style="fill:#ffffff;stroke-width:0.0429923"
     d="m 3.2765975,29.970453 c -0.1013538,-0.0179 -0.2149491,-0.06321 -0.252434,-0.100693 -0.061146,-0.06115 -0.061449,-0.07773 -0.00294,-0.161261 0.088637,-0.126546 0.4448435,-0.426788 0.8532277,-0.719173 0.186102,-0.133242 0.3305293,-0.250095 0.3209495,-0.259675 -0.00958,-0.0096 -0.227133,0.04306 -0.4834514,0.116985 -0.2563184,0.07392 -0.6566173,0.166032 -0.889553,0.20469 -0.372966,0.0619 -0.4447988,0.06292 -0.6017885,0.0086 -0.1457163,-0.05041 -0.1877037,-0.09051 -0.2299372,-0.219634 -0.078626,-0.240387 -0.022822,-0.439326 0.2296497,-0.818702 0.1266313,-0.190282 0.2302387,-0.36255 0.2302387,-0.382818 0,-0.02027 -0.095675,-0.142498 -0.2126119,-0.271623 C 1.9856703,27.088596 1.9215399,26.875044 2.0477733,26.733896 2.2801948,26.474013 3.3899126,26.197099 5.8039553,25.796592 7.0249003,25.594029 7.1115323,25.573098 8.1255374,25.235677 9.6572885,24.725971 9.9169979,24.579542 9.877138,24.248092 9.8671552,24.165081 9.7705559,23.768272 9.6624734,23.366294 9.2363655,21.781526 9.2080241,21.731287 8.1290219,20.648033 6.6932257,19.20658 5.5577967,17.625141 4.1695811,15.133276 3.1051009,13.22252 1.6374028,10.05457 1.133557,8.5801741 1.0106687,8.2205684 1.0110741,8.2322623 1.1177988,8.1255374 c 0.06514,-0.06514 0.1433075,-0.085985 0.322442,-0.085985 0.1300516,0 0.2364574,-0.017306 0.2364574,-0.038458 0,-0.021152 -0.077386,-0.2313444 -0.171969,-0.4670937 C 1.3090098,7.0461681 1.2852689,6.8212193 1.4217918,6.7481544 1.5387168,6.6855778 1.6824626,6.7368706 2.0773537,6.982077 2.4286035,7.2001845 2.622528,7.2670378 2.622528,7.1700198 2.622528,7.1359188 2.4959746,6.8993225 2.3412983,6.6442502 1.9546431,6.0066279 1.8916595,5.8739781 1.8916595,5.6972657 c 0,-0.1229975 0.021889,-0.1630809 0.1113071,-0.2038223 0.1632195,-0.074368 0.3950849,0.064521 0.9213666,0.5519055 C 3.7228099,6.7848104 3.7207407,6.7098766 2.9052715,5.355046 2.6783852,4.9780943 2.4602313,4.5665151 2.4204851,4.4404255 2.3541368,4.2299443 2.3538716,4.2055192 2.4172465,4.1421442 2.5904478,3.9689429 2.8450924,4.1910936 3.706121,5.266552 4.2972707,6.0049213 4.6207645,6.356593 4.6666305,6.3107269 4.6996522,6.2777053 4.4975939,5.8823422 3.9132635,4.8366294 3.3643424,3.854285 3.0272794,3.1727032 2.8616447,2.7101304 2.7519208,2.4037014 2.7427939,2.1926053 2.8392689,2.1926053 c 0.091372,0 0.4753042,0.4041597 1.3477387,1.4187447 2.6739688,3.109653 4.6770763,4.9910976 6.6773204,6.2717592 0.385049,0.2465278 0.715578,0.5776688 1.050871,1.0528138 0.649664,0.92064 1.326968,2.245487 2.453529,4.799245 0.562971,1.276176 0.735333,1.606593 0.870117,1.668004 0.592855,0.270123 1.641191,-0.648614 3.620287,-3.172733 0.28737,-0.366509 0.588287,-0.72442 0.668704,-0.795357 0.08042,-0.07094 0.264469,-0.304939 0.409005,-0.520003 0.144537,-0.215064 0.325757,-0.444007 0.402714,-0.508761 0.132523,-0.111511 0.155467,-0.116174 0.433978,-0.0882 l 0.294057,0.02953 0.04428,-0.127022 c 0.09925,-0.284696 0.205907,-0.42356 0.429347,-0.558971 0.413174,-0.250395 0.731482,-0.162424 1.473766,0.407302 0.208757,0.160227 0.469427,0.355726 0.579268,0.434443 l 0.199711,0.14312 0.03258,-0.121624 c 0.01792,-0.06689 0.03101,-0.41389 0.02908,-0.771103 -0.0028,-0.520522 0.01038,-0.676309 0.06638,-0.784609 0.1332,-0.25758 0.266038,-0.175463 0.75558,0.467079 0.292652,0.384117 0.570027,0.644566 0.686455,0.644566 0.151075,0 0.188045,-0.161623 0.21635,-0.945829 0.02959,-0.819743 0.06207,-0.94583 0.243641,-0.94583 0.162349,0 0.346902,0.218113 0.680464,0.804202 0.495478,0.870583 0.576946,0.956938 0.671018,0.711275 0.0249,-0.06503 0.141095,-0.466466 0.258211,-0.892089 0.296377,-1.0770987 0.44896,-1.3641159 0.685304,-1.289103 0.202908,0.0644 0.296668,0.561154 0.298087,1.579301 7.17e-4,0.514457 0.0059,0.548151 0.08456,0.548151 0.139332,0 0.297621,-0.264095 0.604897,-1.009232 0.424672,-1.0298184 0.554487,-1.2063141 0.746037,-1.0143094 0.14542,0.1457644 0.120973,0.7041694 -0.07165,1.6366114 -0.144196,0.698007 -0.176884,0.89978 -0.163677,1.010318 0.0028,0.02365 0.150172,-0.179493 0.327437,-0.451419 0.328525,-0.50396 0.57713,-0.773861 0.712801,-0.773861 0.04164,0 0.115798,0.05098 0.164806,0.113279 0.131078,0.166638 0.123699,0.728145 -0.01685,1.282207 -0.3558,1.402602 -1.38041,2.588633 -2.813515,3.256763 -1.420272,0.662148 -1.735925,0.868176 -2.52199,1.646118 -1.068767,1.057722 -2.075821,2.529147 -2.942421,4.299226 -0.366484,0.748565 -0.673161,1.463494 -0.695105,1.620437 -0.01233,0.08816 0.04901,0.130487 0.54879,0.378703 0.309468,0.153697 0.692008,0.372641 0.850089,0.486542 0.841462,0.606292 1.255965,1.353599 1.303982,2.350947 0.01614,0.335259 0.0483,0.519682 0.124983,0.716705 0.126082,0.323955 0.131463,0.601635 0.01873,0.966621 -0.09956,0.322334 -0.252009,0.544612 -0.443677,0.646895 -0.22596,0.120583 -0.268698,0.100006 -0.44209,-0.212852 -0.223346,-0.402992 -0.727683,-0.893286 -1.114839,-1.083794 -0.260437,-0.128154 -0.353474,-0.15046 -0.691181,-0.165711 -0.61532,-0.02779 -1.154956,0.140297 -2.597727,0.809141 -0.98859,0.458293 -1.541698,0.677198 -1.85137,0.732717 -0.865493,0.155171 -5.692492,0.06314 -9.2539783,-0.176429 L 7.6044288,28.67081 7.3383239,28.8191 c -0.1463577,0.08156 -0.4402235,0.249848 -0.6530352,0.373973 -0.6412928,0.374043 -1.1930263,0.572431 -1.9561479,0.703375 -0.4579597,0.07858 -1.20974,0.116888 -1.4525513,0.07401 z"
     id="path2-5-2-3"
     transform="scale(0.45010125)" /></g><g
   id="g2-5-06-6"
   transform="rotate(26.646246,15.720467,8.8155212)"
   style="display:none"><path
     d="m 13.885716,5.0076582 c -0.02492,-0.02807 -0.05358,-0.04228 -0.08523,-0.04228 -0.115694,0 -0.238124,0.197993 -0.34615,0.372735 -0.04082,0.06603 -0.09455,0.152947 -0.122055,0.181871 -0.0031,-0.06662 0.03813,-0.2558 0.06922,-0.397984 0.07854,-0.359382 0.159772,-0.7309376 0.02752,-0.8173985 -0.01377,-0.00898 -0.02833,-0.013599 -0.04329,-0.013599 -0.09523,0 -0.168079,0.1731993 -0.279059,0.4557909 -0.08689,0.2211996 -0.194983,0.4965256 -0.284262,0.4965256 -0.0057,0 -0.01131,-0.0013 -0.01706,-0.0037 -0.01572,-0.03406 -0.01432,-0.190001 -0.0133,-0.304711 0.0028,-0.3005291 0.0057,-0.641114 -0.151429,-0.6665443 -0.0047,-8.183e-4 -0.0093,-0.00127 -0.01398,-0.00127 -0.135828,0 -0.215078,0.3084795 -0.298966,0.6351193 -0.04087,0.159122 -0.102634,0.399619 -0.137585,0.415875 -0.04696,-0.0114 -0.141883,-0.183364 -0.218137,-0.321552 -0.125088,-0.226601 -0.244449,-0.4397621 -0.354982,-0.428729 -0.115283,0.011687 -0.113486,0.210254 -0.111617,0.420554 0.0013,0.1727 0.0035,0.387674 -0.06772,0.434177 -0.0069,0.0045 -0.01436,0.0066 -0.02283,0.0066 -0.07917,0 -0.20931,-0.172197 -0.313894,-0.310567 -0.121942,-0.161301 -0.200108,-0.260204 -0.267606,-0.260204 -0.01669,0 -0.03242,0.0062 -0.04543,0.01813 -0.07427,0.06761 -0.07008,0.27201 -0.06562,0.488395 0.0024,0.109075 0.0057,0.271924 -0.01289,0.306388 -0.03428,-0.0057 -0.132006,-0.08451 -0.218666,-0.154307 -0.191693,-0.154481 -0.430229,-0.346794 -0.6226302,-0.346794 -0.03166,0 -0.0614,0.0054 -0.08842,0.01593 -0.208712,0.08156 -0.24875,0.201492 -0.275242,0.28087 -0.01388,0.0416 -0.02083,0.0604 -0.04008,0.07039 -0.02406,0.01243 -0.06297,0.0075 -0.105775,-3.16e-4 -0.02833,-0.0052 -0.05766,-0.01062 -0.08883,-0.01062 -0.06874,0 -0.125608,0.02848 -0.173952,0.08714 -0.04913,0.05963 -0.09306,0.130327 -0.135564,0.198672 -0.0632,0.101723 -0.122952,0.19781 -0.180501,0.224015 -0.03042,0.01385 -0.09133,0.09109 -0.262971,0.312426 -0.377466,0.486673 -1.162897,1.499433 -1.565433,1.499479 -0.07532,0 -0.1316,-0.0366 -0.172009,-0.111896 -0.06683,-0.124437 -0.16692,-0.3524 -0.293653,-0.641079 -0.400184,-0.911437 -1.00496,-2.288895 -1.51945,-2.6114929 C 3.6024698,3.6286505 2.436954,2.2572319 1.8108098,1.5204802 1.4693407,1.1186827 1.348032,0.97972649 1.2847962,0.97972649 c -0.017922,0 -0.03365,0.0099 -0.043179,0.027199 -0.018299,0.033104 -0.011719,0.084871 0.02426,0.1910862 0.1089205,0.3216044 0.3586097,0.7629101 0.5592795,1.117481 C 1.9410746,2.5203402 2.0702403,2.7486679 2.1048872,2.8442568 2.0105959,2.7913068 1.8291971,2.5586664 1.6802018,2.3675759 1.4177175,2.0310791 1.2504231,1.8267306 1.1399295,1.8267306 c -0.021109,0 -0.039774,0.00735 -0.055379,0.021751 -0.084597,0.078018 0.037008,0.2859555 0.259229,0.6467936 C 1.4323465,2.6390927 1.5627477,2.8508437 1.5791342,2.923863 1.5319544,2.9116772 1.4271854,2.8111065 1.3419844,2.7292748 1.1975528,2.590593 1.0481458,2.4471828 0.93899889,2.4471828 c -0.020936,0 -0.040151,0.00524 -0.057098,0.015471 -0.024946,0.015139 -0.041233,0.039799 -0.047148,0.071339 -0.01799,0.096271 0.064847,0.2350486 0.19333721,0.4358121 0.055975,0.087417 0.1388939,0.2170201 0.1454044,0.2632031 -0.00518,0.00125 -0.010862,0.00208 -0.016962,0.00208 -0.058446,0 -0.1440168,-0.055175 -0.22678491,-0.1085767 -0.090663,-0.058493 -0.1763127,-0.1137129 -0.2470292,-0.1137129 -0.024124,0 -0.04565,0.00654 -0.063949,0.01938 -0.080483,0.056538 -0.00771,0.2322329 0.069373,0.4181914 0.021074,0.050907 0.048495,0.1170726 0.058483,0.1519938 -0.019052,0.00334 -0.050327,0.00334 -0.072964,0.00334 -0.072776,1.332e-4 -0.1480602,2.708e-4 -0.1889578,0.050818 -0.017201,0.021209 -0.026076,0.049315 -0.0257,0.081283 0.00172,0.1206123 1.57751991,4.2209686 3.43346501,5.8012316 0.248301,0.211434 0.344615,0.5895268 0.437745,0.9551758 0.03403,0.133509 0.06612,0.259619 0.104993,0.374142 0.01398,0.0413 0.01419,0.07579 6.75e-4,0.108715 -0.05852,0.14182 -0.361155,0.236183 -0.6815609,0.336043 -0.184877,0.05767 -0.3760072,0.117252 -0.5614491,0.194904 -2.30992611,0.345035 -2.30981641,0.500614 -2.30981641,0.57545 0,0.150631 0.082545,0.222514 0.14282421,0.275011 0.060804,0.05296 0.069596,0.06798 0.058857,0.100587 -0.014083,0.04274 -0.047857,0.08669 -0.083591,0.133233 -0.077265,0.100685 -0.17346571,0.225925 -0.11573291,0.412791 0.020869,0.06752 0.089392,0.100363 0.20942531,0.100363 0.2075172,0 0.5443499,-0.09491 0.7919415,-0.175149 -0.5559488,0.38572 -0.5559868,0.456153 -0.5559868,0.481492 0,0.03427 0,0.09818 0.3198817,0.09818 0.3194354,0 0.8254301,-0.07016 1.2000904,-0.267835 0.1158459,-0.06112 0.2145519,-0.119885 0.3100054,-0.176648 0.090136,-0.05363 0.1754125,-0.104355 0.261172,-0.148268 0.9775686,0.06403 2.4822367,0.138503 3.5195977,0.138503 0.583863,0 0.951564,-0.0237 1.092778,-0.07044 0.189294,-0.06267 0.406165,-0.164386 0.635836,-0.272055 0.4237129,-0.198677 0.861835,-0.404161 1.201248,-0.404161 0.06949,0 0.1329063,0.009 0.1884713,0.02674 0.497201,0.158756 0.687433,0.636753 0.689303,0.641566 l 0.0075,0.01938 0.01706,0.0053 c 0.0031,8.18e-4 0.01896,0.0055 0.04367,0.0055 0,0 0,0 0,0 0.07157,0 0.246879,-0.041 0.32901,-0.420692 0.04828,-0.223148 -0.04587,-0.38772 -0.0809,-0.439218 0.0088,-0.121289 0.02902,-0.721354 -0.38626,-1.119883 -0.252007,-0.241857 -0.501919,-0.353024 -0.667267,-0.426639 -0.07816,-0.03477 -0.1852533,-0.08242 -0.1833813,-0.107671 0.017,-0.131415 1.0688283,-2.7416498 2.5714783,-3.3218658 1.161623,-0.44857 1.440718,-1.330591 1.5068,-1.688936 0.04045,-0.220014 0.03181,-0.415421 -0.02114,-0.475091 z"
     id="path1-3-3-3"
     style="fill:#000000;stroke-width:0.0412209" /><path
     style="fill:#ffffff;stroke-width:0.0429923"
     d="m 3.2765975,29.970453 c -0.1013538,-0.0179 -0.2149491,-0.06321 -0.252434,-0.100693 -0.061146,-0.06115 -0.061449,-0.07773 -0.00294,-0.161261 0.088637,-0.126546 0.4448435,-0.426788 0.8532277,-0.719173 0.186102,-0.133242 0.3305293,-0.250095 0.3209495,-0.259675 -0.00958,-0.0096 -0.227133,0.04306 -0.4834514,0.116985 -0.2563184,0.07392 -0.6566173,0.166032 -0.889553,0.20469 -0.372966,0.0619 -0.4447988,0.06292 -0.6017885,0.0086 -0.1457163,-0.05041 -0.1877037,-0.09051 -0.2299372,-0.219634 -0.078626,-0.240387 -0.022822,-0.439326 0.2296497,-0.818702 0.1266313,-0.190282 0.2302387,-0.36255 0.2302387,-0.382818 0,-0.02027 -0.095675,-0.142498 -0.2126119,-0.271623 C 1.9856703,27.088596 1.9215399,26.875044 2.0477733,26.733896 2.2801948,26.474013 3.3899126,26.197099 5.8039553,25.796592 7.0249003,25.594029 7.1115323,25.573098 8.1255374,25.235677 9.6572885,24.725971 9.9169979,24.579542 9.877138,24.248092 9.8671552,24.165081 9.7705559,23.768272 9.6624734,23.366294 9.2363655,21.781526 9.2080241,21.731287 8.1290219,20.648033 6.6932257,19.20658 5.5577967,17.625141 4.1695811,15.133276 3.1051009,13.22252 1.6374028,10.05457 1.133557,8.5801741 1.0106687,8.2205684 1.0110741,8.2322623 1.1177988,8.1255374 c 0.06514,-0.06514 0.1433075,-0.085985 0.322442,-0.085985 0.1300516,0 0.2364574,-0.017306 0.2364574,-0.038458 0,-0.021152 -0.077386,-0.2313444 -0.171969,-0.4670937 C 1.3090098,7.0461681 1.2852689,6.8212193 1.4217918,6.7481544 1.5387168,6.6855778 1.6824626,6.7368706 2.0773537,6.982077 2.4286035,7.2001845 2.622528,7.2670378 2.622528,7.1700198 2.622528,7.1359188 2.4959746,6.8993225 2.3412983,6.6442502 1.9546431,6.0066279 1.8916595,5.8739781 1.8916595,5.6972657 c 0,-0.1229975 0.021889,-0.1630809 0.1113071,-0.2038223 0.1632195,-0.074368 0.3950849,0.064521 0.9213666,0.5519055 C 3.7228099,6.7848104 3.7207407,6.7098766 2.9052715,5.355046 2.6783852,4.9780943 2.4602313,4.5665151 2.4204851,4.4404255 2.3541368,4.2299443 2.3538716,4.2055192 2.4172465,4.1421442 2.5904478,3.9689429 2.8450924,4.1910936 3.706121,5.266552 4.2972707,6.0049213 4.6207645,6.356593 4.6666305,6.3107269 4.6996522,6.2777053 4.4975939,5.8823422 3.9132635,4.8366294 3.3643424,3.854285 3.0272794,3.1727032 2.8616447,2.7101304 2.7519208,2.4037014 2.7427939,2.1926053 2.8392689,2.1926053 c 0.091372,0 0.4753042,0.4041597 1.3477387,1.4187447 2.6739688,3.109653 4.6770763,4.9910976 6.6773204,6.2717592 0.385049,0.2465278 0.715578,0.5776688 1.050871,1.0528138 0.649664,0.92064 1.326968,2.245487 2.453529,4.799245 0.562971,1.276176 0.735333,1.606593 0.870117,1.668004 0.592855,0.270123 1.641191,-0.648614 3.620287,-3.172733 0.28737,-0.366509 0.588287,-0.72442 0.668704,-0.795357 0.08042,-0.07094 0.264469,-0.304939 0.409005,-0.520003 0.144537,-0.215064 0.325757,-0.444007 0.402714,-0.508761 0.132523,-0.111511 0.155467,-0.116174 0.433978,-0.0882 l 0.294057,0.02953 0.04428,-0.127022 c 0.09925,-0.284696 0.205907,-0.42356 0.429347,-0.558971 0.413174,-0.250395 0.731482,-0.162424 1.473766,0.407302 0.208757,0.160227 0.469427,0.355726 0.579268,0.434443 l 0.199711,0.14312 0.03258,-0.121624 c 0.01792,-0.06689 0.03101,-0.41389 0.02908,-0.771103 -0.0028,-0.520522 0.01038,-0.676309 0.06638,-0.784609 0.1332,-0.25758 0.266038,-0.175463 0.75558,0.467079 0.292652,0.384117 0.570027,0.644566 0.686455,0.644566 0.151075,0 0.188045,-0.161623 0.21635,-0.945829 0.02959,-0.819743 0.06207,-0.94583 0.243641,-0.94583 0.162349,0 0.346902,0.218113 0.680464,0.804202 0.495478,0.870583 0.576946,0.956938 0.671018,0.711275 0.0249,-0.06503 0.141095,-0.466466 0.258211,-0.892089 0.296377,-1.0770987 0.44896,-1.3641159 0.685304,-1.289103 0.202908,0.0644 0.296668,0.561154 0.298087,1.579301 7.17e-4,0.514457 0.0059,0.548151 0.08456,0.548151 0.139332,0 0.297621,-0.264095 0.604897,-1.009232 0.424672,-1.0298184 0.554487,-1.2063141 0.746037,-1.0143094 0.14542,0.1457644 0.120973,0.7041694 -0.07165,1.6366114 -0.144196,0.698007 -0.176884,0.89978 -0.163677,1.010318 0.0028,0.02365 0.150172,-0.179493 0.327437,-0.451419 0.328525,-0.50396 0.57713,-0.773861 0.712801,-0.773861 0.04164,0 0.115798,0.05098 0.164806,0.113279 0.131078,0.166638 0.123699,0.728145 -0.01685,1.282207 -0.3558,1.402602 -1.38041,2.588633 -2.813515,3.256763 -1.420272,0.662148 -1.735925,0.868176 -2.52199,1.646118 -1.068767,1.057722 -2.075821,2.529147 -2.942421,4.299226 -0.366484,0.748565 -0.673161,1.463494 -0.695105,1.620437 -0.01233,0.08816 0.04901,0.130487 0.54879,0.378703 0.309468,0.153697 0.692008,0.372641 0.850089,0.486542 0.841462,0.606292 1.255965,1.353599 1.303982,2.350947 0.01614,0.335259 0.0483,0.519682 0.124983,0.716705 0.126082,0.323955 0.131463,0.601635 0.01873,0.966621 -0.09956,0.322334 -0.252009,0.544612 -0.443677,0.646895 -0.22596,0.120583 -0.268698,0.100006 -0.44209,-0.212852 -0.223346,-0.402992 -0.727683,-0.893286 -1.114839,-1.083794 -0.260437,-0.128154 -0.353474,-0.15046 -0.691181,-0.165711 -0.61532,-0.02779 -1.154956,0.140297 -2.597727,0.809141 -0.98859,0.458293 -1.541698,0.677198 -1.85137,0.732717 -0.865493,0.155171 -5.692492,0.06314 -9.2539783,-0.176429 L 7.6044288,28.67081 7.3383239,28.8191 c -0.1463577,0.08156 -0.4402235,0.249848 -0.6530352,0.373973 -0.6412928,0.374043 -1.1930263,0.572431 -1.9561479,0.703375 -0.4579597,0.07858 -1.20974,0.116888 -1.4525513,0.07401 z"
     id="path2-5-2-2"
     transform="scale(0.45010125)" /></g><g
   id="g2-5-06-55"
   transform="rotate(26.646246,13.668241,16.177345)"
   style="display:none"><path
     d="m 13.885716,5.0076582 c -0.02492,-0.02807 -0.05358,-0.04228 -0.08523,-0.04228 -0.115694,0 -0.238124,0.197993 -0.34615,0.372735 -0.04082,0.06603 -0.09455,0.152947 -0.122055,0.181871 -0.0031,-0.06662 0.03813,-0.2558 0.06922,-0.397984 0.07854,-0.359382 0.159772,-0.7309376 0.02752,-0.8173985 -0.01377,-0.00898 -0.02833,-0.013599 -0.04329,-0.013599 -0.09523,0 -0.168079,0.1731993 -0.279059,0.4557909 -0.08689,0.2211996 -0.194983,0.4965256 -0.284262,0.4965256 -0.0057,0 -0.01131,-0.0013 -0.01706,-0.0037 -0.01572,-0.03406 -0.01432,-0.190001 -0.0133,-0.304711 0.0028,-0.3005291 0.0057,-0.641114 -0.151429,-0.6665443 -0.0047,-8.183e-4 -0.0093,-0.00127 -0.01398,-0.00127 -0.135828,0 -0.215078,0.3084795 -0.298966,0.6351193 -0.04087,0.159122 -0.102634,0.399619 -0.137585,0.415875 -0.04696,-0.0114 -0.141883,-0.183364 -0.218137,-0.321552 -0.125088,-0.226601 -0.244449,-0.4397621 -0.354982,-0.428729 -0.115283,0.011687 -0.113486,0.210254 -0.111617,0.420554 0.0013,0.1727 0.0035,0.387674 -0.06772,0.434177 -0.0069,0.0045 -0.01436,0.0066 -0.02283,0.0066 -0.07917,0 -0.20931,-0.172197 -0.313894,-0.310567 -0.121942,-0.161301 -0.200108,-0.260204 -0.267606,-0.260204 -0.01669,0 -0.03242,0.0062 -0.04543,0.01813 -0.07427,0.06761 -0.07008,0.27201 -0.06562,0.488395 0.0024,0.109075 0.0057,0.271924 -0.01289,0.306388 -0.03428,-0.0057 -0.132006,-0.08451 -0.218666,-0.154307 -0.191693,-0.154481 -0.430229,-0.346794 -0.6226302,-0.346794 -0.03166,0 -0.0614,0.0054 -0.08842,0.01593 -0.208712,0.08156 -0.24875,0.201492 -0.275242,0.28087 -0.01388,0.0416 -0.02083,0.0604 -0.04008,0.07039 -0.02406,0.01243 -0.06297,0.0075 -0.105775,-3.16e-4 -0.02833,-0.0052 -0.05766,-0.01062 -0.08883,-0.01062 -0.06874,0 -0.125608,0.02848 -0.173952,0.08714 -0.04913,0.05963 -0.09306,0.130327 -0.135564,0.198672 -0.0632,0.101723 -0.122952,0.19781 -0.180501,0.224015 -0.03042,0.01385 -0.09133,0.09109 -0.262971,0.312426 -0.377466,0.486673 -1.162897,1.499433 -1.565433,1.499479 -0.07532,0 -0.1316,-0.0366 -0.172009,-0.111896 -0.06683,-0.124437 -0.16692,-0.3524 -0.293653,-0.641079 -0.400184,-0.911437 -1.00496,-2.288895 -1.51945,-2.6114929 C 3.6024698,3.6286505 2.436954,2.2572319 1.8108098,1.5204802 1.4693407,1.1186827 1.348032,0.97972649 1.2847962,0.97972649 c -0.017922,0 -0.03365,0.0099 -0.043179,0.027199 -0.018299,0.033104 -0.011719,0.084871 0.02426,0.1910862 0.1089205,0.3216044 0.3586097,0.7629101 0.5592795,1.117481 C 1.9410746,2.5203402 2.0702403,2.7486679 2.1048872,2.8442568 2.0105959,2.7913068 1.8291971,2.5586664 1.6802018,2.3675759 1.4177175,2.0310791 1.2504231,1.8267306 1.1399295,1.8267306 c -0.021109,0 -0.039774,0.00735 -0.055379,0.021751 -0.084597,0.078018 0.037008,0.2859555 0.259229,0.6467936 C 1.4323465,2.6390927 1.5627477,2.8508437 1.5791342,2.923863 1.5319544,2.9116772 1.4271854,2.8111065 1.3419844,2.7292748 1.1975528,2.590593 1.0481458,2.4471828 0.93899889,2.4471828 c -0.020936,0 -0.040151,0.00524 -0.057098,0.015471 -0.024946,0.015139 -0.041233,0.039799 -0.047148,0.071339 -0.01799,0.096271 0.064847,0.2350486 0.19333721,0.4358121 0.055975,0.087417 0.1388939,0.2170201 0.1454044,0.2632031 -0.00518,0.00125 -0.010862,0.00208 -0.016962,0.00208 -0.058446,0 -0.1440168,-0.055175 -0.22678491,-0.1085767 -0.090663,-0.058493 -0.1763127,-0.1137129 -0.2470292,-0.1137129 -0.024124,0 -0.04565,0.00654 -0.063949,0.01938 -0.080483,0.056538 -0.00771,0.2322329 0.069373,0.4181914 0.021074,0.050907 0.048495,0.1170726 0.058483,0.1519938 -0.019052,0.00334 -0.050327,0.00334 -0.072964,0.00334 -0.072776,1.332e-4 -0.1480602,2.708e-4 -0.1889578,0.050818 -0.017201,0.021209 -0.026076,0.049315 -0.0257,0.081283 0.00172,0.1206123 1.57751991,4.2209686 3.43346501,5.8012316 0.248301,0.211434 0.344615,0.5895268 0.437745,0.9551758 0.03403,0.133509 0.06612,0.259619 0.104993,0.374142 0.01398,0.0413 0.01419,0.07579 6.75e-4,0.108715 -0.05852,0.14182 -0.361155,0.236183 -0.6815609,0.336043 -0.184877,0.05767 -0.3760072,0.117252 -0.5614491,0.194904 -2.30992611,0.345035 -2.30981641,0.500614 -2.30981641,0.57545 0,0.150631 0.082545,0.222514 0.14282421,0.275011 0.060804,0.05296 0.069596,0.06798 0.058857,0.100587 -0.014083,0.04274 -0.047857,0.08669 -0.083591,0.133233 -0.077265,0.100685 -0.17346571,0.225925 -0.11573291,0.412791 0.020869,0.06752 0.089392,0.100363 0.20942531,0.100363 0.2075172,0 0.5443499,-0.09491 0.7919415,-0.175149 -0.5559488,0.38572 -0.5559868,0.456153 -0.5559868,0.481492 0,0.03427 0,0.09818 0.3198817,0.09818 0.3194354,0 0.8254301,-0.07016 1.2000904,-0.267835 0.1158459,-0.06112 0.2145519,-0.119885 0.3100054,-0.176648 0.090136,-0.05363 0.1754125,-0.104355 0.261172,-0.148268 0.9775686,0.06403 2.4822367,0.138503 3.5195977,0.138503 0.583863,0 0.951564,-0.0237 1.092778,-0.07044 0.189294,-0.06267 0.406165,-0.164386 0.635836,-0.272055 0.4237129,-0.198677 0.861835,-0.404161 1.201248,-0.404161 0.06949,0 0.1329063,0.009 0.1884713,0.02674 0.497201,0.158756 0.687433,0.636753 0.689303,0.641566 l 0.0075,0.01938 0.01706,0.0053 c 0.0031,8.18e-4 0.01896,0.0055 0.04367,0.0055 0,0 0,0 0,0 0.07157,0 0.246879,-0.041 0.32901,-0.420692 0.04828,-0.223148 -0.04587,-0.38772 -0.0809,-0.439218 0.0088,-0.121289 0.02902,-0.721354 -0.38626,-1.119883 -0.252007,-0.241857 -0.501919,-0.353024 -0.667267,-0.426639 -0.07816,-0.03477 -0.1852533,-0.08242 -0.1833813,-0.107671 0.017,-0.131415 1.0688283,-2.7416498 2.5714783,-3.3218658 1.161623,-0.44857 1.440718,-1.330591 1.5068,-1.688936 0.04045,-0.220014 0.03181,-0.415421 -0.02114,-0.475091 z"
     id="path1-3-3-4"
     style="fill:#000000;stroke-width:0.0412209" /><path
     style="fill:#ffffff;stroke-width:0.0429923"
     d="m 3.2765975,29.970453 c -0.1013538,-0.0179 -0.2149491,-0.06321 -0.252434,-0.100693 -0.061146,-0.06115 -0.061449,-0.07773 -0.00294,-0.161261 0.088637,-0.126546 0.4448435,-0.426788 0.8532277,-0.719173 0.186102,-0.133242 0.3305293,-0.250095 0.3209495,-0.259675 -0.00958,-0.0096 -0.227133,0.04306 -0.4834514,0.116985 -0.2563184,0.07392 -0.6566173,0.166032 -0.889553,0.20469 -0.372966,0.0619 -0.4447988,0.06292 -0.6017885,0.0086 -0.1457163,-0.05041 -0.1877037,-0.09051 -0.2299372,-0.219634 -0.078626,-0.240387 -0.022822,-0.439326 0.2296497,-0.818702 0.1266313,-0.190282 0.2302387,-0.36255 0.2302387,-0.382818 0,-0.02027 -0.095675,-0.142498 -0.2126119,-0.271623 C 1.9856703,27.088596 1.9215399,26.875044 2.0477733,26.733896 2.2801948,26.474013 3.3899126,26.197099 5.8039553,25.796592 7.0249003,25.594029 7.1115323,25.573098 8.1255374,25.235677 9.6572885,24.725971 9.9169979,24.579542 9.877138,24.248092 9.8671552,24.165081 9.7705559,23.768272 9.6624734,23.366294 9.2363655,21.781526 9.2080241,21.731287 8.1290219,20.648033 6.6932257,19.20658 5.5577967,17.625141 4.1695811,15.133276 3.1051009,13.22252 1.6374028,10.05457 1.133557,8.5801741 1.0106687,8.2205684 1.0110741,8.2322623 1.1177988,8.1255374 c 0.06514,-0.06514 0.1433075,-0.085985 0.322442,-0.085985 0.1300516,0 0.2364574,-0.017306 0.2364574,-0.038458 0,-0.021152 -0.077386,-0.2313444 -0.171969,-0.4670937 C 1.3090098,7.0461681 1.2852689,6.8212193 1.4217918,6.7481544 1.5387168,6.6855778 1.6824626,6.7368706 2.0773537,6.982077 2.4286035,7.2001845 2.622528,7.2670378 2.622528,7.1700198 2.622528,7.1359188 2.4959746,6.8993225 2.3412983,6.6442502 1.9546431,6.0066279 1.8916595,5.8739781 1.8916595,5.6972657 c 0,-0.1229975 0.021889,-0.1630809 0.1113071,-0.2038223 0.1632195,-0.074368 0.3950849,0.064521 0.9213666,0.5519055 C 3.7228099,6.7848104 3.7207407,6.7098766 2.9052715,5.355046 2.6783852,4.9780943 2.4602313,4.5665151 2.4204851,4.4404255 2.3541368,4.2299443 2.3538716,4.2055192 2.4172465,4.1421442 2.5904478,3.9689429 2.8450924,4.1910936 3.706121,5.266552 4.2972707,6.0049213 4.6207645,6.356593 4.6666305,6.3107269 4.6996522,6.2777053 4.4975939,5.8823422 3.9132635,4.8366294 3.3643424,3.854285 3.0272794,3.1727032 2.8616447,2.7101304 2.7519208,2.4037014 2.7427939,2.1926053 2.8392689,2.1926053 c 0.091372,0 0.4753042,0.4041597 1.3477387,1.4187447 2.6739688,3.109653 4.6770763,4.9910976 6.6773204,6.2717592 0.385049,0.2465278 0.715578,0.5776688 1.050871,1.0528138 0.649664,0.92064 1.326968,2.245487 2.453529,4.799245 0.562971,1.276176 0.735333,1.606593 0.870117,1.668004 0.592855,0.270123 1.641191,-0.648614 3.620287,-3.172733 0.28737,-0.366509 0.588287,-0.72442 0.668704,-0.795357 0.08042,-0.07094 0.264469,-0.304939 0.409005,-0.520003 0.144537,-0.215064 0.325757,-0.444007 0.402714,-0.508761 0.132523,-0.111511 0.155467,-0.116174 0.433978,-0.0882 l 0.294057,0.02953 0.04428,-0.127022 c 0.09925,-0.284696 0.205907,-0.42356 0.429347,-0.558971 0.413174,-0.250395 0.731482,-0.162424 1.473766,0.407302 0.208757,0.160227 0.469427,0.355726 0.579268,0.434443 l 0.199711,0.14312 0.03258,-0.121624 c 0.01792,-0.06689 0.03101,-0.41389 0.02908,-0.771103 -0.0028,-0.520522 0.01038,-0.676309 0.06638,-0.784609 0.1332,-0.25758 0.266038,-0.175463 0.75558,0.467079 0.292652,0.384117 0.570027,0.644566 0.686455,0.644566 0.151075,0 0.188045,-0.161623 0.21635,-0.945829 0.02959,-0.819743 0.06207,-0.94583 0.243641,-0.94583 0.162349,0 0.346902,0.218113 0.680464,0.804202 0.495478,0.870583 0.576946,0.956938 0.671018,0.711275 0.0249,-0.06503 0.141095,-0.466466 0.258211,-0.892089 0.296377,-1.0770987 0.44896,-1.3641159 0.685304,-1.289103 0.202908,0.0644 0.296668,0.561154 0.298087,1.579301 7.17e-4,0.514457 0.0059,0.548151 0.08456,0.548151 0.139332,0 0.297621,-0.264095 0.604897,-1.009232 0.424672,-1.0298184 0.554487,-1.2063141 0.746037,-1.0143094 0.14542,0.1457644 0.120973,0.7041694 -0.07165,1.6366114 -0.144196,0.698007 -0.176884,0.89978 -0.163677,1.010318 0.0028,0.02365 0.150172,-0.179493 0.327437,-0.451419 0.328525,-0.50396 0.57713,-0.773861 0.712801,-0.773861 0.04164,0 0.115798,0.05098 0.164806,0.113279 0.131078,0.166638 0.123699,0.728145 -0.01685,1.282207 -0.3558,1.402602 -1.38041,2.588633 -2.813515,3.256763 -1.420272,0.662148 -1.735925,0.868176 -2.52199,1.646118 -1.068767,1.057722 -2.075821,2.529147 -2.942421,4.299226 -0.366484,0.748565 -0.673161,1.463494 -0.695105,1.620437 -0.01233,0.08816 0.04901,0.130487 0.54879,0.378703 0.309468,0.153697 0.692008,0.372641 0.850089,0.486542 0.841462,0.606292 1.255965,1.353599 1.303982,2.350947 0.01614,0.335259 0.0483,0.519682 0.124983,0.716705 0.126082,0.323955 0.131463,0.601635 0.01873,0.966621 -0.09956,0.322334 -0.252009,0.544612 -0.443677,0.646895 -0.22596,0.120583 -0.268698,0.100006 -0.44209,-0.212852 -0.223346,-0.402992 -0.727683,-0.893286 -1.114839,-1.083794 -0.260437,-0.128154 -0.353474,-0.15046 -0.691181,-0.165711 -0.61532,-0.02779 -1.154956,0.140297 -2.597727,0.809141 -0.98859,0.458293 -1.541698,0.677198 -1.85137,0.732717 -0.865493,0.155171 -5.692492,0.06314 -9.2539783,-0.176429 L 7.6044288,28.67081 7.3383239,28.8191 c -0.1463577,0.08156 -0.4402235,0.249848 -0.6530352,0.373973 -0.6412928,0.374043 -1.1930263,0.572431 -1.9561479,0.703375 -0.4579597,0.07858 -1.20974,0.116888 -1.4525513,0.07401 z"
     id="path2-5-2-7"
     transform="scale(0.45010125)" /></g><g
   id="g2-5-06-9"
   transform="rotate(26.646246,11.134641,23.225356)"
   style="display:inline"><path
     d="m 13.885716,5.0076582 c -0.02492,-0.02807 -0.05358,-0.04228 -0.08523,-0.04228 -0.115694,0 -0.238124,0.197993 -0.34615,0.372735 -0.04082,0.06603 -0.09455,0.152947 -0.122055,0.181871 -0.0031,-0.06662 0.03813,-0.2558 0.06922,-0.397984 0.07854,-0.359382 0.159772,-0.7309376 0.02752,-0.8173985 -0.01377,-0.00898 -0.02833,-0.013599 -0.04329,-0.013599 -0.09523,0 -0.168079,0.1731993 -0.279059,0.4557909 -0.08689,0.2211996 -0.194983,0.4965256 -0.284262,0.4965256 -0.0057,0 -0.01131,-0.0013 -0.01706,-0.0037 -0.01572,-0.03406 -0.01432,-0.190001 -0.0133,-0.304711 0.0028,-0.3005291 0.0057,-0.641114 -0.151429,-0.6665443 -0.0047,-8.183e-4 -0.0093,-0.00127 -0.01398,-0.00127 -0.135828,0 -0.215078,0.3084795 -0.298966,0.6351193 -0.04087,0.159122 -0.102634,0.399619 -0.137585,0.415875 -0.04696,-0.0114 -0.141883,-0.183364 -0.218137,-0.321552 -0.125088,-0.226601 -0.244449,-0.4397621 -0.354982,-0.428729 -0.115283,0.011687 -0.113486,0.210254 -0.111617,0.420554 0.0013,0.1727 0.0035,0.387674 -0.06772,0.434177 -0.0069,0.0045 -0.01436,0.0066 -0.02283,0.0066 -0.07917,0 -0.20931,-0.172197 -0.313894,-0.310567 -0.121942,-0.161301 -0.200108,-0.260204 -0.267606,-0.260204 -0.01669,0 -0.03242,0.0062 -0.04543,0.01813 -0.07427,0.06761 -0.07008,0.27201 -0.06562,0.488395 0.0024,0.109075 0.0057,0.271924 -0.01289,0.306388 -0.03428,-0.0057 -0.132006,-0.08451 -0.218666,-0.154307 -0.191693,-0.154481 -0.430229,-0.346794 -0.6226302,-0.346794 -0.03166,0 -0.0614,0.0054 -0.08842,0.01593 -0.208712,0.08156 -0.24875,0.201492 -0.275242,0.28087 -0.01388,0.0416 -0.02083,0.0604 -0.04008,0.07039 -0.02406,0.01243 -0.06297,0.0075 -0.105775,-3.16e-4 -0.02833,-0.0052 -0.05766,-0.01062 -0.08883,-0.01062 -0.06874,0 -0.125608,0.02848 -0.173952,0.08714 -0.04913,0.05963 -0.09306,0.130327 -0.135564,0.198672 -0.0632,0.101723 -0.122952,0.19781 -0.180501,0.224015 -0.03042,0.01385 -0.09133,0.09109 -0.262971,0.312426 -0.377466,0.486673 -1.162897,1.499433 -1.565433,1.499479 -0.07532,0 -0.1316,-0.0366 -0.172009,-0.111896 -0.06683,-0.124437 -0.16692,-0.3524 -0.293653,-0.641079 -0.400184,-0.911437 -1.00496,-2.288895 -1.51945,-2.6114929 C 3.6024698,3.6286505 2.436954,2.2572319 1.8108098,1.5204802 1.4693407,1.1186827 1.348032,0.97972649 1.2847962,0.97972649 c -0.017922,0 -0.03365,0.0099 -0.043179,0.027199 -0.018299,0.033104 -0.011719,0.084871 0.02426,0.1910862 0.1089205,0.3216044 0.3586097,0.7629101 0.5592795,1.117481 C 1.9410746,2.5203402 2.0702403,2.7486679 2.1048872,2.8442568 2.0105959,2.7913068 1.8291971,2.5586664 1.6802018,2.3675759 1.4177175,2.0310791 1.2504231,1.8267306 1.1399295,1.8267306 c -0.021109,0 -0.039774,0.00735 -0.055379,0.021751 -0.084597,0.078018 0.037008,0.2859555 0.259229,0.6467936 C 1.4323465,2.6390927 1.5627477,2.8508437 1.5791342,2.923863 1.5319544,2.9116772 1.4271854,2.8111065 1.3419844,2.7292748 1.1975528,2.590593 1.0481458,2.4471828 0.93899889,2.4471828 c -0.020936,0 -0.040151,0.00524 -0.057098,0.015471 -0.024946,0.015139 -0.041233,0.039799 -0.047148,0.071339 -0.01799,0.096271 0.064847,0.2350486 0.19333721,0.4358121 0.055975,0.087417 0.1388939,0.2170201 0.1454044,0.2632031 -0.00518,0.00125 -0.010862,0.00208 -0.016962,0.00208 -0.058446,0 -0.1440168,-0.055175 -0.22678491,-0.1085767 -0.090663,-0.058493 -0.1763127,-0.1137129 -0.2470292,-0.1137129 -0.024124,0 -0.04565,0.00654 -0.063949,0.01938 -0.080483,0.056538 -0.00771,0.2322329 0.069373,0.4181914 0.021074,0.050907 0.048495,0.1170726 0.058483,0.1519938 -0.019052,0.00334 -0.050327,0.00334 -0.072964,0.00334 -0.072776,1.332e-4 -0.1480602,2.708e-4 -0.1889578,0.050818 -0.017201,0.021209 -0.026076,0.049315 -0.0257,0.081283 0.00172,0.1206123 1.57751991,4.2209686 3.43346501,5.8012316 0.248301,0.211434 0.344615,0.5895268 0.437745,0.9551758 0.03403,0.133509 0.06612,0.259619 0.104993,0.374142 0.01398,0.0413 0.01419,0.07579 6.75e-4,0.108715 -0.05852,0.14182 -0.361155,0.236183 -0.6815609,0.336043 -0.184877,0.05767 -0.3760072,0.117252 -0.5614491,0.194904 -2.30992611,0.345035 -2.30981641,0.500614 -2.30981641,0.57545 0,0.150631 0.082545,0.222514 0.14282421,0.275011 0.060804,0.05296 0.069596,0.06798 0.058857,0.100587 -0.014083,0.04274 -0.047857,0.08669 -0.083591,0.133233 -0.077265,0.100685 -0.17346571,0.225925 -0.11573291,0.412791 0.020869,0.06752 0.089392,0.100363 0.20942531,0.100363 0.2075172,0 0.5443499,-0.09491 0.7919415,-0.175149 -0.5559488,0.38572 -0.5559868,0.456153 -0.5559868,0.481492 0,0.03427 0,0.09818 0.3198817,0.09818 0.3194354,0 0.8254301,-0.07016 1.2000904,-0.267835 0.1158459,-0.06112 0.2145519,-0.119885 0.3100054,-0.176648 0.090136,-0.05363 0.1754125,-0.104355 0.261172,-0.148268 0.9775686,0.06403 2.4822367,0.138503 3.5195977,0.138503 0.583863,0 0.951564,-0.0237 1.092778,-0.07044 0.189294,-0.06267 0.406165,-0.164386 0.635836,-0.272055 0.4237129,-0.198677 0.861835,-0.404161 1.201248,-0.404161 0.06949,0 0.1329063,0.009 0.1884713,0.02674 0.497201,0.158756 0.687433,0.636753 0.689303,0.641566 l 0.0075,0.01938 0.01706,0.0053 c 0.0031,8.18e-4 0.01896,0.0055 0.04367,0.0055 0,0 0,0 0,0 0.07157,0 0.246879,-0.041 0.32901,-0.420692 0.04828,-0.223148 -0.04587,-0.38772 -0.0809,-0.439218 0.0088,-0.121289 0.02902,-0.721354 -0.38626,-1.119883 -0.252007,-0.241857 -0.501919,-0.353024 -0.667267,-0.426639 -0.07816,-0.03477 -0.1852533,-0.08242 -0.1833813,-0.107671 0.017,-0.131415 1.0688283,-2.7416498 2.5714783,-3.3218658 1.161623,-0.44857 1.440718,-1.330591 1.5068,-1.688936 0.04045,-0.220014 0.03181,-0.415421 -0.02114,-0.475091 z"
     id="path1-3-3-37"
     style="fill:#000000;stroke-width:0.0412209" /><path
     style="fill:#ffffff;stroke-width:0.0429923"
     d="m 3.2765975,29.970453 c -0.1013538,-0.0179 -0.2149491,-0.06321 -0.252434,-0.100693 -0.061146,-0.06115 -0.061449,-0.07773 -0.00294,-0.161261 0.088637,-0.126546 0.4448435,-0.426788 0.8532277,-0.719173 0.186102,-0.133242 0.3305293,-0.250095 0.3209495,-0.259675 -0.00958,-0.0096 -0.227133,0.04306 -0.4834514,0.116985 -0.2563184,0.07392 -0.6566173,0.166032 -0.889553,0.20469 -0.372966,0.0619 -0.4447988,0.06292 -0.6017885,0.0086 -0.1457163,-0.05041 -0.1877037,-0.09051 -0.2299372,-0.219634 -0.078626,-0.240387 -0.022822,-0.439326 0.2296497,-0.818702 0.1266313,-0.190282 0.2302387,-0.36255 0.2302387,-0.382818 0,-0.02027 -0.095675,-0.142498 -0.2126119,-0.271623 C 1.9856703,27.088596 1.9215399,26.875044 2.0477733,26.733896 2.2801948,26.474013 3.3899126,26.197099 5.8039553,25.796592 7.0249003,25.594029 7.1115323,25.573098 8.1255374,25.235677 9.6572885,24.725971 9.9169979,24.579542 9.877138,24.248092 9.8671552,24.165081 9.7705559,23.768272 9.6624734,23.366294 9.2363655,21.781526 9.2080241,21.731287 8.1290219,20.648033 6.6932257,19.20658 5.5577967,17.625141 4.1695811,15.133276 3.1051009,13.22252 1.6374028,10.05457 1.133557,8.5801741 1.0106687,8.2205684 1.0110741,8.2322623 1.1177988,8.1255374 c 0.06514,-0.06514 0.1433075,-0.085985 0.322442,-0.085985 0.1300516,0 0.2364574,-0.017306 0.2364574,-0.038458 0,-0.021152 -0.077386,-0.2313444 -0.171969,-0.4670937 C 1.3090098,7.0461681 1.2852689,6.8212193 1.4217918,6.7481544 1.5387168,6.6855778 1.6824626,6.7368706 2.0773537,6.982077 2.4286035,7.2001845 2.622528,7.2670378 2.622528,7.1700198 2.622528,7.1359188 2.4959746,6.8993225 2.3412983,6.6442502 1.9546431,6.0066279 1.8916595,5.8739781 1.8916595,5.6972657 c 0,-0.1229975 0.021889,-0.1630809 0.1113071,-0.2038223 0.1632195,-0.074368 0.3950849,0.064521 0.9213666,0.5519055 C 3.7228099,6.7848104 3.7207407,6.7098766 2.9052715,5.355046 2.6783852,4.9780943 2.4602313,4.5665151 2.4204851,4.4404255 2.3541368,4.2299443 2.3538716,4.2055192 2.4172465,4.1421442 2.5904478,3.9689429 2.8450924,4.1910936 3.706121,5.266552 4.2972707,6.0049213 4.6207645,6.356593 4.6666305,6.3107269 4.6996522,6.2777053 4.4975939,5.8823422 3.9132635,4.8366294 3.3643424,3.854285 3.0272794,3.1727032 2.8616447,2.7101304 2.7519208,2.4037014 2.7427939,2.1926053 2.8392689,2.1926053 c 0.091372,0 0.4753042,0.4041597 1.3477387,1.4187447 2.6739688,3.109653 4.6770763,4.9910976 6.6773204,6.2717592 0.385049,0.2465278 0.715578,0.5776688 1.050871,1.0528138 0.649664,0.92064 1.326968,2.245487 2.453529,4.799245 0.562971,1.276176 0.735333,1.606593 0.870117,1.668004 0.592855,0.270123 1.641191,-0.648614 3.620287,-3.172733 0.28737,-0.366509 0.588287,-0.72442 0.668704,-0.795357 0.08042,-0.07094 0.264469,-0.304939 0.409005,-0.520003 0.144537,-0.215064 0.325757,-0.444007 0.402714,-0.508761 0.132523,-0.111511 0.155467,-0.116174 0.433978,-0.0882 l 0.294057,0.02953 0.04428,-0.127022 c 0.09925,-0.284696 0.205907,-0.42356 0.429347,-0.558971 0.413174,-0.250395 0.731482,-0.162424 1.473766,0.407302 0.208757,0.160227 0.469427,0.355726 0.579268,0.434443 l 0.199711,0.14312 0.03258,-0.121624 c 0.01792,-0.06689 0.03101,-0.41389 0.02908,-0.771103 -0.0028,-0.520522 0.01038,-0.676309 0.06638,-0.784609 0.1332,-0.25758 0.266038,-0.175463 0.75558,0.467079 0.292652,0.384117 0.570027,0.644566 0.686455,0.644566 0.151075,0 0.188045,-0.161623 0.21635,-0.945829 0.02959,-0.819743 0.06207,-0.94583 0.243641,-0.94583 0.162349,0 0.346902,0.218113 0.680464,0.804202 0.495478,0.870583 0.576946,0.956938 0.671018,0.711275 0.0249,-0.06503 0.141095,-0.466466 0.258211,-0.892089 0.296377,-1.0770987 0.44896,-1.3641159 0.685304,-1.289103 0.202908,0.0644 0.296668,0.561154 0.298087,1.579301 7.17e-4,0.514457 0.0059,0.548151 0.08456,0.548151 0.139332,0 0.297621,-0.264095 0.604897,-1.009232 0.424672,-1.0298184 0.554487,-1.2063141 0.746037,-1.0143094 0.14542,0.1457644 0.120973,0.7041694 -0.07165,1.6366114 -0.144196,0.698007 -0.176884,0.89978 -0.163677,1.010318 0.0028,0.02365 0.150172,-0.179493 0.327437,-0.451419 0.328525,-0.50396 0.57713,-0.773861 0.712801,-0.773861 0.04164,0 0.115798,0.05098 0.164806,0.113279 0.131078,0.166638 0.123699,0.728145 -0.01685,1.282207 -0.3558,1.402602 -1.38041,2.588633 -2.813515,3.256763 -1.420272,0.662148 -1.735925,0.868176 -2.52199,1.646118 -1.068767,1.057722 -2.075821,2.529147 -2.942421,4.299226 -0.366484,0.748565 -0.673161,1.463494 -0.695105,1.620437 -0.01233,0.08816 0.04901,0.130487 0.54879,0.378703 0.309468,0.153697 0.692008,0.372641 0.850089,0.486542 0.841462,0.606292 1.255965,1.353599 1.303982,2.350947 0.01614,0.335259 0.0483,0.519682 0.124983,0.716705 0.126082,0.323955 0.131463,0.601635 0.01873,0.966621 -0.09956,0.322334 -0.252009,0.544612 -0.443677,0.646895 -0.22596,0.120583 -0.268698,0.100006 -0.44209,-0.212852 -0.223346,-0.402992 -0.727683,-0.893286 -1.114839,-1.083794 -0.260437,-0.128154 -0.353474,-0.15046 -0.691181,-0.165711 -0.61532,-0.02779 -1.154956,0.140297 -2.597727,0.809141 -0.98859,0.458293 -1.541698,0.677198 -1.85137,0.732717 -0.865493,0.155171 -5.692492,0.06314 -9.2539783,-0.176429 L 7.6044288,28.67081 7.3383239,28.8191 c -0.1463577,0.08156 -0.4402235,0.249848 -0.6530352,0.373973 -0.6412928,0.374043 -1.1930263,0.572431 -1.9561479,0.703375 -0.4579597,0.07858 -1.20974,0.116888 -1.4525513,0.07401 z"
     id="path2-5-2-45"
     transform="scale(0.45010125)" /></g><g
   id="g2-5-06-9-8"
   transform="rotate(26.646246,8.6215596,29.929582)"
   style="display:none"><path
     d="m 13.885716,5.0076582 c -0.02492,-0.02807 -0.05358,-0.04228 -0.08523,-0.04228 -0.115694,0 -0.238124,0.197993 -0.34615,0.372735 -0.04082,0.06603 -0.09455,0.152947 -0.122055,0.181871 -0.0031,-0.06662 0.03813,-0.2558 0.06922,-0.397984 0.07854,-0.359382 0.159772,-0.7309376 0.02752,-0.8173985 -0.01377,-0.00898 -0.02833,-0.013599 -0.04329,-0.013599 -0.09523,0 -0.168079,0.1731993 -0.279059,0.4557909 -0.08689,0.2211996 -0.194983,0.4965256 -0.284262,0.4965256 -0.0057,0 -0.01131,-0.0013 -0.01706,-0.0037 -0.01572,-0.03406 -0.01432,-0.190001 -0.0133,-0.304711 0.0028,-0.3005291 0.0057,-0.641114 -0.151429,-0.6665443 -0.0047,-8.183e-4 -0.0093,-0.00127 -0.01398,-0.00127 -0.135828,0 -0.215078,0.3084795 -0.298966,0.6351193 -0.04087,0.159122 -0.102634,0.399619 -0.137585,0.415875 -0.04696,-0.0114 -0.141883,-0.183364 -0.218137,-0.321552 -0.125088,-0.226601 -0.244449,-0.4397621 -0.354982,-0.428729 -0.115283,0.011687 -0.113486,0.210254 -0.111617,0.420554 0.0013,0.1727 0.0035,0.387674 -0.06772,0.434177 -0.0069,0.0045 -0.01436,0.0066 -0.02283,0.0066 -0.07917,0 -0.20931,-0.172197 -0.313894,-0.310567 -0.121942,-0.161301 -0.200108,-0.260204 -0.267606,-0.260204 -0.01669,0 -0.03242,0.0062 -0.04543,0.01813 -0.07427,0.06761 -0.07008,0.27201 -0.06562,0.488395 0.0024,0.109075 0.0057,0.271924 -0.01289,0.306388 -0.03428,-0.0057 -0.132006,-0.08451 -0.218666,-0.154307 -0.191693,-0.154481 -0.430229,-0.346794 -0.6226302,-0.346794 -0.03166,0 -0.0614,0.0054 -0.08842,0.01593 -0.208712,0.08156 -0.24875,0.201492 -0.275242,0.28087 -0.01388,0.0416 -0.02083,0.0604 -0.04008,0.07039 -0.02406,0.01243 -0.06297,0.0075 -0.105775,-3.16e-4 -0.02833,-0.0052 -0.05766,-0.01062 -0.08883,-0.01062 -0.06874,0 -0.125608,0.02848 -0.173952,0.08714 -0.04913,0.05963 -0.09306,0.130327 -0.135564,0.198672 -0.0632,0.101723 -0.122952,0.19781 -0.180501,0.224015 -0.03042,0.01385 -0.09133,0.09109 -0.262971,0.312426 -0.377466,0.486673 -1.162897,1.499433 -1.565433,1.499479 -0.07532,0 -0.1316,-0.0366 -0.172009,-0.111896 -0.06683,-0.124437 -0.16692,-0.3524 -0.293653,-0.641079 -0.400184,-0.911437 -1.00496,-2.288895 -1.51945,-2.6114929 C 3.6024698,3.6286505 2.436954,2.2572319 1.8108098,1.5204802 1.4693407,1.1186827 1.348032,0.97972649 1.2847962,0.97972649 c -0.017922,0 -0.03365,0.0099 -0.043179,0.027199 -0.018299,0.033104 -0.011719,0.084871 0.02426,0.1910862 0.1089205,0.3216044 0.3586097,0.7629101 0.5592795,1.117481 C 1.9410746,2.5203402 2.0702403,2.7486679 2.1048872,2.8442568 2.0105959,2.7913068 1.8291971,2.5586664 1.6802018,2.3675759 1.4177175,2.0310791 1.2504231,1.8267306 1.1399295,1.8267306 c -0.021109,0 -0.039774,0.00735 -0.055379,0.021751 -0.084597,0.078018 0.037008,0.2859555 0.259229,0.6467936 C 1.4323465,2.6390927 1.5627477,2.8508437 1.5791342,2.923863 1.5319544,2.9116772 1.4271854,2.8111065 1.3419844,2.7292748 1.1975528,2.590593 1.0481458,2.4471828 0.93899889,2.4471828 c -0.020936,0 -0.040151,0.00524 -0.057098,0.015471 -0.024946,0.015139 -0.041233,0.039799 -0.047148,0.071339 -0.01799,0.096271 0.064847,0.2350486 0.19333721,0.4358121 0.055975,0.087417 0.1388939,0.2170201 0.1454044,0.2632031 -0.00518,0.00125 -0.010862,0.00208 -0.016962,0.00208 -0.058446,0 -0.1440168,-0.055175 -0.22678491,-0.1085767 -0.090663,-0.058493 -0.1763127,-0.1137129 -0.2470292,-0.1137129 -0.024124,0 -0.04565,0.00654 -0.063949,0.01938 -0.080483,0.056538 -0.00771,0.2322329 0.069373,0.4181914 0.021074,0.050907 0.048495,0.1170726 0.058483,0.1519938 -0.019052,0.00334 -0.050327,0.00334 -0.072964,0.00334 -0.072776,1.332e-4 -0.1480602,2.708e-4 -0.1889578,0.050818 -0.017201,0.021209 -0.026076,0.049315 -0.0257,0.081283 0.00172,0.1206123 1.57751991,4.2209686 3.43346501,5.8012316 0.248301,0.211434 0.344615,0.5895268 0.437745,0.9551758 0.03403,0.133509 0.06612,0.259619 0.104993,0.374142 0.01398,0.0413 0.01419,0.07579 6.75e-4,0.108715 -0.05852,0.14182 -0.361155,0.236183 -0.6815609,0.336043 -0.184877,0.05767 -0.3760072,0.117252 -0.5614491,0.194904 -2.30992611,0.345035 -2.30981641,0.500614 -2.30981641,0.57545 0,0.150631 0.082545,0.222514 0.14282421,0.275011 0.060804,0.05296 0.069596,0.06798 0.058857,0.100587 -0.014083,0.04274 -0.047857,0.08669 -0.083591,0.133233 -0.077265,0.100685 -0.17346571,0.225925 -0.11573291,0.412791 0.020869,0.06752 0.089392,0.100363 0.20942531,0.100363 0.2075172,0 0.5443499,-0.09491 0.7919415,-0.175149 -0.5559488,0.38572 -0.5559868,0.456153 -0.5559868,0.481492 0,0.03427 0,0.09818 0.3198817,0.09818 0.3194354,0 0.8254301,-0.07016 1.2000904,-0.267835 0.1158459,-0.06112 0.2145519,-0.119885 0.3100054,-0.176648 0.090136,-0.05363 0.1754125,-0.104355 0.261172,-0.148268 0.9775686,0.06403 2.4822367,0.138503 3.5195977,0.138503 0.583863,0 0.951564,-0.0237 1.092778,-0.07044 0.189294,-0.06267 0.406165,-0.164386 0.635836,-0.272055 0.4237129,-0.198677 0.861835,-0.404161 1.201248,-0.404161 0.06949,0 0.1329063,0.009 0.1884713,0.02674 0.497201,0.158756 0.687433,0.636753 0.689303,0.641566 l 0.0075,0.01938 0.01706,0.0053 c 0.0031,8.18e-4 0.01896,0.0055 0.04367,0.0055 0,0 0,0 0,0 0.07157,0 0.246879,-0.041 0.32901,-0.420692 0.04828,-0.223148 -0.04587,-0.38772 -0.0809,-0.439218 0.0088,-0.121289 0.02902,-0.721354 -0.38626,-1.119883 -0.252007,-0.241857 -0.501919,-0.353024 -0.667267,-0.426639 -0.07816,-0.03477 -0.1852533,-0.08242 -0.1833813,-0.107671 0.017,-0.131415 1.0688283,-2.7416498 2.5714783,-3.3218658 1.161623,-0.44857 1.440718,-1.330591 1.5068,-1.688936 0.04045,-0.220014 0.03181,-0.415421 -0.02114,-0.475091 z"
     id="path1-3-3-37-8"
     style="fill:#000000;stroke-width:0.0412209" /><path
     style="fill:#ffffff;stroke-width:0.0429923"
     d="m 3.2765975,29.970453 c -0.1013538,-0.0179 -0.2149491,-0.06321 -0.252434,-0.100693 -0.061146,-0.06115 -0.061449,-0.07773 -0.00294,-0.161261 0.088637,-0.126546 0.4448435,-0.426788 0.8532277,-0.719173 0.186102,-0.133242 0.3305293,-0.250095 0.3209495,-0.259675 -0.00958,-0.0096 -0.227133,0.04306 -0.4834514,0.116985 -0.2563184,0.07392 -0.6566173,0.166032 -0.889553,0.20469 -0.372966,0.0619 -0.4447988,0.06292 -0.6017885,0.0086 -0.1457163,-0.05041 -0.1877037,-0.09051 -0.2299372,-0.219634 -0.078626,-0.240387 -0.022822,-0.439326 0.2296497,-0.818702 0.1266313,-0.190282 0.2302387,-0.36255 0.2302387,-0.382818 0,-0.02027 -0.095675,-0.142498 -0.2126119,-0.271623 C 1.9856703,27.088596 1.9215399,26.875044 2.0477733,26.733896 2.2801948,26.474013 3.3899126,26.197099 5.8039553,25.796592 7.0249003,25.594029 7.1115323,25.573098 8.1255374,25.235677 9.6572885,24.725971 9.9169979,24.579542 9.877138,24.248092 9.8671552,24.165081 9.7705559,23.768272 9.6624734,23.366294 9.2363655,21.781526 9.2080241,21.731287 8.1290219,20.648033 6.6932257,19.20658 5.5577967,17.625141 4.1695811,15.133276 3.1051009,13.22252 1.6374028,10.05457 1.133557,8.5801741 1.0106687,8.2205684 1.0110741,8.2322623 1.1177988,8.1255374 c 0.06514,-0.06514 0.1433075,-0.085985 0.322442,-0.085985 0.1300516,0 0.2364574,-0.017306 0.2364574,-0.038458 0,-0.021152 -0.077386,-0.2313444 -0.171969,-0.4670937 C 1.3090098,7.0461681 1.2852689,6.8212193 1.4217918,6.7481544 1.5387168,6.6855778 1.6824626,6.7368706 2.0773537,6.982077 2.4286035,7.2001845 2.622528,7.2670378 2.622528,7.1700198 2.622528,7.1359188 2.4959746,6.8993225 2.3412983,6.6442502 1.9546431,6.0066279 1.8916595,5.8739781 1.8916595,5.6972657 c 0,-0.1229975 0.021889,-0.1630809 0.1113071,-0.2038223 0.1632195,-0.074368 0.3950849,0.064521 0.9213666,0.5519055 C 3.7228099,6.7848104 3.7207407,6.7098766 2.9052715,5.355046 2.6783852,4.9780943 2.4602313,4.5665151 2.4204851,4.4404255 2.3541368,4.2299443 2.3538716,4.2055192 2.4172465,4.1421442 2.5904478,3.9689429 2.8450924,4.1910936 3.706121,5.266552 4.2972707,6.0049213 4.6207645,6.356593 4.6666305,6.3107269 4.6996522,6.2777053 4.4975939,5.8823422 3.9132635,4.8366294 3.3643424,3.854285 3.0272794,3.1727032 2.8616447,2.7101304 2.7519208,2.4037014 2.7427939,2.1926053 2.8392689,2.1926053 c 0.091372,0 0.4753042,0.4041597 1.3477387,1.4187447 2.6739688,3.109653 4.6770763,4.9910976 6.6773204,6.2717592 0.385049,0.2465278 0.715578,0.5776688 1.050871,1.0528138 0.649664,0.92064 1.326968,2.245487 2.453529,4.799245 0.562971,1.276176 0.735333,1.606593 0.870117,1.668004 0.592855,0.270123 1.641191,-0.648614 3.620287,-3.172733 0.28737,-0.366509 0.588287,-0.72442 0.668704,-0.795357 0.08042,-0.07094 0.264469,-0.304939 0.409005,-0.520003 0.144537,-0.215064 0.325757,-0.444007 0.402714,-0.508761 0.132523,-0.111511 0.155467,-0.116174 0.433978,-0.0882 l 0.294057,0.02953 0.04428,-0.127022 c 0.09925,-0.284696 0.205907,-0.42356 0.429347,-0.558971 0.413174,-0.250395 0.731482,-0.162424 1.473766,0.407302 0.208757,0.160227 0.469427,0.355726 0.579268,0.434443 l 0.199711,0.14312 0.03258,-0.121624 c 0.01792,-0.06689 0.03101,-0.41389 0.02908,-0.771103 -0.0028,-0.520522 0.01038,-0.676309 0.06638,-0.784609 0.1332,-0.25758 0.266038,-0.175463 0.75558,0.467079 0.292652,0.384117 0.570027,0.644566 0.686455,0.644566 0.151075,0 0.188045,-0.161623 0.21635,-0.945829 0.02959,-0.819743 0.06207,-0.94583 0.243641,-0.94583 0.162349,0 0.346902,0.218113 0.680464,0.804202 0.495478,0.870583 0.576946,0.956938 0.671018,0.711275 0.0249,-0.06503 0.141095,-0.466466 0.258211,-0.892089 0.296377,-1.0770987 0.44896,-1.3641159 0.685304,-1.289103 0.202908,0.0644 0.296668,0.561154 0.298087,1.579301 7.17e-4,0.514457 0.0059,0.548151 0.08456,0.548151 0.139332,0 0.297621,-0.264095 0.604897,-1.009232 0.424672,-1.0298184 0.554487,-1.2063141 0.746037,-1.0143094 0.14542,0.1457644 0.120973,0.7041694 -0.07165,1.6366114 -0.144196,0.698007 -0.176884,0.89978 -0.163677,1.010318 0.0028,0.02365 0.150172,-0.179493 0.327437,-0.451419 0.328525,-0.50396 0.57713,-0.773861 0.712801,-0.773861 0.04164,0 0.115798,0.05098 0.164806,0.113279 0.131078,0.166638 0.123699,0.728145 -0.01685,1.282207 -0.3558,1.402602 -1.38041,2.588633 -2.813515,3.256763 -1.420272,0.662148 -1.735925,0.868176 -2.52199,1.646118 -1.068767,1.057722 -2.075821,2.529147 -2.942421,4.299226 -0.366484,0.748565 -0.673161,1.463494 -0.695105,1.620437 -0.01233,0.08816 0.04901,0.130487 0.54879,0.378703 0.309468,0.153697 0.692008,0.372641 0.850089,0.486542 0.841462,0.606292 1.255965,1.353599 1.303982,2.350947 0.01614,0.335259 0.0483,0.519682 0.124983,0.716705 0.126082,0.323955 0.131463,0.601635 0.01873,0.966621 -0.09956,0.322334 -0.252009,0.544612 -0.443677,0.646895 -0.22596,0.120583 -0.268698,0.100006 -0.44209,-0.212852 -0.223346,-0.402992 -0.727683,-0.893286 -1.114839,-1.083794 -0.260437,-0.128154 -0.353474,-0.15046 -0.691181,-0.165711 -0.61532,-0.02779 -1.154956,0.140297 -2.597727,0.809141 -0.98859,0.458293 -1.541698,0.677198 -1.85137,0.732717 -0.865493,0.155171 -5.692492,0.06314 -9.2539783,-0.176429 L 7.6044288,28.67081 7.3383239,28.8191 c -0.1463577,0.08156 -0.4402235,0.249848 -0.6530352,0.373973 -0.6412928,0.374043 -1.1930263,0.572431 -1.9561479,0.703375 -0.4579597,0.07858 -1.20974,0.116888 -1.4525513,0.07401 z"
     id="path2-5-2-45-4"
     transform="scale(0.45010125)" /></g><g
   id="g2-5-06-9-8-9"
   transform="rotate(26.646246,5.8397547,36.704494)"
   style="display:none"><path
     d="m 13.885716,5.0076582 c -0.02492,-0.02807 -0.05358,-0.04228 -0.08523,-0.04228 -0.115694,0 -0.238124,0.197993 -0.34615,0.372735 -0.04082,0.06603 -0.09455,0.152947 -0.122055,0.181871 -0.0031,-0.06662 0.03813,-0.2558 0.06922,-0.397984 0.07854,-0.359382 0.159772,-0.7309376 0.02752,-0.8173985 -0.01377,-0.00898 -0.02833,-0.013599 -0.04329,-0.013599 -0.09523,0 -0.168079,0.1731993 -0.279059,0.4557909 -0.08689,0.2211996 -0.194983,0.4965256 -0.284262,0.4965256 -0.0057,0 -0.01131,-0.0013 -0.01706,-0.0037 -0.01572,-0.03406 -0.01432,-0.190001 -0.0133,-0.304711 0.0028,-0.3005291 0.0057,-0.641114 -0.151429,-0.6665443 -0.0047,-8.183e-4 -0.0093,-0.00127 -0.01398,-0.00127 -0.135828,0 -0.215078,0.3084795 -0.298966,0.6351193 -0.04087,0.159122 -0.102634,0.399619 -0.137585,0.415875 -0.04696,-0.0114 -0.141883,-0.183364 -0.218137,-0.321552 -0.125088,-0.226601 -0.244449,-0.4397621 -0.354982,-0.428729 -0.115283,0.011687 -0.113486,0.210254 -0.111617,0.420554 0.0013,0.1727 0.0035,0.387674 -0.06772,0.434177 -0.0069,0.0045 -0.01436,0.0066 -0.02283,0.0066 -0.07917,0 -0.20931,-0.172197 -0.313894,-0.310567 -0.121942,-0.161301 -0.200108,-0.260204 -0.267606,-0.260204 -0.01669,0 -0.03242,0.0062 -0.04543,0.01813 -0.07427,0.06761 -0.07008,0.27201 -0.06562,0.488395 0.0024,0.109075 0.0057,0.271924 -0.01289,0.306388 -0.03428,-0.0057 -0.132006,-0.08451 -0.218666,-0.154307 -0.191693,-0.154481 -0.430229,-0.346794 -0.6226302,-0.346794 -0.03166,0 -0.0614,0.0054 -0.08842,0.01593 -0.208712,0.08156 -0.24875,0.201492 -0.275242,0.28087 -0.01388,0.0416 -0.02083,0.0604 -0.04008,0.07039 -0.02406,0.01243 -0.06297,0.0075 -0.105775,-3.16e-4 -0.02833,-0.0052 -0.05766,-0.01062 -0.08883,-0.01062 -0.06874,0 -0.125608,0.02848 -0.173952,0.08714 -0.04913,0.05963 -0.09306,0.130327 -0.135564,0.198672 -0.0632,0.101723 -0.122952,0.19781 -0.180501,0.224015 -0.03042,0.01385 -0.09133,0.09109 -0.262971,0.312426 -0.377466,0.486673 -1.162897,1.499433 -1.565433,1.499479 -0.07532,0 -0.1316,-0.0366 -0.172009,-0.111896 -0.06683,-0.124437 -0.16692,-0.3524 -0.293653,-0.641079 -0.400184,-0.911437 -1.00496,-2.288895 -1.51945,-2.6114929 C 3.6024698,3.6286505 2.436954,2.2572319 1.8108098,1.5204802 1.4693407,1.1186827 1.348032,0.97972649 1.2847962,0.97972649 c -0.017922,0 -0.03365,0.0099 -0.043179,0.027199 -0.018299,0.033104 -0.011719,0.084871 0.02426,0.1910862 0.1089205,0.3216044 0.3586097,0.7629101 0.5592795,1.117481 C 1.9410746,2.5203402 2.0702403,2.7486679 2.1048872,2.8442568 2.0105959,2.7913068 1.8291971,2.5586664 1.6802018,2.3675759 1.4177175,2.0310791 1.2504231,1.8267306 1.1399295,1.8267306 c -0.021109,0 -0.039774,0.00735 -0.055379,0.021751 -0.084597,0.078018 0.037008,0.2859555 0.259229,0.6467936 C 1.4323465,2.6390927 1.5627477,2.8508437 1.5791342,2.923863 1.5319544,2.9116772 1.4271854,2.8111065 1.3419844,2.7292748 1.1975528,2.590593 1.0481458,2.4471828 0.93899889,2.4471828 c -0.020936,0 -0.040151,0.00524 -0.057098,0.015471 -0.024946,0.015139 -0.041233,0.039799 -0.047148,0.071339 -0.01799,0.096271 0.064847,0.2350486 0.19333721,0.4358121 0.055975,0.087417 0.1388939,0.2170201 0.1454044,0.2632031 -0.00518,0.00125 -0.010862,0.00208 -0.016962,0.00208 -0.058446,0 -0.1440168,-0.055175 -0.22678491,-0.1085767 -0.090663,-0.058493 -0.1763127,-0.1137129 -0.2470292,-0.1137129 -0.024124,0 -0.04565,0.00654 -0.063949,0.01938 -0.080483,0.056538 -0.00771,0.2322329 0.069373,0.4181914 0.021074,0.050907 0.048495,0.1170726 0.058483,0.1519938 -0.019052,0.00334 -0.050327,0.00334 -0.072964,0.00334 -0.072776,1.332e-4 -0.1480602,2.708e-4 -0.1889578,0.050818 -0.017201,0.021209 -0.026076,0.049315 -0.0257,0.081283 0.00172,0.1206123 1.57751991,4.2209686 3.43346501,5.8012316 0.248301,0.211434 0.344615,0.5895268 0.437745,0.9551758 0.03403,0.133509 0.06612,0.259619 0.104993,0.374142 0.01398,0.0413 0.01419,0.07579 6.75e-4,0.108715 -0.05852,0.14182 -0.361155,0.236183 -0.6815609,0.336043 -0.184877,0.05767 -0.3760072,0.117252 -0.5614491,0.194904 -2.30992611,0.345035 -2.30981641,0.500614 -2.30981641,0.57545 0,0.150631 0.082545,0.222514 0.14282421,0.275011 0.060804,0.05296 0.069596,0.06798 0.058857,0.100587 -0.014083,0.04274 -0.047857,0.08669 -0.083591,0.133233 -0.077265,0.100685 -0.17346571,0.225925 -0.11573291,0.412791 0.020869,0.06752 0.089392,0.100363 0.20942531,0.100363 0.2075172,0 0.5443499,-0.09491 0.7919415,-0.175149 -0.5559488,0.38572 -0.5559868,0.456153 -0.5559868,0.481492 0,0.03427 0,0.09818 0.3198817,0.09818 0.3194354,0 0.8254301,-0.07016 1.2000904,-0.267835 0.1158459,-0.06112 0.2145519,-0.119885 0.3100054,-0.176648 0.090136,-0.05363 0.1754125,-0.104355 0.261172,-0.148268 0.9775686,0.06403 2.4822367,0.138503 3.5195977,0.138503 0.583863,0 0.951564,-0.0237 1.092778,-0.07044 0.189294,-0.06267 0.406165,-0.164386 0.635836,-0.272055 0.4237129,-0.198677 0.861835,-0.404161 1.201248,-0.404161 0.06949,0 0.1329063,0.009 0.1884713,0.02674 0.497201,0.158756 0.687433,0.636753 0.689303,0.641566 l 0.0075,0.01938 0.01706,0.0053 c 0.0031,8.18e-4 0.01896,0.0055 0.04367,0.0055 0,0 0,0 0,0 0.07157,0 0.246879,-0.041 0.32901,-0.420692 0.04828,-0.223148 -0.04587,-0.38772 -0.0809,-0.439218 0.0088,-0.121289 0.02902,-0.721354 -0.38626,-1.119883 -0.252007,-0.241857 -0.501919,-0.353024 -0.667267,-0.426639 -0.07816,-0.03477 -0.1852533,-0.08242 -0.1833813,-0.107671 0.017,-0.131415 1.0688283,-2.7416498 2.5714783,-3.3218658 1.161623,-0.44857 1.440718,-1.330591 1.5068,-1.688936 0.04045,-0.220014 0.03181,-0.415421 -0.02114,-0.475091 z"
     id="path1-3-3-37-8-2"
     style="fill:#000000;stroke-width:0.0412209" /><path
     style="fill:#ffffff;stroke-width:0.0429923"
     d="m 3.2765975,29.970453 c -0.1013538,-0.0179 -0.2149491,-0.06321 -0.252434,-0.100693 -0.061146,-0.06115 -0.061449,-0.07773 -0.00294,-0.161261 0.088637,-0.126546 0.4448435,-0.426788 0.8532277,-0.719173 0.186102,-0.133242 0.3305293,-0.250095 0.3209495,-0.259675 -0.00958,-0.0096 -0.227133,0.04306 -0.4834514,0.116985 -0.2563184,0.07392 -0.6566173,0.166032 -0.889553,0.20469 -0.372966,0.0619 -0.4447988,0.06292 -0.6017885,0.0086 -0.1457163,-0.05041 -0.1877037,-0.09051 -0.2299372,-0.219634 -0.078626,-0.240387 -0.022822,-0.439326 0.2296497,-0.818702 0.1266313,-0.190282 0.2302387,-0.36255 0.2302387,-0.382818 0,-0.02027 -0.095675,-0.142498 -0.2126119,-0.271623 C 1.9856703,27.088596 1.9215399,26.875044 2.0477733,26.733896 2.2801948,26.474013 3.3899126,26.197099 5.8039553,25.796592 7.0249003,25.594029 7.1115323,25.573098 8.1255374,25.235677 9.6572885,24.725971 9.9169979,24.579542 9.877138,24.248092 9.8671552,24.165081 9.7705559,23.768272 9.6624734,23.366294 9.2363655,21.781526 9.2080241,21.731287 8.1290219,20.648033 6.6932257,19.20658 5.5577967,17.625141 4.1695811,15.133276 3.1051009,13.22252 1.6374028,10.05457 1.133557,8.5801741 1.0106687,8.2205684 1.0110741,8.2322623 1.1177988,8.1255374 c 0.06514,-0.06514 0.1433075,-0.085985 0.322442,-0.085985 0.1300516,0 0.2364574,-0.017306 0.2364574,-0.038458 0,-0.021152 -0.077386,-0.2313444 -0.171969,-0.4670937 C 1.3090098,7.0461681 1.2852689,6.8212193 1.4217918,6.7481544 1.5387168,6.6855778 1.6824626,6.7368706 2.0773537,6.982077 2.4286035,7.2001845 2.622528,7.2670378 2.622528,7.1700198 2.622528,7.1359188 2.4959746,6.8993225 2.3412983,6.6442502 1.9546431,6.0066279 1.8916595,5.8739781 1.8916595,5.6972657 c 0,-0.1229975 0.021889,-0.1630809 0.1113071,-0.2038223 0.1632195,-0.074368 0.3950849,0.064521 0.9213666,0.5519055 C 3.7228099,6.7848104 3.7207407,6.7098766 2.9052715,5.355046 2.6783852,4.9780943 2.4602313,4.5665151 2.4204851,4.4404255 2.3541368,4.2299443 2.3538716,4.2055192 2.4172465,4.1421442 2.5904478,3.9689429 2.8450924,4.1910936 3.706121,5.266552 4.2972707,6.0049213 4.6207645,6.356593 4.6666305,6.3107269 4.6996522,6.2777053 4.4975939,5.8823422 3.9132635,4.8366294 3.3643424,3.854285 3.0272794,3.1727032 2.8616447,2.7101304 2.7519208,2.4037014 2.7427939,2.1926053 2.8392689,2.1926053 c 0.091372,0 0.4753042,0.4041597 1.3477387,1.4187447 2.6739688,3.109653 4.6770763,4.9910976 6.6773204,6.2717592 0.385049,0.2465278 0.715578,0.5776688 1.050871,1.0528138 0.649664,0.92064 1.326968,2.245487 2.453529,4.799245 0.562971,1.276176 0.735333,1.606593 0.870117,1.668004 0.592855,0.270123 1.641191,-0.648614 3.620287,-3.172733 0.28737,-0.366509 0.588287,-0.72442 0.668704,-0.795357 0.08042,-0.07094 0.264469,-0.304939 0.409005,-0.520003 0.144537,-0.215064 0.325757,-0.444007 0.402714,-0.508761 0.132523,-0.111511 0.155467,-0.116174 0.433978,-0.0882 l 0.294057,0.02953 0.04428,-0.127022 c 0.09925,-0.284696 0.205907,-0.42356 0.429347,-0.558971 0.413174,-0.250395 0.731482,-0.162424 1.473766,0.407302 0.208757,0.160227 0.469427,0.355726 0.579268,0.434443 l 0.199711,0.14312 0.03258,-0.121624 c 0.01792,-0.06689 0.03101,-0.41389 0.02908,-0.771103 -0.0028,-0.520522 0.01038,-0.676309 0.06638,-0.784609 0.1332,-0.25758 0.266038,-0.175463 0.75558,0.467079 0.292652,0.384117 0.570027,0.644566 0.686455,0.644566 0.151075,0 0.188045,-0.161623 0.21635,-0.945829 0.02959,-0.819743 0.06207,-0.94583 0.243641,-0.94583 0.162349,0 0.346902,0.218113 0.680464,0.804202 0.495478,0.870583 0.576946,0.956938 0.671018,0.711275 0.0249,-0.06503 0.141095,-0.466466 0.258211,-0.892089 0.296377,-1.0770987 0.44896,-1.3641159 0.685304,-1.289103 0.202908,0.0644 0.296668,0.561154 0.298087,1.579301 7.17e-4,0.514457 0.0059,0.548151 0.08456,0.548151 0.139332,0 0.297621,-0.264095 0.604897,-1.009232 0.424672,-1.0298184 0.554487,-1.2063141 0.746037,-1.0143094 0.14542,0.1457644 0.120973,0.7041694 -0.07165,1.6366114 -0.144196,0.698007 -0.176884,0.89978 -0.163677,1.010318 0.0028,0.02365 0.150172,-0.179493 0.327437,-0.451419 0.328525,-0.50396 0.57713,-0.773861 0.712801,-0.773861 0.04164,0 0.115798,0.05098 0.164806,0.113279 0.131078,0.166638 0.123699,0.728145 -0.01685,1.282207 -0.3558,1.402602 -1.38041,2.588633 -2.813515,3.256763 -1.420272,0.662148 -1.735925,0.868176 -2.52199,1.646118 -1.068767,1.057722 -2.075821,2.529147 -2.942421,4.299226 -0.366484,0.748565 -0.673161,1.463494 -0.695105,1.620437 -0.01233,0.08816 0.04901,0.130487 0.54879,0.378703 0.309468,0.153697 0.692008,0.372641 0.850089,0.486542 0.841462,0.606292 1.255965,1.353599 1.303982,2.350947 0.01614,0.335259 0.0483,0.519682 0.124983,0.716705 0.126082,0.323955 0.131463,0.601635 0.01873,0.966621 -0.09956,0.322334 -0.252009,0.544612 -0.443677,0.646895 -0.22596,0.120583 -0.268698,0.100006 -0.44209,-0.212852 -0.223346,-0.402992 -0.727683,-0.893286 -1.114839,-1.083794 -0.260437,-0.128154 -0.353474,-0.15046 -0.691181,-0.165711 -0.61532,-0.02779 -1.154956,0.140297 -2.597727,0.809141 -0.98859,0.458293 -1.541698,0.677198 -1.85137,0.732717 -0.865493,0.155171 -5.692492,0.06314 -9.2539783,-0.176429 L 7.6044288,28.67081 7.3383239,28.8191 c -0.1463577,0.08156 -0.4402235,0.249848 -0.6530352,0.373973 -0.6412928,0.374043 -1.1930263,0.572431 -1.9561479,0.703375 -0.4579597,0.07858 -1.20974,0.116888 -1.4525513,0.07401 z"
     id="path2-5-2-45-4-0"
     transform="scale(0.45010125)" /></g></svg>
