<?xml version="1.0" encoding="UTF-8" standalone="no"?>
<!-- Generator: Adobe Illustrator 19.0.0, SVG Export Plug-In . SVG Version: 6.00 Build 0)  -->

<svg
   version="1.1"
   id="Layer_1"
   x="0px"
   y="0px"
   viewBox="0 0 511.929 511.929"
   style="enable-background:new 0 0 511.929 511.929;"
   xml:space="preserve"
   sodipodi:docname="turtle-1.svg"
   inkscape:version="1.4.3 (fcd0343856, 2026-01-01)"
   xmlns:inkscape="http://www.inkscape.org/namespaces/inkscape"
   xmlns:sodipodi="http://sodipodi.sourceforge.net/DTD/sodipodi-0.dtd"
   xmlns="http://www.w3.org/2000/svg"
   xmlns:svg="http://www.w3.org/2000/svg"><defs
   id="defs21" /><sodipodi:namedview
   id="namedview21"
   pagecolor="#ffffff"
   bordercolor="#000000"
   borderopacity="0.25"
   inkscape:showpageshadow="2"
   inkscape:pageopacity="0.0"
   inkscape:pagecheckerboard="0"
   inkscape:deskcolor="#d1d1d1"
   inkscape:zoom="1.7307088"
   inkscape:cx="255.96449"
   inkscape:cy="255.67559"
   inkscape:window-width="2560"
   inkscape:window-height="1371"
   inkscape:window-x="1920"
   inkscape:window-y="32"
   inkscape:window-maximized="1"
   inkscape:current-layer="Layer_1"
   showguides="true"><sodipodi:guide
     position="266.36486,250.18652"
     orientation="1,0"
     id="guide35"
     inkscape:locked="false" /><sodipodi:guide
     position="142.7161,215.51864"
     orientation="1,0"
     id="guide36"
     inkscape:locked="false" /><sodipodi:guide
     position="379.61327,194.71792"
     orientation="1,0"
     id="guide37"
     inkscape:locked="false" /><sodipodi:guide
     position="511.3512,178.53957"
     orientation="1,0"
     id="guide38"
     inkscape:locked="false" /><sodipodi:guide
     position="650.02271,135.78252"
     orientation="1,0"
     id="guide39"
     inkscape:locked="false" /><sodipodi:guide
     position="789.84982,169.2948"
     orientation="1,0"
     id="guide40"
     inkscape:locked="false" /></sodipodi:namedview>


















<g
   id="g35"
   transform="translate(-348)"><g
     id="g2">
	<g
   id="g1">
		<path
   d="m 458.609,266.628 c -5.891,0 -10.671,4.781 -10.671,10.68 0,5.873 4.78,10.654 10.671,10.654 5.889,0 10.654,-4.781 10.654,-10.654 0,-5.899 -4.766,-10.68 -10.654,-10.68 z"
   id="path1" />
	</g>
</g><g
     id="g4">
	<g
   id="g3">
		<path
   d="m 458.609,223.971 c -5.891,0 -10.671,4.773 -10.671,10.663 0,5.89 4.78,10.67 10.671,10.67 5.889,0 10.654,-4.781 10.654,-10.67 0,-5.889 -4.766,-10.663 -10.654,-10.663 z"
   id="path2" />
	</g>
</g><g
     id="g7">
</g><g
     id="g8">
</g><g
     id="g9">
</g><g
     id="g10">
</g><g
     id="g11">
</g><g
     id="g12">
</g><g
     id="g13">
</g><g
     id="g14">
</g><g
     id="g15">
</g><g
     id="g16">
</g><g
     id="g17">
</g><g
     id="g18">
</g><g
     id="g19">
</g><g
     id="g20">
</g><g
     id="g21">
</g><path
     style="fill:#ffffff;stroke-width:0.577798"
     d="M 72.422814,340.74451 C 63.874787,329.31947 55.711543,314.46139 51.157211,302.03859 41.846405,276.64158 40.551196,248.86423 47.426282,222.02416 c 4.356066,-17.00591 13.313959,-35.2251 24.996532,-50.83969 1.956689,-2.61525 3.771709,-4.76033 4.033377,-4.76683 0.261669,-0.007 16.837107,11.75358 36.834309,26.13353 l 36.35855,26.14535 -0.14414,37.23927 -0.14414,37.23927 -36.11237,26.14098 c -19.861806,14.37754 -36.372382,26.15054 -36.690171,26.16223 -0.317789,0.0117 -2.178726,-2.1185 -4.135415,-4.73376 z"
     id="path21" /><path
     style="fill:#ffffff;stroke-width:0.577798"
     d="m 202.96246,310.14476 -31.33462,-18.0679 0.13353,-36.28569 0.13352,-36.28569 31.37995,-18.13237 31.37994,-18.13238 31.31114,18.09795 31.31113,18.09795 0.14632,36.32012 0.14633,36.32011 -30.99659,17.91174 c -17.04812,9.85146 -31.28447,17.98201 -31.63631,18.06789 -0.35185,0.0859 -14.74031,-7.97439 -31.97434,-17.91173 z"
     id="path22" /><path
     style="fill:#ffffff;stroke-width:0.577798"
     d="m 126.3336,174.87664 -34.583124,-24.93807 3.959835,-3.64982 c 10.472499,-9.6526 26.101909,-19.99216 42.094499,-27.84742 25.11966,-12.3383 50.21332,-19.023691 81.3297,-21.667652 l 4.48258,-0.380885 -0.14909,33.960587 -0.14909,33.96058 -30.62329,17.76675 c -16.84281,9.77171 -30.8833,17.75938 -31.20109,17.75038 -0.31779,-0.009 -16.14021,-11.23851 -35.16093,-24.95445 z"
     id="path23" /><path
     style="fill:#ffffff;stroke-width:0.577798"
     d="m 276.47632,182.0316 -30.62329,-17.78368 -0.14907,-33.87783 c -0.14409,-32.747169 -0.11305,-33.877832 0.9302,-33.877832 3.2615,0 19.81776,1.96066 26.87116,3.182193 32.64647,5.653829 63.74207,18.734159 88.38935,37.180889 6.26361,4.68786 14.948,11.96012 15.28464,12.79926 0.18587,0.46332 -68.90824,50.29295 -69.62442,50.21209 -0.2504,-0.0283 -14.23576,-8.05406 -31.07857,-17.83509 z"
     id="path24" /><path
     style="fill:#ffffff;stroke-width:0.577798"
     d="m 355.92354,319.26521 -36.11237,-26.15565 -0.13579,-37.20652 -0.13578,-37.20652 36.20608,-26.0009 c 19.91334,-14.3005 36.50007,-26.07536 36.8594,-26.16635 1.64128,-0.41562 13.38746,17.23919 19.11052,28.72359 19.38187,38.89338 19.38187,82.52988 0,121.42327 -5.56298,11.16317 -17.32304,28.93704 -19.05277,28.79589 -0.3448,-0.0281 -16.87749,-11.82121 -36.73929,-26.20681 z"
     id="path25" /><path
     style="fill:#ffffff;stroke-width:0.577798"
     d="m 245.56681,381.4911 0.003,-33.94563 31.00345,-17.91174 c 17.0519,-9.85145 31.11777,-17.88359 31.2575,-17.84919 0.92189,0.22698 69.49161,50.1289 69.35446,50.47304 -0.33966,0.85229 -8.96659,8.08327 -15.29024,12.81607 -25.88415,19.37242 -58.39431,32.61054 -93.50752,38.07619 -3.85147,0.59951 -19.67539,2.24998 -21.81187,2.27503 -0.95169,0.0112 -1.01099,-1.98427 -1.00847,-33.93377 z"
     id="path26" /><path
     style="fill:#ffffff;stroke-width:0.577798"
     d="M 217.54093,415.04195 C 179.03665,411.70126 145.16579,400.3578 115.62658,380.9105 108.96335,376.52373 96.376977,366.69921 93.449287,363.59962 l -1.598475,-1.69233 34.744488,-25.09265 c 19.10948,-13.80095 34.83038,-25.09264 34.93535,-25.09264 0.10496,0 14.11526,8.05101 31.134,17.89113 l 30.94316,17.89113 v 33.96623 33.96624 l -1.87785,-0.0971 c -1.03281,-0.0534 -2.91788,-0.18737 -4.18903,-0.29765 z"
     id="path27" /><path
     style="fill:#ffffff;stroke-width:0.577798"
     d="m 121.82534,436.04359 c -6.01511,-2.24433 -10.53595,-6.33815 -13.10872,-11.87055 -1.25326,-2.69498 -1.51085,-4.08248 -1.51459,-8.15851 -0.004,-4.28194 0.21658,-5.36477 1.72088,-8.45016 l 1.7254,-3.53887 6.06688,3.45219 c 7.13858,4.062 17.72372,9.18128 25.42311,12.29535 3.01899,1.22106 5.67542,2.3743 5.90316,2.56276 0.58208,0.48167 -3.62266,6.88564 -5.97147,9.09476 -3.59593,3.38209 -7.7148,5.00684 -13.22105,5.21526 -3.16456,0.11979 -5.66254,-0.0944 -7.0236,-0.60223 z"
     id="path28" /><path
     style="fill:#ffffff;stroke-width:0.577798"
     d="m 333.90508,435.48926 c -5.42287,-2.28811 -8.51571,-5.10573 -12.02204,-10.95226 -1.23191,-2.05412 -1.24445,-2.18656 -0.24118,-2.54724 8.47931,-3.04835 27.04196,-11.93212 34.06191,-16.30145 l 2.76829,-1.72302 1.01378,1.66704 c 5.97043,9.81758 1.55117,23.85722 -9.17991,29.16383 -4.77201,2.3598 -11.75169,2.65476 -16.40085,0.6931 z"
     id="path29" /><path
     style="fill:#ffffff;stroke-width:0.577798"
     d="m 355.71305,106.24645 c -7.02407,-4.37189 -25.60378,-13.265156 -34.05949,-16.302734 -0.9758,-0.350538 -0.94759,-0.542402 0.41699,-2.836144 2.79571,-4.699382 5.96952,-7.803473 10.01156,-9.791633 3.58142,-1.761592 4.32581,-1.912801 9.38771,-1.906935 4.91724,0.0057 5.85039,0.184224 8.83611,1.690496 6.41073,3.234158 11.19202,10.161341 11.82398,17.130676 0.34245,3.776622 -0.91685,9.594944 -2.64781,12.233644 l -0.99148,1.51143 z"
     id="path30" /><path
     style="fill:#ffffff;stroke-width:0.577798"
     d="m 108.87218,104.44838 c -1.40117,-3.06653 -1.65798,-4.37843 -1.67296,-8.546069 -0.0158,-4.406362 0.17951,-5.324027 1.8601,-8.737795 2.22624,-4.522118 5.85268,-8.07254 10.44366,-10.224705 2.82943,-1.326389 4.03179,-1.537178 8.76817,-1.537178 4.88415,0 5.83929,0.179523 8.66696,1.629002 1.74784,0.895952 4.05719,2.456006 5.13188,3.466788 2.35746,2.217252 6.5509,8.611201 5.97147,9.104987 -0.22774,0.194087 -1.97414,0.961229 -3.88087,1.704761 -9.27626,3.617283 -26.30155,12.006739 -32.41711,15.973989 -1.15344,0.74826 -1.30122,0.60241 -2.8713,-2.83378 z"
     id="path31" /><path
     style="fill:#ffffff;stroke-width:0.577798"
     d="m 442.82749,296.8437 c 1.21369,-4.27563 3.30445,-14.99505 4.03335,-20.67919 2.45685,-19.15919 1.3594,-39.35141 -3.11608,-57.33348 -0.63705,-2.55962 -1.06222,-4.74989 -0.94483,-4.86729 0.45504,-0.45504 8.97526,1.17049 13.37155,2.55109 17.18496,5.3967 29.86242,17.57379 33.2507,31.93829 5.16367,21.89122 -13.39671,44.01146 -40.98221,48.84255 -6.16135,1.07904 -6.04963,1.08804 -5.61248,-0.45197 z m 19.85489,-9.4168 c 3.83952,-1.60425 5.96556,-4.28681 6.72581,-8.48638 1.47183,-8.13028 -7.33101,-14.93802 -15.11196,-11.68693 -4.14304,1.73107 -6.50282,5.31783 -6.50282,9.88399 0,8.00212 7.67268,13.30448 14.88897,10.28932 z m 0.44658,-42.94884 c 7.24506,-3.29097 8.65191,-13.06911 2.61162,-18.15168 -5.37615,-4.52374 -13.7582,-2.91781 -16.72157,3.20371 -4.62392,9.55173 4.56318,19.28447 14.10995,14.94797 z"
     id="path32" /><path
     style="fill:#ffffff;stroke-width:0.577798"
     d="m 454.74418,286.82845 c -2.66922,-1.15775 -3.95169,-2.38411 -5.34204,-5.10834 -2.57075,-5.03705 -0.17182,-11.37775 5.20439,-13.7559 6.07906,-2.68905 12.58521,0.88537 14.21849,7.81151 0.90736,3.84777 -2.03895,8.95794 -6.27386,10.88159 -2.82086,1.28135 -5.13065,1.33198 -7.80698,0.17114 z"
     id="path34" /><path
     style="fill:#ffffff;stroke-width:0.577798"
     d="m 454.37101,243.88094 c -7.20909,-3.27379 -8.02979,-13.3512 -1.4485,-17.78634 4.15756,-2.80178 9.1388,-2.222 12.85728,1.49648 4.008,4.00801 4.14298,9.40576 0.34342,13.73322 -3.23634,3.68599 -7.31257,4.57276 -11.7522,2.55664 z"
     id="path35" /></g></svg>
