<?xml version="1.0" encoding="UTF-8" standalone="no"?>
<!-- Generator: Adobe Illustrator 16.0.0, SVG Export Plug-In . SVG Version: 6.00 Build 0)  -->

<svg
   version="1.1"
   id="Capa_1"
   x="0px"
   y="0px"
   width="29.984px"
   height="29.984px"
   viewBox="0 0 29.984 29.984"
   style="enable-background:new 0 0 29.984 29.984;"
   xml:space="preserve"
   sodipodi:docname="bull.svg"
   inkscape:version="1.4.3 (fcd0343856, 2026-01-01)"
   xmlns:inkscape="http://www.inkscape.org/namespaces/inkscape"
   xmlns:sodipodi="http://sodipodi.sourceforge.net/DTD/sodipodi-0.dtd"
   xmlns="http://www.w3.org/2000/svg"
   xmlns:svg="http://www.w3.org/2000/svg"><defs
   id="defs18" /><sodipodi:namedview
   id="namedview18"
   pagecolor="#ffffff"
   bordercolor="#000000"
   borderopacity="0.25"
   inkscape:showpageshadow="2"
   inkscape:pageopacity="0.0"
   inkscape:pagecheckerboard="0"
   inkscape:deskcolor="#d1d1d1"
   inkscape:zoom="38.787354"
   inkscape:cx="14.979109"
   inkscape:cy="14.992"
   inkscape:window-width="2560"
   inkscape:window-height="1371"
   inkscape:window-x="1920"
   inkscape:window-y="32"
   inkscape:window-maximized="1"
   inkscape:current-layer="Capa_1" />
<g
   id="g3">
	<g
   id="g2">
		<path
   d="M26.161,18.188c-0.48-0.097-0.639-0.793-0.627-1.359c0.013-0.656,0.246-1.069,0.642-1.135    c0.356-0.055,0.699-0.047,1.025-0.001c-0.083-0.348-0.188-0.663-0.321-0.907c-0.451-0.83-1.205-0.725-2.072-1.683    c-2.052-2.271-5.084-5.818-7.226-5.717C14.54,7.528,4.36,12.329,3.844,12.534c-0.515,0.205-2.446-0.854-2.474-1.479    C1.341,10.428,2.593,8.75,3.475,8.609c0.882-0.143,2.673,0.057,3.157-0.2C7.116,8.153,7.77,7.101,7.77,6.674    c0-0.426-1.138-1.308-1.138-1.308S6.205,4.654,5.636,4.682c-0.569,0.03-1.337,0.74-1.849,0.684c0.142,0.54,1.28,1.109,1.757,1.085    C6.02,6.429,6.517,5.993,6.517,5.993s0.427,0.169,0.655,0.512c0.159,0.238-0.114,0.825-0.569,1.08    C6.146,7.842,4.015,7.444,3.188,7.643c-0.826,0.198-3.299,2.561-3.185,3.526c0.113,0.968,2.644,3.187,3.582,3.359    c-0.625,1.334,0.029,4.577-0.254,4.805c-0.285,0.228-1.366-0.343-1.6,0.231c-0.235,0.574,1.315,3.38,1.087,3.751    c-0.228,0.369-0.188,1.211-0.188,1.211l2.406-0.017c-0.028-0.739-0.674-1.222-0.674-1.222l-0.339-1.482c0,0,1.781-0.938,2.35-1.85    c0.171,0.456,0.968,1.281,1.309,1.396C8.023,21.466,7,21.579,7.161,22.038c0.16,0.461,3.907,1.816,3.968,2.08    c-0.43,0.675-0.12,1.131-0.12,1.131l2.136,0.055c-0.256-1.477-1.354-1.95-1.354-1.95l-1.755-1.923c0,0,1.715-1.955,1.881-3.943    c1.133,1.453,3.592,1.702,3.592,1.702s-1.855,4.456-1.979,4.75c-0.122,0.293,0.269,1.364,0.269,1.364h2.332    c-0.141-0.557-1.338-1.367-1.338-1.367l3.244-4.785l0.826-0.013c0,0,0.91,3.921,0.74,4.29c-0.171,0.369-0.144,1.422-0.144,1.422    l2.39-0.058c-0.058-0.768-0.796-1.251-0.796-1.251l0.055-4.438c0,0,1.311,0.429,2.025-0.03c-0.261,0.801-0.43,2.679-0.287,3.074    c0.143,0.395,0.652,0.656,1.052,0.599c0.398-0.058,2.759-2.616,3.216-3.424c0.148-0.261,0.239-0.707,0.276-1.229    c-0.152,0.012-0.306,0.029-0.454,0.054C26.624,18.195,26.361,18.228,26.161,18.188z"
   id="path1" />
		<path
   d="M28.932,16.743c-0.739-0.512-1.689-0.873-2.702-0.71c-0.516,0.081-0.427,1.734,0,1.82s1.252-0.286,1.992-0.028    c0.738,0.255,1.763,1.422,1.763,1.053C29.984,18.51,29.671,17.257,28.932,16.743z"
   id="path2" />
	</g>
</g>
<g
   id="g4">
</g>
<g
   id="g5">
</g>
<g
   id="g6">
</g>
<g
   id="g7">
</g>
<g
   id="g8">
</g>
<g
   id="g9">
</g>
<g
   id="g10">
</g>
<g
   id="g11">
</g>
<g
   id="g12">
</g>
<g
   id="g13">
</g>
<g
   id="g14">
</g>
<g
   id="g15">
</g>
<g
   id="g16">
</g>
<g
   id="g17">
</g>
<g
   id="g18">
</g>
<path
   style="fill:#ffffff;stroke-width:0.0257816"
   d="m 12.104461,25.264603 c -0.326138,-0.0097 -0.705134,-0.01917 -0.842215,-0.02103 l -0.249239,-0.0034 -0.04653,-0.121847 c -0.05524,-0.144644 -0.06086,-0.435478 -0.01135,-0.587147 0.01852,-0.05672 0.06951,-0.177176 0.113318,-0.26768 l 0.07965,-0.164554 -0.07612,-0.06216 C 10.966236,23.950453 10.350146,23.651261 9.5263007,23.28617 8.0018433,22.6106 7.4625247,22.334541 7.2479347,22.119951 c -0.062701,-0.0627 -0.08065,-0.10297 -0.08065,-0.180934 0,-0.13288 0.1101393,-0.243273 0.3857948,-0.386685 0.1139501,-0.05928 0.207182,-0.123217 0.207182,-0.142075 0,-0.01886 -0.06721,-0.07011 -0.1493549,-0.113893 -0.1699456,-0.09058 -0.5059203,-0.377491 -0.7114254,-0.607533 -0.1744501,-0.19528 -0.423868,-0.539716 -0.4707465,-0.650083 -0.019574,-0.04608 -0.045494,-0.08379 -0.057599,-0.08379 -0.012105,0 -0.052625,0.04626 -0.090044,0.102807 -0.2654899,0.401182 -1.0867413,1.052722 -1.9820096,1.572426 -0.1524337,0.08849 -0.2774691,0.174123 -0.2778563,0.190301 -3.872e-4,0.01618 0.07144,0.348461 0.1596157,0.738408 l 0.1603195,0.708994 0.1882748,0.201775 c 0.2639306,0.282856 0.4326593,0.602189 0.4809103,0.910162 l 0.016679,0.106456 -1.1869185,0.01915 c -0.6528053,0.01053 -1.1938773,0.01219 -1.2023824,0.0037 -0.025008,-0.02501 0.040521,-0.738269 0.082323,-0.89605 0.021082,-0.07957 0.062479,-0.199272 0.091994,-0.265995 0.040071,-0.09059 0.04946,-0.148628 0.037068,-0.229153 -0.033617,-0.218447 -0.1814646,-0.645196 -0.528623,-1.525826 -0.498925,-1.265614 -0.6139729,-1.643059 -0.586851,-1.925322 0.010779,-0.112176 0.027721,-0.147612 0.1039965,-0.217513 0.1586507,-0.145393 0.3259164,-0.166225 0.7920921,-0.09865 0.1488887,0.02158 0.3562555,0.03991 0.4608151,0.04074 0.3693093,0.0029 0.368797,0.0068 0.2582349,-1.949637 -0.016013,-0.28335 -0.023309,-0.828631 -0.016214,-1.211735 0.014063,-0.759385 0.057714,-1.107849 0.1855138,-1.480962 0.036063,-0.105288 0.06557,-0.199008 0.06557,-0.208267 0,-0.0093 -0.095714,-0.05337 -0.2126982,-0.09802 C 2.401227,14.07259 0.6023127,12.446592 0.14783982,11.529428 -0.07032418,11.089154 -0.00502513,10.773762 0.4397986,10.119277 0.68745707,9.7548889 0.98704827,9.4026666 1.4049493,8.9845726 2.1991851,8.1899698 2.8971625,7.698481 3.3258262,7.6319647 3.5630548,7.5951538 4.2962871,7.6006105 4.9758485,7.644244 5.6719386,7.688939 6.2003915,7.6929364 6.4084376,7.6550805 6.6817862,7.6053424 6.9746472,7.3571102 7.1295979,7.0438171 7.2137261,6.8737192 7.2420647,6.641038 7.1930616,6.5227337 7.1205274,6.3476207 6.5795068,5.9435476 6.490509,5.998017 6.4727887,6.0088623 6.4091427,6.0551514 6.3490734,6.1008815 6.1779643,6.2311452 5.8518013,6.3832513 5.6700764,6.417532 5.5330237,6.4433857 5.4725251,6.4421493 5.3201951,6.4103812 4.8828347,6.3191708 4.2880027,5.9977856 4.0181104,5.7068704 3.9387907,5.6213725 3.8156766,5.4421126 3.8156766,5.4121177 c 0,-0.011332 0.055108,-0.028603 0.1224626,-0.03838 C 4.1229025,5.3469194 4.3340677,5.2602997 4.7720878,5.0316535 5.4455699,4.6800964 5.6734055,4.6322957 5.9883435,4.7764792 6.1413678,4.846536 6.3995474,5.0740573 6.5342531,5.2575633 6.5836625,5.3248723 6.7142747,5.4543465 6.8245023,5.5452837 7.2756582,5.9174843 7.6983848,6.4023396 7.7479278,6.6044258 7.7769195,6.7226819 7.7108219,6.9488822 7.5587383,7.2518746 7.3167424,7.7339977 6.9376849,8.2074201 6.6663302,8.3664446 6.4444519,8.4964738 6.298675,8.5108538 4.9629577,8.5344707 3.7188363,8.5564679 3.5122602,8.5706764 3.2708697,8.6508535 2.7096143,8.8372725 1.8318793,9.7850216 1.4662296,10.599444 c -0.073789,0.164354 -0.085478,0.218758 -0.086144,0.400954 -7.513e-4,0.205605 0.00183,0.214498 0.1047538,0.360942 0.3602459,0.512571 1.5849266,1.192635 2.1632566,1.201255 l 0.1804712,0.0027 1.3277523,-0.600428 C 11.501658,9.0954069 15.807774,7.5084856 17.523448,7.407232 c 0.822856,-0.048562 1.756976,0.3750129 2.97686,1.3498531 0.954963,0.763135 1.972964,1.7808339 3.735206,3.7340999 0.332621,0.368676 0.668641,0.732682 0.74671,0.808902 0.212736,0.207695 0.500271,0.414144 0.86864,0.623679 0.463174,0.263463 0.593309,0.355499 0.770519,0.544938 0.223201,0.238603 0.448826,0.707981 0.53734,1.117856 l 0.01704,0.07893 -0.36837,-0.01105 c -0.387361,-0.01162 -0.694688,0.02066 -0.821613,0.0863 -0.317532,0.164202 -0.481986,0.620626 -0.454446,1.261271 0.02728,0.63464 0.213219,1.044413 0.529053,1.165934 0.152199,0.05856 0.418285,0.05815 0.855598,-0.0013 0.386796,-0.0526 0.464069,-0.06124 0.464069,-0.0519 0,0.0039 -0.01724,0.138636 -0.03832,0.299396 -0.09133,0.696676 -0.184836,0.893529 -0.774806,1.631079 -0.847719,1.059773 -2.218174,2.463201 -2.596242,2.658708 -0.06025,0.03115 -0.125446,0.03851 -0.257514,0.02906 -0.365712,-0.02617 -0.767389,-0.315977 -0.857226,-0.618491 -0.08123,-0.273532 -0.03597,-1.314046 0.09225,-2.120843 0.05071,-0.319102 0.15305,-0.796441 0.192587,-0.898312 0.01752,-0.04515 0.01344,-0.04498 -0.08192,0.0034 -0.397077,0.201637 -0.951852,0.224223 -1.651642,0.06724 -0.16286,-0.03653 -0.299588,-0.06249 -0.303841,-0.05769 -0.0043,0.0048 -0.02064,1.006281 -0.03642,2.225499 l -0.02869,2.216759 0.08354,0.06301 c 0.337745,0.254743 0.634899,0.706124 0.699346,1.062316 l 0.01685,0.09314 -0.290548,0.01604 c -0.159801,0.0088 -0.69557,0.02375 -1.190596,0.03317 l -0.900048,0.01712 0.01779,-0.394153 c 0.02149,-0.476206 0.05411,-0.729259 0.123989,-0.961685 0.04899,-0.162951 0.0505,-0.195995 0.02178,-0.47696 -0.04292,-0.41992 -0.131728,-0.947675 -0.308934,-1.835884 -0.141595,-0.709721 -0.358008,-1.719095 -0.415956,-1.940066 l -0.02535,-0.09668 H 18.45138 18.032617 l -1.584762,2.336501 c -0.87162,1.285075 -1.604564,2.367244 -1.628766,2.404819 l -0.044,0.06832 0.287645,0.217881 c 0.495434,0.375275 0.93483,0.8327 1.023233,1.065219 l 0.02646,0.06959 -1.15319,-0.0067 -1.153189,-0.0067 -0.0688,-0.206252 c -0.109368,-0.327852 -0.207409,-0.760083 -0.210527,-0.928138 -0.0027,-0.147799 0.04096,-0.259775 0.980928,-2.513706 0.541088,-1.297459 0.99131,-2.378611 1.000493,-2.402561 0.01336,-0.03483 -0.0031,-0.04682 -0.08214,-0.0599 -1.491521,-0.246774 -2.570908,-0.726352 -3.288462,-1.461084 -0.201377,-0.206197 -0.225935,-0.223945 -0.236208,-0.1707 -0.0063,0.03268 -0.03124,0.181241 -0.05541,0.33013 -0.154612,0.952361 -0.731345,2.139121 -1.575371,3.241687 -0.132825,0.173511 -0.2415,0.320941 -0.2415,0.327621 0,0.0067 0.393202,0.442718 0.873782,0.968973 0.729151,0.798451 0.900563,0.97253 1.035576,1.051695 0.359538,0.210813 0.74721,0.656271 0.95263,1.094626 0.09194,0.19619 0.231804,0.621399 0.231804,0.70471 0,0.03954 0.0154,0.03941 -1.018373,0.0086 z"
   id="path18" /><path
   style="fill:#ffffff;stroke-width:0.0257816"
   d="m 29.764395,18.853951 c -0.05647,-0.03836 -0.263624,-0.195597 -0.46035,-0.349417 -0.605887,-0.473744 -0.888787,-0.645343 -1.204164,-0.730412 -0.23263,-0.06275 -0.713436,-0.05784 -1.16597,0.0119 -0.195751,0.03017 -0.440705,0.05485 -0.544343,0.05485 -0.167462,0 -0.195728,-0.0073 -0.253987,-0.06555 -0.258444,-0.258445 -0.330126,-1.101757 -0.128083,-1.506856 0.113966,-0.228503 0.161914,-0.245231 0.702238,-0.244998 0.274216,1.18e-4 0.511851,0.01339 0.605868,0.03385 0.620877,0.135081 1.314717,0.454454 1.734905,0.798574 0.250304,0.20499 0.580733,0.741188 0.736656,1.195393 0.111967,0.32616 0.186214,0.685368 0.173665,0.840191 -0.0043,0.05268 -0.08688,0.03691 -0.196435,-0.03752 z"
   id="path19" /></svg>
