<?xml version="1.0" encoding="UTF-8" standalone="no"?>
<!-- Generator: Adobe Illustrator 19.0.0, SVG Export Plug-In . SVG Version: 6.00 Build 0)  -->

<svg
   version="1.1"
   id="Layer_1"
   x="0px"
   y="0px"
   viewBox="0 0 512 512"
   style="enable-background:new 0 0 512 512;"
   xml:space="preserve"
   sodipodi:docname="ape.svg"
   inkscape:version="1.4.3 (fcd0343856, 2026-01-01)"
   xmlns:inkscape="http://www.inkscape.org/namespaces/inkscape"
   xmlns:sodipodi="http://sodipodi.sourceforge.net/DTD/sodipodi-0.dtd"
   xmlns="http://www.w3.org/2000/svg"
   xmlns:svg="http://www.w3.org/2000/svg"><defs
   id="defs44" /><sodipodi:namedview
   id="namedview44"
   pagecolor="#ffffff"
   bordercolor="#000000"
   borderopacity="0.25"
   inkscape:showpageshadow="2"
   inkscape:pageopacity="0.0"
   inkscape:pagecheckerboard="0"
   inkscape:deskcolor="#d1d1d1"
   inkscape:zoom="2.2714844"
   inkscape:cx="256.22012"
   inkscape:cy="256.44024"
   inkscape:window-width="2560"
   inkscape:window-height="1371"
   inkscape:window-x="1920"
   inkscape:window-y="32"
   inkscape:window-maximized="1"
   inkscape:current-layer="Layer_1" />
<g
   id="g2"
   style="display:none">
	<g
   id="g1">
		<path
   d="m 107.259,141.792 c -4.986,0 -9.018,4.031 -9.018,9.018 0,4.976 4.031,9.007 9.018,9.007 4.976,0 9.007,-4.032 9.007,-9.007 0,-4.987 -4.031,-9.018 -9.007,-9.018 z"
   id="path1" />
	</g>
</g>
<g
   id="g4"
   style="display:none">
	<g
   id="g3">
		<path
   d="m 142.619,186.817 -3.299,-3.299 c -3.734,-3.734 -9.771,-3.734 -13.505,0 -3.724,3.724 -3.724,9.771 0,13.505 l 3.31,3.299 c 1.857,1.867 4.307,2.801 6.747,2.801 2.44,0 4.891,-0.934 6.747,-2.801 3.735,-3.723 3.735,-9.77 0,-13.505 z"
   id="path2" />
	</g>
</g>
<g
   id="g6"
   style="display:none">
	<g
   id="g5">
		<path
   d="m 169.599,183.518 c -3.724,-3.734 -9.771,-3.734 -13.506,0 l -3.299,3.31 c -3.734,3.724 -3.734,9.771 0,13.495 1.867,1.867 4.307,2.801 6.747,2.801 2.451,0 4.891,-0.934 6.758,-2.801 l 3.299,-3.299 c 3.735,-3.735 3.735,-9.782 10e-4,-13.506 z"
   id="path4" />
	</g>
</g>
<g
   id="g8"
   style="display:none">
	<g
   id="g7">
		<path
   d="m 188.165,141.792 c -4.986,0 -9.018,4.031 -9.018,9.018 0,4.976 4.031,9.007 9.018,9.007 4.976,0 9.007,-4.032 9.007,-9.007 0,-4.987 -4.031,-9.018 -9.007,-9.018 z"
   id="path6" />
	</g>
</g>

<g
   id="g13"
   style="display:none">
	<g
   id="g12">
		<path
   d="m 107.259,141.792 c -4.986,0 -9.018,4.031 -9.018,9.018 0,4.976 4.031,9.007 9.018,9.007 4.976,0 9.007,-4.032 9.007,-9.007 0,-4.987 -4.031,-9.018 -9.007,-9.018 z"
   id="path11" />
	</g>
</g>
<g
   id="g15"
   style="display:none">
	<g
   id="g14">
		<path
   d="m 142.619,186.817 -3.299,-3.299 c -3.734,-3.734 -9.771,-3.734 -13.505,0 -3.724,3.724 -3.724,9.771 0,13.505 l 3.31,3.299 c 1.857,1.867 4.307,2.801 6.747,2.801 2.44,0 4.891,-0.934 6.747,-2.801 3.735,-3.723 3.735,-9.77 0,-13.505 z"
   id="path13" />
	</g>
</g>
<g
   id="g17"
   style="display:none">
	<g
   id="g16">
		<path
   d="m 169.599,183.518 c -3.724,-3.734 -9.771,-3.734 -13.506,0 l -3.299,3.31 c -3.734,3.724 -3.734,9.771 0,13.495 1.867,1.867 4.307,2.801 6.747,2.801 2.451,0 4.891,-0.934 6.758,-2.801 l 3.299,-3.299 c 3.735,-3.735 3.735,-9.782 10e-4,-13.506 z"
   id="path15" />
	</g>
</g>
<g
   id="SVGCleanerId_1"
   style="display:none">
	<g
   id="g18">
		<path
   d="m 188.165,141.792 c -4.986,0 -9.018,4.031 -9.018,9.018 0,4.976 4.031,9.007 9.018,9.007 4.976,0 9.007,-4.032 9.007,-9.007 0,-4.987 -4.031,-9.018 -9.007,-9.018 z"
   id="path17" />
	</g>
</g>
<g
   id="SVGCleanerId_2"
   style="display:none">
	<g
   id="g19">
		<path
   d="m 390.111,287.212 c -8.456,-15.84 -20.614,-31.223 -36.146,-45.726 -12.275,-11.469 -26.205,-21.908 -41.397,-31.021 -5.029,-3.013 -11.543,-1.379 -14.556,3.639 -3.013,5.029 -1.39,11.543 3.639,14.556 13.919,8.349 26.65,17.876 37.832,28.327 13.622,12.731 24.666,26.64 31.912,40.219 1.91,3.575 5.58,5.612 9.368,5.612 1.687,0 3.395,-0.403 4.986,-1.252 5.179,-2.758 7.131,-9.187 4.362,-14.354 z"
   id="path18" />
	</g>
</g>





<g
   id="g30">
</g>
<g
   id="g31">
</g>
<g
   id="g32">
</g>
<g
   id="g33">
</g>
<g
   id="g34">
</g>
<g
   id="g35">
</g>
<g
   id="g36">
</g>
<g
   id="g37">
</g>
<g
   id="g38">
</g>
<g
   id="g39">
</g>
<g
   id="g40">
</g>
<g
   id="g41">
</g>
<g
   id="g42">
</g>
<g
   id="g43">
</g>
<g
   id="g44">
</g>
<path
   style="fill:#ffffff;stroke-width:0.440241"
   d="m 201.41015,476.70812 c -8.61382,-1.00624 -15.79255,-7.40073 -18.05354,-16.08127 -0.56963,-2.18694 -0.65702,-12.47545 -0.65915,-77.59983 -0.002,-50.36174 -0.15238,-75.61845 -0.45787,-76.71839 -1.21158,-4.36254 -5.55303,-7.55471 -10.26036,-7.54421 -4.52398,0.0101 -7.98191,2.12583 -9.89176,6.05227 l -0.81616,1.67793 -3.45564,-4.11575 c -9.08729,-10.82322 -18.30781,-24.6962 -24.11201,-36.27839 -1.45375,-2.90092 -6.03384,-13.49648 -6.03384,-13.95864 0,-0.11455 1.73345,0.15094 3.85211,0.59 19.709,4.08438 41.45626,0.24268 59.0327,-10.42822 21.99329,-13.35245 37.16496,-37.78922 39.0627,-62.91765 l 0.29831,-3.95003 8.85989,-0.0275 c 8.5085,-0.0264 9.06942,-0.083 14.14278,-1.42661 6.35828,-1.68393 15.17023,-5.88766 19.92704,-9.50617 l 3.19788,-2.43264 5.38681,2.01986 c 50.98626,19.11799 96.97612,53.99435 124.13588,94.1383 5.54152,8.19075 8.51428,13.33764 12.65963,21.91826 5.30597,10.98302 8.66285,20.88493 10.70299,31.571 0.95178,4.98539 0.96443,5.58423 0.82735,39.18142 -0.0766,18.76527 -0.29976,48.18435 -0.49597,65.37576 -0.34057,29.83823 -0.39918,31.41696 -1.29125,34.77902 -3.25066,12.25129 -12.54554,21.55864 -24.92826,24.96168 -3.46828,0.95316 -4.06404,0.97034 -39.11468,1.12842 -38.17344,0.17216 -41.31505,0.042 -45.37737,-1.87977 -9.41025,-4.45176 -13.13768,-16.21351 -7.94583,-25.07273 1.29516,-2.21002 4.71196,-5.53621 6.7919,-6.61179 4.42129,-2.28634 2.83744,-2.1814 36.59433,-2.42446 l 31.5124,-0.22689 2.15437,-1.33236 c 5.75616,-3.55985 6.82269,-11.92573 2.11991,-16.62851 -2.43988,-2.43989 -4.13611,-3.02882 -9.8714,-3.42734 -13.88885,-0.96507 -25.52348,-6.31442 -34.59085,-15.90413 -8.49572,-8.98512 -12.83795,-19.09522 -13.80415,-32.14046 -0.54942,-7.41813 -1.89968,-10.03079 -6.38547,-12.35548 -2.27348,-1.17819 -6.81402,-1.23427 -9.03809,-0.11162 -1.89596,0.95703 -4.2689,3.153 -5.08034,4.70146 -2.05093,3.91377 -1.5449,12.87387 1.43226,25.36009 0.23426,0.98247 0.19587,0.99054 -4.71023,0.99054 -4.4272,0 -5.78425,-0.21247 -12.92836,-2.0242 -13.55521,-3.43756 -28.42203,-8.69028 -42.21068,-14.91381 l -5.61307,-2.53346 v -21.68613 c 0,-17.89571 -0.11244,-22.00482 -0.6433,-23.50946 -1.56335,-4.43098 -5.3674,-7.09555 -10.11897,-7.08788 -4.74096,0.008 -8.32376,2.38271 -10.13554,6.71893 -0.59484,1.42364 -0.67398,9.25645 -0.67398,66.70198 0,44.84707 -0.14839,65.90129 -0.47713,67.70116 -1.99383,10.91604 -12.42363,18.58346 -23.51599,17.28768 z M 384.3925,302.37471 c 4.15054,-1.24353 6.98177,-5.33302 6.98118,-10.08378 -4e-4,-3.28402 -0.95784,-5.60687 -5.0697,-12.2995 -13.91139,-22.6428 -36.3331,-45.16965 -62.16205,-62.45351 -11.88838,-7.95531 -14.42775,-9.16717 -18.261,-8.7147 -8.22198,0.97053 -12.23883,10.11711 -7.51823,17.1194 0.76221,1.13061 3.07689,2.88607 7.45278,5.65221 27.15875,17.16788 49.53988,38.98509 62.49256,60.91798 3.86452,6.54381 5.37887,8.37703 7.87769,9.53644 2.02047,0.93746 5.67974,1.08258 8.20677,0.32546 z"
   id="path44" /><path
   style="fill:#ffffff;stroke-width:0.440241"
   d="m 159.67295,441.1428 c -0.67928,-0.80729 -1.72076,-2.42631 -2.31441,-3.59781 -2.43189,-4.79912 -2.38024,-3.57159 -2.38729,-56.73294 l -0.006,-49.08305 3.08349,3.08349 3.08349,3.0835 -0.11187,52.3573 -0.11186,52.3573 z"
   id="path45" /><path
   style="fill:#ffffff;stroke-width:0.440241"
   d="m 287.03697,444.59663 c -11.09242,-6.6498 -11.0587,-23.5512 0.0603,-30.20138 4.80658,-2.87478 9.49885,-3.36182 18.26462,-1.89578 2.8754,0.4809 8.85508,1.35998 13.28817,1.95351 l 8.06016,1.07914 1.68752,1.8986 1.68751,1.8986 -4.90503,0.28784 c -10.99733,0.64534 -19.06675,3.93463 -26.14322,10.65658 -3.94772,3.74995 -6.56644,7.31064 -8.73505,11.87711 -0.88095,1.85504 -1.62926,3.37206 -1.66291,3.37115 -0.0337,-9.1e-4 -0.75456,-0.41732 -1.60203,-0.92537 z"
   id="path46" /><path
   style="fill:#ffffff;stroke-width:0.440241"
   d="m 201.41015,476.70812 c -8.07394,-0.94317 -14.31777,-6.08667 -17.76295,-14.63264 -0.66341,-1.64562 -0.74647,-8.55855 -0.94729,-78.8459 l -0.22012,-77.04213 -1.24009,-2.10971 c -4.28444,-7.28885 -14.8039,-7.12646 -18.83669,0.29079 l -1.14642,2.10856 -3.31719,-3.95367 c -9.3197,-11.10787 -18.3507,-24.6793 -24.23073,-36.413 -1.57947,-3.15185 -5.24325,-11.55978 -5.76614,-13.23257 l -0.28786,-0.92094 4.0798,0.79241 c 27.68851,5.3779 56.05682,-3.57424 75.25479,-23.74803 13.13299,-13.80052 21.27171,-31.64601 22.62786,-49.61532 l 0.29811,-3.95003 h 8.41986 c 8.97719,0 11.67317,-0.394 18.76551,-2.74249 4.54484,-1.50494 12.02025,-5.43623 15.77124,-8.29403 l 3.12315,-2.37947 5.63105,2.12746 c 55.8275,21.09213 104.66144,60.16774 130.62897,104.52579 3.3524,5.72661 9.03029,17.5329 11.01792,22.91007 2.23396,6.04356 4.47953,14.03107 5.63852,20.05627 0.97395,5.06325 0.98228,5.45018 0.84444,39.23234 -0.0766,18.76527 -0.29976,48.18435 -0.49597,65.37576 -0.34057,29.83823 -0.39918,31.41696 -1.29125,34.77902 -3.25066,12.25129 -12.54554,21.55864 -24.92826,24.96168 -3.46828,0.95316 -4.06404,0.97034 -39.11468,1.12842 -38.28876,0.17268 -41.53823,0.0374 -45.48339,-1.89273 -7.64415,-3.73994 -11.72785,-12.34452 -9.66937,-20.37391 1.54739,-6.03581 5.41015,-10.1867 11.88241,-12.76875 1.6128,-0.64341 5.42346,-0.7524 33.33338,-0.95336 l 31.5124,-0.22689 2.15437,-1.33236 c 3.01644,-1.86549 4.73036,-4.75302 4.95978,-8.35598 0.21898,-3.439 -0.45215,-5.5515 -2.47504,-7.79059 -2.51502,-2.78384 -4.40374,-3.504 -10.25613,-3.91066 -13.95512,-0.96968 -25.47954,-6.28841 -34.65955,-15.99602 -8.23336,-8.70655 -12.8085,-19.31115 -13.70332,-31.76259 -0.42299,-5.88597 -1.09393,-8.01114 -3.23404,-10.24378 -2.23194,-2.32843 -4.4987,-3.28265 -7.79799,-3.28265 -3.21019,0 -5.0756,0.73812 -7.40556,2.93028 -2.99001,2.81315 -3.64225,5.52197 -3.12433,12.97555 0.30258,4.35468 0.92062,8.06333 2.48813,14.93045 0.22411,0.98184 0.1827,0.99054 -4.71748,0.99054 -4.19363,0 -5.88773,-0.23628 -11.1674,-1.55755 -15.76392,-3.94501 -34.34586,-10.60295 -47.92145,-17.17034 l -1.63571,-0.7913 -0.12525,-22.26792 c -0.1177,-20.92691 -0.17612,-22.37041 -0.97005,-23.96987 -3.76229,-7.57953 -14.52511,-8.1261 -18.95439,-0.96258 l -1.33236,2.15484 -0.22012,67.17144 -0.22012,67.17144 -0.97245,2.5747 c -3.67094,9.71939 -12.8329,15.46635 -22.80055,14.30195 z M 384.3925,302.37471 c 4.18941,-1.25517 6.98153,-5.32768 6.98153,-10.18307 0,-2.62644 -0.21003,-3.33439 -2.01582,-6.7948 -2.57747,-4.93918 -9.17964,-14.93059 -13.60688,-20.59202 -10.64333,-13.6104 -25.44217,-27.98799 -40.64907,-39.49202 -5.22753,-3.95463 -19.68477,-13.64358 -22.71929,-15.226 -2.82063,-1.47089 -7.49937,-1.64051 -9.93757,-0.36026 -4.97733,2.61348 -7.27159,8.15083 -5.5387,13.36805 1.00387,3.02239 2.64709,4.56435 9.38786,8.80934 26.62744,16.76863 49.0949,38.77625 62.26492,60.99053 4.82488,8.13829 6.94757,9.93898 11.75746,9.97395 1.30363,0.009 3.13764,-0.21269 4.07556,-0.4937 z"
   id="path47" /><path
   style="fill:#ffffff;stroke-width:0.440241"
   d="M 141.75752,112.21806 C 117.70781,110.63362 94.198442,97.119651 80.563912,77.041917 l -1.816034,-2.674229 1.410525,-2.292395 c 4.182544,-6.797502 12.064611,-15.413727 18.675647,-20.415152 12.9768,-9.817292 28.07952,-15.494637 43.58383,-16.383834 28.92346,-1.658805 55.37132,11.230796 71.39726,34.796085 l 2.89462,4.256398 -2.43358,3.447815 c -16.56817,23.473155 -43.66514,36.342375 -72.51866,34.441455 z"
   id="path48" /><path
   style="fill:#ffffff;stroke-width:0.440241"
   d="m 49.747206,153.4001 c -12.886468,-2.76581 -22.883084,-11.99919 -26.924405,-24.86876 -0.882685,-2.81091 -1.030884,-4.20053 -1.030884,-9.66634 0,-5.46762 0.148056,-6.85499 1.031931,-9.66978 3.738183,-11.904632 12.906657,-21.046918 24.263315,-24.194009 1.792511,-0.49673 3.304218,-0.856337 3.359348,-0.799126 0.05513,0.05721 -0.554488,2.679428 -1.354708,5.82715 -2.305173,9.067565 -3.030272,15.053575 -3.039657,25.093725 -0.01181,12.63286 1.979176,24.17069 6.033559,34.96467 0.849486,2.26158 1.288881,3.98144 1.012132,3.96164 -0.268987,-0.0192 -1.776771,-0.31138 -3.350631,-0.64917 z"
   id="path49" /><path
   style="fill:#ffffff;stroke-width:0.440241"
   d="m 243.34676,150.02114 c 4.01252,-10.64132 5.99198,-22.19824 5.97733,-34.89818 -0.0114,-9.8859 -0.8773,-16.93462 -3.16375,-25.754086 -0.72189,-2.784523 -1.26585,-5.109578 -1.2088,-5.166789 0.36241,-0.363414 7.18487,1.995134 9.98458,3.451702 8.41342,4.377144 14.63893,11.97963 17.64263,21.544883 0.88268,2.81091 1.03088,4.20052 1.03088,9.66633 0,5.46206 -0.14889,6.8601 -1.0315,9.6853 -4.27183,13.67405 -14.83284,22.82423 -29.17724,25.27949 l -1.59308,0.27268 z"
   id="path50" /><path
   style="fill:#ffffff;stroke-width:0.440241"
   d="m 429.781,255.51496 c -0.19941,-0.91226 -8.73941,-13.59584 -12.41945,-18.44531 -5.85444,-7.71485 -12.45688,-15.33592 -19.49493,-22.50261 l -6.5345,-6.65394 0.15676,-58.50169 c 0.15389,-57.430143 0.17356,-58.574267 1.07384,-62.463861 3.52513,-15.229978 13.02202,-27.53422 26.47849,-34.305752 7.81353,-3.931902 14.61305,-5.330581 24.16816,-4.97145 7.85014,0.29505 12.63327,1.460334 19.29278,4.700185 13.33624,6.48808 22.73006,18.129329 26.73178,33.127208 0.95901,3.594262 0.97415,4.106079 0.97415,32.92702 v 29.27601 l -1.4154,2.98818 c -2.82729,5.96895 -8.42761,10.28401 -14.64591,11.28471 -10.52674,1.69404 -20.61421,-5.99251 -22.01427,-16.77465 -0.23007,-1.77175 -0.42441,-13.9751 -0.43189,-27.11857 -0.015,-26.33553 0.0487,-25.68138 -2.78741,-28.640084 -5.10887,-5.329733 -13.61266,-4.277772 -17.21614,2.129721 l -1.36172,2.421325 -0.22416,81.004298 c -0.12328,44.55237 -0.27186,80.78603 -0.33018,80.51926 z"
   id="path51" /><path
   style="fill:#ffffff;stroke-width:0.440241"
   d="m 142.41788,232.46373 c -13.82112,-1.31349 -26.02659,-6.86251 -36.13323,-16.42741 -5.15799,-4.88152 -9.06977,-10.03865 -12.234195,-16.1291 -4.328564,-8.33101 -6.299675,-15.70482 -6.845068,-25.60697 -0.373614,-6.78335 -0.10278,-6.10838 -5.845202,-14.56749 -7.831827,-11.53701 -12.325002,-24.33275 -13.543662,-38.56987 -0.512893,-5.99193 -0.331446,-10.60721 0.710317,-18.06761 l 0.695936,-4.98383 3.731533,3.99897 c 20.265659,21.71808 51.677251,33.98697 81.329481,31.76607 14.78123,-1.10709 25.99658,-4.10677 38.81342,-10.38112 11.17034,-5.46831 22.64802,-13.91798 29.9613,-22.05697 l 2.98362,-3.320493 0.56448,2.999513 c 0.95422,5.07047 1.38152,14.09354 0.94494,19.9537 -0.75594,10.14656 -3.19193,19.21839 -7.66367,28.54008 -2.08951,4.35575 -3.58541,6.80056 -9.56948,15.63983 -1.62869,2.40579 -2.0788,4.22535 -2.08384,8.42395 -0.01,7.95772 -2.22421,16.68286 -6.36944,25.09372 -9.90259,20.0928 -29.21074,32.66199 -51.96314,33.82688 -2.17919,0.11157 -5.54704,0.0522 -7.4841,-0.13185 z m -3.58589,-29.54862 c 2.50064,-0.69435 5.36898,-3.54323 6.25588,-6.21343 1.44934,-4.36354 0.16236,-7.85907 -4.51972,-12.2759 -3.16747,-2.98804 -5.16849,-3.93071 -8.32688,-3.92277 -1.90643,0.005 -5.7119,1.62099 -6.85851,2.91285 -1.2644,1.42456 -2.53589,4.69793 -2.54346,6.54803 -0.0148,3.61176 0.7417,5.08358 4.53802,8.82896 4.48674,4.42653 7.04423,5.34691 11.45467,4.12226 z m 23.78105,-0.0653 c 2.27382,-0.68125 8.00113,-5.99895 9.13696,-8.48349 2.18122,-4.77124 0.067,-10.62434 -4.62711,-12.81005 -4.42,-2.05807 -7.93632,-1.23702 -12.28949,2.86954 -4.64011,4.37724 -5.846,7.54648 -4.55766,11.97819 1.52739,5.25404 6.91682,8.06982 12.3373,6.44581 z m -50.2724,-44.3284 c 4.70894,-3.22662 5.51146,-9.62578 1.73241,-13.81392 -1.98351,-2.19822 -3.73615,-2.94994 -6.87782,-2.94994 -5.30038,0 -9.021541,3.72078 -9.021541,9.02062 0,3.70885 1.731424,6.56814 5.062771,8.36071 2.03681,1.09599 7.10522,0.75223 9.10418,-0.61747 z m 81.22292,-0.3036 c 2.51577,-2.02619 3.64842,-4.3017 3.65706,-7.34712 0.0153,-5.39013 -3.66734,-9.11314 -9.0143,-9.11314 -3.1462,0 -4.89446,0.75189 -6.88971,2.96311 -4.07162,4.51232 -2.57547,11.92271 2.92415,14.4833 0.84527,0.39355 2.4581,0.57074 4.48016,0.49221 2.77476,-0.10777 3.36437,-0.28777 4.84264,-1.47836 z"
   id="path52" /></svg>
