<?xml version="1.0" encoding="UTF-8" standalone="no"?>
<!-- Generator: Adobe Illustrator 19.0.0, SVG Export Plug-In . SVG Version: 6.00 Build 0)  -->

<svg
   version="1.1"
   id="Layer_1"
   x="0px"
   y="0px"
   viewBox="0 0 32 32"
   xml:space="preserve"
   sodipodi:docname="frame-2.svg"
   inkscape:version="1.4.3 (fcd0343856, 2026-01-01)"
   width="32"
   height="32"
   xmlns:inkscape="http://www.inkscape.org/namespaces/inkscape"
   xmlns:sodipodi="http://sodipodi.sourceforge.net/DTD/sodipodi-0.dtd"
   xmlns="http://www.w3.org/2000/svg"
   xmlns:svg="http://www.w3.org/2000/svg"><defs
   id="defs19" /><sodipodi:namedview
   id="namedview19"
   pagecolor="#ffffff"
   bordercolor="#000000"
   borderopacity="0.25"
   inkscape:showpageshadow="2"
   inkscape:pageopacity="0.0"
   inkscape:pagecheckerboard="0"
   inkscape:deskcolor="#d1d1d1"
   inkscape:zoom="25.698912"
   inkscape:cx="7.6656941"
   inkscape:cy="16.245824"
   inkscape:window-width="2560"
   inkscape:window-height="1371"
   inkscape:window-x="1920"
   inkscape:window-y="32"
   inkscape:window-maximized="1"
   inkscape:current-layer="Layer_1"
   showguides="true"><sodipodi:guide
     position="6.9652753,-7.5736593"
     orientation="1,0"
     id="guide1"
     inkscape:locked="false" /><sodipodi:guide
     position="25.48746,-7.495835"
     orientation="1,0"
     id="guide2"
     inkscape:locked="false" /><sodipodi:guide
     position="42.453159,25.968616"
     orientation="0,-1"
     id="guide3"
     inkscape:locked="false" /><sodipodi:guide
     position="39.962781,5.8121212"
     orientation="0,-1"
     id="guide4"
     inkscape:locked="false" /><sodipodi:guide
     position="15.564861,14.839741"
     orientation="1,0"
     id="guide5"
     inkscape:locked="false" /></sodipodi:namedview>

















<g
   id="g1"
   transform="matrix(-0.21677181,0,0,0.21677181,31.936297,1.1242939)"><circle
     cx="13.316"
     cy="67.539001"
     r="1.778"
     id="circle1" /><path
     d="m 126.514,52.117 a 1,1 0 0 0 0.024,-1.928 22.768,22.768 0 0 0 -6.348,-0.91 22.468,22.468 0 0 0 -21.631,16.33 l -1,-1 A 64.638,64.638 0 0 0 84.4,54.482 a 8.075,8.075 0 0 1 6.3,-3.013 0.963,0.963 0 0 1 0.124,0 1,1 0 0 0 1.045,-1.386 A 10.114,10.114 0 0 0 73.635,49.34 0.977,0.977 0 0 0 73.594,49.487 64.336,64.336 0 0 0 63.3,46.769 0.974,0.974 0 0 0 63.335,46.482 c -0.006,-0.057 0,-0.119 0,-0.182 A 8.48,8.48 0 0 1 65.1,41.071 1,1 0 0 0 64.913,39.664 22.934,22.934 0 0 0 29.991,48.855 0.99,0.99 0 0 0 29.981,49.597 64.011,64.011 0 0 0 6.33,64.61 l -4.44,4.44 a 3.984,3.984 0 0 0 -1.14,2.98 c 0.02,0.14 0.03,0.28 0.05,0.39 l 0.005,0.021 C 0.78,72.3 0.766,72.167 0.754,72.03 a 1,1 0 0 1 0.288,-0.8 l 0.39,-0.39 a 72.928,72.928 0 0 1 8.217,-7.072 l -0.068,0.068 a 5.273,5.273 0 0 0 -1.5,3.25 c -0.01,0.15 -0.02,0.3 -0.02,0.45 a 5.2,5.2 0 0 0 0.18,1.293 c -2,1.315 -3.96,2.726 -5.825,4.218 a 1,1 0 0 1 -1.6,-0.58 3.949,3.949 0 0 0 1.074,2.113 l 4.44,4.45 a 64.236,64.236 0 0 0 25.141,15.562 1,1 0 0 0 -0.055,0.435 9.84,9.84 0 0 0 9.8,8.792 9.732,9.732 0 0 0 5.271,-1.539 1,1 0 0 0 -0.075,-1.727 7.833,7.833 0 0 1 -3.233,-3.238 64.869,64.869 0 0 0 8.758,0.6 64.191,64.191 0 0 0 30.77,-7.787 0.991,0.991 0 0 0 0.505,0.458 9.983,9.983 0 0 0 3.655,0.7 9.8,9.8 0 0 0 5.266,-1.526 1,1 0 0 0 -0.073,-1.73 7.751,7.751 0 0 1 -2.56,-2.178 64.192,64.192 0 0 0 8.06,-6.822 l 1,-1 a 22.487,22.487 0 0 0 21.63,16.31 22.257,22.257 0 0 0 6.052,-0.837 1,1 0 0 0 0,-1.926 20.445,20.445 0 0 1 0.276,-39.459 z M 15.662,65.284 c 0.02,0.02 0.041,0.039 0.06,0.06 a 3.244,3.244 0 0 1 0.422,0.581 c 0.019,0.033 0.036,0.066 0.054,0.1 a 3.252,3.252 0 0 1 0.265,0.665 c 0.009,0.032 0.013,0.064 0.021,0.1 a 3.251,3.251 0 0 1 -3.8,3.951 c -0.093,-0.019 -0.178,-0.054 -0.268,-0.08 a 3.289,3.289 0 0 1 -0.325,-0.1 3.184,3.184 0 0 1 -0.35,-0.182 c -0.061,-0.034 -0.125,-0.062 -0.183,-0.1 a 3.251,3.251 0 0 1 -0.387,-0.3 c -0.025,-0.022 -0.052,-0.04 -0.076,-0.063 a 3.273,3.273 0 0 1 -0.378,-0.43 l -0.009,-0.011 a 3.266,3.266 0 0 1 -0.619,-1.7 c -0.005,-0.074 -0.022,-0.145 -0.022,-0.22 0,-0.11 0.01,-0.21 0.02,-0.34 a 3.252,3.252 0 0 1 0.88,-1.91 0.571,0.571 0 0 1 0.08,-0.07 2.785,2.785 0 0 1 0.81,-0.58 3.271,3.271 0 0 1 3.226,0.16 v 0 a 3.194,3.194 0 0 1 0.579,0.469 z m 19.161,7.6 a 1,1 0 0 1 -1,-1 9.65,9.65 0 0 1 9.639,-9.64 1,1 0 0 1 1,1 9.65,9.65 0 0 1 -9.64,9.645 z M 103.14,71.54 a 3.741,3.741 0 0 1 -0.263,1.705 1,1 0 0 1 -1.56,0.4 78.707,78.707 0 0 0 -84.274,-9.8 5.08,5.08 0 0 0 -1.513,-1.065 5.224,5.224 0 0 0 -4.58,0.07 c -0.038,0.018 -0.071,0.044 -0.108,0.064 a 71.523,71.523 0 0 1 92,7.909 1,1 0 0 1 0.293,0.708 z"
     id="path1" /></g><path
   style="fill:#ffffff;stroke-width:0.0389122"
   d="m 22.577167,23.560331 c -0.276259,-0.05999 -0.617891,-0.205776 -0.718896,-0.306782 -0.113678,-0.113678 -0.08466,-0.239509 0.07846,-0.340175 0.211756,-0.130687 0.427118,-0.334289 0.563926,-0.533132 l 0.119579,-0.173802 -0.268792,0.02565 c -1.295799,0.123652 -2.24518,0.12538 -3.265028,0.0059 -1.618111,-0.189504 -3.232177,-0.669618 -4.660068,-1.386167 l -0.387144,-0.194278 -0.174957,0.08224 c -0.267679,0.125824 -0.73319,0.181544 -1.055276,0.126312 -0.540381,-0.09267 -0.962338,-0.326876 -0.915005,-0.507881 0.01183,-0.04525 0.10281,-0.134497 0.202169,-0.198326 0.09936,-0.06383 0.247814,-0.184913 0.329898,-0.269075 l 0.149244,-0.153024 -0.304017,-0.228429 c -0.43387,-0.325998 -0.833852,-0.669117 -1.259439,-1.080395 -0.203494,-0.196652 -0.389488,-0.3696 -0.413319,-0.384329 -0.02772,-0.01713 -0.075,0.06756 -0.131227,0.235092 -0.222341,0.662423 -0.625739,1.300197 -1.1649424,1.841777 -0.8560619,0.859834 -1.9390713,1.347483 -3.157705,1.421826 -0.4474881,0.0273 -1.0002439,-0.0258 -1.4046311,-0.134935 -0.2014799,-0.05438 -0.2504179,-0.08404 -0.2807082,-0.170172 -0.05132,-0.145929 0.010204,-0.204841 0.3201285,-0.306536 1.4427699,-0.473413 2.5041766,-1.618108 2.9171,-3.146005 0.091441,-0.338349 0.1006102,-0.438597 0.099918,-1.09241 -7.003e-4,-0.661592 -0.00936,-0.75138 -0.1069372,-1.108997 C 7.4797003,14.815449 7.0866551,14.130742 6.537555,13.577577 6.0292073,13.065467 5.5021372,12.736607 4.792625,12.488846 4.3938271,12.349587 4.3135678,12.272814 4.4111272,12.123919 c 0.1162697,-0.17745 0.961841,-0.317844 1.6956887,-0.281544 1.2640236,0.06253 2.3961674,0.573722 3.2549434,1.469704 0.4926796,0.514024 0.8583067,1.101299 1.1022857,1.770503 l 0.103472,0.283812 0.446247,-0.417275 c 0.807745,-0.755304 1.471178,-1.271019 2.284464,-1.775813 0.197966,-0.122875 0.359938,-0.237665 0.359938,-0.255089 0,-0.01742 -0.08156,-0.103475 -0.18125,-0.191223 -0.26937,-0.237109 -0.616891,-0.393668 -0.974306,-0.438928 -0.335935,-0.04254 -0.395805,-0.06354 -0.456698,-0.160207 -0.09867,-0.15664 0.419746,-0.849887 0.834662,-1.116138 0.767454,-0.492474 1.787076,-0.430787 2.520696,0.152502 0.181848,0.144584 0.520483,0.548927 0.560655,0.669443 0.0096,0.02893 0.158961,-0.0029 0.44108,-0.09408 0.44633,-0.144226 1.193472,-0.339312 1.59751,-0.417126 l 0.237118,-0.04567 -0.01488,-0.200423 c -0.02478,-0.333631 -0.126503,-0.663791 -0.282865,-0.91805 -0.09103,-0.148021 -0.140642,-0.2705322 -0.128445,-0.317174 0.04405,-0.1684425 0.936945,-0.6677158 1.547356,-0.8652221 1.007424,-0.3259649 2.163483,-0.3122727 3.141521,0.037208 0.996215,0.3559755 1.892384,1.0481941 2.462037,1.9017271 0.236924,0.354993 0.489586,0.86032 0.46378,0.927568 -0.01018,0.02653 0.08356,0.08384 0.226262,0.138353 0.488774,0.186695 1.227485,0.525746 1.683392,0.772636 0.606375,0.328375 1.560952,0.962423 2.101256,1.395694 0.481849,0.386396 2.136498,1.998898 2.2241,2.167448 0.115285,0.221813 0.02244,0.179066 -0.338413,-0.155808 -0.488628,-0.45345 -0.812149,-0.731997 -1.161496,-1.00003 -0.283552,-0.217554 -0.404828,-0.262285 -0.24898,-0.09183 0.167252,0.182922 0.222764,0.348051 0.229563,0.682874 l 0.0066,0.32309 0.325294,0.222109 c 0.178913,0.12216 0.468723,0.331356 0.644023,0.464881 0.230258,0.175385 0.351769,0.242772 0.437762,0.242772 0.06865,0 0.119034,0.02038 0.119034,0.04816 0,0.08101 -1.78189,1.82127 -2.237449,2.185174 -1.171823,0.936061 -2.628224,1.757773 -3.978768,2.244851 -0.348932,0.125843 -0.359937,0.13351 -0.359937,0.250761 0,0.06652 -0.02794,0.216057 -0.06208,0.3323 -0.221402,0.753767 -0.851687,1.331747 -1.630599,1.495281 -0.32961,0.0692 -0.506878,0.06903 -0.828493,-8.06e-4 z M 10.359516,16.816489 c 2.717484,-2.074919 5.807433,-3.252633 9.213297,-3.511588 0.742329,-0.05644 2.350019,-0.02628 3.054604,0.0573 1.884956,0.223612 3.637784,0.712387 5.283136,1.473201 l 0.341293,0.157814 0.08723,-0.08194 c 0.248505,-0.233459 0.773658,-0.325659 1.088244,-0.191062 0.273507,0.117022 0.14668,-0.003 -0.330754,-0.313116 -2.131854,-1.384552 -4.481476,-2.199935 -7.043871,-2.444415 -1.271588,-0.121323 -3.03549,-0.04007 -4.308749,0.19848 -2.895954,0.542568 -5.714577,1.99082 -7.8350093,4.025747 l -0.3444193,0.330531 0.01537,0.241382 c 0.016906,0.265503 0.099803,0.401436 0.2448096,0.401436 0.046526,0 0.287196,-0.154696 0.534823,-0.34377 z m 14.217557,0.0123 c 0.119541,-0.182443 -0.01435,-0.800779 -0.266613,-1.231225 -0.263449,-0.449542 -0.874416,-0.867787 -1.408077,-0.963916 -0.502112,-0.09045 -0.605719,-0.03802 -0.605719,0.306474 0,1.03466 0.933621,1.973109 1.973895,1.984104 0.217401,0.0023 0.248903,-0.0075 0.306514,-0.09544 z m 4.880855,-0.462555 C 29.783473,16.150799 29.8666,15.642393 29.625605,15.340733 29.47453,15.15163 29.287622,15.059139 29.0564,15.059064 c -0.227247,-7.4e-5 -0.402671,0.0709 -0.541044,0.218892 -0.352351,0.376849 -0.182264,1.025847 0.310431,1.184505 0.17097,0.05505 0.473016,0.0091 0.632141,-0.09623 z"
   id="path24" /><path
   style="fill:#ffffff;stroke-width:0.0389122"
   d="m 28.901351,16.075184 c -0.239025,-0.119457 -0.278748,-0.380382 -0.08709,-0.572042 0.197349,-0.197349 0.543242,-0.06844 0.589044,0.219521 0.01774,0.111512 0.0025,0.16156 -0.07871,0.258039 -0.123719,0.147031 -0.258081,0.177026 -0.423245,0.09448 z"
   id="path25" /></svg>
