<?xml version="1.0" encoding="UTF-8" standalone="no"?>
<!-- Generator: Adobe Illustrator 19.0.0, SVG Export Plug-In . SVG Version: 6.00 Build 0)  -->

<svg
   version="1.1"
   id="Layer_1"
   x="0px"
   y="0px"
   viewBox="0 0 32 32"
   xml:space="preserve"
   sodipodi:docname="frame-3.svg"
   inkscape:version="1.4.3 (fcd0343856, 2026-01-01)"
   width="32"
   height="32"
   xmlns:inkscape="http://www.inkscape.org/namespaces/inkscape"
   xmlns:sodipodi="http://sodipodi.sourceforge.net/DTD/sodipodi-0.dtd"
   xmlns="http://www.w3.org/2000/svg"
   xmlns:svg="http://www.w3.org/2000/svg"><defs
   id="defs19" /><sodipodi:namedview
   id="namedview19"
   pagecolor="#ffffff"
   bordercolor="#000000"
   borderopacity="0.25"
   inkscape:showpageshadow="2"
   inkscape:pageopacity="0.0"
   inkscape:pagecheckerboard="0"
   inkscape:deskcolor="#d1d1d1"
   inkscape:zoom="25.698912"
   inkscape:cx="10.895403"
   inkscape:cy="16.479297"
   inkscape:window-width="2560"
   inkscape:window-height="1371"
   inkscape:window-x="1920"
   inkscape:window-y="32"
   inkscape:window-maximized="1"
   inkscape:current-layer="Layer_1"
   showguides="true"><sodipodi:guide
     position="6.9652753,-7.5736593"
     orientation="1,0"
     id="guide1"
     inkscape:locked="false" /><sodipodi:guide
     position="25.48746,-7.495835"
     orientation="1,0"
     id="guide2"
     inkscape:locked="false" /><sodipodi:guide
     position="42.453159,25.968616"
     orientation="0,-1"
     id="guide3"
     inkscape:locked="false" /><sodipodi:guide
     position="39.962781,5.8121212"
     orientation="0,-1"
     id="guide4"
     inkscape:locked="false" /><sodipodi:guide
     position="15.564861,14.839741"
     orientation="1,0"
     id="guide5"
     inkscape:locked="false" /></sodipodi:namedview>

















<g
   id="g4"
   transform="matrix(-0.23244004,0,0,0.23244004,32.230676,3.2470877)"
   style="display:none"><path
     d="m 66.28,37.17 c -0.018,-0.028 -0.049,-0.042 -0.069,-0.068 a 0.994,0.994 0 0 0 0.047,-0.688 C 63.856,28.361 57.082,22.95 49.4,22.95 c -7.977,0 -15.021,5.938 -17.13,14.439 a 0.99,0.99 0 0 0 -0.006,0.418 q 1.953,-0.358 3.966,-0.647 a 1.025,1.025 0 0 1 0.96,0.41 38.59,38.59 0 0 1 7.11,22.42 c 0,0.115 -0.01,0.228 -0.011,0.343 a 3.244,3.244 0 0 1 1.112,-0.2 h 8.02 a 4.7,4.7 0 0 1 2.38,0.63 4.643,4.643 0 0 1 1.69,1.77 5.438,5.438 0 0 1 -0.31,5.56 l -1.41,2.19 -1.4,2.19 a 5.5,5.5 0 0 1 -4.57,2.6 c -0.12,0 -0.24,0 -0.36,-0.01 a 4.592,4.592 0 0 1 -3.88,-2.72 L 43.5,67.818 a 38.9,38.9 0 0 1 -4.61,11.962 1.012,1.012 0 0 1 -0.86,0.49 0.618,0.618 0 0 1 -0.13,-0.01 115.353,115.353 0 0 0 14.65,0.92 c 1.93,0 3.88,-0.05 5.83,-0.14 1.02,-0.05 1.99,-0.11 2.99,-0.19 h 0.09 a 0.988,0.988 0 0 0 0.76,-0.48 0.938,0.938 0 0 0 0.14,-0.6 0.869,0.869 0 0 0 -0.07,-0.31 C 62.2,79.24 62.1,79.02 62.01,78.8 A 49.1,49.1 0 0 1 58.69,67.29 C 58.65,67.06 58.62,66.84 58.6,66.62 58.55,66.26 58.51,65.9 58.49,65.55 58.46,65.3 58.44,65.06 58.43,64.82 a 1.847,1.847 0 0 1 -0.01,-0.23 c -0.04,-0.51 -0.05,-1.02 -0.05,-1.51 a 19.679,19.679 0 0 1 1.53,-7.93 c 2.17,-4.99 4.13,-10.08 5.84,-15.16 0.22,-0.66 0.44,-1.31 0.65,-1.97 a 1.067,1.067 0 0 0 0.04,-0.19 0.969,0.969 0 0 0 -0.15,-0.66 z"
     id="path1"
     style="display:inline" /><circle
     cx="17.719"
     cy="53.144001"
     r="1.602"
     id="circle1"
     style="display:inline" /><path
     d="M 23.12,76.74 A 0.98,0.98 0 0 1 23.33,75.8 23.905,23.905 0 0 0 21.29,42.12 1.022,1.022 0 0 1 20.97,41.16 1,1 0 0 1 21.495,40.492 L 21.484,40.473 C 8.463,44.7 1,51.29 1,58.59 c 0,7.8 8.31,14.66 22.8,18.83 a 0.99,0.99 0 0 1 -0.68,-0.68 z m -5.4,-19.26 a 4.34,4.34 0 1 1 4.34,-4.34 4.342,4.342 0 0 1 -4.34,4.34 z"
     id="path2"
     style="display:inline" /><path
     d="m 121.49,42.97 a 9.04,9.04 0 0 0 -9.34,0.37 l -6.39,4.1 c -0.011,0.007 -0.019,0.019 -0.03,0.027 v 0 a 1.021,1.021 0 0 0 -0.208,0.191 0.94,0.94 0 0 0 -0.151,0.252 c -0.35,0.86 -0.65,1.74 -0.91,2.62 -0.12,0.38 -0.22,0.77 -0.31,1.15 a 5.093,5.093 0 0 0 -0.13,0.53 c -0.08,0.31 -0.15,0.62 -0.2,0.94 a 1.981,1.981 0 0 0 -0.06,0.26 c -0.05,0.26 -0.1,0.53 -0.14,0.8 -0.03,0.15 -0.05,0.31 -0.07,0.46 -0.03,0.18 -0.05,0.35 -0.07,0.53 -0.04,0.23 -0.06,0.46 -0.08,0.69 -0.03,0.26 -0.06,0.52 -0.07,0.78 a 1.491,1.491 0 0 0 -0.02,0.21 c -0.02,0.29 -0.04,0.59 -0.05,0.88 -0.01,0.38 -0.02,0.77 -0.02,1.15 0,0.49 0.01,0.97 0.04,1.45 0.01,0.39 0.04,0.78 0.08,1.17 0.04,0.39 0.07,0.79 0.13,1.19 0.06,0.46 0.13,0.93 0.21,1.39 0.07,0.4 0.16,0.81 0.25,1.21 0.06,0.29 0.13,0.57 0.21,0.85 0.07,0.3 0.15,0.61 0.24,0.9 v 0.01 c 0.2,0.69 0.42,1.37 0.67,2.05 a 0.965,0.965 0 0 0 0.187,0.308 1.084,1.084 0 0 0 0.293,0.232 h 0.01 a 6.47,6.47 0 0 1 0.67,0.39 l 5.92,3.8 a 9.575,9.575 0 0 0 1.149,0.631 c 0.126,0.059 0.257,0.1 0.385,0.151 0.265,0.109 0.53,0.219 0.8,0.3 0.175,0.054 0.353,0.087 0.531,0.13 0.228,0.055 0.454,0.114 0.684,0.151 0.2,0.032 0.4,0.045 0.6,0.064 0.2,0.019 0.424,0.042 0.638,0.046 0.062,0 0.123,0.013 0.184,0.013 0.183,0 0.367,-0.023 0.55,-0.035 0.139,-0.009 0.277,-0.011 0.416,-0.026 0.253,-0.028 0.5,-0.076 0.755,-0.125 0.137,-0.027 0.274,-0.045 0.41,-0.079 0.26,-0.064 0.516,-0.151 0.773,-0.238 0.122,-0.042 0.245,-0.072 0.366,-0.119 a 9.5,9.5 0 0 0 1.1,-0.507 A 11.006,11.006 0 0 0 127,64.44 V 52.75 a 11.006,11.006 0 0 0 -5.51,-9.78 z"
     id="path3"
     style="display:inline" /><path
     d="m 97.1,70.24 c -0.02,0.02 -0.11,0.08 -0.19,0.14 a 1.064,1.064 0 0 1 -0.58,0.17 0.9,0.9 0 0 1 -0.28,-0.04 1.053,1.053 0 0 1 -0.65,-0.57 29.537,29.537 0 0 1 0.2,-22.56 0.982,0.982 0 0 1 0.64,-0.57 1.023,1.023 0 0 1 0.838,0.135 v 0 a 1.985,1.985 0 0 0 0.169,-0.527 c 0.011,-0.188 0.012,-0.388 0.012,-0.587 0,-9.071 -6.675,-16.45 -14.88,-16.45 a 14.483,14.483 0 0 0 -12.5,7.539 0.993,0.993 0 0 0 -0.117,0.354 c 0.326,0.05 0.659,0.093 0.982,0.147 a 85.639,85.639 0 0 1 10.99,2.45 1,1 0 0 0 -1.18,0.52 1.324,1.324 0 0 0 -0.079,0.168 v 0 0 c -0.15,0.3 -0.29,0.6 -0.43,0.9 -0.38,0.82 -0.75,1.65 -1.1,2.48 -0.17,0.41 -0.34,0.83 -0.51,1.25 -0.17,0.44 -0.34,0.87 -0.5,1.31 -0.1,0.27 -0.2,0.55 -0.29,0.82 -0.16,0.43 -0.31,0.87 -0.45,1.31 -0.29,0.87 -0.56,1.74 -0.8,2.62 -0.11,0.36 -0.21,0.73 -0.3,1.1 -0.11,0.39 -0.21,0.79 -0.3,1.18 -0.19,0.78 -0.37,1.57 -0.52,2.36 q -0.105,0.45 -0.18,0.9 c -0.08,0.44 -0.16,0.88 -0.23,1.32 -0.09,0.57 -0.18,1.13 -0.26,1.7 -0.04,0.26 -0.07,0.53 -0.1,0.8 -0.06,0.5 -0.12,1 -0.17,1.51 a 34.433,34.433 0 0 0 -0.18,3.49 c 0,0.42 0.01,0.83 0.03,1.24 0.01,0.29 0.02,0.58 0.04,0.87 0.02,0.29 0.04,0.58 0.07,0.86 0.03,0.35 0.07,0.7 0.11,1.04 0.02,0.16 0.04,0.31 0.07,0.47 0.05,0.37 0.11,0.73 0.17,1.08 0.02,0.09 0.03,0.17 0.05,0.25 0.09,0.42 0.17,0.84 0.27,1.26 v 0.02 c 0.11,0.41 0.21,0.82 0.33,1.23 0.02,0.09 0.05,0.18 0.07,0.26 q 0.15,0.51 0.33,1.02 c 0.13,0.39 0.27,0.78 0.42,1.16 0.04,0.11 0.08,0.21 0.12,0.31 0.128,0.306 0.257,0.611 0.394,0.917 v 0 l 0.006,0.013 c 0.03,0.06 0.05,0.12 0.08,0.18 a 1,1 0 0 0 0.91,0.59 0.851,0.851 0 0 0 0.23,-0.03 q -3.24,0.78 -6.69,1.35 c -0.322,0.054 -0.66,0.089 -0.984,0.14 a 1,1 0 0 0 0.148,0.408 14.53,14.53 0 0 0 12.051,6.813 c 8.082,0 14.753,-7.274 14.87,-16.217 A 0.991,0.991 0 0 0 97.067,70.266 C 97.078,70.257 97.1,70.245 97.1,70.24 Z m -18.9,5.97 a 0.486,0.486 0 0 1 -0.04,-0.11 1.164,1.164 0 0 0 0.05,0.11 z"
     id="path4"
     style="display:inline" /></g><path
   style="display:inline;fill:#ffffff;stroke-width:0.0389122"
   d="M 4.6110901,20.700492 C 3.8271978,20.54357 3.1333259,19.887217 2.8556163,19.03994 L 2.7433068,18.69729 v -1.828872 -1.828871 l 0.1138908,-0.347511 c 0.3280657,-1.001017 1.2132009,-1.697243 2.1546574,-1.694802 0.2723201,7.06e-4 0.6555361,0.08788 0.8748331,0.199016 0.247151,0.125247 1.7176918,1.072845 1.7874842,1.151832 0.089648,0.101458 0.2908972,0.73892 0.4087123,1.294604 0.091888,0.433397 0.1033063,0.573329 0.1047814,1.284101 0.00141,0.681311 -0.011389,0.862731 -0.08775,1.243414 -0.1122763,0.559732 -0.2961035,1.13898 -0.3854334,1.214517 -0.092345,0.07809 -1.6307997,1.05481 -1.7923746,1.13793 -0.3396325,0.17472 -0.9279525,0.254528 -1.3110179,0.177844 z"
   id="path18" /><path
   style="fill:#ffffff;stroke-width:0.0389122"
   d="M 12.64645,23.437077 C 11.165396,23.188113 9.9870135,21.95269 9.7073282,20.355687 9.6759154,20.17632 9.650214,19.937979 9.650214,19.826041 c 0,-0.195706 0.00371,-0.202815 0.096561,-0.185065 0.203302,0.03886 0.278601,-0.01505 0.382105,-0.273602 0.134498,-0.33597 0.284691,-0.904417 0.36211,-1.370503 0.07818,-0.470672 0.08801,-1.526002 0.01864,-2.001225 -0.06504,-0.445551 -0.239902,-1.121288 -0.391519,-1.512986 -0.1315019,-0.33973 -0.2270935,-0.428732 -0.4011448,-0.37349 -0.076729,0.02435 -0.078057,0.01386 -0.055257,-0.436771 0.084112,-1.662485 1.1815988,-3.097137 2.6625788,-3.480563 0.806523,-0.2088097 1.847843,-0.0166 2.566408,0.473704 0.380411,0.259572 0.864143,0.777128 1.03462,1.106967 l 0.06115,0.118317 -0.624396,0.108998 c -0.343418,0.05995 -0.941331,0.187559 -1.328696,0.283578 -0.700028,0.17352 -0.909175,0.242692 -0.741178,0.24513 0.123586,0.0018 0.191019,0.100476 0.425242,0.622306 0.701479,1.562832 1.159395,3.39858 1.247638,5.001683 0.04863,0.883486 -0.108947,1.923416 -0.415191,2.740024 -0.164404,0.438388 -0.236396,0.547403 -0.362709,0.549237 -0.0649,9.42e-4 -0.06962,0.008 -0.02315,0.03447 0.06386,0.03642 1.422285,0.31419 1.541244,0.315152 0.04049,3.28e-4 0.09888,0.01659 0.129775,0.03613 0.04525,0.02863 0.01228,0.09282 -0.16966,0.330368 -0.500372,0.65328 -1.246491,1.103833 -2.064052,1.246403 -0.321043,0.05599 -0.732737,0.07012 -0.954881,0.03277 z"
   id="path19" /><path
   style="fill:#ffffff;stroke-width:0.0389122"
   d="m 18.580553,22.058999 c -0.682514,-0.03691 -0.74258,-0.04847 -0.798922,-0.153741 -0.03456,-0.06457 -0.0065,-0.170434 0.151857,-0.573495 0.725026,-1.845079 0.928608,-3.567354 0.566687,-4.794098 -0.03473,-0.117709 -0.209117,-0.564226 -0.387533,-0.99226 -0.387424,-0.929461 -0.804493,-2.027035 -1.092415,-2.874838 -0.199266,-0.586751 -0.208285,-0.630102 -0.174601,-0.839256 0.121734,-0.755903 0.762374,-1.768957 1.488495,-2.3537831 1.173981,-0.9455362 2.747738,-1.1341833 4.050802,-0.4855717 0.846994,0.4215982 1.521773,1.0990098 1.950035,1.9576408 0.161177,0.323146 0.374259,0.900294 0.374259,1.013704 0,0.03399 -0.129483,0.02533 -0.488441,-0.03267 -0.351912,-0.05686 -0.506905,-0.06754 -0.554498,-0.03822 -0.131998,0.08132 -0.47967,0.631748 -0.783503,1.240438 -0.590378,1.182747 -0.882191,2.284529 -0.958469,3.61883 l -0.02669,0.466946 h -1.191584 c -1.169771,0 -1.194959,0.0017 -1.375978,0.09081 -0.498712,0.245608 -0.74385,0.902284 -0.550263,1.474043 0.08161,0.241043 0.821889,1.389093 1.014403,1.573177 0.218593,0.20902 0.456981,0.314375 0.760667,0.336175 0.324567,0.0233 0.538454,-0.03389 0.778464,-0.208146 0.186697,-0.135548 0.309622,-0.348823 0.671358,-1.164804 l 0.103502,-0.233473 0.09654,0.369641 c 0.133774,0.512224 0.262139,0.884897 0.467686,1.357793 0.197678,0.454791 0.499968,1.018402 0.570146,1.063021 0.02551,0.01622 0.02886,0.02979 0.0075,0.03016 -0.0214,3.71e-4 -0.284058,0.02605 -0.583682,0.05708 -1.260991,0.130555 -2.775785,0.165739 -4.085776,0.0949 z"
   id="path20" /><path
   style="fill:#ffffff;stroke-width:0.0389122"
   d="m 26.878129,21.061203 c 0.01209,-0.08473 -0.04136,-0.18151 -0.256754,-0.464896 -0.852706,-1.121876 -1.206254,-2.223257 -1.159197,-3.611152 0.03576,-1.05476 0.305648,-1.921895 0.871987,-2.801675 0.210892,-0.327609 0.621142,-0.826431 0.823619,-1.001435 0.17961,-0.15524 0.248881,-0.279234 0.21523,-0.385258 -0.03152,-0.09929 -0.03158,-0.09931 0.694863,0.184286 2.156717,0.841967 3.527213,2.026847 3.843698,3.323119 0.06644,0.272126 0.06729,0.850858 0.0016,1.128453 -0.08194,0.346561 -0.406341,0.961975 -0.675813,1.282085 -0.759367,0.902065 -2.081238,1.689564 -3.822488,2.277231 -0.287225,0.09694 -0.52894,0.17625 -0.537143,0.17625 -0.0082,0 -0.008,-0.04815 3.49e-4,-0.107008 z m 1.663935,-4.537268 c 0.783375,-0.365572 0.783903,-1.50336 8.64e-4,-1.85907 -0.246072,-0.111783 -0.65386,-0.09852 -0.911024,0.02963 -0.481911,0.240146 -0.685645,0.879646 -0.436084,1.368824 0.09568,0.18755 0.383596,0.44773 0.556914,0.503267 0.234219,0.07505 0.576774,0.05654 0.78933,-0.04265 z"
   id="path21" /><path
   style="fill:#ffffff;stroke-width:0.0389122"
   d="m 27.950699,15.907403 c -0.04703,-0.02272 -0.113203,-0.09968 -0.147053,-0.17101 -0.05442,-0.114678 -0.05504,-0.145277 -0.0053,-0.264219 0.148258,-0.354833 0.646477,-0.257511 0.646477,0.126282 0,0.124248 -0.02316,0.173535 -0.119722,0.254787 -0.126567,0.1065 -0.233895,0.122027 -0.374363,0.05416 z"
   id="path22" /></svg>
