<?xml version="1.0" encoding="UTF-8" standalone="no"?>
<!-- Generator: Adobe Illustrator 19.0.0, SVG Export Plug-In . SVG Version: 6.00 Build 0)  -->

<svg
   version="1.1"
   id="Layer_1"
   x="0px"
   y="0px"
   viewBox="0 0 512 512"
   style="enable-background:new 0 0 512 512;"
   xml:space="preserve"
   sodipodi:docname="temperature-2.svg"
   inkscape:version="1.4.3 (fcd0343856, 2026-01-01)"
   xmlns:inkscape="http://www.inkscape.org/namespaces/inkscape"
   xmlns:sodipodi="http://sodipodi.sourceforge.net/DTD/sodipodi-0.dtd"
   xmlns="http://www.w3.org/2000/svg"
   xmlns:svg="http://www.w3.org/2000/svg"><defs
   id="defs25" /><sodipodi:namedview
   id="namedview25"
   pagecolor="#ffffff"
   bordercolor="#000000"
   borderopacity="0.25"
   inkscape:showpageshadow="2"
   inkscape:pageopacity="0.0"
   inkscape:pagecheckerboard="0"
   inkscape:deskcolor="#d1d1d1"
   inkscape:zoom="2.2714844"
   inkscape:cx="255.77988"
   inkscape:cy="256.44024"
   inkscape:window-width="2560"
   inkscape:window-height="1371"
   inkscape:window-x="1920"
   inkscape:window-y="32"
   inkscape:window-maximized="1"
   inkscape:current-layer="Layer_1" />

<g
   id="g4">
	<g
   id="g3">
		
	</g>
</g>
<g
   id="g6">
	<g
   id="g5">
		
	</g>
</g>
<g
   id="g8">
	<g
   id="g7">
		
	</g>
</g>
<g
   id="g10">
	<g
   id="g9">
		
	</g>
</g>
<g
   id="g11">
</g>
<g
   id="g12">
</g>
<g
   id="g13">
</g>
<g
   id="g14">
</g>
<g
   id="g15">
</g>
<g
   id="g16">
</g>
<g
   id="g17">
</g>
<g
   id="g18">
</g>
<g
   id="g19">
</g>
<g
   id="g20">
</g>
<g
   id="g21">
</g>
<g
   id="g22">
</g>
<g
   id="g23">
</g>
<g
   id="g24">
</g>
<g
   id="g25">
</g>
<path
   style="fill:#ffffff;stroke-width:0.440241"
   d="M 233.17552,329.27239 C 177.02037,327.66142 131.15105,319.74753 95.532244,305.52462 71.976232,296.11849 53.619499,285.2176 32.491773,268.08891 c -0.811095,-0.65757 -0.815142,-0.86391 -0.133843,-6.82374 2.424053,-21.20499 9.352418,-40.12449 21.677231,-59.19466 1.33014,-2.05813 2.458843,-3.78907 2.508229,-3.84654 0.04939,-0.0575 1.989276,1.14784 4.310869,2.67849 12.102283,7.97913 26.341432,12.75054 41.769471,13.99655 27.42911,2.21525 55.84803,-9.69684 73.52736,-30.81978 11.9304,-14.25423 18.83018,-30.72444 20.68044,-49.36556 0.47758,-4.81148 0.32214,-14.45391 -0.306,-18.98286 l -0.28205,-2.0336 5.04062,-0.95305 c 7.17364,-1.35634 18.58566,-2.97351 27.36345,-3.8776 10.99262,-1.13221 44.38962,-1.12109 55.08762,0.0183 10.14944,1.08101 18.60928,2.27525 25.91596,3.65845 l 6.10514,1.15575 -0.28192,2.03265 c -0.62803,4.52808 -0.78342,14.17085 -0.30588,18.98192 2.515,25.33827 14.81586,47.55433 34.60281,62.49466 29.71703,22.43815 70.04797,23.9435 101.27755,3.78019 l 4.34907,-2.80797 1.53595,2.27516 c 3.00882,4.45685 7.60477,12.4813 10.12815,17.68358 7.30508,15.06042 11.21327,29.10022 12.99351,46.67795 l 0.26877,2.65386 -5.44063,4.31965 c -37.01649,29.3896 -79.94788,45.80241 -139.42019,53.30082 -29.96967,3.77864 -65.57623,5.23399 -102.28794,4.18082 z m -5.35298,-38.44946 c 3.84746,-1.90151 6.3326,-4.47944 8.31804,-8.6286 1.26803,-2.64992 1.36827,-3.20346 1.35534,-7.4841 -0.0178,-5.88372 -0.99648,-8.5867 -4.46597,-12.33417 -8.70602,-9.40354 -23.9185,-7.12105 -29.38258,4.40858 -1.27088,2.68165 -1.35674,3.18322 -1.35674,7.92559 0,4.61985 0.10484,5.27604 1.19832,7.5005 2.32387,4.72739 6.18777,8.19128 10.86821,9.74307 1.8751,0.62168 3.38535,0.77528 6.34023,0.64482 3.38382,-0.14941 4.2931,-0.37601 7.12515,-1.77569 z m 71.6524,0.51395 c 3.50427,-1.61972 6.93925,-4.99793 8.74939,-8.6048 1.42893,-2.84728 1.48504,-3.15037 1.48504,-8.02185 0,-4.78028 -0.0784,-5.22835 -1.40574,-8.03032 -5.27838,-11.14273 -19.68401,-13.83529 -28.73347,-5.37058 -6.66828,6.23739 -7.49119,17.11147 -1.85941,24.5707 1.98586,2.63026 4.25031,4.3096 7.85801,5.82761 2.25996,0.95092 3.09812,1.06398 6.97122,0.94034 3.649,-0.11648 4.83582,-0.34086 6.93496,-1.3111 z"
   id="path25" /><path
   style="fill:#ffffff;stroke-width:0.440241"
   d="m 397.5374,183.12054 c -13.3486,-1.38648 -25.48069,-7.3509 -35.02841,-17.22079 -6.30226,-6.51492 -10.38663,-13.33167 -13.14427,-21.93758 -2.05771,-6.42161 -2.63017,-10.24561 -2.60374,-17.39295 0.0994,-26.889367 18.62944,-49.279225 45.59559,-55.0933 5.01217,-1.080656 16.3113,-1.096853 21.31975,-0.03056 11.44645,2.436931 21.03117,7.554464 29.01832,15.493633 20.36265,20.240337 22.46513,51.810347 4.96139,74.498447 -11.61694,15.05771 -31.42011,23.62527 -50.11863,21.6831 z m 11.84646,-36.03371 c 14.91393,-4.64174 19.51579,-24.08407 8.34464,-35.25522 -11.38699,-11.38699 -30.81366,-5.87292 -34.92543,9.91325 -2.75491,10.57681 3.46618,22.03398 13.74905,25.32115 3.46246,1.10686 9.3118,1.11635 12.83174,0.0208 z"
   id="path26" /><path
   style="fill:#ffffff;stroke-width:0.440241"
   d="m 104.7773,183.29253 c -24.124518,-2.16317 -44.209093,-18.90045 -50.38845,-41.9907 -3.581698,-13.38364 -2.095396,-27.21425 4.279928,-39.82634 2.828341,-5.595206 6.01512,-9.94516 10.643184,-14.527941 8.079379,-8.000326 17.48516,-13.029046 29.011717,-15.510863 4.964941,-1.069016 16.254751,-1.046939 21.319751,0.04169 17.69288,3.802763 31.93792,14.713295 39.88276,30.546934 3.86344,7.69963 5.67939,15.50145 5.71283,24.54391 0.0264,7.14734 -0.54603,10.97134 -2.60374,17.39295 -2.95474,9.22098 -7.64123,16.69574 -14.73941,23.50875 -8.34795,8.01256 -17.97528,12.96499 -29.08634,14.96239 -4.00974,0.72082 -10.88247,1.14165 -14.03223,0.85922 z m 10.52573,-36.2057 c 15.07404,-4.69156 19.49038,-24.45602 7.92882,-35.48387 -13.32553,-12.71041 -35.183699,-3.22535 -35.183699,15.26749 0,9.21895 5.891376,17.46817 14.423149,20.19556 3.46245,1.10686 9.3118,1.11635 12.83173,0.0208 z"
   id="path27" /><path
   style="fill:#ffffff;stroke-width:0.440241"
   d="M 238.84074,441.1118 C 185.54916,437.78982 137.04324,421.32702 98.945924,393.63184 72.428393,374.35469 51.89568,349.18815 41.251219,322.9166 c -2.396501,-5.9148 -4.004423,-10.75898 -3.679171,-11.08423 0.133147,-0.13315 2.283175,1.03054 4.777839,2.58597 38.82479,24.20738 86.608123,38.47473 147.834123,44.14095 39.58122,3.66308 91.78724,3.66506 131.63198,0.005 60.774,-5.58259 109.52611,-20.13095 147.84044,-44.11779 2.49814,-1.56397 4.64817,-2.73748 4.77784,-2.60781 0.62821,0.62821 -4.1863,12.93799 -8.16264,20.87029 -25.34421,50.55851 -82.46506,89.21767 -152.37997,103.13013 -10.21983,2.03365 -21.57955,3.66929 -32.13758,4.62733 -9.08067,0.82399 -34.02896,1.19919 -42.91334,0.64537 z"
   id="path28" /></svg>
