<?xml version="1.0" encoding="UTF-8" standalone="no"?>
<!-- Created with Inkscape (http://www.inkscape.org/) -->

<svg
   width="255.99998"
   height="255.99998"
   viewBox="0 0 67.733329 67.733329"
   version="1.1"
   id="svg1"
   xml:space="preserve"
   xmlns="http://www.w3.org/2000/svg"
   xmlns:svg="http://www.w3.org/2000/svg"><defs
     id="defs1" /><g
     id="layer1"><g
       id="g4"
       transform="matrix(0.8250381,0,0,0.8250381,-0.31187452,15.620455)"
       style="display:inline"><g
         id="layer1-1"
         transform="translate(-65.832865,-61.604166)"><ellipse
           style="fill:#ffffff;stroke-width:0.210364"
           id="path1-0"
           cx="103.25655"
           cy="82.56028"
           rx="32.896637"
           ry="19.017593" /><path
           style="fill:#ffffff;stroke-width:0.264583"
           id="path2-6"
           d="m 44.621489,45.874297 c -0.271994,0.339839 -1.424702,5.60142 -1.796192,5.806081 -0.371489,0.20466 -5.263928,-2.57711 -5.684187,-2.552771 -0.420258,0.02434 -4.143047,3.84965 -4.554285,3.710592 -0.411238,-0.139059 -2.188774,-5.792949 -2.520881,-6.059635 -0.332108,-0.266685 -6.908585,-0.09044 -7.148796,-0.440373 -0.240211,-0.349937 2.499437,-6.019922 2.412572,-6.440459 -0.08686,-0.420537 -4.160252,-3.896458 -4.076626,-4.310056 0.08363,-0.413598 6.438955,-3.435243 6.697542,-3.792176 0.258587,-0.356934 -0.0289,-5.804087 0.349782,-6.00163 0.378687,-0.197543 5.835496,2.918096 6.262691,2.834394 0.427194,-0.0837 4.04998,-4.305014 4.476256,-4.218554 0.426275,0.08646 3.130091,5.031893 3.490612,5.266429 0.360521,0.234536 5.964882,1.439679 6.202907,1.786965 0.238025,0.347287 -2.885152,4.935943 -2.860303,5.36907 0.02485,0.433126 3.842733,5.192884 3.704478,5.609956 -0.138255,0.417072 -4.683576,3.092329 -4.95557,3.432167 z"
           transform="matrix(2.5190344,0,0,1.4926854,12.298791,25.468692)" /><path
           style="fill:#ffffff;stroke-width:0.264583"
           id="path2-2-3"
           d="m 44.621489,45.874297 c -0.271994,0.339839 -1.424702,5.60142 -1.796192,5.806081 -0.371489,0.20466 -5.263928,-2.57711 -5.684187,-2.552771 -0.420258,0.02434 -4.143047,3.84965 -4.554285,3.710592 -0.411238,-0.139059 -2.188774,-5.792949 -2.520881,-6.059635 -0.332108,-0.266685 -6.908585,-0.09044 -7.148796,-0.440373 -0.240211,-0.349937 2.499437,-6.019922 2.412572,-6.440459 -0.08686,-0.420537 -4.160252,-3.896458 -4.076626,-4.310056 0.08363,-0.413598 6.438955,-3.435243 6.697542,-3.792176 0.258587,-0.356934 -0.0289,-5.804087 0.349782,-6.00163 0.378687,-0.197543 5.835496,2.918096 6.262691,2.834394 0.427194,-0.0837 4.04998,-4.305014 4.476256,-4.218554 0.426275,0.08646 3.130091,5.031893 3.490612,5.266429 0.360521,0.234536 5.964882,1.439679 6.202907,1.786965 0.238025,0.347287 -2.885152,4.935943 -2.860303,5.36907 0.02485,0.433126 3.842733,5.192884 3.704478,5.609956 -0.138255,0.417072 -4.683576,3.092329 -4.95557,3.432167 z"
           transform="matrix(0,1.4473869,2.3009701,0,13.448451,30.844556)" /><path
           style="opacity:1;fill:#ffffff;stroke-width:0.264583"
           d="m 134.80011,79.154897 8.26877,-4.194242 a 2.4687834,2.4687834 33.659826 0 1 3.57891,2.383212 l -1.00964,13.697748 a 1.7889017,1.7889017 149.67922 0 1 -2.54412,1.487905 l -7.95565,-3.733963 z"
           id="path3-2"
           transform="translate(-0.84567198,0.84567203)" /></g><circle
         style="opacity:1;fill:#000000;stroke-width:0.264583"
         id="path4-0"
         cx="36.062988"
         cy="17.927221"
         r="6.218996" /><circle
         style="fill:#000000;stroke-width:0.211158"
         id="path4-7-6"
         cx="12.923734"
         cy="16.205587"
         r="4.9632373" /><ellipse
         style="opacity:1;fill:#ffffff;stroke-width:0.264583"
         id="path5-1"
         cx="14.176915"
         cy="18.943792"
         rx="1.1959608"
         ry="1.1361628" /><ellipse
         style="fill:#ffffff;stroke-width:0.264583"
         id="path5-6-5"
         cx="38.22052"
         cy="21.640409"
         rx="1.1959608"
         ry="1.1361628" /><path
         style="opacity:1;fill:none;stroke:#000000;stroke-width:2;stroke-linecap:round;stroke-linejoin:round;stroke-dasharray:none;stroke-opacity:1"
         d="m 88.121168,84.756724 -3.359767,-0.537545 a 0.87740565,0.87740565 126.90613 0 0 -0.93201,1.241045 l 0.875545,1.854096 a 1.7389647,1.7389647 95.79609 0 1 -0.181285,1.785927 l -0.560764,0.747686 a 0.68967207,0.68967207 60.11868 0 0 0.631396,1.098859 L 88.14231,90.53423"
         id="path6-54"
         transform="translate(-66.002,-61.942435)" /></g></g></svg>
