<?xml version="1.0" encoding="UTF-8" standalone="no"?>
<!-- Uploaded to: SVG Repo, www.svgrepo.com, Generator: SVG Repo Mixer Tools -->

<svg
   fill="#000000"
   height="800px"
   width="800px"
   version="1.1"
   id="Capa_1"
   viewBox="0 0 379.777 379.777"
   xml:space="preserve"
   sodipodi:docname="frame_2.svg"
   inkscape:version="1.4.3 (fcd0343856, 2026-01-01)"
   xmlns:inkscape="http://www.inkscape.org/namespaces/inkscape"
   xmlns:sodipodi="http://sodipodi.sourceforge.net/DTD/sodipodi-0.dtd"
   xmlns="http://www.w3.org/2000/svg"
   xmlns:svg="http://www.w3.org/2000/svg"><defs
   id="defs1" /><sodipodi:namedview
   id="namedview1"
   pagecolor="#ffffff"
   bordercolor="#000000"
   borderopacity="0.25"
   inkscape:showpageshadow="2"
   inkscape:pageopacity="0.0"
   inkscape:pagecheckerboard="0"
   inkscape:deskcolor="#d1d1d1"
   inkscape:zoom="1.45375"
   inkscape:cx="341.87446"
   inkscape:cy="366.98194"
   inkscape:window-width="2560"
   inkscape:window-height="1371"
   inkscape:window-x="1920"
   inkscape:window-y="32"
   inkscape:window-maximized="1"
   inkscape:current-layer="Capa_1" />
<path
   id="base"
   style="display:inline"
   d="m 379.11587,95.655404 c -6.758,0 -37.4989,4.941796 -62.8199,13.080796 -1.638,0.527 -2.92257,0.78348 -3.92757,0.78348 -1.961,0 -2.72195,-0.92813 -4.25395,-3.02913 -1.848,-2.533 -4.37949,-6.00101 -11.17449,-8.914008 -2.804,-1.202 -6.05689,-1.811729 -9.66689,-1.811729 -14.221,0 -32.19902,9.311297 -42.74902,22.141297 -0.0619,0.075 -0.099,0.0944 -0.10662,0.0964 -0.5298,0 -1.82156,-1.20062 -3.88493,-4.8455 l -41.37121,14.18694 -4.49038,15.83733 -26.65486,56.37037 -12.36408,-7.16904 c -1.619,3.238 -4.43892,7.19282 -8.01092,12.20182 -9.829,13.783 -24.68195,34.61327 -35.55494,69.33527 -4.88599,15.601 -55.963145,70.25303 -69.247145,83.53703 -0.648001,0.648 -15.846908,15.9165 -14.059908,20.2285 0.142,0.344 0.613156,1.14323 1.908156,1.14323 3.176,0 11.55354,-5.44223 24.901539,-16.19523 17.47,-14.073 29.399289,-25.8476 38.110289,-34.4516 8.476989,-8.374 13.784439,-13.59597 17.427429,-14.16097 -0.333,1.784 -1.38561,6.36729 -4.5766,17.92629 -0.077,0.279 -0.23797,0.93768 0.12702,1.41768 l 0.35512,0.57578 h 0.49512 0.003 c 0.773,0 1.17224,-0.61815 4.53024,-4.78615 10.24399,-12.714 41.41697,-51.56108 84.72197,-60.06708 25.376,-4.985 56.88553,-28.51871 68.00753,-63.85371 16.822,-53.439 30.90271,-87.05578 105.17671,-104.08078 11.727,-2.68901 11.65288,-3.351162 11.53888,-4.353162 -0.129,-1.144 -1.54437,-1.144153 -2.38937,-1.144153 z" /><path
   id="base-3"
   style="display:none"
   d="m 180.54706,8.7758528 c -0.604,0 -1.18379,0.2999908 -1.77279,0.9169908 -6.658,6.9830004 -20.26921,65.2528504 -19.41721,83.1318504 0.52366,10.999106 7.16109,19.330206 12.79986,24.823656 1.85543,1.80762 3.60243,3.3079 4.98828,4.49502 0.0244,0.0209 0.0491,0.0425 0.0733,0.063 0.659,0.564 1.36294,1.16686 1.91094,1.66986 -0.0341,-0.0122 -0.0689,-0.0257 -0.10385,-0.0389 l 4.94471,4.45608 41.37121,-14.18694 c -1.49245,-2.63636 -3.38859,-6.55126 -5.69202,-12.21665 -4.013,-9.87 -8.13613,-22.367557 -10.50413,-31.841557 -3.553,-14.212 -13.87864,-34.195421 -20.71064,-47.417421 -2.915,-5.642 -5.2178,-10.09758 -5.7968,-11.83558 -0.447,-1.3389985 -1.14981,-2.0194192 -2.09081,-2.0194192 z"
   inkscape:label="right-off" /><path
   id="left-off"
   d="m 23.786131,0 c -0.606037,0.00123205 -1.704014,0.23072547 -2.27347,1.7496074 -2.924,7.798 0.754617,88.4191766 37.074617,132.0021726 20.279,24.335 46.135482,36.8296 63.245482,45.0976 9.859,4.764 17.64762,8.52617 18.85162,12.05717 0.273,0.803 0.20255,1.57353 -0.22345,2.42553 l 12.36408,7.16904 26.65486,-56.37037 4.49038,-15.83733 -4.94471,-4.45608 c -5.5e-4,-2.1e-4 -0.001,-7.1e-4 -0.002,-9.2e-4 -3.00413,-1.14014 -9.16173,-6.17601 -17.30044,-12.83324 -11.881,-9.718 -29.83653,-24.403297 -54.15253,-40.453297 C 73.50672,48.065883 51.685986,25.780069 38.648986,12.466069 29.969895,3.6051025 26.343066,0.00489548 23.79633,0 Z"
   style="display:none"
   sodipodi:insensitive="true" /><path
   id="base-3-6"
   style="display:inline"
   d="m 217.17963,21.530601 c 0.58007,-0.168337 1.22049,-0.04183 1.95812,0.386562 8.3404,4.85066 37.65264,57.018011 41.81746,74.426021 2.56265,10.709226 -1.48982,20.560136 -5.37408,27.407476 -1.27811,2.25312 -2.53774,4.18087 -3.53781,5.7072 -0.0176,0.0268 -0.0354,0.0545 -0.0529,0.0809 -0.4757,0.72532 -0.98371,1.50048 -1.36981,2.13629 0.0293,-0.0212 0.059,-0.0439 0.0889,-0.0663 l -3.50682,5.65764 -43.68593,-2.09423 c 0.69854,-2.94785 1.42842,-7.2361 2.06158,-13.31899 1.10316,-10.59736 1.57968,-23.748864 1.21335,-33.507446 -0.5488,-14.63911 3.7981,-36.708553 6.6743,-51.310778 1.22702,-6.230877 2.19676,-11.151724 2.26842,-12.982228 0.0561,-1.410517 0.54141,-2.259859 1.44513,-2.522127 z"
   inkscape:label="right-on" /><path
   id="path1-9-1"
   d="m 2.1516505,80.853619 c -0.545661,0.263699 -1.4357325,0.946345 -1.2907625,2.561977 0.7439335,8.294887 38.995129,79.359314 90.613921,102.899054 28.821271,13.14394 57.538331,13.19999 76.541241,13.23703 10.94965,0.0212 19.5993,0.0368 22.21448,2.69727 0.59401,0.60539 0.86441,1.33035 0.84967,2.2828 l 14.24951,1.10321 -0.40496,-62.35332 -2.81598,-16.21897 -6.38731,-1.87325 c -5.8e-4,5e-5 -0.001,-2.3e-4 -0.002,0 -3.20147,0.27427 -10.93313,-1.59593 -21.15281,-4.06887 -14.91888,-3.60971 -37.46463,-9.06384 -66.33402,-12.99168 C 67.79008,102.62657 38.467305,91.997515 20.948517,85.647873 9.2868768,81.423022 4.458165,79.750024 2.1608415,80.8492 Z"
   style="display:inline"
   inkscape:label="left-on" />
<path
   style="display:none;fill:#ffffff;stroke:#000000;stroke-width:0.687876;stroke-opacity:1"
   d="m 308.81574,414.32091 c -12.02556,-7.0319 -12.41311,-7.32756 -12.13033,-9.25431 0.67891,-4.62569 -3.28794,-9.09911 -13.32923,-15.03136 -3.37814,-1.99576 -18.21431,-9.59889 -32.96925,-16.89584 -14.75494,-7.29694 -31.74456,-16.09036 -37.75469,-19.54092 C 162.7206,324.94306 126.83364,291.64094 102.80759,251.6842 79.392398,212.74334 61.436166,160.36702 51.650142,102.46362 46.697269,73.15773 44.277958,47.895972 44.241769,25.107481 44.210098,5.1638882 45.266481,0.68787618 50.005039,0.68787618 c 4.357851,0 7.803112,2.95936212 35.979484,30.90516482 37.078057,36.774649 52.440307,50.869267 78.073947,71.631589 21.12893,17.11368 35.69285,27.76234 65.0043,47.52902 36.62923,24.70155 62.04999,43.52447 97.23522,71.99825 33.70094,27.27263 36.94048,29.81858 43.09152,33.86571 8.22469,5.41149 10.12917,6.84011 14.22154,10.66804 l 3.45951,3.23597 -4.61006,16.24392 -4.61007,16.24392 -27.96219,59.31004 c -15.3792,32.62052 -28.11696,59.29999 -28.30612,59.28771 -0.18917,-0.0123 -5.93404,-3.29112 -12.76638,-7.2863 z"
   id="path19"
   transform="scale(0.47472125)" /><path
   style="display:none;fill:#ffffff;stroke:#000000;stroke-width:0.687876;stroke-opacity:1"
   d="m 376.61221,259.98167 c -19.40693,-17.42059 -26.62272,-25.69586 -32.93578,-37.77168 -7.20941,-13.7904 -8.9165,-25.90233 -6.64483,-47.1455 4.95715,-46.35603 23.60285,-123.266297 35.80003,-147.668897 3.67287,-7.348217 6.40798,-9.782059 8.86703,-7.890332 1.34341,1.033474 32.4968,62.787117 40.03949,79.36806 10.52907,23.145849 14.22304,33.380379 21.24313,58.856279 6.62716,24.04994 17.9186,55.23192 26.59603,73.44654 2.33329,4.89777 4.11617,9.00306 3.96193,9.12287 -0.44509,0.34575 -85.5387,29.37407 -85.92101,29.31057 -0.18917,-0.0314 -5.14188,-4.36397 -11.00602,-9.62791 z"
   id="path20"
   transform="scale(0.47472125)" /><path
   style="display:inline;fill:#ffffff;stroke:#000000;stroke-width:0.326549;stroke-opacity:1"
   d="m 29.252547,377.86984 c -1.938655,-2.14219 3.175459,-9.38328 15.81712,-22.3955 26.124632,-26.89044 51.751386,-56.56559 61.687143,-71.43223 3.43825,-5.14457 4.77431,-7.80726 6.36769,-12.69047 7.31753,-22.42585 17.22324,-41.98993 31.31091,-61.83996 1.91197,-2.69404 5.09921,-7.32287 7.08275,-10.28631 1.98355,-2.96344 3.78853,-5.63838 4.01107,-5.94431 0.3663,-0.50356 0.95932,-0.23187 6.26185,2.86885 3.22148,1.88379 6.01756,3.36356 6.21352,3.28837 0.19595,-0.0752 6.32103,-12.75811 13.6113,-28.18426 l 13.25501,-28.04754 2.20523,-7.85418 2.20521,-7.85418 16.53254,-5.65798 c 9.09289,-3.11188 18.33164,-6.29021 20.53056,-7.06295 l 3.99802,-1.40498 1.2687,1.86299 c 2.44461,3.58972 2.07826,3.62779 6.31177,-0.65575 9.33176,-9.44205 21.49901,-16.03499 33.4059,-18.101291 4.35913,-0.756477 10.28821,-0.477721 13.71507,0.644809 5.19074,1.700319 9.56284,4.959332 13.30352,9.916602 1.18867,1.57526 1.81928,2.11127 2.84571,2.4188 1.53062,0.45858 1.92284,0.37123 13.80222,-3.07387 14.94029,-4.33279 35.79981,-8.635887 49.40007,-10.190722 2.51443,-0.287458 5.0351,-0.436616 5.60143,-0.33146 1.12839,0.209499 1.63298,0.992063 1.07396,1.665626 -0.55177,0.664837 -4.58515,1.869553 -14.02275,4.188416 -26.62553,6.54201 -43.38893,13.86497 -58.77891,25.67708 -4.05853,3.11501 -12.57943,11.6967 -15.72567,15.83788 -10.28918,13.54289 -17.57857,29.29117 -26.22022,56.64715 -2.81518,8.91174 -4.54881,13.33807 -7.54592,19.26641 -10.3105,20.39433 -28.60836,37.38311 -49.40395,45.86946 -4.45661,1.81867 -7.64328,2.76932 -14.86443,4.43434 -17.34342,3.99898 -32.548,11.77663 -49.18797,25.16129 -11.30158,9.09063 -21.51228,19.63378 -33.93706,35.04204 -1.82357,2.26145 -3.52284,4.11173 -3.77617,4.11173 -1.04693,0 -1.07395,-1.05421 -0.11639,-4.54136 1.70027,-6.19193 3.87332,-15.15562 3.713,-15.31594 -0.3518,-0.35181 -3.08872,1.02598 -5.22997,2.63281 -2.26872,1.70249 -5.47158,4.72066 -18.623059,17.54918 -23.362444,22.78874 -50.79352,44.40681 -56.353647,44.41158 -0.746619,4.7e-4 -1.381872,-0.22875 -1.745157,-0.63017 z"
   id="path21" /><path
   style="fill:#ffffff;stroke:#000000;stroke-width:0.326549;stroke-opacity:1"
   d="M 146.14901,198.86103 C 118.471,197.09872 95.914734,190.31165 77.072193,178.07616 55.186822,163.86481 32.693392,139.4334 14.316943,109.91409 7.6736269,99.242497 1.7122495,87.383255 1.115611,83.652079 0.940245,82.555402 1.033191,82.24397 1.7496825,81.527478 c 1.591187,-1.59119 4.0747736,-1.059008 17.6192905,3.775449 36.997666,13.20561 56.537965,18.263463 88.725397,22.965873 24.04057,3.5122 37.8169,6.20107 65.21199,12.72807 12.55815,2.99204 19.60071,4.42832 21.71354,4.42832 0.53798,0 2.00391,0.31157 3.25763,0.69237 2.0773,0.63097 2.2147,0.7251 1.54917,1.06129 -0.61197,0.30914 -1.1094,1.69173 -3.06985,8.53265 l -2.33954,8.16374 -9.15673,19.26641 c -13.43328,28.26455 -16.7895,35.22069 -17.21215,35.67405 -0.29854,0.32023 -1.14074,-0.0216 -3.96102,-1.60792 -6.51385,-3.66372 -7.49523,-4.17195 -8.07036,-4.17944 -0.36231,-0.005 -1.31386,1.11974 -2.61239,3.08708 -1.16748,1.76879 -2.25235,3.0775 -2.53233,3.05483 -0.2694,-0.0218 -2.39489,-0.16096 -4.72332,-0.30922 z"
   id="path22" /><path
   style="fill:#ffffff;stroke:#000000;stroke-width:0.326549;stroke-opacity:1"
   d="m 205.5212,123.71081 c 0.94168,-6.90502 1.51719,-19.19461 1.51772,-32.410037 4.6e-4,-11.286298 0.17656,-14.700949 1.17043,-22.695184 0.72419,-5.825086 3.05478,-19.430844 5.31393,-31.022198 1.06763,-5.477867 2.03949,-10.841442 2.15969,-11.919054 0.63461,-5.689224 2.72178,-5.396325 7.95299,1.116059 7.15359,8.90559 18.12111,27.297693 26.98569,45.253963 7.79524,15.790197 10.95875,24.505177 10.94809,30.160261 -0.003,1.50139 -0.0212,1.52669 -2.04094,2.80884 -3.66959,2.32952 -7.19831,5.16271 -11.11645,8.92537 -2.34092,2.24803 -4.06529,3.65989 -4.39294,3.59679 -0.49635,-0.0956 -1.76091,-1.55762 -3.05601,-3.53323 -0.52584,-0.80215 -0.5281,-0.80244 -2.12257,-0.27398 -0.87789,0.29095 -8.68092,2.97053 -17.34006,5.95462 -8.65914,2.98409 -15.8395,5.42562 -15.95637,5.42562 -0.11685,0 -0.12729,-0.62453 -0.0232,-1.38784 z"
   id="path23" /></svg>
