<?xml version="1.0" encoding="UTF-8" standalone="no"?>
<!-- Uploaded to: SVG Repo, www.svgrepo.com, Generator: SVG Repo Mixer Tools -->

<svg
   fill="#000000"
   height="800px"
   width="800px"
   version="1.1"
   id="Capa_1"
   viewBox="0 0 379.777 379.777"
   xml:space="preserve"
   sodipodi:docname="fixed.svg"
   inkscape:version="1.4.3 (fcd0343856, 2026-01-01)"
   xmlns:inkscape="http://www.inkscape.org/namespaces/inkscape"
   xmlns:sodipodi="http://sodipodi.sourceforge.net/DTD/sodipodi-0.dtd"
   xmlns="http://www.w3.org/2000/svg"
   xmlns:svg="http://www.w3.org/2000/svg"><defs
   id="defs1" /><sodipodi:namedview
   id="namedview1"
   pagecolor="#ffffff"
   bordercolor="#000000"
   borderopacity="0.25"
   inkscape:showpageshadow="2"
   inkscape:pageopacity="0.0"
   inkscape:pagecheckerboard="0"
   inkscape:deskcolor="#d1d1d1"
   inkscape:zoom="1.45375"
   inkscape:cx="341.53052"
   inkscape:cy="366.98194"
   inkscape:window-width="2560"
   inkscape:window-height="1371"
   inkscape:window-x="1920"
   inkscape:window-y="32"
   inkscape:window-maximized="1"
   inkscape:current-layer="Capa_1" />
<path
   d="M366.314,97.749c-0.129-1.144-1.544-1.144-2.389-1.144c-6.758,0-37.499,4.942-62.82,13.081  c-1.638,0.527-2.923,0.783-3.928,0.783c-1.961,0-2.722-0.928-4.254-3.029c-1.848-2.533-4.379-6.001-11.174-8.914  c-2.804-1.202-6.057-1.812-9.667-1.812c-14.221,0-32.199,9.312-42.749,22.142c-0.066,0.08-0.103,0.096-0.107,0.096  c-0.913,0-4.089-3.564-9.577-17.062c-4.013-9.87-8.136-22.368-10.504-31.842c-3.553-14.212-13.878-34.195-20.71-47.417  c-2.915-5.642-5.218-10.098-5.797-11.836c-0.447-1.339-1.15-2.019-2.091-2.019c-0.604,0-1.184,0.3-1.773,0.917  c-6.658,6.983-20.269,65.253-19.417,83.132c0.699,14.682,12.291,24.61,17.861,29.381c0.659,0.564,1.363,1.167,1.911,1.67  c-2.964-1.06-9.171-6.137-17.406-12.873c-11.881-9.718-29.836-24.403-54.152-40.453c-34.064-22.484-55.885-44.77-68.922-58.084  C29.964,3.599,26.338,0,23.791,0c-0.605,0-1.707,0.227-2.278,1.75c-2.924,7.798,0.754,88.419,37.074,132.002  c20.279,24.335,46.136,36.829,63.246,45.097c9.859,4.764,17.647,8.527,18.851,12.058c0.273,0.803,0.203,1.573-0.223,2.425  c-1.619,3.238-4.439,7.193-8.011,12.202c-9.829,13.783-24.682,34.613-35.555,69.335c-4.886,15.601-55.963,70.253-69.247,83.537  c-0.648,0.648-15.847,15.917-14.06,20.229c0.142,0.344,0.613,1.143,1.908,1.143c3.176,0,11.554-5.442,24.902-16.195  c17.47-14.073,29.399-25.848,38.11-34.452c8.477-8.374,13.784-13.596,17.427-14.161c-0.333,1.784-1.385,6.367-4.576,17.926  c-0.077,0.279-0.238,0.938,0.127,1.418l0.355,0.576h0.495c0.001,0,0.002,0,0.003,0c0.773,0,1.172-0.618,4.53-4.786  c10.244-12.714,41.417-51.561,84.722-60.067c25.376-4.985,56.886-28.519,68.008-63.854c16.822-53.439,30.902-87.056,105.176-104.081  C366.502,99.413,366.428,98.751,366.314,97.749z"
   id="path1" />
<path
   style="fill:#ffffff;stroke:#000000;stroke-width:0.687876;stroke-opacity:1"
   d="m 29.716251,798.48667 c -1.205648,-1.20564 -0.983688,-4.60643 0.516295,-7.91037 3.644806,-8.02841 12.290965,-18.45606 34.395241,-41.4823 68.481663,-71.33798 120.709773,-133.24606 135.792123,-160.95986 1.33832,-2.45916 4.65204,-10.97163 7.36383,-18.9166 17.14216,-50.2229 35.04838,-84.40108 70.39057,-134.35674 11.17865,-15.80085 17.15245,-24.96291 18.3781,-28.18659 1.19013,-3.13029 0.13565,-6.04437 -3.46972,-9.5886 -4.67962,-4.60027 -10.07448,-7.61644 -44.41545,-24.83192 -31.09991,-15.5907 -46.47879,-24.27141 -63.28461,-35.7214 -32.63502,-22.2346 -58.49142,-47.7407 -76.86866,-75.82722 C 75.708025,210.56668 53.269925,137.97487 45.684094,57.437661 44.445204,44.284631 43.957818,12.366622 44.910972,6.8074631 46.009784,0.39877782 50.096958,-1.0286094 56.115945,2.8942853 57.977885,4.1078104 73.585555,19.058035 90.799656,36.117007 145.25687,90.083467 172.35283,112.53807 229.40671,150.9816 c 9.45829,6.37311 23.69733,16.23043 31.6423,21.90517 26.46504,18.90279 34.62972,25.24359 91.73541,71.24284 10.68288,8.60517 22.8436,17.26334 24.24701,17.26334 1.39527,0 0.13662,-1.35105 -7.04912,-7.56664 -20.46913,-17.70557 -31.41778,-35.67054 -33.62754,-55.17741 -3.7762,-33.3346 26.685,-165.399612 41.06136,-178.02223 2.5029,-2.197575 2.86116,-2.326596 4.16323,-1.499307 1.05178,0.668264 35.56522,69.292599 41.40868,82.334377 9.18574,20.50129 13.39159,32.13735 18.64748,51.59071 9.54049,35.31182 25.71346,77.25089 35.42178,91.85429 4.8657,7.31906 4.62936,7.33389 12.49934,-0.78451 11.95885,-12.33637 23.82891,-20.87575 39.51006,-28.42376 16.00483,-7.7038 26.75387,-10.61986 41.18266,-11.17224 11.92721,-0.45661 17.13234,0.57869 26.71088,5.31282 7.8375,3.87363 14.39298,9.45782 20.0647,17.09183 3.66996,4.9397 6.5636,6.58362 10.61182,6.02876 1.56473,-0.21448 8.56182,-2.11002 15.54908,-4.21232 36.20743,-10.89395 86.86321,-21.51815 116.60697,-24.45636 8.36045,-0.82588 11.31639,-0.31126 11.31639,1.97016 0,2.07485 -4.82222,3.71698 -27.34507,9.31195 -39.92895,9.91884 -61.27723,17.31851 -86.84238,30.10098 -37.63332,18.81651 -64.67208,43.05772 -85.50973,76.66253 -14.67226,23.66191 -24.45833,46.57805 -40.36213,94.51639 -10.31181,31.0826 -11.2612,33.58706 -17.27176,45.56241 -16.00289,31.88391 -40.93265,59.89158 -71.12981,79.91171 -20.20054,13.39257 -37.47013,20.85827 -60.54071,26.17196 -14.06035,3.23842 -23.48744,6.00125 -33.14264,9.71321 -42.22012,16.23165 -81.95052,45.37831 -121.86779,89.40356 -5.16141,5.69257 -13.25367,15.12191 -17.98282,20.95409 -13.7588,16.96791 -15.16245,18.2865 -16.15093,15.172 -0.23238,-0.73211 1.25342,-7.61947 3.30176,-15.30525 4.98172,-18.69227 6.31276,-24.52308 5.7309,-25.10495 -0.82812,-0.82811 -7.4787,2.86572 -12.85983,7.14254 -2.82116,2.24221 -14.26094,13.00239 -25.42173,23.91151 -44.30854,43.30944 -81.557856,75.32114 -109.799785,94.36079 -13.687991,9.22793 -21.547268,12.39133 -24.198494,9.74012 z"
   id="path23"
   transform="scale(0.47472125)" /></svg>
