<?xml version="1.0" encoding="UTF-8" standalone="no"?>
<!-- Uploaded to: SVG Repo, www.svgrepo.com, Generator: SVG Repo Mixer Tools -->

<svg
   fill="#000000"
   height="800px"
   width="800px"
   version="1.1"
   id="Capa_1"
   viewBox="0 0 379.777 379.777"
   xml:space="preserve"
   sodipodi:docname="frame_1.svg"
   inkscape:version="1.4.3 (fcd0343856, 2026-01-01)"
   xmlns:inkscape="http://www.inkscape.org/namespaces/inkscape"
   xmlns:sodipodi="http://sodipodi.sourceforge.net/DTD/sodipodi-0.dtd"
   xmlns="http://www.w3.org/2000/svg"
   xmlns:svg="http://www.w3.org/2000/svg"><defs
   id="defs1" /><sodipodi:namedview
   id="namedview1"
   pagecolor="#ffffff"
   bordercolor="#000000"
   borderopacity="0.25"
   inkscape:showpageshadow="2"
   inkscape:pageopacity="0.0"
   inkscape:pagecheckerboard="0"
   inkscape:deskcolor="#d1d1d1"
   inkscape:zoom="1.45375"
   inkscape:cx="341.87446"
   inkscape:cy="366.98194"
   inkscape:window-width="2560"
   inkscape:window-height="1371"
   inkscape:window-x="1920"
   inkscape:window-y="32"
   inkscape:window-maximized="1"
   inkscape:current-layer="Capa_1" />
<path
   id="base"
   style="display:inline"
   d="M 363.92483 96.604847 C 357.16683 96.604847 326.42593 101.54664 301.10493 109.68564 C 299.46693 110.21264 298.18236 110.46912 297.17736 110.46912 C 295.21636 110.46912 294.45541 109.54099 292.92341 107.43999 C 291.07541 104.90699 288.54392 101.43898 281.74892 98.525985 C 278.94492 97.323985 275.69203 96.714256 272.08203 96.714256 C 257.86103 96.714256 239.88301 106.02555 229.33301 118.85555 C 229.27111 118.93055 229.23401 118.94998 229.22639 118.95198 C 228.69659 118.95198 227.40483 117.75136 225.34146 114.10648 L 183.97025 128.29342 L 179.47987 144.13075 L 152.82501 200.50112 L 140.46093 193.33208 C 138.84193 196.57008 136.02201 200.5249 132.45001 205.5339 C 122.62101 219.3169 107.76806 240.14717 96.895058 274.86917 C 92.009058 290.47017 40.931877 345.1222 27.647877 358.4062 C 26.999877 359.0542 11.800969 374.3227 13.587969 378.6347 C 13.729969 378.9787 14.201125 379.77793 15.496125 379.77793 C 18.672125 379.77793 27.049666 374.3357 40.397666 363.5827 C 57.867666 349.5097 69.796954 337.7351 78.507954 329.1311 C 86.984954 320.7571 92.292416 315.53513 95.935416 314.97013 C 95.602416 316.75413 94.549806 321.33742 91.358806 332.89642 C 91.281806 333.17542 91.120832 333.8341 91.485832 334.3141 L 91.840945 334.88988 L 92.336065 334.88988 L 92.338846 334.88988 C 93.111846 334.88988 93.511096 334.27173 96.869096 330.10373 C 107.1131 317.38973 138.28608 278.54265 181.59108 270.03665 C 206.96708 265.05165 238.47661 241.51794 249.59861 206.18294 C 266.42061 152.74394 280.50132 119.12716 354.77532 102.10216 C 366.50232 99.413152 366.4282 98.751 366.3142 97.749 C 366.1852 96.605 364.76983 96.604847 363.92483 96.604847 z " /><path
   id="base-3"
   style="display:inline"
   d="m 180.54706,8.7758528 c -0.604,0 -1.18379,0.2999908 -1.77279,0.9169908 -6.658,6.9830004 -20.26921,65.2528504 -19.41721,83.1318504 0.52366,10.999106 7.16109,19.330206 12.79986,24.823656 1.85543,1.80762 3.60243,3.3079 4.98828,4.49502 0.0244,0.0209 0.0491,0.0425 0.0733,0.063 0.659,0.564 1.36294,1.16686 1.91094,1.66986 -0.0341,-0.0122 -0.0689,-0.0257 -0.10385,-0.0389 l 4.94471,4.45608 41.37121,-14.18694 c -1.49245,-2.63636 -3.38859,-6.55126 -5.69202,-12.21665 -4.013,-9.87 -8.13613,-22.367557 -10.50413,-31.841557 -3.553,-14.212 -13.87864,-34.195421 -20.71064,-47.417421 -2.915,-5.642 -5.2178,-10.09758 -5.7968,-11.83558 -0.447,-1.3389985 -1.14981,-2.0194192 -2.09081,-2.0194192 z"
   inkscape:label="right-off" /><path
   id="left-off"
   d="m 23.786131,0 c -0.606037,0.00123205 -1.704014,0.23072547 -2.27347,1.7496074 -2.924,7.798 0.754617,88.4191766 37.074617,132.0021726 20.279,24.335 46.135482,36.8296 63.245482,45.0976 9.859,4.764 17.64762,8.52617 18.85162,12.05717 0.273,0.803 0.20255,1.57353 -0.22345,2.42553 l 12.36408,7.16904 26.65486,-56.37037 4.49038,-15.83733 -4.94471,-4.45608 c -5.5e-4,-2.1e-4 -0.001,-7.1e-4 -0.002,-9.2e-4 -3.00413,-1.14014 -9.16173,-6.17601 -17.30044,-12.83324 -11.881,-9.718 -29.83653,-24.403297 -54.15253,-40.453297 C 73.50672,48.065883 51.685986,25.780069 38.648986,12.466069 29.969895,3.6051025 26.343066,0.00489548 23.79633,0 Z"
   style="display:inline"
   sodipodi:insensitive="true" /><path
   id="base-3-6"
   style="display:none"
   d="m 201.98859,22.480044 c 0.58007,-0.168337 1.22049,-0.04183 1.95812,0.386562 8.3404,4.85066 37.65264,57.018011 41.81746,74.426021 2.56265,10.709223 -1.48982,20.560133 -5.37408,27.407473 -1.27811,2.25312 -2.53774,4.18087 -3.53781,5.7072 -0.0176,0.0268 -0.0354,0.0545 -0.0529,0.0809 -0.4757,0.72532 -0.98371,1.50048 -1.36981,2.13629 0.0293,-0.0212 0.059,-0.0439 0.0889,-0.0663 l -3.50682,5.65764 -43.68593,-2.09423 c 0.69854,-2.94785 1.42842,-7.2361 2.06158,-13.31899 1.10316,-10.59736 1.57968,-23.748861 1.21335,-33.507443 -0.5488,-14.63911 3.7981,-36.708553 6.6743,-51.310778 1.22702,-6.230877 2.19676,-11.151724 2.26842,-12.982228 0.0561,-1.410517 0.54141,-2.259859 1.44513,-2.522127 z"
   inkscape:label="right-on" /><path
   id="path1-9-1"
   d="m -13.039431,81.803062 c -0.545661,0.263699 -1.435733,0.946345 -1.290763,2.561977 0.743934,8.294887 38.995139,79.359311 90.613931,102.899051 28.821303,13.14394 57.538363,13.19999 76.541273,13.23703 10.94965,0.0212 19.5993,0.0368 22.21448,2.69727 0.59401,0.60539 0.86441,1.33035 0.84967,2.2828 l 14.24951,1.10321 -0.40496,-62.35332 -2.81598,-16.21897 -6.38731,-1.87325 c -5.8e-4,5e-5 -0.001,-2.3e-4 -0.002,0 -3.20147,0.27427 -10.93313,-1.59593 -21.15281,-4.06887 -14.91888,-3.60971 -37.46463,-9.06384 -66.334039,-12.99168 C 52.599008,103.57601 23.276233,92.946958 5.7574423,86.597316 -5.9042032,82.372465 -10.732915,80.699467 -13.03024,81.798643 Z"
   style="display:none"
   inkscape:label="left-on" />
<path
   style="fill:#ffffff;stroke:#000000;stroke-width:0.687876;stroke-opacity:1"
   d="m 308.81574,414.32091 c -12.02556,-7.0319 -12.41311,-7.32756 -12.13033,-9.25431 0.67891,-4.62569 -3.28794,-9.09911 -13.32923,-15.03136 -3.37814,-1.99576 -18.21431,-9.59889 -32.96925,-16.89584 -14.75494,-7.29694 -31.74456,-16.09036 -37.75469,-19.54092 C 162.7206,324.94306 126.83364,291.64094 102.80759,251.6842 79.392398,212.74334 61.436166,160.36702 51.650142,102.46362 46.697269,73.15773 44.277958,47.895972 44.241769,25.107481 44.210098,5.1638882 45.266481,0.68787618 50.005039,0.68787618 c 4.357851,0 7.803112,2.95936212 35.979484,30.90516482 37.078057,36.774649 52.440307,50.869267 78.073947,71.631589 21.12893,17.11368 35.69285,27.76234 65.0043,47.52902 36.62923,24.70155 62.04999,43.52447 97.23522,71.99825 33.70094,27.27263 36.94048,29.81858 43.09152,33.86571 8.22469,5.41149 10.12917,6.84011 14.22154,10.66804 l 3.45951,3.23597 -4.61006,16.24392 -4.61007,16.24392 -27.96219,59.31004 c -15.3792,32.62052 -28.11696,59.29999 -28.30612,59.28771 -0.18917,-0.0123 -5.93404,-3.29112 -12.76638,-7.2863 z"
   id="path19"
   transform="scale(0.47472125)" /><path
   style="fill:#ffffff;stroke:#000000;stroke-width:0.687876;stroke-opacity:1"
   d="m 376.61221,259.98167 c -19.40693,-17.42059 -26.62272,-25.69586 -32.93578,-37.77168 -7.20941,-13.7904 -8.9165,-25.90233 -6.64483,-47.1455 4.95715,-46.35603 23.60285,-123.266297 35.80003,-147.668897 3.67287,-7.348217 6.40798,-9.782059 8.86703,-7.890332 1.34341,1.033474 32.4968,62.787117 40.03949,79.36806 10.52907,23.145849 14.22304,33.380379 21.24313,58.856279 6.62716,24.04994 17.9186,55.23192 26.59603,73.44654 2.33329,4.89777 4.11617,9.00306 3.96193,9.12287 -0.44509,0.34575 -85.5387,29.37407 -85.92101,29.31057 -0.18917,-0.0314 -5.14188,-4.36397 -11.00602,-9.62791 z"
   id="path20"
   transform="scale(0.47472125)" /><path
   style="fill:#ffffff;stroke:#000000;stroke-width:0.687876;stroke-opacity:1"
   d="M 29.620486,797.98257 C 25.536712,793.47005 36.30959,778.2167 62.939239,750.80645 117.97076,694.16176 171.9535,631.65107 192.88319,600.33452 c 7.24269,-10.83705 10.0571,-16.446 13.41357,-26.73248 15.41437,-47.24004 36.28075,-88.45175 65.95641,-130.26584 4.02757,-5.67498 10.74148,-15.42562 14.91982,-21.6681 4.17833,-6.24248 7.98052,-11.87723 8.4493,-12.52167 0.77163,-1.06076 2.02081,-0.48845 13.19059,6.04322 6.78604,3.96821 12.67599,7.08534 13.08877,6.92694 0.41278,-0.1584 13.31526,-26.87495 28.6722,-59.37011 l 27.92168,-59.08212 4.6453,-16.54483 4.64529,-16.54484 34.82577,-11.91852 c 19.15418,-6.55518 38.6156,-13.25033 43.24761,-14.87811 l 8.42183,-2.95959 2.67252,3.92439 c 5.14957,7.56176 4.37785,7.64194 13.29573,-1.38133 19.65736,-19.88968 45.28766,-33.77769 70.36951,-38.13035 9.1825,-1.59352 21.67212,-1.00632 28.8908,1.35829 10.93428,3.58172 20.1441,10.44683 28.02384,20.88931 2.50393,3.31829 3.83231,4.44738 5.99449,5.09519 3.22426,0.96601 4.05046,0.78201 29.07437,-6.4751 31.47171,-9.12701 75.41227,-18.19148 104.06121,-21.46674 5.29665,-0.60553 10.60643,-0.91973 11.79942,-0.69822 2.37695,0.44131 3.43986,2.08978 2.26228,3.50864 -1.1623,1.40048 -9.6586,3.93822 -29.53891,8.8229 -56.08666,13.78073 -91.39875,29.20653 -123.81772,54.08874 -8.5493,6.56177 -26.49856,24.63909 -33.12613,33.36248 -21.67414,28.5281 -37.02924,61.70183 -55.23286,119.32718 -5.93019,18.77258 -9.58207,28.09664 -15.89549,40.5847 -21.71905,42.96063 -60.26348,78.74748 -104.06939,96.62398 -9.38783,3.83102 -16.10056,5.83356 -31.3119,9.34093 -36.5339,8.42384 -68.56235,24.80747 -103.61444,53.00225 -23.80677,19.1494 -45.31559,41.35853 -71.4884,73.81603 -3.84136,4.76374 -7.42088,8.66135 -7.95452,8.66135 -2.20536,0 -2.26228,-2.22069 -0.24518,-9.56637 3.58163,-13.04329 8.15916,-31.92531 7.82146,-32.26301 -0.74108,-0.74109 -6.50642,2.16123 -11.01697,5.54601 -4.77907,3.58629 -11.5259,9.94407 -39.22949,36.96734 -49.21297,48.00445 -106.996517,93.54291 -118.708922,93.55295 -1.572752,10e-4 -2.910912,-0.48186 -3.676152,-1.32744 z"
   id="path21"
   transform="scale(0.47472125)" /></svg>
