<?xml version="1.0" encoding="UTF-8" standalone="no"?>
<!-- Generator: Adobe Illustrator 18.1.1, SVG Export Plug-In . SVG Version: 6.00 Build 0)  -->

<svg
   version="1.1"
   id="Capa_1"
   x="0px"
   y="0px"
   viewBox="0 0 25.965 25.965"
   style="enable-background:new 0 0 25.965 25.965;"
   xml:space="preserve"
   sodipodi:docname="rabbit-7.svg"
   inkscape:version="1.4.3 (fcd0343856, 2026-01-01)"
   xmlns:inkscape="http://www.inkscape.org/namespaces/inkscape"
   xmlns:sodipodi="http://sodipodi.sourceforge.net/DTD/sodipodi-0.dtd"
   xmlns="http://www.w3.org/2000/svg"
   xmlns:svg="http://www.w3.org/2000/svg"><defs
   id="defs18" /><sodipodi:namedview
   id="namedview18"
   pagecolor="#ffffff"
   bordercolor="#000000"
   borderopacity="0.25"
   inkscape:showpageshadow="2"
   inkscape:pageopacity="0.0"
   inkscape:pagecheckerboard="0"
   inkscape:deskcolor="#d1d1d1"
   showguides="true"
   inkscape:zoom="38.35933"
   inkscape:cx="7.0387048"
   inkscape:cy="15.107146"
   inkscape:window-width="2560"
   inkscape:window-height="1371"
   inkscape:window-x="1920"
   inkscape:window-y="32"
   inkscape:window-maximized="1"
   inkscape:current-layer="Capa_1"><sodipodi:guide
     position="12.993663,13.082966"
     orientation="1,0"
     id="guide18"
     inkscape:locked="false" /><sodipodi:guide
     position="6.6084609,12.279235"
     orientation="1,0"
     id="guide19"
     inkscape:locked="false" /><sodipodi:guide
     position="19.134849,16.006536"
     orientation="1,0"
     id="guide1"
     inkscape:locked="false" /></sodipodi:namedview>
















<g
   id="g1"
   transform="translate(16)"><g
     id="g3">
	<g
   id="g2">
		<path
   style="fill:#030104"
   d="M 23.943,8.534 C 22.795,6.867 21.732,6.111 20.752,6.265 20.668,6.287 18.986,3.216 18.986,3.216 18.355,2.039 17.006,0.871 16.703,1.891 16.562,2.643 18.361,5.861 18.32,5.886 18.127,5.785 16.613,2.641 15.263,2.137 13.234,1.377 16.38,5.368 16.652,8.744 16.697,9.12 16.037,9.439 15.713,9.309 14.963,8.975 14.41,8.72 14.057,8.543 7.257,5.383 2.815,11.975 2.418,18.136 2.352,18.36 2.363,18.533 2.169,18.367 1.606,17.879 0.785,16.846 0.492,16.846 c -0.896,0 -0.69,2.62 1.646,4.22 0.187,0.136 0.402,0.129 0.642,-0.015 0.238,-0.146 0.4,-0.184 0.484,-0.118 0.645,0.602 1.167,1.045 1.564,1.334 0.755,1.018 0.824,1.413 3.661,1.734 2.767,0.358 3.436,0.849 3.879,-0.032 0.372,-0.75 -0.069,-0.967 -0.751,-1.467 -0.312,-0.226 -1.376,-0.684 -1.376,-0.684 6.16,-3.748 3.332,-5.316 3.332,-5.316 1.557,0.738 2.266,2.515 -1.624,5.032 0,0 4.735,0.424 5.268,1.234 0.783,1.004 1.105,1.384 2.254,1.537 0.479,0 0.801,-0.178 0.969,-0.533 0.615,-1.15 -2.588,-2.561 -1.971,-3.303 1.645,-0.896 3.316,-3.133 3.316,-5.134 2.752,0.017 4.18,-2.199 4.18,-3.163 -0.003,-1.11 -0.94,-2.06 -2.022,-3.638 z M 21.38,9.971 c -0.488,0 -0.885,-0.397 -0.885,-0.887 0,-0.488 0.396,-0.887 0.885,-0.887 0.49,0 0.889,0.397 0.889,0.887 -0.002,0.49 -0.4,0.887 -0.889,0.887 z"
   id="path1" />
		<path
   style="fill:#030104"
   d="m 21.519,8.533 c -0.34,0 -0.617,0.275 -0.617,0.616 0,0.34 0.277,0.616 0.617,0.616 0.34,0 0.617,-0.276 0.617,-0.616 0,-0.339 -0.277,-0.616 -0.617,-0.616 z m 0.145,0.985 c -0.205,0 -0.371,-0.165 -0.371,-0.369 0,-0.203 0.166,-0.369 0.371,-0.369 0.201,0 0.367,0.167 0.367,0.369 0,0.204 -0.166,0.369 -0.367,0.369 z"
   id="path2" />
	</g>
</g><g
     id="g4">
</g><g
     id="g5">
</g><g
     id="g6">
</g><g
     id="g7">
</g><g
     id="g8">
</g><g
     id="g9">
</g><g
     id="g10">
</g><g
     id="g11">
</g><g
     id="g12">
</g><g
     id="g13">
</g><g
     id="g14">
</g><g
     id="g15">
</g><g
     id="g16">
</g><g
     id="g17">
</g><g
     id="g18">
</g><path
     style="fill:#ffffff;stroke-width:0.0260693"
     d="M 11.118547,24.412726 C 10.989504,24.393666 10.549294,24.319481 10.140302,24.247871 9.4274531,24.123058 9.05442,24.066588 7.9641642,23.918443 6.6126114,23.734793 5.9732837,23.523307 5.5364737,23.115374 5.4276074,23.013705 5.2280045,22.781712 5.0929117,22.599833 4.8823356,22.316329 4.8036963,22.234333 4.5417733,22.025165 4.2085662,21.759072 3.9400425,21.526966 3.521634,21.14338 3.2671629,20.910088 3.2435241,20.894725 3.1436295,20.897706 c -0.069048,0.0021 -0.193073,0.04565 -0.3523247,0.123829 C 2.4075914,21.209903 2.3185719,21.194129 1.8890201,20.861646 1.2213937,20.344889 0.71668969,19.731497 0.37895274,19.026388 0.1150223,18.475368 0.01574124,18.069257 0.02997093,17.598871 c 0.0082729,-0.273474 0.01649818,-0.316636 0.08734082,-0.458321 0.0914745,-0.182949 0.20851712,-0.273728 0.35292259,-0.273728 0.14698938,0 0.31742181,0.142693 1.04178376,0.872225 0.3512835,0.353791 0.6718007,0.66081 0.7122605,0.682266 0.1427922,0.07572 0.1767078,-0.01931 0.2384467,-0.668135 0.291407,-3.062453 1.4885549,-5.908913 3.268739,-7.7720865 1.2524409,-1.3108274 2.691703,-2.0471419 4.3301267,-2.2152569 0.362619,-0.037208 1.149849,-0.016292 1.539237,0.040896 0.814714,0.1196533 1.605624,0.3630082 2.437478,0.749986 1.768973,0.8229255 1.679031,0.7852843 1.873353,0.7840033 0.15501,-0.00102 0.205268,-0.014659 0.377041,-0.1023086 0.268882,-0.1372005 0.369761,-0.2669296 0.369091,-0.4746434 -0.0011,-0.3394994 -0.141252,-1.0743446 -0.32784,-1.7188863 -0.214306,-0.740293 -0.458883,-1.382617 -1.080266,-2.8370655 -0.4141,-0.9692695 -0.505019,-1.2028549 -0.587602,-1.5096458 -0.08801,-0.3269401 -0.08484,-0.4647375 0.01291,-0.5624948 0.09735,-0.097347 0.211187,-0.09986 0.492861,-0.010879 0.308148,0.097344 0.563533,0.2772165 0.9568,0.673894 0.518567,0.5230648 0.944752,1.1131178 1.716186,2.3760611 0.422068,0.6909837 0.451192,0.7341907 0.477298,0.7080849 0.0099,-0.00993 -0.206001,-0.472452 -0.47984,-1.0278334 C 17.200766,3.561991 17.019855,3.1490175 16.813521,2.5156853 16.696595,2.1567876 16.690244,1.8847871 16.795083,1.7260405 c 0.09015,-0.1364983 0.173013,-0.1911549 0.313256,-0.2066139 0.38829,-0.042801 1.11044,0.5433859 1.628786,1.3221246 0.07158,0.1075358 0.361784,0.6119763 0.6449,1.1209789 0.590071,1.0608606 1.086519,1.9248796 1.234349,2.148261 l 0.101888,0.1539612 0.296686,0.00504 c 0.354138,0.00602 0.535517,0.056438 0.917327,0.2550118 0.479405,0.249332 1.056582,0.7776082 1.557957,1.4259608 0.127665,0.1650889 0.393978,0.5289196 0.591807,0.8085126 0.197829,0.279593 0.503625,0.7055282 0.679547,0.9465225 0.874613,1.198128 1.143841,1.739039 1.170825,2.352323 0.01059,0.240657 0.0035,0.321322 -0.04336,0.492059 -0.15757,0.574349 -0.628377,1.260945 -1.184838,1.727897 -0.740816,0.621652 -1.544528,0.944444 -2.561237,1.028659 l -0.367846,0.03047 -0.0171,0.260974 c -0.06294,0.960485 -0.53628,2.079969 -1.310287,3.098957 -0.259678,0.341868 -0.990983,1.075906 -1.31289,1.317797 -0.136211,0.102354 -0.347267,0.245926 -0.469012,0.319048 -0.243914,0.1465 -0.284705,0.196889 -0.286073,0.353387 -0.0022,0.250869 0.111394,0.384447 1.306703,1.536689 0.603621,0.581873 0.80912,0.89639 0.811613,1.24218 0.002,0.274012 -0.213459,0.58881 -0.48991,0.715866 -0.07169,0.03295 -0.21302,0.07351 -0.314066,0.09013 -0.161598,0.02659 -0.219574,0.02337 -0.481485,-0.02674 -0.747152,-0.142945 -1.10066,-0.388 -1.785307,-1.23759 -0.342757,-0.425332 -0.412905,-0.479547 -0.830519,-0.64187 -0.753,-0.292683 -2.296613,-0.590407 -4.062721,-0.783593 l -0.537743,-0.05882 0.317118,-0.2161 c 1.297316,-0.884057 2.139057,-1.785325 2.411657,-2.582211 0.282779,-0.82664 -0.03622,-1.589066 -0.873778,-2.088359 -0.242338,-0.144464 -0.369666,-0.183299 -0.201443,-0.06144 0.33498,0.242658 0.558672,0.672991 0.557421,1.07235 -0.0034,1.087807 -1.281276,2.468447 -3.672247,3.967592 l -0.322796,0.202394 0.244589,0.110703 c 0.695322,0.314711 1.060828,0.517069 1.423289,0.787989 0.474503,0.354665 0.607045,0.522414 0.607045,0.768297 0,0.155336 -0.09143,0.418798 -0.207835,0.598901 -0.218829,0.338571 -0.519325,0.423736 -1.160802,0.328989 z M 21.77729,9.8839694 c 0.196749,-0.096859 0.3355,-0.240498 0.428665,-0.4437625 0.09672,-0.2110125 0.09682,-0.5036336 2.45e-4,-0.7115651 -0.09174,-0.1975237 -0.24698,-0.3605636 -0.430781,-0.4524197 -0.132272,-0.066104 -0.180047,-0.075564 -0.386037,-0.076437 -0.214195,-9.085e-4 -0.250581,0.00663 -0.409497,0.084823 -0.189811,0.093397 -0.319411,0.2239353 -0.415966,0.4189823 -0.05026,0.1015268 -0.05988,0.1625622 -0.06013,0.381553 -2.86e-4,0.2478159 0.0041,0.2688488 0.08922,0.4258112 0.171603,0.3165128 0.465949,0.4814502 0.828634,0.4643272 0.146716,-0.00693 0.225132,-0.02706 0.355647,-0.091312 z"
     id="path23" /><path
     style="fill:#ffffff;stroke-width:0.0260693"
     d="m 21.341574,9.7231463 c -0.18758,-0.056225 -0.357045,-0.2425805 -0.409297,-0.4500882 -0.08847,-0.3513583 0.213838,-0.7233822 0.586513,-0.7217626 0.326771,0.00142 0.596213,0.2721314 0.596213,0.5990208 0,0.3947056 -0.394042,0.6865475 -0.773429,0.57283 z m 0.428787,-0.2078601 c 0.02771,0 0.0919,-0.038126 0.142627,-0.084725 0.220044,-0.2021214 0.134488,-0.5699181 -0.150417,-0.6466352 -0.373302,-0.1005197 -0.640936,0.3706713 -0.362213,0.6377046 0.07549,0.072328 0.217266,0.1240674 0.284895,0.1039721 0.0191,-0.00567 0.05739,-0.010316 0.08511,-0.010316 z"
     id="path24" /></g></svg>
