<svg xmlns="http://www.w3.org/2000/svg" width="256" height="256" viewBox="0 0 256 256" role="img" aria-label="Cold Penguin">
  <defs>
    <filter id="shadow" x="-20%" y="-20%" width="140%" height="140%">
      <feDropShadow dx="0" dy="6" stdDeviation="6" flood-opacity="0.18"/>
    </filter>
  </defs>

  <rect x="24" y="24" width="208" height="208" rx="40" fill="#EAF6FF"/>
  <g filter="url(#shadow)">
    <circle cx="128" cy="136" r="74" fill="#1F2A37"/>
    <ellipse cx="128" cy="154" rx="46" ry="54" fill="#FFFFFF"/>
    <circle cx="102" cy="114" r="8" fill="#111827"/>
    <circle cx="154" cy="114" r="8" fill="#111827"/>
    <path d="M128 122c-18 0-28 10-28 20 0 8 10 16 28 16s28-8 28-16c0-10-10-20-28-20z" fill="#F59E0B"/>
    <path d="M100 150c-20 10-34 26-40 46 10 10 24 18 40 22 2-26 0-48 0-68z" fill="#111827" opacity="0.9"/>
    <path d="M156 150c20 10 34 26 40 46-10 10-24 18-40 22-2-26 0-48 0-68z" fill="#111827" opacity="0.9"/>
    <path d="M70 86c20-22 46-34 58-38 12 4 38 16 58 38-14 0-28 2-40 8-8-12-18-18-18-18s-10 6-18 18c-12-6-26-8-40-8z" fill="#2B3646"/>
    <ellipse cx="94" cy="206" rx="26" ry="14" fill="#3BA7FF"/>
    <ellipse cx="162" cy="206" rx="26" ry="14" fill="#3BA7FF"/>
  </g>
  <circle cx="54" cy="64" r="10" fill="#3BA7FF" opacity="0.55"/>
  <circle cx="206" cy="70" r="8" fill="#3BA7FF" opacity="0.45"/>
  <circle cx="200" cy="188" r="10" fill="#3BA7FF" opacity="0.35"/>
</svg>
