<svg xmlns="http://www.w3.org/2000/svg" width="256" height="256" viewBox="0 0 256 256" role="img" aria-label="Warm Lizard">
  <defs>
    <filter id="shadow" x="-20%" y="-20%" width="140%" height="140%">
      <feDropShadow dx="0" dy="6" stdDeviation="6" flood-opacity="0.18"/>
    </filter>
  </defs>

  <rect x="24" y="24" width="208" height="208" rx="40" fill="#FFF3E6"/>
  <g filter="url(#shadow)">
    <path d="M72 156c0-44 30-80 74-80 46 0 78 34 78 76 0 26-12 50-34 62-10 6-22 10-36 10-46 0-82-30-82-68z" fill="#FF8A3D"/>
    <ellipse cx="150" cy="122" rx="44" ry="34" fill="#FFA86E" opacity="0.95"/>
    <circle cx="118" cy="110" r="10" fill="#FFFFFF"/>
    <circle cx="170" cy="110" r="10" fill="#FFFFFF"/>
    <circle cx="118" cy="110" r="5" fill="#111827"/>
    <circle cx="170" cy="110" r="5" fill="#111827"/>
    <path d="M128 150c18 10 38 10 56 0" fill="none" stroke="#7A2E00" stroke-width="10" stroke-linecap="round"/>
    <path d="M76 170c-18 10-30 22-34 34 12 8 26 14 42 18 0-18 0-34-8-52z" fill="#F97316"/>
    <path d="M210 166c18 10 30 22 34 34-12 8-26 14-42 18 0-18 0-34 8-52z" fill="#F97316"/>
    <path d="M74 120c-10-8-18-18-18-30 0-10 8-18 18-18 12 0 20 10 22 22-8 6-14 14-22 26z" fill="#FF8A3D"/>
    <path d="M196 120c10-8 18-18 18-30 0-10-8-18-18-18-12 0-20 10-22 22 8 6 14 14 22 26z" fill="#FF8A3D"/>
    <path d="M132 186c-18 8-28 18-32 30 10 6 22 10 36 12 6-16 4-28-4-42z" fill="#FFA86E"/>
    <path d="M190 182c14 10 24 24 24 40-12 2-24 2-36-2 4-14 6-26 12-38z" fill="#FFA86E"/>
  </g>
  <path d="M48 56c8-10 22-14 34-10" fill="none" stroke="#FF9F43" stroke-width="10" stroke-linecap="round" opacity="0.55"/>
  <path d="M206 56c-8-10-22-14-34-10" fill="none" stroke="#FF9F43" stroke-width="10" stroke-linecap="round" opacity="0.45"/>
  <circle cx="202" cy="192" r="10" fill="#FF9F43" opacity="0.25"/>
</svg>
