<?xml version="1.0" encoding="UTF-8" standalone="no"?>
<!-- Generator: Adobe Illustrator 19.0.0, SVG Export Plug-In . SVG Version: 6.00 Build 0)  -->

<svg
   version="1.1"
   id="Layer_1"
   x="0px"
   y="0px"
   viewBox="0 0 512 512"
   style="enable-background:new 0 0 512 512;"
   xml:space="preserve"
   sodipodi:docname="cpu-2.svg"
   inkscape:version="1.4.3 (fcd0343856, 2026-01-01)"
   xmlns:inkscape="http://www.inkscape.org/namespaces/inkscape"
   xmlns:sodipodi="http://sodipodi.sourceforge.net/DTD/sodipodi-0.dtd"
   xmlns="http://www.w3.org/2000/svg"
   xmlns:svg="http://www.w3.org/2000/svg"><defs
   id="defs19" /><sodipodi:namedview
   id="namedview19"
   pagecolor="#ffffff"
   bordercolor="#000000"
   borderopacity="0.25"
   inkscape:showpageshadow="2"
   inkscape:pageopacity="0.0"
   inkscape:pagecheckerboard="0"
   inkscape:deskcolor="#d1d1d1"
   inkscape:zoom="2.2714844"
   inkscape:cx="256.22012"
   inkscape:cy="256.44024"
   inkscape:window-width="2560"
   inkscape:window-height="1371"
   inkscape:window-x="1920"
   inkscape:window-y="32"
   inkscape:window-maximized="1"
   inkscape:current-layer="Layer_1" />


<g
   id="g5">
</g>
<g
   id="g6">
</g>
<g
   id="g7">
</g>
<g
   id="g8">
</g>
<g
   id="g9">
</g>
<g
   id="g10">
</g>
<g
   id="g11">
</g>
<g
   id="g12">
</g>
<g
   id="g13">
</g>
<g
   id="g14">
</g>
<g
   id="g15">
</g>
<g
   id="g16">
</g>
<g
   id="g17">
</g>
<g
   id="g18">
</g>
<g
   id="g19">
</g>
<path
   style="fill:#ffffff;stroke-width:0.440241"
   d="M 150.6095,494.76761 C 127.61374,492.3639 103.03392,479.40035 82.294257,458.73778 56.418373,432.95809 40.846218,401.63324 35.347113,364.29923 c -0.98687,-6.69997 -1.124839,-31.4542 -0.212246,-38.08083 3.813168,-27.68862 11.621249,-51.01313 27.640388,-82.56813 2.464826,-4.85528 9.097103,-17.138 14.738393,-27.29492 C 89.818126,194.20163 96.351339,181.4479 99.477501,173.4789 107.48973,153.05466 106.43288,138.52772 95.897208,124.26612 88.078704,113.6826 73.124476,102.96362 55.470335,95.288716 53.41221,94.393975 51.655319,93.597038 51.566132,93.517751 51.284133,93.267056 54.543227,87.625428 57.646932,82.991634 81.769763,46.976559 119.72635,24.478357 166.41101,18.523349 c 25.74076,-3.283444 47.80472,-1.743392 65.37575,4.563192 5.75176,2.064418 15.70457,6.998895 20.69131,10.258489 13.06075,8.537181 25.36451,21.512589 35.0883,37.003748 4.05543,6.460793 11.2276,20.813526 14.2343,28.485272 4.84888,12.37216 9.33645,27.77016 12.08509,41.46703 1.4074,7.01332 3.52544,20.63639 3.52695,22.68511 8.1e-4,1.10733 -0.55562,1.47964 -7.37316,4.93333 -21.49888,10.8911 -43.57287,26.63386 -59.41664,42.37484 l -6.72665,6.68301 -2.97307,-0.85914 c -1.63518,-0.47252 -5.54847,-1.33641 -8.69619,-1.91975 -52.01563,-9.63955 -103.77164,17.0757 -127.89172,66.01476 -7.218433,14.64601 -11.089219,27.71224 -13.498331,45.56492 -0.994324,7.36842 -1.141813,30.81699 -0.242291,38.52107 1.933154,16.5568 5.332742,31.85302 10.516572,47.3186 2.82341,8.42348 3.58375,10.05508 5.39655,11.58045 5.41835,4.55924 13.75649,0.77185 13.79251,-6.2649 0.007,-1.33183 -0.96526,-4.8929 -2.89113,-10.59116 -7.98484,-23.62552 -11.35738,-45.90657 -10.35372,-68.40285 1.18067,-26.46394 10.03233,-51.05682 25.21397,-70.05287 7.75513,-9.70362 19.15165,-19.42447 29.92721,-25.52691 21.54466,-12.20122 46.08233,-15.97828 70.03038,-10.77971 6.08675,1.3213 13.58921,3.85609 19.57548,6.61379 2.93916,1.35399 5.8999,2.40716 7.08815,2.52133 4.02953,0.38719 7.65542,-2.27518 8.76206,-6.4337 0.95559,-3.59093 -0.81479,-7.58721 -4.1435,-9.35309 -1.1034,-0.58535 -2.00618,-1.19672 -2.00618,-1.35861 0,-0.39167 8.12318,-7.90321 12.54686,-11.60212 8.14462,-6.81023 20.29438,-15.35285 30.81803,-21.66847 5.23472,-3.14154 17.22149,-9.60018 18.53378,-9.98625 0.88321,-0.25983 0.93671,-0.0813 1.17552,3.92136 0.29063,4.87134 1.06785,6.8016 3.5286,8.76335 1.36485,1.08809 2.16997,1.36119 4.43868,1.50565 3.49568,0.22259 5.90552,-0.88752 7.65041,-3.52423 1.17225,-1.77139 1.21993,-2.08054 1.50964,-9.78666 0.16454,-4.37662 0.61756,-9.74047 1.00673,-11.91966 1.72109,-9.63757 5.28013,-21.02113 9.21358,-29.46951 l 1.83234,-3.93556 1.73565,2.61483 c 5.60684,8.44688 10.78089,21.31713 14.32503,35.63289 1.58492,6.40198 2.00628,7.41253 3.79718,9.10699 1.60964,1.52296 3.23073,2.11915 5.76216,2.11915 3.99978,0 7.05804,-2.38428 8.11178,-6.32412 0.45125,-1.68714 0.39441,-2.56089 -0.39536,-6.07766 -0.5073,-2.25899 -0.84176,-4.18937 -0.74325,-4.28973 0.32584,-0.33197 9.05636,2.18927 13.1281,3.79119 22.81422,8.97566 41.64054,26.24376 56.06152,51.42138 4.45333,7.77508 9.5474,19.58872 11.53855,26.75899 l 0.95145,3.42622 -0.92294,1.49335 c -1.49628,2.42103 -6.03438,6.32039 -9.22663,7.92799 -9.51196,4.79015 -20.74303,4.27895 -37.33217,-1.69922 -3.74974,-1.35128 -5.4308,-1.41901 -7.82254,-0.31515 -4.23259,1.95347 -6.1445,6.7328 -4.3814,10.9525 1.35916,3.25293 3.16586,4.41752 10.76489,6.93903 l 3.74205,1.24168 -3.96217,1.88544 c -14.64227,6.96766 -34.43733,10.48947 -62.32665,11.08876 l -13.90017,0.2987 -1.82975,1.21115 c -4.97505,3.29312 -4.9755,11.01245 -8.4e-4,14.30684 1.75809,1.16427 2.08582,1.21714 8.46593,1.36569 3.65038,0.085 11.05152,-0.07 16.44699,-0.34436 24.88341,-1.26548 43.56275,-4.95382 59.04173,-11.65811 9.96015,-4.31397 21.41144,-5.17552 32.84395,-2.47105 7.02014,1.66069 7.94138,2.4709 12.12921,10.66752 3.05492,5.97923 6.74083,15.14689 6.42293,15.97528 -0.49338,1.28579 -12.18875,4.4001 -18.91304,5.03628 -5.25964,0.49761 -9.63995,-0.0252 -14.22171,-1.69729 -9.29042,-3.39058 -17.5401,-2.79585 -27.24027,1.9638 -6.02133,2.95454 -12.19281,7.57632 -20.23058,15.15058 -9.81987,9.25358 -20.01173,15.63438 -36.78059,23.02713 -15.74645,6.94202 -35.36403,12.69774 -46.9957,13.78835 l -3.19175,0.29926 v -4.0364 c 0,-11.83604 -3.16634,-25.78702 -8.06758,-35.54597 -13.37929,-26.63977 -40.84754,-40.99995 -82.49809,-43.12935 -4.927,-0.2519 -6.12208,-0.1819 -7.79376,0.45652 -6.47547,2.47301 -7.33433,11.28784 -1.45559,14.93929 1.88042,1.16798 2.47481,1.28188 8.54484,1.63732 39.23658,2.29756 62.36685,15.68847 70.76311,40.96717 1.99053,5.99293 2.75103,9.88519 3.3581,17.18694 1.74846,21.02985 -6.38804,51.70443 -19.54031,73.66695 l -2.37274,3.96216 -8.0941,0.22012 c -7.61407,0.20707 -8.21126,0.28573 -10.06964,1.32626 -4.76425,2.66757 -5.65855,9.80757 -1.69226,13.51087 2.56043,2.39064 1.61625,2.33165 37.44214,2.33992 36.8313,0.008 36.65322,-0.004 42.54909,2.8978 7.28964,3.58735 12.4412,11.82443 13.94566,22.29833 l 0.30037,2.09114 -94.81182,-0.0585 c -52.14649,-0.0322 -96.47451,-0.23227 -98.50669,-0.44473 z M 422.86047,234.49087 c 8.32568,-3.87701 10.02554,-15.05711 3.21969,-21.17615 -2.80422,-2.52124 -5.70289,-3.49764 -9.56124,-3.22066 -6.68545,0.47993 -11.35972,5.13785 -11.836,11.79462 -0.38977,5.44746 2.2336,10.11068 7.03353,12.50259 3.12893,1.55921 7.91768,1.60201 11.14402,0.0996 z"
   id="path19" /><path
   style="fill:#ffffff;stroke-width:0.440241"
   d="M 150.6095,494.76761 C 120.133,491.58194 87.387702,469.89436 64.27515,437.58741 49.153782,416.45062 39.646794,392.66214 35.601557,365.84007 c -1.16428,-7.71979 -1.605021,-25.95432 -0.843767,-34.90862 1.643507,-19.33185 7.009286,-39.9252 16.051392,-61.60374 6.53242,-15.66154 12.66077,-27.7705 28.357337,-56.03106 19.644568,-35.36866 24.846741,-47.8314 25.488501,-61.06231 0.53735,-11.07806 -2.27578,-19.44794 -9.817361,-29.2095 C 86.981488,112.85608 72.30441,102.55666 55.030095,95.090489 53.214101,94.305593 51.655319,93.598201 51.566132,93.518499 51.277923,93.260954 54.515587,87.68486 57.889198,82.62855 67.196403,68.679072 79.987805,55.6161 94.217888,45.528582 114.51628,31.139323 138.90809,22.032627 166.62132,18.496725 c 25.51527,-3.255466 47.65129,-1.696354 65.16544,4.589816 5.86377,2.104621 15.7932,7.022033 20.69131,10.247084 12.93567,8.517196 25.71926,21.939871 34.98776,36.736912 3.83685,6.125479 11.17946,20.795609 14.06604,28.103152 5.2072,13.182381 9.61765,28.353371 12.54254,43.143591 1.48291,7.49863 3.33918,19.59473 3.33918,21.75931 0,0.9475 -0.89958,1.5363 -7.59416,4.97056 -22.1057,11.34007 -43.75331,26.83041 -59.62071,42.6627 l -6.24151,6.22771 -4.08527,-1.06108 c -27.01094,-7.01562 -55.71013,-3.86248 -80.94503,8.8933 -35.39212,17.89008 -59.76934,51.8252 -66.86673,93.08405 -1.688064,9.81314 -2.027274,14.48639 -2.029127,27.95528 -0.002,14.28791 0.364471,18.97363 2.469293,31.57522 2.374623,14.21695 8.669934,36.9363 12.041044,43.4553 2.83987,5.4917 11.04367,5.79192 14.38299,0.52637 1.93726,-3.05474 1.74981,-5.0395 -1.35991,-14.39867 -6.56904,-19.77054 -9.89623,-36.94334 -10.5166,-54.27989 -1.2293,-34.35346 7.2229,-62.48068 25.63,-85.29143 13.53717,-16.77576 33.45246,-29.73425 53.65806,-34.91426 9.80769,-2.51434 12.83821,-2.86662 24.75951,-2.87812 9.55097,-0.009 11.71513,0.12007 16.3697,0.97791 9.34807,1.72284 16.39454,3.99756 26.7739,8.64309 2.15711,0.96546 4.20433,1.57465 5.28289,1.57202 6.2113,-0.0151 10.26297,-6.74084 7.4437,-12.35641 -0.68884,-1.37208 -3.28478,-3.72581 -4.55321,-4.1284 -0.50018,-0.15874 -0.90941,-0.45889 -0.90941,-0.66698 0,-0.46705 7.78142,-7.71189 12.54686,-11.68167 12.18185,-10.14791 28.00178,-20.5973 43.80396,-28.93342 2.54239,-1.34119 5.06827,-2.57175 5.61307,-2.73458 0.94916,-0.28369 0.99054,-0.18699 0.99054,2.31497 0,3.86133 0.74056,7.08718 2.00871,8.7498 3.38581,4.43903 10.68856,4.21265 13.75894,-0.42653 1.13507,-1.71501 1.19254,-2.09013 1.45893,-9.5219 0.29834,-8.32293 1.06296,-13.70349 3.04757,-21.44521 1.50594,-5.87454 4.67185,-14.74772 7.19708,-20.17149 l 1.83617,-3.94377 1.88654,2.84317 c 5.1058,7.69482 10.73954,21.66082 13.95965,34.60587 1.80213,7.24466 2.18998,8.20576 4.00401,9.92211 1.5912,1.50551 3.22794,2.11915 5.65237,2.11915 3.55667,0 6.20795,-1.73196 7.75006,-5.06277 1.02107,-2.20541 1.01632,-3.50882 -0.0289,-7.91962 -0.45841,-1.93447 -0.75119,-3.5995 -0.65062,-3.70007 0.32198,-0.32198 7.75229,1.77496 12.30006,3.47126 15.39754,5.74321 30.08626,16.34402 42.09603,30.38059 11.33313,13.24574 22.31077,33.3375 26.38246,48.28634 l 0.98107,3.6019 -1.39781,1.76487 c -6.41248,8.09641 -16.59346,11.75601 -28.44009,10.2229 -4.95157,-0.6408 -11.75132,-2.35411 -16.06878,-4.04881 -1.816,-0.71281 -4.11901,-1.41392 -5.11782,-1.55802 -6.17836,-0.89136 -11.17716,5.76731 -8.72876,11.62717 1.35859,3.25156 3.18147,4.4273 10.73712,6.92536 l 3.71428,1.22802 -3.49416,1.75918 c -4.55119,2.29136 -14.84656,5.66619 -21.67123,7.10385 -12.75963,2.6879 -23.37052,3.75803 -41.03531,4.1385 -13.51096,0.29101 -13.91013,0.32515 -15.52238,1.32755 -3.93269,2.44512 -5.16615,7.83908 -2.70044,11.80909 2.05274,3.30508 3.59579,3.86294 11.17897,4.04159 7.57159,0.17837 23.37107,-0.56246 31.68533,-1.48572 17.46913,-1.93986 28.67418,-4.60502 42.49524,-10.10764 8.69736,-3.46271 12.89524,-4.32966 20.91143,-4.31868 6.28524,0.009 11.59676,0.7867 16.61427,2.43383 3.58058,1.17542 4.99089,2.77841 8.49999,9.66129 3.06306,6.008 6.74205,15.16414 6.42499,15.99035 -0.49364,1.28648 -12.18935,4.40016 -18.91984,5.03692 -5.2439,0.49613 -9.31808,0.006 -14.37107,-1.72899 -9.94207,-3.41364 -18.82894,-2.58231 -28.57518,2.67309 -5.99536,3.23283 -10.89481,7.07691 -20.07916,15.75401 -10.46337,9.88548 -28.25974,19.71308 -49.47572,27.32175 -11.53503,4.13679 -24.6768,7.40797 -32.96092,8.20446 l -3.19175,0.30687 v -4.0364 c 0,-15.64603 -4.5787,-31.24904 -12.80737,-43.64415 -3.76853,-5.67666 -12.37577,-14.23661 -18.2296,-18.12944 -15.00795,-9.98036 -34.87948,-15.6211 -59.5287,-16.89783 -4.93271,-0.2555 -6.12014,-0.18654 -7.79376,0.45262 -6.50406,2.48393 -7.25131,11.57258 -1.24107,15.09482 1.6672,0.97704 2.63215,1.14815 8.36931,1.48409 26.14104,1.53066 44.69567,7.84371 57.13986,19.44132 16.46639,15.34617 21.23983,40.6391 13.60629,72.09541 -3.33086,13.7258 -9.55426,29.19992 -16.2007,40.28203 l -2.37628,3.96216 -8.0941,0.22012 c -7.76951,0.2113 -8.17373,0.26694 -10.07991,1.38762 -2.06097,1.21167 -3.62917,3.45635 -4.15658,5.94957 -0.63221,2.98866 1.45706,7.29069 4.29413,8.84215 1.29658,0.709 4.17812,0.78842 36.40716,1.00353 38.76896,0.25877 36.53444,0.0894 42.4784,3.22027 6.7157,3.53738 11.84229,12.04556 13.23806,21.97004 l 0.2941,2.09114 -94.81182,-0.0585 c -52.14649,-0.0322 -96.47451,-0.23227 -98.50669,-0.44473 z M 422.85125,234.47652 c 8.41628,-3.99049 10.0042,-15.21458 3.02197,-21.36058 -2.6541,-2.33624 -5.60885,-3.29076 -9.3543,-3.02188 -4.71268,0.33831 -8.17008,2.52154 -10.4171,6.57804 -1.15651,2.08783 -1.29976,2.76185 -1.29427,6.08972 0.005,3.18945 0.17799,4.06711 1.16961,5.94325 1.05694,1.99972 2.31401,3.42467 4.43311,5.02517 2.70052,2.03963 8.92564,2.41305 12.44098,0.74628 z"
   id="path20" /></svg>
