<?xml version="1.0" encoding="UTF-8" standalone="no"?>
<svg
   version="1.1"
   width="600"
   height="600"
   id="svg1"
   sodipodi:docname="temperature-3.svg"
   inkscape:version="1.4.3 (fcd0343856, 2026-01-01)"
   xmlns:inkscape="http://www.inkscape.org/namespaces/inkscape"
   xmlns:sodipodi="http://sodipodi.sourceforge.net/DTD/sodipodi-0.dtd"
   xmlns="http://www.w3.org/2000/svg"
   xmlns:svg="http://www.w3.org/2000/svg">
  <defs
     id="defs1" />
  <sodipodi:namedview
     id="namedview1"
     pagecolor="#ffffff"
     bordercolor="#000000"
     borderopacity="0.25"
     inkscape:showpageshadow="2"
     inkscape:pageopacity="0.0"
     inkscape:pagecheckerboard="0"
     inkscape:deskcolor="#d1d1d1"
     inkscape:zoom="1.9383333"
     inkscape:cx="299.74205"
     inkscape:cy="258.72743"
     inkscape:window-width="2560"
     inkscape:window-height="1371"
     inkscape:window-x="1920"
     inkscape:window-y="32"
     inkscape:window-maximized="1"
     inkscape:current-layer="svg1" />
  <path
     d="m 557.08176,88.835145 c 8.89332,1.373778 17.60285,2.212046 26.59651,2.441184 5.52891,0.651934 10.17711,2.104855 14.08988,6.262166 2.55512,7.345985 0.40286,13.030645 -2.7502,19.821345 -4.09891,8.35264 -8.94639,15.87901 -14.49287,23.32834 -4.32132,5.80516 -8.33156,11.82372 -12.39166,17.81274 -3.22595,4.74144 -6.51005,9.4127 -9.94523,14.00446 -13.37977,18.07746 -20.75162,37.66248 -27.52301,58.93335 -4.05423,12.58493 -8.72384,23.44206 -17.10017,33.86921 -3.83374,5.01257 -4.39926,8.95352 -3.80772,15.2574 0.9317,6.75267 2.52723,12.55069 5.58554,18.64498 0.91102,1.97241 0.91102,1.97241 0.91102,4.23669 7.67136,0.41202 13.0414,-1.7518 20.03362,-4.64355 4.18505,-1.13778 5.67815,-0.81861 9.4021,1.24712 -0.0708,2.61808 -0.0708,2.61808 -1.13215,5.66072 -4.03326,2.05201 -4.03326,2.05201 -7.925,3.39643 0,1.49443 0,2.98886 0,4.52857 3.86255,1.28752 6.92667,1.31213 10.99859,1.37096 1.51618,0.0318 3.03233,0.0642 4.54848,0.0973 2.38249,0.0467 4.76471,0.0885 7.14748,0.1183 2.3051,0.0313 4.60901,0.0832 6.91365,0.1382 1.37758,0.0224 2.75517,0.0449 4.1745,0.068 3.78101,0.4983 5.35899,1.29831 8.10659,3.86798 -0.35379,2.12276 -0.35379,2.12276 -1.13214,4.52857 -3.86331,2.57554 -4.93664,2.48568 -9.4242,2.23775 -1.16388,-0.0584 -2.32775,-0.11675 -3.5269,-0.1769 -1.21349,-0.073 -2.42698,-0.14594 -3.67725,-0.22112 -1.22663,-0.0642 -2.45326,-0.12843 -3.71705,-0.19459 -3.03086,-0.16022 -6.06066,-0.33164 -9.09032,-0.513 3.07278,3.29412 5.80628,4.50925 10.04777,6.08527 5.41005,2.18369 9.24505,3.79364 12.59509,8.63259 -0.0708,2.54732 -0.0708,2.54732 -1.13214,4.52857 -4.94839,2.4742 -10.48014,1.75285 -15.58908,0.14594 -5.01103,-2.046 -9.86069,-4.36132 -14.68248,-6.81497 -0.709,-0.36038 -1.41799,-0.72076 -2.14847,-1.09206 -2.02031,-1.03754 -4.02919,-2.09723 -6.03745,-3.1579 -3.49428,-1.84268 -3.49428,-1.84268 -7.96038,-1.53458 0.44941,4.40424 1.10421,8.17084 2.97187,12.17054 1.5567,3.67946 1.5567,3.67946 0.42455,7.07589 -8.23639,1.37273 -8.23639,1.37273 -11.44083,0.4334 -3.0396,-2.2186 -3.72903,-4.58084 -5.046,-8.07536 -0.48014,-1.21861 -0.96029,-2.43721 -1.45498,-3.69274 -0.43052,-1.11644 -0.86105,-2.23288 -1.30462,-3.38316 -2.26548,-5.38052 -3.71238,-7.74472 -9.05714,-10.18929 -3.0303,-0.003 -5.72509,0.12845 -8.70335,0.49532 -2.7818,0.32087 -5.47333,0.52726 -8.2788,0.63683 -0.74721,-0.74722 -1.49443,-1.49443 -2.26428,-2.26429 0,-3.17854 0.47985,-4.99577 2.72864,-7.28817 1.68542,-1.40252 3.43776,-2.72367 5.19636,-4.03326 -0.69375,-3.35313 -1.4194,-4.95945 -3.39643,-7.925 0.47758,-4.39526 2.01042,-8.48235 3.39643,-12.66585 2.00267,-6.37083 3.09569,-12.37295 3.39643,-19.03416 -0.74722,0 -1.49443,0 -2.26429,0 -0.31186,0.99787 -0.62371,1.99574 -0.94502,3.02384 -1.20919,3.45454 -2.60208,6.50274 -4.31325,9.73046 -0.87017,1.65278 -0.87017,1.65278 -1.75792,3.33894 -0.60346,1.13396 -1.20693,2.26791 -1.82868,3.43623 -2.34256,4.43031 -4.67672,8.86492 -7.00513,13.30268 -0.55111,1.03554 -1.10222,2.07108 -1.67002,3.138 -0.76482,1.46984 -0.76482,1.46984 -1.54509,2.96938 -0.45233,0.85932 -0.90465,1.71863 -1.37068,2.60399 -4.52751,10.99338 0.49897,22.27315 4.65212,32.5809 4.68714,12.05403 4.68714,12.05403 13.51938,20.9756 4.31851,0.84677 6.8375,0.72194 10.54309,-1.73802 1.75835,-1.40841 3.48675,-2.85526 5.17867,-4.34283 2.43901,-1.87998 3.86325,-2.73341 6.92111,-2.97629 1.12082,0.74721 2.24164,1.49442 3.39642,2.26428 -0.43092,2.85866 -0.73099,4.18899 -2.97629,6.08969 -0.72241,0.4422 -1.44481,0.8844 -2.18911,1.34 -2.18082,1.26594 -2.18082,1.26594 -3.89174,2.7596 0,1.12082 0,2.24164 0,3.39643 5.73839,0.21977 11.08982,0.19098 16.69911,-1.13214 6.99815,-1.54649 17.66117,-3.6608 24.02708,0.23438 1.1631,2.0299 1.1631,2.0299 0.031,7.69062 -14.01027,2.24164 -14.01027,2.24164 -28.30358,4.52857 4.18497,4.5456 4.18497,4.5456 9.26943,5.59438 0.88439,0.12332 1.76879,0.24664 2.67999,0.37369 0.91359,0.10873 1.82717,0.21745 2.76844,0.32948 11.35133,1.40531 11.35133,1.40531 14.71786,5.02388 0.42456,2.90112 0.42456,2.90112 0,5.66072 -2.81002,2.81002 -3.8025,2.7277 -7.71272,2.90111 -8.3062,-0.0805 -15.60912,-2.8075 -23.34962,-5.64275 -5.95178,-2.16504 -11.29903,-3.52939 -17.61981,-4.05122 1.12499,4.61245 2.61607,7.34455 5.87299,10.6846 2.94639,3.23383 3.17829,3.67546 3.25492,8.34955 -1.20291,3.60871 -1.20291,3.60871 -4.59934,5.87299 -4.91614,0.3531 -8.99377,-0.13049 -12.80736,-3.32567 -2.17618,-3.94936 -3.8313,-7.95069 -5.38653,-12.17938 -1.04694,-2.85 -1.04694,-2.85 -3.31682,-6.00566 -4.61786,-1.53929 -8.7615,-1.86033 -13.58572,-1.13215 -5.14379,3.36325 -8.60502,7.74979 -12.45357,12.45358 -3.38052,1.69025 -6.46288,1.26523 -10.18929,1.13214 -2.26429,-1.13214 -2.26429,-1.13214 -3.18415,-3.11339 -0.30927,-3.71118 0.97473,-5.26214 3.18415,-8.20804 2.51667,-2.30096 5.04113,-4.17369 8.00018,-5.86857 0.81581,-0.46847 1.63161,-0.93694 2.47214,-1.4196 0.7764,-0.41885 1.55281,-0.8377 2.35274,-1.26924 2.09653,-1.55161 2.09653,-1.55161 2.92765,-4.2588 0.12825,-3.99923 -1.04622,-5.80688 -3.15762,-9.18982 -0.7297,-1.18796 -1.4594,-2.37591 -2.21122,-3.59986 -2.0956,-3.28952 -4.2369,-6.54858 -6.37742,-9.80896 -8.55868,-13.09925 -12.7917,-23.77833 -14.19574,-39.30659 -1.3193,0.63046 -2.6386,1.26092 -3.99788,1.91049 -32.2986,15.15429 -68.67455,26.79014 -104.68785,26.39308 -0.23497,-0.79391 -0.46993,-1.58783 -0.71201,-2.4058 -4.21394,-12.97682 -10.54366,-18.9296 -22.30234,-25.61474 -2.98107,-1.65505 -2.98107,-1.65505 -6.42137,-1.41518 0.83332,0.63047 1.66664,1.26093 2.52521,1.9105 14.5334,11.36562 14.5334,11.36562 16.11535,20.31223 0.55875,9.79855 -3.35467,16.21626 -9.22962,23.69983 -1.29595,1.366 -1.29595,1.366 -2.61808,2.7596 -0.74722,0 -1.49443,0 -2.26429,0 -0.24226,0.61732 -0.48452,1.23465 -0.73412,1.87069 -2.43759,4.23407 -6.12571,7.30011 -9.66744,10.6072 -1.4989,1.4414 -2.91422,2.96852 -4.3163,4.50425 0,1.12082 0,2.24164 0,3.39643 8.95991,5.29162 20.09275,1.95294 29.51532,-0.44224 4.27775,-0.88977 7.06694,-0.76384 11.24183,0.44224 0.74722,0.74722 1.49443,1.49443 2.26429,2.26429 -0.42456,2.97187 -0.42456,2.97187 -1.13215,5.66071 -2.97142,0.56857 -5.94333,1.13424 -8.91562,1.69822 -0.845,0.16199 -1.68999,0.32398 -2.56059,0.49089 -6.38157,1.20732 -6.38157,1.20732 -8.90236,1.20732 0.37361,0.74722 0.74721,1.49443 1.13214,2.26429 2.64676,0.67144 2.64676,0.67144 5.8553,1.05254 1.19671,0.17658 2.39343,0.35317 3.6264,0.53511 2.52877,0.35415 5.0584,0.70214 7.5889,1.0437 11.70361,1.74702 11.70361,1.74702 15.76155,6.42579 0.49531,2.97188 0.49531,2.97188 0,5.66072 -2.26429,2.26428 -2.26429,2.26428 -5.40421,2.61808 -6.8619,-0.199 -13.56487,-2.17401 -20.21053,-3.75023 -2.72586,-0.6424 -5.45299,-1.27944 -8.1815,-1.91049 -1.20054,-0.28458 -2.40108,-0.56916 -3.638,-0.86237 -3.09147,-0.58013 -5.84914,-0.7451 -8.98362,-0.62357 2.11539,6.00028 7.61782,7.97402 12.84717,10.98975 3.00283,2.59597 3.00283,2.59597 3.98903,6.85478 0.0482,1.20984 0.0963,2.41969 0.14594,3.66619 -3.86452,2.57635 -5.65193,2.45685 -10.14064,1.72917 -8.73694,-2.25523 -15.77782,-11.08854 -21.20557,-17.93296 -2.64991,-3.07963 -4.57128,-4.81138 -8.2788,-6.43907 -3.63323,-0.28457 -3.63323,-0.28457 -6.79285,0 -0.99511,4.1538 -1.10922,7.70778 -0.84911,11.95826 0.0464,5.73938 0.0464,5.73938 -2.68884,9.19867 -3.74685,1.71051 -5.97832,2.1052 -10.04777,1.48593 -1.90386,-1.45221 -1.90386,-1.45221 -3.39643,-3.39643 0.0267,-3.34272 0.21744,-6.45623 0.56607,-9.76473 0.73381,-9.1152 0.65027,-16.00227 -4.88237,-23.63349 -3.19009,-2.18749 -5.41423,-2.53273 -9.26942,-2.83035 -3.45486,1.1092 -3.45486,1.1092 -6.79286,2.83035 -5.10065,2.4972 -8.04407,3.27255 -13.58571,1.69822 -0.74722,-0.74722 -1.49443,-1.49443 -2.26429,-2.26429 0.42456,-4.10402 0.42456,-4.10402 1.13215,-7.925 0.74721,0 1.49442,0 2.26428,0 0,-0.74721 0,-1.49443 0,-2.26429 6.47582,-2.43233 12.9405,-3.29728 19.76165,-4.16593 10.34586,-1.5263 14.66539,-7.64269 20.71247,-15.64657 0.66694,-0.85959 1.33389,-1.71918 2.02105,-2.60481 0.63484,-0.83332 1.26968,-1.66664 1.92376,-2.52521 0.86196,-1.13067 0.86196,-1.13067 1.74133,-2.28419 1.42439,-2.26407 2.03371,-4.12327 2.52189,-6.73758 -1.06536,-0.56187 -2.13073,-1.12374 -3.22837,-1.70263 -15.7301,-8.49582 -15.7301,-8.49582 -19.41449,-15.27951 -0.99062,-3.89174 -0.99062,-3.89174 -1.13214,-6.79286 -0.74722,0 -1.49443,0 -2.26429,0 -0.0938,1.53187 -0.1585,3.06553 -0.21227,4.59933 -0.0394,0.85375 -0.0788,1.7075 -0.11941,2.58712 0.45364,4.10698 1.9836,7.18699 3.72811,10.92784 -2.01211,-0.42126 -4.02418,-0.84275 -6.03607,-1.26509 -1.86793,-0.39203 -3.73605,-0.7832 -5.60433,-1.17361 -5.84834,-1.22687 -11.6877,-2.48763 -17.52113,-3.78367 -46.10177,-10.20227 -99.90485,-17.06162 -142.499659,8.76969 -13.796479,9.27044 -24.411912,20.5671 -28.72813,37.07768 -1.632496,18.69778 2.364368,34.16512 14.474626,48.87232 1.590491,1.82361 3.181132,3.6471 4.771806,5.47055 0,0.74722 0,1.49443 0,2.26429 0.623165,0.26707 1.24633,0.53414 1.888379,0.8093 3.303024,1.82026 5.828305,4.12237 8.654703,6.62039 32.186735,27.40081 78.146215,38.21818 119.653365,35.59174 22.54642,-1.81785 43.60846,-7.4812 63.68305,-17.92882 0.93548,-0.48005 1.87096,-0.9601 2.83478,-1.4547 0.82101,-0.437 1.64201,-0.874 2.4879,-1.32425 2.75387,-0.9534 4.1418,-0.63401 6.84786,0.3292 -29.59975,28.3156 -70.57874,40.18552 -110.95002,39.62501 -38.79285,-1.1687 -79.267713,-12.7071 -109.817877,-37.36073 -1.473267,-1.11425 -1.473267,-1.11425 -2.976298,-2.25101 -6.214185,-4.76946 -11.341144,-9.79509 -16.270134,-15.86327 -0.719486,-0.80851 -1.438971,-1.61702 -2.18026,-2.45003 C 5.8178499,434.20605 -0.49458025,410.37654 1.1287569,384.96131 3.2905021,366.53332 12.431843,349.7346 24.903761,336.27916 c 0.846454,-0.95007 1.692908,-1.90014 2.565012,-2.879 22.263988,-23.77529 55.380782,-34.66674 86.449737,-41.0623 1.59504,-0.3311 1.59504,-0.3311 3.22229,-0.66889 15.8678,-3.05037 31.82577,-4.21178 47.96296,-4.34173 1.2504,-0.0101 2.5008,-0.0203 3.78909,-0.0307 5.14869,-0.0331 10.29693,-0.0559 15.44573,-0.0453 21.10586,0.0655 21.10586,0.0655 40.9545,-6.44708 1.00553,-0.45634 2.01106,-0.91267 3.04706,-1.38284 3.60861,-1.67157 7.15029,-3.4609 10.69565,-5.26186 7.83052,-3.85919 16.00808,-7.23539 24.75016,-4.67673 0.74721,0.74722 1.49442,1.49443 2.26428,2.26429 7.25999,-0.31799 13.74197,-3.05267 20.48029,-5.5988 1.83468,-0.68236 1.83468,-0.68236 3.70642,-1.37851 3.99333,-1.48742 7.98228,-2.98621 11.97111,-4.48564 2.772,-1.03628 5.54422,-2.07195 8.31666,-3.10704 5.57593,-2.08303 11.15012,-4.17061 16.72316,-6.26133 6.9064,-2.58896 13.82173,-5.15292 20.74122,-7.70665 17.45514,-6.45351 34.83049,-13.05019 52.00782,-20.21494 0.71154,-0.29497 1.42307,-0.58994 2.15618,-0.89385 20.51553,-8.53696 43.0112,-19.09967 52.03687,-40.72236 2.01749,-5.36153 3.62802,-10.86314 5.31522,-16.33537 7.27239,-23.40855 16.24322,-40.66505 37.50223,-54.05983 2.26864,-1.47928 4.53277,-2.96551 6.79286,-4.45781 1.13834,-0.75159 2.27667,-1.50318 3.4495,-2.27755 3.23248,-2.24478 6.25502,-4.6268 9.28711,-7.133389 13.07676,-10.701078 24.5361,-10.860759 40.54488,-8.278796 z"
     fill="#000000"
     id="path1"
     style="stroke-width:1.13214" />
  <path
     style="fill:#ffffff;stroke-width:0.515907"
     d="M 140.58469,510.71842 C 112.43008,507.89636 85.669852,499.84611 64.912917,487.95418 39.605933,473.45547 20.264149,454.49379 10.541981,434.65176 2.4211033,418.07781 -0.92254824,395.5659 2.3313124,379.37152 5.852936,361.8445 16.268662,344.35954 32.133789,329.34187 c 17.028005,-16.11842 42.560737,-28.03369 75.948761,-35.44274 22.31653,-4.9522 33.00405,-5.95354 67.58383,-6.33209 18.41203,-0.20156 27.06143,-0.48856 30.21867,-1.00272 8.05226,-1.31129 18.65807,-5.00846 30.26878,-10.55165 11.02989,-5.26589 16.8297,-7.23565 21.23738,-7.21274 3.37587,0.0175 6.15689,0.76407 7.48125,2.00823 1.41397,1.32837 3.02337,1.34344 8.30037,0.0778 6.57474,-1.57696 102.14893,-37.38809 125.56146,-47.04721 30.62414,-12.63434 45.04391,-22.66428 52.97624,-36.84861 2.37706,-4.25058 3.12145,-6.21978 7.21587,-19.08888 6.70914,-21.08738 11.75385,-31.29425 20.57287,-41.62471 4.83395,-5.66241 10.05998,-9.95484 20.41475,-16.76772 4.9656,-3.26711 11.11779,-7.6069 13.67153,-9.643975 14.85834,-11.852267 22.25387,-13.747301 42.56234,-10.906161 5.24936,0.734382 13.02666,1.573373 17.28289,1.864426 4.25624,0.291052 9.4798,0.754853 11.60791,1.030669 4.43097,0.574279 9.28525,2.712455 11.56845,5.095606 1.33692,1.395451 1.52399,2.005426 1.73551,5.659385 0.18444,3.18658 -0.002,4.88291 -0.84093,7.64442 -2.11393,6.9597 -8.38292,17.95981 -17.139,30.07359 -2.1535,2.97936 -6.77557,9.59587 -10.27125,14.70335 -3.49563,5.10749 -8.63015,12.43465 -11.41001,16.28258 -11.78497,16.31285 -17.71253,28.6298 -27.02456,56.15453 -6.43521,19.02146 -9.72624,26.0071 -16.73187,35.51584 -4.97001,6.74579 -5.47385,8.10664 -5.3963,14.575 0.0758,6.32163 1.60221,12.91865 4.52971,19.57701 1.01678,2.31258 1.8487,4.80722 1.8487,5.54365 v 1.33895 l 4.25623,-0.34748 c 3.02358,-0.24686 6.27194,-1.03577 11.21629,-2.72406 3.82803,-1.30712 7.78307,-2.37658 8.78899,-2.37658 2.66456,0 5.14519,1.42607 5.14519,2.95785 0,2.68093 -0.94313,3.8915 -4.25081,5.45631 -1.77643,0.84038 -3.52004,1.52815 -3.87472,1.52837 -0.43605,2.7e-4 -0.64489,0.90038 -0.64489,2.77948 v 2.77907 l 3.22442,0.54953 c 1.77343,0.30225 9.60877,0.68871 17.41187,0.8588 7.80309,0.1701 15.04983,0.56378 16.10388,0.87486 1.05405,0.31108 2.63603,1.16974 3.5155,1.90814 1.56671,1.31544 1.58533,1.38418 0.921,3.40616 -0.54527,1.65981 -1.14052,2.29332 -3.04184,3.23738 l -2.36389,1.17377 -12.08151,-0.69563 c -6.64484,-0.3826 -12.1976,-0.5974 -12.33947,-0.47734 -0.76638,0.64854 4.49726,3.99172 10.37293,6.58827 8.33113,3.68166 11.81108,6.47714 11.81108,9.48792 0,2.6059 -1.22178,3.59186 -5.32107,4.29404 -5.53697,0.94844 -10.09377,-0.48881 -24.94752,-7.86869 -12.09564,-6.00955 -14.72311,-6.93142 -16.51222,-5.79351 -0.85532,0.54399 0.34411,7.1483 2.09143,11.51587 1.34508,3.36222 1.68516,5.85033 0.95613,6.9961 -0.55945,0.87932 -6.6925,1.85951 -9.24242,1.47713 -3.03998,-0.45588 -4.68172,-2.61595 -7.39289,-9.72699 -3.74558,-9.82417 -5.28214,-12.30698 -9.26473,-14.97013 -1.47415,-0.98576 -6.15848,-1.10387 -13.94062,-0.35146 -4.62504,0.44717 -4.96293,0.41262 -6.0619,-0.61982 -2.48802,-2.33737 -1.02941,-6.14997 3.75188,-9.80694 3.29573,-2.52074 3.36323,-3.09246 0.94998,-8.04565 -1.61521,-3.31521 -1.5425,-4.02325 1.36642,-13.30597 1.97233,-6.29398 3.17821,-12.05324 3.79424,-18.12125 l 0.27497,-2.70851 h -1.49916 c -1.24911,0 -1.57911,0.27967 -1.97847,1.6767 -1.08177,3.78425 -3.12408,8.04417 -11.03108,23.00897 -4.56509,8.63989 -8.76612,16.89312 -9.33563,18.34051 -1.6019,4.07115 -1.43707,12.02738 0.37515,18.10882 1.89402,6.35589 7.77304,21.07551 9.72822,24.35704 0.88116,1.47892 3.30602,4.3809 5.38859,6.44884 l 3.78649,3.75989 3.46805,-0.0221 c 4.05116,-0.0258 5.16493,-0.53129 10.11773,-4.59221 5.57825,-4.57373 7.74094,-5.31885 10.39339,-3.5809 2.64001,1.7298 1.07604,5.01367 -3.90988,8.20956 -3.46134,2.21866 -3.58892,2.37392 -3.58892,4.36745 v 2.06701 h 5.67161 c 4.08361,0 7.5865,-0.38435 12.51076,-1.37272 10.7562,-2.15894 19.75796,-1.8858 22.32104,0.67728 0.85021,0.85019 1.02175,4.09153 0.31485,5.94991 -0.42784,1.12476 -1.25963,1.3221 -14.27226,3.3858 -7.59988,1.20528 -13.95389,2.33086 -14.12006,2.50128 -0.16616,0.17042 0.78957,1.3014 2.12388,2.51328 2.81252,2.5545 4.16549,2.96761 13.56712,4.14253 8.24549,1.03044 9.68817,1.40089 11.83635,3.03938 3.03632,2.31591 2.97555,6.74921 -0.11865,8.66155 -1.47756,0.91319 -2.57263,1.12152 -5.73999,1.09204 -5.73776,-0.0534 -9.44651,-0.88744 -20.6336,-4.64013 -9.0573,-3.03825 -15.78448,-4.73004 -19.00705,-4.78 -0.76858,-0.0119 -1.16065,0.28705 -1.16038,0.88483 7.6e-4,1.68953 2.93569,7.08555 5.26135,9.67326 2.98412,3.32037 3.50866,4.36415 3.50866,6.98184 0,4.79601 -2.56916,7.23132 -7.56025,7.16636 -3.1604,-0.0411 -5.01778,-0.58012 -7.78357,-2.2587 -1.64543,-0.99863 -3.74901,-5.06809 -6.77459,-13.10578 -1.74756,-4.64248 -3.06904,-6.15914 -5.89452,-6.7651 -1.36201,-0.2921 -4.47489,-0.53109 -6.91752,-0.53109 -4.41149,0 -4.45949,0.0142 -7.18991,2.12067 -1.51182,1.16636 -4.39791,4.06314 -6.41353,6.43729 -4.059,4.78099 -5.19289,5.36363 -10.44818,5.36866 -2.63669,0.003 -3.1915,-0.18247 -4.51419,-1.50516 -1.7889,-1.78889 -1.87998,-3.07284 -0.43041,-6.06725 1.40633,-2.90509 5.57597,-6.57506 11.26269,-9.913 6.10186,-3.58161 6.49217,-4.06221 6.48227,-7.98193 -0.009,-3.67639 0.0193,-3.62003 -8.78726,-17.35008 -7.67445,-11.96507 -10.6031,-17.57372 -13.06539,-25.02149 -1.87543,-5.67267 -3.67673,-14.08753 -3.67673,-17.17602 0,-1.57174 0.15058,-1.6156 -9.05817,2.63791 -30.33436,14.0114 -60.44238,22.22432 -88.18152,24.05431 -12.5806,0.82996 -11.28162,1.132 -12.63735,-2.93839 -2.33719,-7.01709 -5.9533,-12.62639 -11.10319,-17.22322 -4.37963,-3.9093 -13.26806,-9.22432 -15.40062,-9.20912 -2.72766,0.0195 -2.26729,0.86365 2.39608,4.39376 6.68169,5.05797 11.87343,10.33296 12.67793,12.88123 1.16823,3.7004 1.33751,10.52617 0.34617,13.95796 -1.92582,6.66671 -9.04131,17.35785 -11.76348,17.67482 -1.02811,0.11971 -1.62905,0.66252 -2.28466,2.06363 -0.48929,1.04565 -3.87165,4.88957 -7.51637,8.54203 -6.29418,6.30756 -6.61891,6.73473 -6.47039,8.51166 0.13392,1.60228 0.44081,2.00429 2.13806,2.80068 4.99533,2.34392 11.85452,2.36822 21.75003,0.0771 3.12124,-0.72268 6.83577,-1.51115 8.25451,-1.75216 3.15764,-0.53641 7.51473,0.1001 9.30132,1.3588 1.21274,0.8544 1.30625,1.17606 1.07523,3.69861 -0.13916,1.51955 -0.33203,2.84184 -0.4286,2.9384 -0.36287,0.36287 -17.08254,3.32715 -18.76642,3.32715 -1.9777,0 -1.97343,-0.006 -1.17977,1.7356 0.66036,1.44935 0.28527,1.357 12.83573,3.16028 11.82787,1.69946 14.34142,2.22634 16.50903,3.46051 2.90493,1.65397 4.21324,3.66275 4.21324,6.46896 0,5.96203 -4.6339,6.19045 -25.38605,1.25136 -12.17914,-2.89869 -19.9193,-4.04737 -20.86951,-3.09716 -0.54596,0.54596 1.04523,3.124 3.17779,5.14865 1.08744,1.03243 3.71836,2.84986 5.84647,4.03873 5.04668,2.81934 6.05413,3.81843 6.97407,6.91619 1.15007,3.87271 1.00517,4.83106 -0.91216,6.03301 -1.36069,0.853 -2.36111,1.02088 -5.30809,0.89073 -6.91902,-0.30555 -12.85973,-4.53168 -22.33181,-15.88649 -5.81604,-6.97206 -8.59539,-8.77042 -13.55465,-8.77042 -2.79903,0 -3.5207,0.17036 -3.82471,0.90284 -0.20609,0.49656 -0.52385,4.61737 -0.70614,9.15735 -0.39668,9.88014 -0.85879,10.90613 -5.58115,12.39149 -3.78085,1.18923 -6.55722,0.79111 -8.57842,-1.23009 l -1.55484,-1.55485 0.5481,-8.67257 c 0.77115,-12.20189 0.0883,-16.92778 -3.275,-22.66688 -1.72574,-2.94475 -5.23433,-4.75937 -9.49798,-4.91231 -2.4115,-0.0865 -3.60085,0.26419 -8.23557,2.42838 -4.83826,2.25922 -5.78919,2.52741 -8.90036,2.51014 -2.70728,-0.015 -3.79921,-0.25812 -4.90112,-1.09111 -1.2595,-0.95212 -1.41162,-1.3873 -1.36261,-3.89808 0.0796,-4.07567 0.54679,-5.54831 1.76034,-5.54831 0.65604,0 1.02198,-0.34705 1.02198,-0.96923 0,-1.58999 4.8092,-3.0108 15.99315,-4.72495 12.90905,-1.97855 14.85212,-3.34665 26.41239,-18.59669 2.70672,-3.57064 5.16907,-7.28517 5.4719,-8.25452 1.20372,-3.85308 1.51255,-3.48629 -6.85001,-8.1356 -4.26328,-2.37025 -8.68005,-5.07142 -9.81505,-6.0026 -3.12885,-2.567 -5.45269,-6.80097 -5.79308,-10.55484 -0.27701,-3.05492 -0.31641,-3.12271 -1.8149,-3.12271 h -1.53175 l 0.19897,5.80396 c 0.17097,4.98708 0.39768,6.23252 1.61082,8.84898 0.77652,1.67476 1.34444,3.11244 1.26204,3.19484 -0.0824,0.0824 -8.73363,-1.6952 -19.22496,-3.95021 -39.39748,-8.46813 -51.54759,-10.20068 -74.64077,-10.64344 -16.25497,-0.31165 -23.73624,0.11372 -34.34345,1.9527 -36.478428,6.32427 -63.316799,25.25503 -70.818467,49.95264 -1.056516,3.47835 -1.123203,4.4757 -0.860512,12.8696 0.311961,9.96827 1.107206,14.25296 3.994299,21.5208 2.844051,7.15948 6.685128,13.24696 12.706426,20.13761 1.515198,1.73397 2.754908,3.65502 2.754908,4.269 0,0.68191 0.451743,1.28954 1.160791,1.56136 1.305874,0.50064 5.360528,3.52557 11.478933,8.56374 21.365479,17.59331 51.595942,29.49627 83.834912,33.00921 35.61502,3.88082 66.57498,-1.53739 97.62806,-17.08559 6.31791,-3.16336 8.97781,-3.88416 10.57959,-2.86692 1.65734,1.05251 -13.01908,12.40257 -24.73073,19.1256 -16.44987,9.44298 -35.80895,15.76959 -57.93952,18.93484 -6.70405,0.95885 -33.06891,1.41484 -40.24076,0.69597 z"
     id="path2" />
</svg>
