<?xml version="1.0" encoding="UTF-8" standalone="no"?>
<!-- Generator: Adobe Illustrator 16.0.0, SVG Export Plug-In . SVG Version: 6.00 Build 0)  -->

<svg
   version="1.1"
   id="Capa_1"
   x="0px"
   y="0px"
   width="32.04px"
   height="32.039px"
   viewBox="0 0 32.04 32.039"
   style="enable-background:new 0 0 32.04 32.039;"
   xml:space="preserve"
   sodipodi:docname="snail-5.svg"
   inkscape:version="1.4.3 (fcd0343856, 2026-01-01)"
   xmlns:inkscape="http://www.inkscape.org/namespaces/inkscape"
   xmlns:sodipodi="http://sodipodi.sourceforge.net/DTD/sodipodi-0.dtd"
   xmlns="http://www.w3.org/2000/svg"
   xmlns:svg="http://www.w3.org/2000/svg"><defs
   id="defs18" /><sodipodi:namedview
   id="namedview18"
   pagecolor="#ffffff"
   bordercolor="#000000"
   borderopacity="0.25"
   inkscape:showpageshadow="2"
   inkscape:pageopacity="0.0"
   inkscape:pagecheckerboard="0"
   inkscape:deskcolor="#d1d1d1"
   inkscape:zoom="36.299508"
   inkscape:cx="13.195771"
   inkscape:cy="16.019501"
   inkscape:window-width="2560"
   inkscape:window-height="1371"
   inkscape:window-x="1920"
   inkscape:window-y="32"
   inkscape:window-maximized="1"
   inkscape:current-layer="Capa_1"
   showguides="true"><sodipodi:guide
     position="15.978178,15.179268"
     orientation="1,0"
     id="guide1"
     inkscape:locked="false" /><sodipodi:guide
     position="7.9890888,13.416159"
     orientation="1,0"
     id="guide2"
     inkscape:locked="false" /><sodipodi:guide
     position="24.022363,10.716398"
     orientation="1,0"
     id="guide3"
     inkscape:locked="false" /><sodipodi:guide
     position="40.000541,12.534604"
     orientation="1,0"
     id="guide4"
     inkscape:locked="false" /><sodipodi:guide
     position="32.039001,11.818341"
     orientation="1,0"
     id="guide5"
     inkscape:locked="false" /><sodipodi:guide
     position="48.017178,10.771495"
     orientation="1,0"
     id="guide6"
     inkscape:locked="false" /><sodipodi:guide
     position="55.978719,10.330718"
     orientation="1,0"
     id="guide7"
     inkscape:locked="false" /></sodipodi:namedview>
















<g
   id="g19"
   transform="translate(8)"><g
     id="g3">
	<g
   id="g2">
		<path
   d="m 31.842,15.057 c -0.264,-0.265 -0.689,-0.265 -0.953,0 -0.228,0.229 -0.246,0.573 -0.079,0.834 l -3.007,3.008 c -0.089,-0.061 -0.187,-0.105 -0.279,-0.157 l 0.904,-3.373 c 0.309,0.014 0.6,-0.177 0.682,-0.485 0.1,-0.36 -0.114,-0.729 -0.476,-0.825 -0.36,-0.098 -0.729,0.116 -0.825,0.478 -0.083,0.311 0.073,0.618 0.351,0.762 l -0.888,3.307 c -0.371,-0.164 -0.778,-0.263 -1.207,-0.287 -3.048,-0.168 -2.584,3.011 -3.806,3.01 -0.285,0 -1.716,-0.646 -1.716,-0.646 l -0.982,0.201 c -3.417,0.497 -6.636,-1.889 -6.76,-1.98 l -0.39,-0.296 c 0,0 -0.661,1.275 -1.829,1.912 -0.865,0.47 -1.861,0.567 -2.545,0.567 -1.251,0 -2.832,-0.349 -3.539,-1.128 -0.111,-0.123 -0.199,-0.256 -0.301,-0.383 -3.606,1.845 -5.085,4.896 -3.663,4.896 2.315,0 25.529,0 25.529,0 1.698,0 3.075,-1.378 3.075,-3.076 0,-0.951 -0.44,-1.762 -1.119,-2.316 l 2.986,-2.988 c 0.261,0.169 0.605,0.148 0.835,-0.078 0.266,-0.266 0.266,-0.694 0.002,-0.957 z m -6.132,5.869 c -0.372,0 -0.674,-0.302 -0.674,-0.674 0,-0.372 0.302,-0.674 0.674,-0.674 0.372,0 0.674,0.302 0.674,0.674 0,0.372 -0.301,0.674 -0.674,0.674 z"
   id="path1" />
		<path
   d="m 10.259,19.925 c 2.863,-1.558 1.811,-7.37 -1.684,-5.348 3.494,-2.905 4.963,2.837 4.633,3.785 0,0 3.071,2.32 6.253,1.853 0,-4.033 -1.423,-10.616 -7.265,-12.29 C 4.408,5.693 0.45,14.493 4.998,19.504 c 0.768,0.846 3.604,1.324 5.261,0.421 z"
   id="path2" />
	</g>
</g><g
     id="g4">
</g><g
     id="g5">
</g><g
     id="g6">
</g><g
     id="g7">
</g><g
     id="g8">
</g><g
     id="g9">
</g><g
     id="g10">
</g><g
     id="g11">
</g><g
     id="g12">
</g><g
     id="g13">
</g><g
     id="g14">
</g><g
     id="g15">
</g><g
     id="g16">
</g><g
     id="g17">
</g><g
     id="g18">
</g><path
     style="fill:#ffffff;stroke-width:0.0275486"
     d="M 7.2866001,20.355498 C 6.3260171,20.23852 5.4870134,19.935619 5.0861678,19.561087 4.5375289,19.048465 3.7999274,17.838205 3.4989274,16.956737 2.9445964,15.333397 2.954799,13.638579 3.528604,12.027006 3.6797152,11.602599 4.0197529,10.918462 4.2621719,10.551107 5.2957771,8.9848117 6.8202759,7.9847297 8.6458678,7.6753715 9.850094,7.4713077 11.265324,7.615151 12.631025,8.0804209 c 3.365067,1.1464181 5.645033,4.2169171 6.498526,8.7517631 0.176965,0.940263 0.288876,2.019704 0.29989,2.892601 l 0.0061,0.4821 -0.165292,0.02015 c -0.307122,0.03744 -1.169134,0.02612 -1.515172,-0.0199 -1.147174,-0.152571 -2.325307,-0.557422 -3.464883,-1.190662 -0.314213,-0.174602 -1.030158,-0.61655 -1.055736,-0.651698 -0.0015,-0.002 0.006,-0.08422 0.01652,-0.18271 0.07137,-0.666461 -0.240066,-1.919829 -0.690463,-2.77874 -0.851471,-1.623764 -2.072556,-2.066939 -3.4296867,-1.244756 -0.2144957,0.129947 -0.5680363,0.391438 -0.5515375,0.407937 0.00591,0.0059 0.1141787,-0.03904 0.2405904,-0.0999 0.7496379,-0.360884 1.3370528,-0.390661 1.8993448,-0.09628 0.895966,0.469073 1.370489,1.875054 1.095869,3.246989 -0.189893,0.94866 -0.668201,1.70701 -1.371577,2.174613 -0.399052,0.265289 -1.0026753,0.471196 -1.6236837,0.553867 -0.3214129,0.04279 -1.2150872,0.04844 -1.5332232,0.0097 z"
     id="path18" /><path
     style="fill:#ffffff;stroke-width:0.0275486"
     d="M 0.32108394,24.422958 C -0.06115765,24.28667 -0.08005727,23.82152 0.26844598,23.127455 0.76069501,22.147111 1.8076985,21.086038 3.146636,20.210587 c 0.3947751,-0.25812 0.9801742,-0.595996 1.0326129,-0.595996 0.015426,0 0.097459,0.09062 0.182295,0.201385 0.3112202,0.406325 0.7504149,0.690055 1.4319026,0.925042 1.541322,0.53147 3.484602,0.462028 4.7119365,-0.168379 0.656685,-0.3373 1.328591,-0.98879 1.790465,-1.73606 0.06313,-0.102144 0.121919,-0.185823 0.130635,-0.185953 0.0087,-1.3e-4 0.08929,0.05736 0.179065,0.127746 0.219124,0.171817 0.788826,0.545885 1.125494,0.739001 1.538284,0.882379 3.137218,1.380293 4.616314,1.437539 0.577977,0.02237 1.043907,-0.01993 1.69128,-0.153533 l 0.496682,-0.102506 0.436003,0.187576 c 1.056081,0.454345 1.343879,0.522056 1.593508,0.374905 0.237655,-0.140091 0.351663,-0.308883 0.70981,-1.050896 0.465593,-0.964618 0.812224,-1.372852 1.395117,-1.643056 0.278254,-0.128986 0.478964,-0.182953 0.826457,-0.222217 0.48982,-0.05534 0.994656,0.0051 1.514455,0.18134 0.151122,0.05124 0.275879,0.09077 0.277237,0.08785 0.0014,-0.0029 0.200955,-0.747203 0.443551,-1.653963 l 0.441083,-1.648654 -0.155242,-0.155778 c -0.176187,-0.176797 -0.240375,-0.338961 -0.209816,-0.530077 0.06538,-0.408856 0.459161,-0.659172 0.853623,-0.542625 0.151319,0.04471 0.379537,0.272926 0.424246,0.424246 0.0668,0.22608 0.01236,0.474639 -0.140388,0.640954 -0.08263,0.08998 -0.31531,0.195461 -0.432179,0.195929 l -0.09642,3.85e-4 -0.449045,1.687234 c -0.246973,0.927979 -0.448422,1.695473 -0.447664,1.705541 0.0018,0.02373 0.246697,0.16076 0.287318,0.16076 0.01708,0 0.7048,-0.673824 1.528257,-1.497387 l 1.497197,-1.497387 -0.05,-0.09354 c -0.03438,-0.06431 -0.05031,-0.154436 -0.05099,-0.288417 -8.59e-4,-0.169762 0.0098,-0.212269 0.08239,-0.329855 0.347324,-0.562311 1.204462,-0.31564 1.2013,0.345716 -0.0015,0.311166 -0.209829,0.568056 -0.516332,0.636648 -0.130911,0.0293 -0.166545,0.02629 -0.3319,-0.02799 l -0.185242,-0.06081 -1.482367,1.482176 c -0.815303,0.815197 -1.482368,1.491126 -1.482368,1.502064 0,0.01094 0.097,0.116355 0.215568,0.234259 0.58052,0.577302 0.886376,1.302433 0.886376,2.101449 0,1.533907 -1.15468,2.829599 -2.699761,3.029464 -0.130973,0.01694 -4.926625,0.0266 -13.099351,0.02637 C 2.4698537,24.46078 0.41022018,24.454739 0.32108394,24.422958 Z M 25.933794,20.90342 c 0.15132,-0.04471 0.379537,-0.272925 0.424246,-0.424245 0.115499,-0.390914 -0.08077,-0.772613 -0.452905,-0.880796 -0.504685,-0.146716 -0.977364,0.293144 -0.86307,0.803146 0.09031,0.402989 0.481428,0.623123 0.891729,0.501895 z"
     id="path19" /></g></svg>
