<?xml version="1.0" encoding="UTF-8"?>
<svg width="32" height="32" viewBox="0 0 32 32" xmlns="http://www.w3.org/2000/svg">
  <!-- High CPU usage - Red -->
  <rect x="10" y="10" width="12" height="12" rx="1" fill="#F44336" stroke="#B71C1C" stroke-width="1"/>
  <!-- Pins -->
  <rect x="7" y="12" width="3" height="1.5" fill="#F44336"/>
  <rect x="7" y="18" width="3" height="1.5" fill="#F44336"/>
  <rect x="22" y="12" width="3" height="1.5" fill="#F44336"/>
  <rect x="22" y="18" width="3" height="1.5" fill="#F44336"/>
  <rect x="12" y="7" width="1.5" height="3" fill="#F44336"/>
  <rect x="18" y="7" width="1.5" height="3" fill="#F44336"/>
  <rect x="12" y="22" width="1.5" height="3" fill="#F44336"/>
  <rect x="18" y="22" width="1.5" height="3" fill="#F44336"/>
  <!-- Core lines -->
  <line x1="13" y1="16" x2="19" y2="16" stroke="#B71C1C" stroke-width="0.5"/>
  <line x1="16" y1="13" x2="16" y2="19" stroke="#B71C1C" stroke-width="0.5"/>
  <!-- Heat waves for high usage -->
  <path d="M 14 8 Q 14 6 15 6 T 16 8" fill="none" stroke="#B71C1C" stroke-width="0.5" opacity="0.7"/>
  <path d="M 17 8 Q 17 6 18 6 T 19 8" fill="none" stroke="#B71C1C" stroke-width="0.5" opacity="0.7"/>
</svg>
