<?xml version="1.0" encoding="UTF-8" standalone="no"?>
<!-- Generator: Adobe Illustrator 19.0.0, SVG Export Plug-In . SVG Version: 6.00 Build 0)  -->

<svg
   version="1.1"
   id="Layer_1"
   x="0px"
   y="0px"
   viewBox="0 0 511.999 511.999"
   style="enable-background:new 0 0 511.999 511.999;"
   xml:space="preserve"
   sodipodi:docname="snail-5.svg"
   inkscape:version="1.4.3 (fcd0343856, 2026-01-01)"
   xmlns:inkscape="http://www.inkscape.org/namespaces/inkscape"
   xmlns:sodipodi="http://sodipodi.sourceforge.net/DTD/sodipodi-0.dtd"
   xmlns="http://www.w3.org/2000/svg"
   xmlns:svg="http://www.w3.org/2000/svg"><defs
   id="defs17" /><sodipodi:namedview
   id="namedview17"
   pagecolor="#ffffff"
   bordercolor="#000000"
   borderopacity="0.25"
   inkscape:showpageshadow="2"
   inkscape:pageopacity="0.0"
   inkscape:pagecheckerboard="0"
   inkscape:deskcolor="#d1d1d1"
   inkscape:zoom="2.2714888"
   inkscape:cx="343.38712"
   inkscape:cy="255.55926"
   inkscape:window-width="2560"
   inkscape:window-height="1371"
   inkscape:window-x="1920"
   inkscape:window-y="32"
   inkscape:window-maximized="1"
   inkscape:current-layer="Layer_1"
   showguides="true"><sodipodi:guide
     position="255.77938,237.2893"
     orientation="1,0"
     id="guide17"
     inkscape:locked="false" /><sodipodi:guide
     position="124.58789,272.5085"
     orientation="1,0"
     id="guide18"
     inkscape:locked="false" /><sodipodi:guide
     position="385.20991,217.91875"
     orientation="1,0"
     id="guide19"
     inkscape:locked="false" /><sodipodi:guide
     position="638.34786,167.29115"
     orientation="1,0"
     id="guide20"
     inkscape:locked="false" /><sodipodi:guide
     position="758.09312,175.21547"
     orientation="1,0"
     id="guide21"
     inkscape:locked="false" /></sodipodi:namedview>
















<g
   id="g18"
   transform="translate(462)"><g
     id="g2"
     transform="translate(-278)">
	<g
   id="g1">
		<path
   d="m 457.217,0 c -24.059,0 -43.632,19.569 -43.632,43.623 0,5.391 0.989,10.553 2.786,15.324 -16.051,18.748 -26.62,43.702 -31.664,63.222 -6.038,-1.316 -12.297,-2.028 -18.723,-2.028 -6.426,0 -12.685,0.712 -18.723,2.028 -5.045,-19.52 -15.614,-44.475 -31.664,-63.222 1.796,-4.771 2.786,-9.933 2.786,-15.324 C 318.382,19.569 298.808,0 274.75,0 c -24.059,0 -43.632,19.569 -43.632,43.623 0,24.054 19.573,43.623 43.632,43.623 6.336,0 12.356,-1.368 17.794,-3.807 12.769,16.245 20.834,38.584 23.655,52.216 -17.355,11.978 -30.207,30.021 -35.46,51.049 -21.765,-8.898 -45.266,-13.545 -69.142,-13.545 -84.971,0 -157.706,57.921 -174.308,138.223 -6.527,10.324 -11.59,21.906 -14.999,34.414 -6.951,9.672 -11.14,22.088 -11.14,35.614 0,12.843 3.782,24.677 10.113,34.12 12.087,50.326 50.602,85.19 94.681,85.19 5.211,0 10.353,-0.48 15.394,-1.412 11.418,5.851 27.556,12.692 50.871,12.692 h 142.368 c 48.561,0 82.547,-10.434 103.899,-31.897 25.718,-25.854 25.536,-60.73 25.415,-83.81 -0.009,-1.555 -0.017,-3.075 -0.017,-4.552 l -0.028,-183.759 c 0,-29.968 -15.098,-56.465 -38.08,-72.326 2.82,-13.634 10.886,-35.973 23.655,-52.217 5.438,2.44 11.458,3.807 17.794,3.807 24.059,0 43.632,-19.569 43.632,-43.623 C 500.849,19.568 481.276,0 457.217,0 Z M 44.541,381.41 c 0,-10.609 6.121,-22.428 14.905,-22.428 8.784,0 14.905,11.82 14.905,22.428 0,10.608 -6.121,22.428 -14.905,22.428 -8.784,0 -14.905,-11.819 -14.905,-22.428 z m 71.403,85.922 C 96.216,467.331 78.016,455.619 65.88,436.717 c 23.595,-3.651 41.856,-27.052 41.856,-55.306 0,-27.61 -17.438,-50.587 -40.249,-55.028 12.178,-17.535 29.763,-28.362 48.457,-28.362 35.932,0 65.164,37.976 65.164,84.655 0,46.68 -29.232,84.656 -65.164,84.656 z m 146.492,-10.777 c -14.558,14.635 -41.551,22.056 -80.227,22.056 -2.903,0 -5.611,-0.16 -8.188,-0.426 4.529,-3.965 8.809,-8.422 12.793,-13.355 17.851,-22.102 27.682,-51.279 27.682,-82.155 0,-30.877 -9.832,-60.052 -27.682,-82.155 -18.693,-23.144 -43.861,-35.889 -70.87,-35.889 -8.396,0 -16.611,1.231 -24.524,3.634 26.09,-37.6 70.548,-61.716 120.176,-61.716 23.262,0 46.068,5.37 66.521,15.591 v 169.603 c 0,1.534 0.009,3.112 0.017,4.727 0.109,20.658 0.231,44.073 -15.698,60.085 z"
   id="path1" />
	</g>
</g><g
     id="g3"
     transform="translate(-278)">
</g><g
     id="g4"
     transform="translate(-278)">
</g><g
     id="g5"
     transform="translate(-278)">
</g><g
     id="g6"
     transform="translate(-278)">
</g><g
     id="g7"
     transform="translate(-278)">
</g><g
     id="g8"
     transform="translate(-278)">
</g><g
     id="g9"
     transform="translate(-278)">
</g><g
     id="g10"
     transform="translate(-278)">
</g><g
     id="g11"
     transform="translate(-278)">
</g><g
     id="g12"
     transform="translate(-278)">
</g><g
     id="g13"
     transform="translate(-278)">
</g><g
     id="g14"
     transform="translate(-278)">
</g><g
     id="g15"
     transform="translate(-278)">
</g><g
     id="g16"
     transform="translate(-278)">
</g><g
     id="g17"
     transform="translate(-278)">
</g><path
     style="fill:#ffffff;stroke-width:0.44024"
     d="m -102.34428,511.52499 c -13.77558,-0.79613 -25.18023,-3.69102 -38.85631,-9.86301 l -5.61818,-2.53547 -3.40673,0.50724 c -18.91721,2.81648 -39.17734,-1.49787 -56.40918,-12.0122 -12.97772,-7.91864 -25.3423,-20.36154 -34.17806,-34.39458 -3.14204,-4.99025 -8.88801,-16.70119 -10.98102,-22.38062 -0.8778,-2.38193 -2.35612,-6.97516 -3.28516,-10.20718 -0.92904,-3.23201 -2.1187,-6.47962 -2.64368,-7.21689 -2.77245,-3.89354 -6.44206,-13.36798 -7.82685,-20.20784 -1.2181,-6.01656 -1.0904,-18.6758 0.24915,-24.6979 1.6475,-7.40656 4.97898,-15.48838 8.48547,-20.58489 0.73011,-1.06119 1.81811,-3.62179 2.41778,-5.69025 2.31997,-8.00237 7.10857,-19.10151 11.54044,-26.74873 1.88783,-3.25745 2.52228,-4.96122 3.84412,-10.32297 13.25266,-53.75679 52.64744,-98.14677 105.69741,-119.0997 14.40188,-5.68826 29.85066,-9.54809 46.37919,-11.58772 9.04778,-1.1165 31.87731,-1.11221 40.94231,0.008 15.69469,1.93894 30.73165,5.59204 44.31528,10.76604 l 4.47356,1.70397 2.0292,-6.20243 c 5.52399,-16.88455 16.24769,-31.84101 30.62634,-42.71485 1.57386,-1.19023 2.91511,-2.19913 2.98056,-2.242 0.27294,-0.17878 -2.61821,-10.50342 -4.311,-15.39509 -2.46994,-7.13742 -4.75954,-12.4671 -8.50735,-19.80323 C 22.64333,94.789712 16.47075,84.88339 15.11977,83.762179 14.63896,83.363141 13.82456,83.494508 11.46143,84.352281 6.4667,86.165268 2.59062,86.83596 -3.07019,86.866742 -10.69775,86.908212 -16.20841,85.586044 -23.10503,82.05978 -36.06151,75.435103 -45.224,61.838069 -46.36638,47.540187 -47.42928,34.237134 -43.1711,22.542107 -33.83534,13.123828 -24.64322,3.8504503 -12.59743,-0.5517309 0.6821,0.50928459 6.00958,0.93494325 10.59469,2.243606 15.86013,4.8413349 28.06625,10.863286 36.57682,22.05226 39.46867,35.879861 c 1.18882,5.684409 0.47041,15.552403 -1.54482,21.219594 l -0.65752,1.849038 2.22033,2.77348 c 10.60092,13.241945 19.6427,30.182346 25.80011,48.338307 1.19069,3.51092 2.52705,7.73862 2.9697,9.39491 0.80465,3.01089 0.80504,3.01137 2.15946,2.7319 8.88351,-1.83307 21.55768,-2.20572 29.97026,-0.88118 6.80892,1.07204 6.4894,1.10321 6.9709,-0.67987 5.72347,-21.194579 16.75656,-43.465082 29.39115,-59.326578 l 1.84443,-2.315508 -0.93069,-3.187491 c -4.41886,-15.134016 -0.47712,-30.976701 10.49023,-42.162397 6.77622,-6.9111199 14.54357,-11.0796684 23.75862,-12.75067528 3.49712,-0.6341509 10.99467,-0.64076001 14.58826,-0.0128595 16.6828,2.91498108 30.31201,15.50848978 34.79154,32.14777078 1.46508,5.442164 1.47291,15.740627 0.016,21.131515 -6.86867,25.41603 -33.69865,39.310573 -57.6546,29.857804 -2.74861,-1.08457 -2.01574,-1.684278 -6.94943,5.686693 -5.83788,8.721835 -10.8888,19.219836 -14.98812,31.151846 -2.00306,5.83036 -4.27388,14.12647 -4.0382,14.75294 0.0716,0.19045 1.91324,1.72515 4.09243,3.41046 18.30528,14.15665 30.25637,35.28106 33.21887,58.71674 0.26146,2.06849 0.43975,44.54349 0.46384,110.50021 0.043,117.95338 0.12674,113.92872 -2.65616,127.73003 -3.75515,18.62285 -11.3467,32.96921 -23.81895,45.01263 -8.54557,8.25172 -17.76569,14.19972 -29.2196,18.84988 -18.25637,7.41184 -36.94213,10.82665 -64.27502,11.74622 -14.59924,0.49113 -149.22605,0.45706 -157.826,-0.04 z m 17.60959,-32.99528 c 23.90104,-1.06054 39.87998,-4.37995 53.94324,-11.20591 16.84969,-8.17842 26.2749,-20.99632 29.46483,-40.07099 1.49118,-8.91673 1.5575,-13.57979 1.55786,-109.53811 l 3.7e-4,-95.89068 -3.63198,-1.67578 c -14.23875,-6.5697 -28.02797,-10.45797 -45.67489,-12.87934 -5.64627,-0.77474 -29.13268,-0.77474 -34.77895,0 -11.986,1.64463 -21.04869,3.70084 -30.8082,6.98999 -15.67426,5.28254 -31.19026,13.73321 -44.25391,24.10255 -5.26232,4.177 -14.93427,13.54457 -19.34753,18.73866 -3.40193,4.00382 -8.72073,11.03851 -8.50735,11.25188 0.071,0.071 2.00934,-0.34914 4.30735,-0.93372 12.82897,-3.26352 27.96557,-3.23051 41.15834,0.0898 15.84323,3.98731 30.70578,12.87869 43.40144,25.96449 8.3236,8.57939 14.70572,17.76936 20.44748,29.44345 6.95902,14.14901 10.72318,26.97236 12.79354,43.58375 0.92311,7.4065 1.04184,23.65597 0.22356,30.59667 -3.66538,31.0902 -15.36804,56.65716 -34.92489,76.30093 -2.60747,2.61903 -4.74086,4.83907 -4.74086,4.93341 0,0.0943 1.43628,0.23985 3.19174,0.3234 1.75545,0.0836 3.88511,0.18865 4.73257,0.23355 0.84747,0.0449 5.99827,-0.11618 11.44624,-0.35796 z m -66.03598,-12.26121 c 23.686,-5.40438 43.34801,-27.54909 50.83267,-57.25122 6.47545,-25.69718 3.02245,-54.36565 -9.16316,-76.07683 -7.36804,-13.12768 -17.96969,-23.70765 -29.56291,-29.50245 -7.67989,-3.83874 -14.60493,-5.4294 -23.55284,-5.41 -14.76267,0.032 -27.87278,5.86505 -39.62159,17.62874 -3.53118,3.53566 -9.14541,10.40482 -8.76112,10.71947 0.097,0.0795 1.95942,0.68822 4.1386,1.3528 20.45261,6.23739 34.82049,26.77901 35.74017,51.09742 0.42364,11.20187 -1.36073,19.97155 -6.00518,29.51386 -5.23464,10.75491 -13.35343,19.31552 -22.66901,23.90267 -3.82359,1.8828 -10.18725,4.03477 -11.93134,4.03477 -0.59283,0 -1.07788,0.11621 -1.07788,0.25823 0,0.6352 4.64838,6.88462 7.46853,10.04096 9.95209,11.13834 22.09028,18.24143 34.70004,20.30594 5.06866,0.82985 14.43041,0.53436 19.46502,-0.61436 z m -63.10971,-63.36972 c 4.1384,-2.11126 8.20652,-8.40782 9.66361,-14.95717 0.98398,-4.42277 0.65444,-11.88468 -0.70391,-15.9389 -1.9135,-5.71122 -5.31787,-10.28176 -9.02442,-12.11576 -2.3923,-1.18371 -6.84331,-1.18636 -9.24503,-0.006 -5.94212,2.92154 -10.34564,12.1096 -10.34564,21.58643 0,10.47829 5.24867,19.97006 12.32387,22.28666 1.69338,0.55445 5.4199,0.11949 7.33152,-0.85575 z"
     id="path17" /></g></svg>
