<?xml version="1.0" encoding="UTF-8" standalone="no"?>
<!-- Generator: Adobe Illustrator 18.1.1, SVG Export Plug-In . SVG Version: 6.00 Build 0)  -->

<svg
   version="1.1"
   id="Capa_1"
   x="0px"
   y="0px"
   viewBox="0 0 42.343 42.343"
   style="enable-background:new 0 0 42.343 42.343;"
   xml:space="preserve"
   sodipodi:docname="japan.svg"
   inkscape:version="1.4.3 (fcd0343856, 2026-01-01)"
   xmlns:inkscape="http://www.inkscape.org/namespaces/inkscape"
   xmlns:sodipodi="http://sodipodi.sourceforge.net/DTD/sodipodi-0.dtd"
   xmlns="http://www.w3.org/2000/svg"
   xmlns:svg="http://www.w3.org/2000/svg"><defs
   id="defs18" /><sodipodi:namedview
   id="namedview18"
   pagecolor="#ffffff"
   bordercolor="#000000"
   borderopacity="0.25"
   inkscape:showpageshadow="2"
   inkscape:pageopacity="0.0"
   inkscape:pagecheckerboard="0"
   inkscape:deskcolor="#d1d1d1"
   showgrid="false"
   inkscape:zoom="27.46617"
   inkscape:cx="21.153295"
   inkscape:cy="21.171499"
   inkscape:window-width="2560"
   inkscape:window-height="1371"
   inkscape:window-x="1920"
   inkscape:window-y="32"
   inkscape:window-maximized="1"
   inkscape:current-layer="Capa_1" />
<g
   id="g3">
	<g
   id="g2">
		<path
   style="fill:#030104;"
   d="M31.002,22.26c0.338,0.111,0.115-0.545-0.498-1.465l-0.371-0.559    c-0.612-0.919-0.871-1.638-0.579-1.606c0.293,0.032-0.009-0.39-0.673-0.943c-0.664-0.553-0.996-1.044-0.743-1.096    s-0.362-0.454-1.367-0.912c-1.921-0.875-3.76-1.842-4.983-3.473c-0.35-0.514-0.455-0.957-0.387-1.351    c0.136-0.784,0.891-1.029,1.021-0.853l0.237,0.318c0.469,0.742,1.266,1.311,2.946,1.416c1.095,0.096,1.772,0.721,2.405,1.412    c0.311,0.299,0.621,0.502,0.933,0.59c0.593,0.169,0.886-0.278,0.657-0.414c-0.229-0.137-1.059-0.464-0.811-0.954    s0.842-1.129,0.887-1.602c0.044-0.474-0.672-0.883-0.984-1.131l-0.566-0.448c-0.196-0.127-0.394-0.199-0.59-0.233    c-0.348-0.061-0.797-0.317-1.168-0.492c-0.371-0.174-1.229-0.219-1.181-0.544c0.015-0.104,0.216-0.208,0.487-0.312    c0.65-0.201,1.304-0.168,1.957,0.189c0.539,0.347,1.287,0.456,2.07,0.579c1.092,0.171,2.185,0.398,2.399,0.177    c0.215-0.221,0.291-1.156,0.291-2.002s-0.894-1.275-1.988-1.424c-2.276-0.309-2.786-2.331-3.815-3.733    c-0.654-0.89-1.364-0.496-1.899-0.321c-0.22,0.072-0.539-0.035-0.944-0.298c-0.291-0.223-0.58-0.441-0.869-0.624    c-0.499-0.316-0.194,0.635-0.954,0.853c-0.759,0.218-1.563-0.98-2.084-1.003s-0.229,0.302,0.109,0.857    c0.232,0.381,0.103,0.79-0.518,0.626c-0.602-0.11-1.142-0.087-1.631,0.044c-0.877,0.236-1.1,0.807-0.69,0.84    c0.41,0.032,1.312,0.102,1.587,0.605c0.172,0.314,0.026,0.62-0.56,0.513c-0.383-0.041-0.68,0.024-0.918,0.162    c-0.454,0.262-0.073,0.282,0.409,0.624c0.194,0.138,0.125,0.457-0.283,0.923c-5.099,5.821,3.095,10.341,5.379,16.077    c0.409,1.026,0.057,1.155-0.558,0.237c-5.772-8.608-12.18-10.066-19.096-5.798c-0.94,0.58-0.77,0.986,0.329,0.868    c0.975-0.105,1.951-0.142,2.927,0.058c1.089,0.323,2.048,0.688,1.256,1.17c-1.92,1.131-4.122,2.25-4.974,3.433    c-0.646,0.896-0.271,0.783,0.55,0.044c0.76-0.684,2.127-1.115,3.77-1.432c1.085-0.209,2.38-0.538,2.924-0.57    c0.428-0.025,0.533,0.201,0.336,0.662c-0.273,0.608-0.516,1.217-0.737,1.826c-0.372,1.022,0.03,1.253,0.94,0.626    c10.759-7.406,16.723,12.156,7.102,7.268c-0.985-0.5-1.319-0.205-0.589,0.623c4.049,4.602,10.501-0.012,9.276-8.461    c-0.159-1.093,0.056-1.184,0.451-0.152c1.35,3.517,0.865,7.063-0.905,9.981C24.752,33.6,18.979,36.896,23.4,41.83    c0.737,0.823,0.97,0.618,0.438-0.351c-1.146-2.088-1.571-3.902,1.215-5.856c2.076-1.232,4.244-3.943,5.098-8.238    c0.217-1.082,0.779-1.207,1.027-0.131c0.162,0.705,0.24,1.455,0.295,2.215c0.08,1.103,0.229,1.103,0.244-0.002    c0.027-1.818-0.152-3.655-0.676-5.52C30.743,22.885,30.665,22.149,31.002,22.26z M24.771,2.568c0.46,0,0.833,0.373,0.833,0.833    s-0.373,0.833-0.833,0.833s-0.833-0.373-0.833-0.833C23.937,2.941,24.31,2.568,24.771,2.568z"
   id="path1" />
		<path
   style="fill:#030104;"
   d="M39.125,14.646c-0.26-0.06-0.494-0.137-0.693-0.222c-1.016-0.435-0.393-1.401-1.096-2.254    c-0.055-0.066-0.107-0.133-0.16-0.201c-0.676-0.872-1.506-0.378-2.383-1.049c-0.127-0.097-0.258-0.214-0.391-0.345    c-0.787-0.774-1.922-0.692-3.017-0.836c-0.278-0.037-0.576-0.094-0.884-0.16c-1.08-0.232-1.227,0.096-0.291,0.683    c0.793,0.498,1.595,0.996,2.141,1.475c0.83,0.729,0.885,1.938,1.418,1.637s1.384-0.322,2.07,0.543    c0.847,1.067,1.863,2.241,3.539,1.744C40.438,15.346,40.204,14.894,39.125,14.646z"
   id="path2" />
	</g>
</g>
<g
   id="g4">
</g>
<g
   id="g5">
</g>
<g
   id="g6">
</g>
<g
   id="g7">
</g>
<g
   id="g8">
</g>
<g
   id="g9">
</g>
<g
   id="g10">
</g>
<g
   id="g11">
</g>
<g
   id="g12">
</g>
<g
   id="g13">
</g>
<g
   id="g14">
</g>
<g
   id="g15">
</g>
<g
   id="g16">
</g>
<g
   id="g17">
</g>
<g
   id="g18">
</g>
<path
   style="fill:#ffffff;stroke-width:0.0364084"
   d="m 23.882926,42.246596 c -0.4421,-0.294635 -1.310145,-1.433356 -1.653252,-2.16877 -0.327187,-0.701288 -0.437236,-1.179538 -0.438033,-1.903592 -8.35e-4,-0.758843 0.139622,-1.322434 0.516717,-2.073361 0.431491,-0.859248 0.911918,-1.484393 2.337807,-3.042023 0.799813,-0.873709 1.023402,-1.191729 1.510253,-2.148097 1.435402,-2.819695 1.650202,-5.811364 0.634334,-8.834793 -0.430919,-1.282503 -0.771007,-1.534604 -0.655301,-0.485764 0.0232,0.210259 0.06873,0.611662 0.101191,0.892007 0.08096,0.699215 0.0803,2.087235 -0.0013,2.76704 -0.266023,2.21603 -1.056463,4.026519 -2.307997,5.286423 -1.719924,1.731428 -3.954907,2.029657 -5.823575,0.777082 -0.777559,-0.521201 -1.574342,-1.385138 -1.574342,-1.70703 0,-0.230738 0.340891,-0.201029 0.949458,0.08275 0.918741,0.428409 1.487265,0.62733 2.086313,0.729981 1.189678,0.203857 2.07218,-0.163801 2.490102,-1.037399 0.210517,-0.44005 0.278163,-0.782423 0.276845,-1.401172 -0.0037,-1.735801 -0.929589,-3.771905 -2.370426,-5.212741 -0.639311,-0.639311 -1.250754,-1.078101 -2.019608,-1.449334 -2.244519,-1.083738 -4.767223,-0.771902 -7.327287,0.905741 -0.52856,0.346373 -0.8310874,0.495249 -1.0064569,0.495288 -0.2331687,5.1e-5 -0.3281601,-0.204038 -0.2546041,-0.547017 0.049182,-0.229325 0.386478,-1.133213 0.690024,-1.84913 0.312614,-0.737302 0.329456,-0.896682 0.106913,-1.011763 -0.2025902,-0.104764 -0.3658686,-0.07923 -2.9236256,0.457245 -2.5944331,0.544165 -3.2549289,0.805735 -4.369011,1.730223 -0.3133439,0.260019 -0.5076518,0.379075 -0.5498337,0.336893 -0.031316,-0.03132 0.1251926,-0.315952 0.3166799,-0.575933 0.2151444,-0.2921 0.6781572,-0.741116 1.0705476,-1.038184 0.629192,-0.476345 1.2468934,-0.864396 2.8034487,-1.761175 0.600739,-0.346105 1.1465177,-0.669731 1.2128415,-0.719169 0.2466135,-0.183828 0.2266967,-0.403612 -0.054082,-0.596792 -0.3469206,-0.238688 -1.164348,-0.5121 -1.7932988,-0.599819 -0.420044,-0.05858 -1.3359582,-0.05597 -2.6438408,0.0076 -0.636082,0.03089 -0.8355226,-0.06658 -0.6898234,-0.337122 0.092319,-0.171426 0.319883,-0.348603 0.8722608,-0.679124 0.9994663,-0.598041 2.3844215,-1.234074 3.372241,-1.548681 4.2870408,-1.365365 8.2334918,-0.274455 11.8980738,3.288962 1.112222,1.081518 2.27394,2.486814 3.281004,3.968935 0.42343,0.623172 0.683977,0.901513 0.828332,0.884902 0.09884,-0.01137 0.10005,-0.01468 0.09738,-0.266376 -0.0032,-0.301061 -0.129788,-0.646736 -0.53151,-1.451283 -0.596272,-1.194181 -1.217149,-2.098069 -3.104564,-4.519698 -1.194091,-1.532066 -1.707243,-2.234682 -2.160332,-2.957959 -1.863818,-2.9752629 -1.815128,-5.1851942 0.167332,-7.5946921 0.37231,-0.4525087 0.479982,-0.6441772 0.479982,-0.8544235 0,-0.1680926 -0.05321,-0.2207665 -0.466304,-0.4615754 -0.157159,-0.091614 -0.226115,-0.1530465 -0.218451,-0.1946144 0.0062,-0.033408 0.125576,-0.1180849 0.265369,-0.1881711 0.253067,-0.1268762 0.256314,-0.1274295 0.747962,-0.1274295 0.410307,0 0.510354,-0.01085 0.591748,-0.064175 0.250026,-0.1638032 0.126235,-0.5511525 -0.253002,-0.7916572 -0.197,-0.1249341 -0.616499,-0.2398241 -1.040822,-0.2850546 -0.332068,-0.035397 -0.427485,-0.078076 -0.427485,-0.1912115 0,-0.087308 0.196529,-0.3097327 0.370971,-0.4198535 0.388673,-0.2453581 1.150822,-0.3782272 1.743741,-0.3039949 0.188571,0.023609 0.452402,0.051187 0.586291,0.061284 0.227408,0.01715 0.249862,0.011931 0.341068,-0.079275 0.08652,-0.086518 0.09585,-0.1191992 0.08192,-0.2870548 -0.01271,-0.15328992 -0.05867,-0.25933466 -0.240945,-0.55594435 -0.293442,-0.47751221 -0.295068,-0.5699971 -0.01002,-0.5699971 0.178316,0 0.277552,0.05597367 0.812542,0.4583104 0.584771,0.43977431 0.811244,0.55300465 1.102137,0.55103765 0.227743,-0.00154 0.449621,-0.0878193 0.570993,-0.22203601 0.0337,-0.0372679 0.127157,-0.21104107 0.207681,-0.38616269 0.10776,-0.23435519 0.164357,-0.31840292 0.214407,-0.31840292 0.07039,0 0.385568,0.20603758 0.82734,0.54083871 0.140172,0.10623119 0.373698,0.25035215 0.518945,0.32026878 0.339799,0.16356633 0.527789,0.16574013 0.9738,0.0112607 0.604433,-0.20934994 0.991009,-0.14350392 1.35562,0.23090423 0.216193,0.2220027 0.425728,0.5321818 0.865677,1.2814794 0.696796,1.1867479 1.150776,1.7431076 1.738033,2.1299876 0.404271,0.2663305 0.796654,0.4099111 1.438362,0.5263238 0.85728,0.15552 1.223238,0.3010627 1.574338,0.6261197 0.294702,0.2728418 0.364268,0.4624933 0.364268,0.9930671 0,0.7781387 -0.121543,1.5664758 -0.267713,1.7364088 C 31.94221,8.6886016 31.562401,8.6647865 29.709275,8.3560176 28.564372,8.1652531 28.205763,8.0696766 27.742882,7.8319325 27.090028,7.4966153 26.578532,7.4030063 25.999601,7.5128935 25.624005,7.5841855 25.246733,7.7535328 25.191,7.8758516 c -0.08811,0.1933728 0.04879,0.2856521 0.678673,0.4574984 0.226083,0.06168 0.596241,0.203269 0.854111,0.326706 0.250308,0.1198172 0.609496,0.2611507 0.798195,0.3140747 0.428327,0.1201318 0.465874,0.1398597 0.883061,0.4639817 0.187409,0.1456031 0.438748,0.3377828 0.558529,0.4270661 0.360754,0.2689015 0.551316,0.4669545 0.633817,0.6587355 0.06787,0.157765 0.07262,0.201203 0.03664,0.334849 -0.05947,0.220837 -0.169392,0.42398 -0.501005,0.925853 -0.161135,0.243866 -0.318577,0.492905 -0.349871,0.553421 -0.157979,0.305498 0.01656,0.571201 0.577435,0.879026 0.287383,0.157725 0.318613,0.193109 0.274687,0.311228 -0.05052,0.135854 -0.216051,0.213914 -0.455802,0.214943 -0.183254,7.87e-4 -0.267927,-0.02257 -0.503081,-0.138792 -0.23566,-0.116467 -0.37417,-0.227835 -0.831696,-0.668717 C 26.869495,11.996004 26.501895,11.819432 25.212519,11.671397 24.308192,11.56757 23.620571,11.295854 23.156738,10.859049 23.013071,10.723753 22.786143,10.465602 22.652455,10.28538 22.42894,9.9840651 22.398351,9.9567923 22.272217,9.9463663 c -0.278928,-0.023055 -0.644048,0.2537367 -0.801523,0.6076207 -0.105069,0.236114 -0.125556,0.658477 -0.0454,0.935965 0.195554,0.676982 0.911487,1.523655 1.948915,2.304817 0.801033,0.603162 1.582386,1.05092 3.038661,1.741323 1.028698,0.487694 1.485602,0.733999 1.667496,0.898905 0.116451,0.105574 0.116532,0.105903 0.03542,0.142095 -0.04903,0.02188 -0.0813,0.06855 -0.0813,0.117586 0,0.139409 0.283711,0.514322 0.611947,0.808665 0.555628,0.498255 0.779457,0.715801 0.88594,0.861068 0.119746,0.163361 0.132088,0.240294 0.03855,0.240294 -0.174982,0 -0.195415,0.176695 -0.06156,0.532322 0.125552,0.333563 0.304525,0.647002 0.818655,1.433733 0.508325,0.777849 0.76449,1.26524 0.791654,1.506235 l 0.019,0.168553 h -0.151269 c -0.128878,0 -0.156526,0.01382 -0.186777,0.09339 -0.08536,0.224527 -0.01997,0.689027 0.234139,1.663042 0.40666,1.558763 0.565394,2.603621 0.644338,4.241323 0.03661,0.759374 0.02196,1.722919 -0.0294,1.934752 -0.04127,0.17019 -0.08598,-0.02126 -0.141329,-0.605068 -0.222023,-2.341973 -0.414962,-3.067654 -0.815606,-3.067654 -0.275198,0 -0.423506,0.275845 -0.621421,1.15581 -0.316894,1.408971 -0.688168,2.483222 -1.241411,3.591916 -0.939681,1.883112 -2.091595,3.235012 -3.617102,4.245075 -0.997033,0.660153 -1.666,1.356989 -2.001894,2.085292 -0.167935,0.364124 -0.235174,0.638815 -0.260472,1.064116 -0.04364,0.733634 0.149495,1.411151 0.73727,2.586327 0.398217,0.796184 0.48966,1.07272 0.354718,1.07272 -0.03823,0 -0.110019,-0.027 -0.15953,-0.05999 z m 1.12249,-38.0297948 c 0.258481,-0.065086 0.530286,-0.3508297 0.59076,-0.6210545 0.115188,-0.5147136 -0.221133,-0.9823587 -0.745405,-1.0364684 -0.664746,-0.068608 -1.135524,0.619301 -0.835651,1.2210675 0.107799,0.2163239 0.269548,0.3552712 0.495825,0.4259298 0.198158,0.061878 0.283334,0.063691 0.494471,0.010526 z"
   id="path18" /><path
   style="fill:#ffffff;stroke-width:0.0364084"
   d="M 38.144202,15.708039 C 37.481807,15.559436 36.890747,15.13797 36.226922,14.340888 35.701198,13.709631 35.44495,13.466757 35.1531,13.323114 c -0.242876,-0.119539 -0.271807,-0.12506 -0.655351,-0.12506 -0.364938,0 -0.421723,0.0095 -0.627346,0.104438 -0.152219,0.07031 -0.255804,0.09698 -0.317037,0.08161 C 33.444037,13.356662 33.31707,13.17621 33.062851,12.68696 32.637801,11.868939 32.325606,11.585214 30.729009,10.565943 29.919315,10.049032 29.732056,9.9071205 29.64982,9.7480935 29.59535,9.642768 29.59585,9.6321199 29.65732,9.587156 c 0.101733,-0.074389 0.502771,-0.0581 0.984441,0.039985 0.238043,0.048474 0.670371,0.1147096 0.960728,0.1471897 1.213618,0.1357585 1.483327,0.1753499 1.779784,0.2612603 0.426835,0.123692 0.668974,0.261261 1.027639,0.583843 0.547956,0.492831 0.775316,0.602439 1.57496,0.759273 0.590459,0.115807 0.800519,0.216867 1.08673,0.522828 0.438577,0.468841 0.556408,0.726942 0.6637,1.453797 0.06288,0.426006 0.153627,0.661868 0.322445,0.838102 0.193809,0.202322 0.326994,0.257825 1.317941,0.549231 0.308011,0.09058 0.513476,0.204607 0.614772,0.341193 0.06965,0.09392 0.07123,0.109409 0.0204,0.200246 -0.06806,0.121637 -0.426161,0.305715 -0.756512,0.388879 -0.347922,0.08759 -0.810855,0.102205 -1.110173,0.03505 z"
   id="path19" /></svg>
