<?xml version="1.0" encoding="UTF-8" standalone="no"?>
<!-- Generator: Adobe Illustrator 19.0.0, SVG Export Plug-In . SVG Version: 6.00 Build 0)  -->

<svg
   version="1.1"
   id="Layer_1"
   x="0px"
   y="0px"
   viewBox="0 0 32 32"
   xml:space="preserve"
   sodipodi:docname="frame-4.svg"
   inkscape:version="1.4.3 (fcd0343856, 2026-01-01)"
   width="32"
   height="32"
   xmlns:inkscape="http://www.inkscape.org/namespaces/inkscape"
   xmlns:sodipodi="http://sodipodi.sourceforge.net/DTD/sodipodi-0.dtd"
   xmlns="http://www.w3.org/2000/svg"
   xmlns:svg="http://www.w3.org/2000/svg"><defs
   id="defs19" /><sodipodi:namedview
   id="namedview19"
   pagecolor="#ffffff"
   bordercolor="#000000"
   borderopacity="0.25"
   inkscape:showpageshadow="2"
   inkscape:pageopacity="0.0"
   inkscape:pagecheckerboard="0"
   inkscape:deskcolor="#d1d1d1"
   inkscape:zoom="25.698912"
   inkscape:cx="13.424693"
   inkscape:cy="11.615278"
   inkscape:window-width="2560"
   inkscape:window-height="1371"
   inkscape:window-x="1920"
   inkscape:window-y="32"
   inkscape:window-maximized="1"
   inkscape:current-layer="Layer_1"
   showguides="true"><sodipodi:guide
     position="6.9652753,-7.5736593"
     orientation="1,0"
     id="guide1"
     inkscape:locked="false" /><sodipodi:guide
     position="25.48746,-7.495835"
     orientation="1,0"
     id="guide2"
     inkscape:locked="false" /><sodipodi:guide
     position="42.453159,25.968616"
     orientation="0,-1"
     id="guide3"
     inkscape:locked="false" /><sodipodi:guide
     position="39.962781,5.8121212"
     orientation="0,-1"
     id="guide4"
     inkscape:locked="false" /><sodipodi:guide
     position="15.564861,14.839741"
     orientation="1,0"
     id="guide5"
     inkscape:locked="false" /></sodipodi:namedview>

















<path
   style="fill:#ffffff;stroke-width:0.0358663"
   d="m 11.521587,27.212386 c -0.05582,-0.05582 -0.06067,-0.259842 -0.06067,-2.550813 V 22.17143 h -0.392412 c -0.274543,0 -0.401128,0.01347 -0.421428,0.04483 -0.01596,0.02466 -0.03709,0.585517 -0.04695,1.246354 l -0.01794,1.201519 -0.103085,0.223173 c -0.125615,0.271949 -0.407439,0.55058 -0.6857711,0.678005 -0.2361682,0.108121 -0.5654077,0.151859 -0.6451231,0.0857 -0.047618,-0.03952 -0.054372,-0.314231 -0.053683,-2.183824 7.639e-4,-2.073939 0.003,-2.143498 0.073847,-2.300015 0.090077,-0.198994 0.2217494,-0.341304 0.4095599,-0.442647 0.1337653,-0.07218 0.2022701,-0.07818 1.0132213,-0.08869 l 0.869757,-0.01127 v -0.804682 -0.804681 l -0.815958,-2e-4 c -0.476943,-1.23e-4 -0.8755571,-0.01646 -0.9594163,-0.03933 -0.188726,-0.05146 -0.4875931,-0.355088 -0.5477134,-0.556434 -0.030211,-0.101181 -0.04408,-0.457708 -0.04408,-1.133195 0,-1.180936 0.031486,-1.104285 -0.4536092,-1.104285 -0.1888858,0 -0.4031143,-0.0236 -0.5172367,-0.05696 C 7.5975511,15.971179 7.224825,15.528984 7.1391565,14.957705 7.0945462,14.660223 7.033474,14.671506 8.6251485,14.683152 l 1.3889345,0.01017 0.175509,0.108548 c 0.108609,0.06717 0.216883,0.175421 0.284055,0.28399 l 0.108547,0.175446 0.01794,1.072909 c 0.02108,1.261204 -0.01207,1.174608 0.449624,1.174608 0.23777,0 0.303547,-0.01226 0.351808,-0.06559 0.05307,-0.05864 0.05936,-0.211845 0.05936,-1.445984 v -1.380393 l -0.197218,-0.08174 c -0.379843,-0.157437 -0.628316,-0.57598 -0.574448,-0.967641 0.04868,-0.353964 0.361605,-0.717371 0.673033,-0.781616 0.116688,-0.02407 0.127823,-0.06901 0.02517,-0.101594 -0.146467,-0.04648 -0.645889,-0.456732 -0.841878,-0.691552 C 10.305795,11.705412 10.055184,11.214543 9.9467397,10.81976 9.8713371,10.545265 9.8679,10.466762 9.8674511,9.0085124 9.8669975,7.537478 9.8697923,7.4741668 9.9474448,7.1972662 10.250085,6.1180704 11.009987,5.3582188 12.088577,5.0562739 c 0.284689,-0.079697 0.309901,-0.080419 3.227963,-0.092531 1.933302,-0.00803 3.063184,9.863e-4 3.297525,0.02629 1.204449,0.1300649 2.163396,0.9311593 2.536338,2.1188312 0.08308,0.2645936 0.08407,0.2870782 0.08407,1.9175809 v 1.649847 l -0.118397,0.34073 c -0.06512,0.187402 -0.18398,0.451569 -0.264136,0.58704 -0.193994,0.32787 -0.596501,0.74741 -0.921602,0.960601 -0.210546,0.13807 -0.250497,0.177722 -0.197265,0.195792 0.351292,0.119244 0.579601,0.332074 0.679782,0.633691 0.07265,0.218724 0.05198,0.493566 -0.05254,0.698429 -0.0945,0.185235 -0.370999,0.428043 -0.547734,0.480994 l -0.138289,0.04143 v 2.148656 c 0,1.412535 0.01272,2.172423 0.03713,2.218031 0.03281,0.06131 0.0778,0.06938 0.387356,0.06938 0.224578,0 0.365669,-0.01544 0.393267,-0.04303 0.03171,-0.03171 0.04325,-0.355186 0.04383,-1.228419 7.41e-4,-1.114881 0.0052,-1.194979 0.07385,-1.346778 0.09008,-0.198994 0.221751,-0.341303 0.409561,-0.442647 0.137153,-0.074 0.194304,-0.07789 1.299081,-0.08822 0.824049,-0.0077 1.177827,0.0011 1.23303,0.03063 0.06984,0.03738 0.07567,0.06312 0.05963,0.262993 -0.0499,0.621626 -0.551468,1.120454 -1.209721,1.203107 -0.185464,0.02329 -0.281785,0.05296 -0.313732,0.09665 -0.03534,0.04834 -0.0461,0.337962 -0.0461,1.24093 0,1.298954 -0.0051,1.333782 -0.225982,1.564284 -0.250942,0.26179 -0.303174,0.273544 -1.271434,0.286097 l -0.869757,0.01127 v 0.607417 0.607418 h 0.861181 c 0.803031,0 0.872119,0.0052 1.023169,0.07614 0.19511,0.09171 0.384404,0.303078 0.441198,0.49264 0.02879,0.09609 0.04163,0.614591 0.04163,1.681594 0,1.334774 -0.0074,1.548745 -0.05437,1.587792 -0.07816,0.06487 -0.413412,0.01786 -0.641223,-0.08991 -0.370025,-0.17505 -0.64075,-0.489837 -0.753819,-0.876507 -0.04066,-0.13905 -0.05696,-0.346194 -0.05696,-0.72373 0,-0.433017 -0.01022,-0.539142 -0.05636,-0.585283 -0.04403,-0.04403 -0.138185,-0.05636 -0.430395,-0.05636 h -0.374034 v 1.932387 c 0,1.683032 -0.007,1.938209 -0.05437,1.977514 -0.07736,0.06421 -0.419987,0.0175 -0.652518,-0.08896 -0.267856,-0.122628 -0.527452,-0.380188 -0.665303,-0.660082 l -0.116253,-0.236041 -0.01082,-1.462406 -0.01082,-1.462407 h -0.356806 -0.356806 v 1.916283 c 0,2.197202 0.02224,2.052442 -0.310055,2.018146 -0.42671,-0.04404 -0.863166,-0.359266 -1.077479,-0.778197 l -0.100916,-0.197265 -0.01794,-4.913678 c -0.01423,-3.89961 -0.0274,-4.930256 -0.06383,-4.994006 -0.02525,-0.04418 -0.09646,-0.106474 -0.158255,-0.138431 -0.0919,-0.04752 -0.136655,-0.05082 -0.245746,-0.01814 -0.249984,0.0749 -0.229756,-0.335144 -0.249495,5.057446 l -0.01794,4.899209 -0.08197,0.202736 c -0.166071,0.410747 -0.447389,0.677595 -0.861365,0.817053 -0.273928,0.09228 -0.443334,0.09505 -0.521626,0.0086 -0.05403,-0.0597 -0.05936,-0.28832 -0.05936,-2.546505 v -2.480915 h -0.357539 -0.35754 l -0.01009,2.053344 -0.01009,2.053344 -0.103696,0.204688 c -0.207912,0.410399 -0.647569,0.72669 -1.070855,0.770377 -0.151706,0.01566 -0.20543,0.007 -0.253228,-0.0408 z m 6.646321,-8.086836 v -2.687218 l -0.09063,-0.107714 c -0.04985,-0.05924 -0.137862,-0.118086 -0.195583,-0.130764 -0.135763,-0.02982 -0.336223,0.06397 -0.390271,0.18259 -0.02935,0.0644 -0.04083,0.825403 -0.04083,2.704142 v 2.614515 l 0.07971,0.05584 c 0.05556,0.03891 0.164239,0.05584 0.358663,0.05584 h 0.278948 z m -4.526322,1.460591 c 0.03248,-0.03248 0.04303,-0.551905 0.04303,-2.11774 v -2.0747 l -0.08658,-0.08658 c -0.167383,-0.167383 -0.40036,-0.153576 -0.538901,0.03194 -0.07239,0.09694 -0.07412,0.142101 -0.08372,2.194547 l -0.0098,2.095571 h 0.316463 c 0.198316,0 0.332531,-0.01607 0.359502,-0.04304 z m 4.051094,-5.893616 c 0.108141,-0.124458 0.11088,-0.36575 0.0054,-0.478929 l -0.07526,-0.08078 0.123262,0.02313 c 0.258171,0.04844 0.528938,-0.173947 0.529252,-0.434675 3.31e-4,-0.274782 -0.303648,-0.493954 -0.573116,-0.413219 -0.279296,0.08368 -0.396656,0.448938 -0.220711,0.686917 l 0.07878,0.106561 h -0.139648 c -0.28463,0 -0.433244,0.312058 -0.269943,0.566823 0.112261,0.175139 0.399636,0.187961 0.541942,0.02418 z m -5.771268,-0.474861 c 0.232157,-0.107817 0.376194,-0.454937 0.293168,-0.706509 -0.129734,-0.393097 -0.535775,-0.559011 -0.898562,-0.367164 -0.294517,0.155743 -0.4056,0.539155 -0.240073,0.828627 0.180656,0.315927 0.496029,0.407333 0.845467,0.245046 z m 7.901038,0.0059 c 0.226858,-0.114721 0.346927,-0.372064 0.308225,-0.660612 -0.07135,-0.531965 -0.809071,-0.679752 -1.118689,-0.224107 -0.1053,0.154963 -0.124819,0.449974 -0.04049,0.612043 0.161639,0.310665 0.537607,0.431138 0.850958,0.272676 z m -6.830199,-2.128959 c 0.240446,-0.146609 0.317018,-0.403228 0.195326,-0.65461 -0.130273,-0.269109 -0.443782,-0.37055 -0.7131,-0.230737 -0.325717,0.169092 -0.344764,0.681942 -0.03275,0.881829 0.147766,0.09466 0.398416,0.09627 0.550526,0.0035 z M 11.507463,11.47071 c 0.212961,-0.08898 0.419316,-0.400495 0.419316,-0.633003 0,-0.232507 -0.206355,-0.544021 -0.419316,-0.633002 -0.138947,-0.05806 -0.397854,-0.06302 -0.537372,-0.01031 -0.121822,0.04603 -0.287744,0.19778 -0.350439,0.320514 -0.175251,0.343071 -0.03266,0.775152 0.311859,0.944976 0.143474,0.07072 0.420146,0.07592 0.575952,0.01082 z m 1.112499,-0.780665 c 0.133433,-0.06824 0.202232,-0.184354 0.203075,-0.342747 0.0015,-0.284744 -0.258468,-0.4637265 -0.516806,-0.3557859 -0.154103,0.064389 -0.235588,0.1844809 -0.235588,0.3472109 0,0.279433 0.306537,0.475481 0.549319,0.351322 z M 11.629816,9.8606061 C 11.954422,9.536 11.736844,8.9947175 11.281756,8.9947175 c -0.23347,0 -0.408441,0.1148649 -0.486561,0.3194181 -0.143897,0.3767873 0.112047,0.7183864 0.515857,0.6884984 0.161454,-0.01195 0.21057,-0.033834 0.318764,-0.1420279 z m 1.328527,-0.4977763 c 0.448031,-0.2168884 0.491712,-0.8935637 0.07546,-1.1690245 -0.244586,-0.1618589 -0.608289,-0.1483431 -0.836391,0.031081 -0.294101,0.231341 -0.310634,0.7890902 -0.03089,1.042066 0.197158,0.1782912 0.536653,0.2193993 0.791816,0.095877 z"
   id="path14" /><path
   style="fill:#ffffff;stroke-width:0.0389122"
   d="m 19.715036,13.625918 c -0.08659,-0.09568 -0.0812,-0.223335 0.01343,-0.317962 0.09858,-0.09858 0.158424,-0.09799 0.286593,0.0028 0.117081,0.09209 0.128798,0.175827 0.04195,0.299814 -0.07479,0.106777 -0.25202,0.114718 -0.341972,0.01532 z"
   id="path15" /><path
   style="fill:#ffffff;stroke-width:0.0389122"
   d="m 11.175001,13.670469 c -0.09422,-0.03769 -0.131901,-0.208388 -0.06765,-0.306446 0.12885,-0.19665 0.410648,-0.129606 0.410648,0.0977 0,0.185804 -0.158786,0.282441 -0.342996,0.208746 z"
   id="path16" /></svg>
