<?xml version="1.0" encoding="UTF-8" standalone="no"?>
<!-- Generator: Adobe Illustrator 19.0.0, SVG Export Plug-In . SVG Version: 6.00 Build 0)  -->

<svg
   version="1.1"
   id="Layer_1"
   x="0px"
   y="0px"
   viewBox="0 0 32 32"
   xml:space="preserve"
   sodipodi:docname="frame-3.svg"
   inkscape:version="1.4.3 (fcd0343856, 2026-01-01)"
   width="32"
   height="32"
   xmlns:inkscape="http://www.inkscape.org/namespaces/inkscape"
   xmlns:sodipodi="http://sodipodi.sourceforge.net/DTD/sodipodi-0.dtd"
   xmlns="http://www.w3.org/2000/svg"
   xmlns:svg="http://www.w3.org/2000/svg"><defs
   id="defs19" /><sodipodi:namedview
   id="namedview19"
   pagecolor="#ffffff"
   bordercolor="#000000"
   borderopacity="0.25"
   inkscape:showpageshadow="2"
   inkscape:pageopacity="0.0"
   inkscape:pagecheckerboard="0"
   inkscape:deskcolor="#d1d1d1"
   inkscape:zoom="25.698912"
   inkscape:cx="13.463605"
   inkscape:cy="17.841222"
   inkscape:window-width="2560"
   inkscape:window-height="1371"
   inkscape:window-x="1920"
   inkscape:window-y="32"
   inkscape:window-maximized="1"
   inkscape:current-layer="Layer_1"
   showguides="true"><sodipodi:guide
     position="6.9652753,-7.5736593"
     orientation="1,0"
     id="guide1"
     inkscape:locked="false" /><sodipodi:guide
     position="25.48746,-7.495835"
     orientation="1,0"
     id="guide2"
     inkscape:locked="false" /><sodipodi:guide
     position="42.453159,25.968616"
     orientation="0,-1"
     id="guide3"
     inkscape:locked="false" /><sodipodi:guide
     position="39.962781,5.8121212"
     orientation="0,-1"
     id="guide4"
     inkscape:locked="false" /><sodipodi:guide
     position="15.564861,14.839741"
     orientation="1,0"
     id="guide5"
     inkscape:locked="false" /></sodipodi:namedview>

















<path
   style="fill:#ffffff;stroke-width:0.0294789"
   d="m 10.491988,25.099587 c -0.02017,-0.03768 -0.03052,-0.727605 -0.03052,-2.034045 v -1.977024 h -0.142825 c -0.209054,0 -0.230991,0.038 -0.246779,0.427444 -0.0106,0.261353 -0.02617,0.350006 -0.08026,0.456923 -0.133558,0.26399 -0.37652,0.444672 -0.653878,0.486264 -0.236236,0.03542 -0.232289,0.05114 -0.232289,-0.924765 v -0.846995 l 0.07823,-0.156984 c 0.08087,-0.162276 0.248327,-0.307799 0.432227,-0.3756 0.05213,-0.01922 0.260987,-0.03561 0.469718,-0.03685 l 0.375856,-0.0023 v -1.589742 -1.58977 l -0.162505,-0.03374 C 9.897604,16.819083 9.480703,16.50758 9.292493,16.150385 9.102324,15.789472 9.10538,15.825422 9.106014,13.956608 9.1067,11.933915 9.126094,11.716022 9.373557,10.950706 9.633705,10.146158 10.074883,9.4025095 10.647425,8.803477 12.18089,7.1990637 14.432273,6.6328021 16.518147,7.3268892 c 1.910976,0.6358886 3.346935,2.2560873 3.745903,4.2265168 0.112205,0.554162 0.137237,1.089669 0.125334,2.681232 -0.01042,1.392864 -0.01311,1.451389 -0.07542,1.638207 -0.172651,0.517609 -0.576884,0.888248 -1.113066,1.020565 l -0.190541,0.04702 v 1.233878 1.233878 h 0.08633 c 0.172626,0 0.178979,-0.02658 0.178979,-0.748566 0,-0.775142 0.01989,-0.865991 0.237139,-1.083241 0.217946,-0.217945 0.295144,-0.231717 1.299009,-0.231717 0.93867,0 0.94008,2.84e-4 0.94008,0.188468 0,0.181185 -0.0917,0.378738 -0.248648,0.535689 -0.20471,0.20471 -0.344019,0.248648 -0.788365,0.248648 -0.496111,0 -0.466369,-0.04933 -0.466575,0.773821 -9.1e-5,0.360849 -0.01389,0.7053 -0.03066,0.765707 -0.04667,0.168029 -0.20228,0.349653 -0.378417,0.441669 -0.145612,0.07607 -0.183105,0.08233 -0.493232,0.08233 h -0.335642 v 2.322275 c 0,2.618583 0.01469,2.453308 -0.218055,2.453308 -0.189215,0 -0.473303,-0.152331 -0.588687,-0.31566 -0.18817,-0.266359 -0.179273,-0.153178 -0.188959,-2.403769 l -0.0088,-2.056154 -0.330503,-6.47e-4 c -0.268479,-5.26e-4 -0.355399,-0.01192 -0.463159,-0.0607 -0.178145,-0.08064 -0.288179,-0.188951 -0.371926,-0.366101 l -0.06968,-0.147395 -2.88e-4,-2.468859 c -1.86e-4,-1.592061 -0.01055,-2.468858 -0.02917,-2.468858 -0.01589,0 -0.08221,0.02134 -0.147395,0.04742 l -0.118512,0.04742 v 5.063562 c 0,4.492704 -0.0051,5.06775 -0.04477,5.100717 -0.05745,0.04767 -0.327026,0.02221 -0.452657,-0.04276 -0.153063,-0.07915 -0.298185,-0.224666 -0.381463,-0.382493 l -0.07917,-0.150048 -0.0078,-3.898586 c -0.0043,-2.144222 -0.01651,-3.898586 -0.02717,-3.898586 -0.01065,0 -0.106638,0.03497 -0.213297,0.07771 -0.357993,0.143454 -0.846772,0.12252 -1.186542,-0.05082 l -0.111787,-0.05703 -0.0079,3.898915 -0.0079,3.898915 -0.06336,0.137053 c -0.07713,0.16685 -0.25178,0.346764 -0.409285,0.421619 -0.149259,0.07094 -0.38167,0.09506 -0.441054,0.04577 -0.03919,-0.03253 -0.04437,-0.628195 -0.04437,-5.105091 v -5.068267 l -0.10223,-0.04271 c -0.208904,-0.08729 -0.190568,-0.344327 -0.199356,2.794631 l -0.0079,2.837345 -0.06336,0.118302 c -0.08838,0.164999 -0.206537,0.27645 -0.37882,0.357306 -0.127066,0.05964 -0.193008,0.06921 -0.478137,0.06946 l -0.330742,2.88e-4 -0.0083,1.746625 c -0.0082,1.727303 -0.009,1.74793 -0.07209,1.864541 -0.142005,0.262332 -0.435251,0.455069 -0.694216,0.456276 -0.107659,5.01e-4 -0.145866,-0.0122 -0.169503,-0.05637 z m 1.191188,-5.049391 c 0.04029,-0.05752 0.04589,-0.280496 0.04589,-1.827691 0,-0.969197 -0.0099,-1.761632 -0.02211,-1.760967 -0.01216,6.66e-4 -0.07849,0.05221 -0.147394,0.114551 l -0.125286,0.113343 v 1.713141 1.713141 h 0.101505 c 0.07148,0 0.115081,-0.01939 0.147395,-0.06552 z m 6.32212,-2.020115 -0.0028,-1.378139 -0.129878,-0.114376 -0.129878,-0.114378 v 1.435497 c 0,0.933149 0.01068,1.455449 0.03051,1.492515 0.02116,0.03953 0.06184,0.05702 0.132655,0.05702 h 0.102139 z m 0.356585,-7.465565 c 0.352328,-0.179744 0.398915,-0.7431401 0.08128,-0.9829299 -0.406324,-0.3067415 -0.965706,-0.036186 -0.965706,0.4670809 0,0.457969 0.465587,0.729526 0.884429,0.515849 z m -1.158807,-0.419685 c 0.160164,-0.1601635 0.105043,-0.4570368 -0.100831,-0.5430565 -0.385706,-0.1611582 -0.657389,0.3911489 -0.29569,0.6011115 0.101461,0.0589 0.310119,0.02835 0.396521,-0.05805 z m 0.383973,-0.6446307 c 0.476963,-0.2308944 0.186521,-0.9559628 -0.327975,-0.8187635 -0.39864,0.1063042 -0.440137,0.6710035 -0.06167,0.8392146 0.12716,0.056517 0.243236,0.050424 0.389644,-0.020451 z"
   id="path14" /></svg>
