<?xml version="1.0" encoding="UTF-8" standalone="no"?>
<!-- Generator: Adobe Illustrator 19.0.0, SVG Export Plug-In . SVG Version: 6.00 Build 0)  -->

<svg
   version="1.1"
   id="Layer_1"
   x="0px"
   y="0px"
   viewBox="0 0 32 32"
   xml:space="preserve"
   sodipodi:docname="frame-2.svg"
   inkscape:version="1.4.3 (fcd0343856, 2026-01-01)"
   width="32"
   height="32"
   xmlns:inkscape="http://www.inkscape.org/namespaces/inkscape"
   xmlns:sodipodi="http://sodipodi.sourceforge.net/DTD/sodipodi-0.dtd"
   xmlns="http://www.w3.org/2000/svg"
   xmlns:svg="http://www.w3.org/2000/svg"><defs
   id="defs19" /><sodipodi:namedview
   id="namedview19"
   pagecolor="#ffffff"
   bordercolor="#000000"
   borderopacity="0.25"
   inkscape:showpageshadow="2"
   inkscape:pageopacity="0.0"
   inkscape:pagecheckerboard="0"
   inkscape:deskcolor="#d1d1d1"
   inkscape:zoom="25.698912"
   inkscape:cx="13.463605"
   inkscape:cy="20.954194"
   inkscape:window-width="2560"
   inkscape:window-height="1371"
   inkscape:window-x="1920"
   inkscape:window-y="32"
   inkscape:window-maximized="1"
   inkscape:current-layer="Layer_1"
   showguides="true"><sodipodi:guide
     position="6.9652753,-7.5736593"
     orientation="1,0"
     id="guide1"
     inkscape:locked="false" /><sodipodi:guide
     position="25.48746,-7.495835"
     orientation="1,0"
     id="guide2"
     inkscape:locked="false" /><sodipodi:guide
     position="42.453159,25.968616"
     orientation="0,-1"
     id="guide3"
     inkscape:locked="false" /><sodipodi:guide
     position="39.962781,5.8121212"
     orientation="0,-1"
     id="guide4"
     inkscape:locked="false" /><sodipodi:guide
     position="15.564861,14.839741"
     orientation="1,0"
     id="guide5"
     inkscape:locked="false" /></sodipodi:namedview>

















<path
   style="fill:#ffffff;stroke-width:0.0328652"
   d="m 12.069723,24.595799 c -0.240048,-0.03536 -0.579138,-0.160527 -0.807057,-0.297903 -0.373963,-0.2254 -0.757429,-0.717851 -0.89897,-1.154461 L 10.323746,23.02019 8.9048751,23.01859 C 8.1244956,23.017752 6.8574579,23.01399 6.0892339,23.01039 L 4.6924633,23.00359 4.5057367,22.91189 C 4.2018682,22.76284 3.9960266,22.474505 3.962675,22.151365 c -0.03142,-0.304419 -0.3232788,-0.27827 3.1182594,-0.279373 1.6652334,-5.35e-4 3.0315706,-0.0049 3.0363006,-0.0098 0.0082,-0.0085 -0.03603,-0.293697 -0.06887,-0.443131 l -0.01601,-0.07284 -1.2896093,-0.01322 c -0.7092854,-0.0072 -1.3080953,-0.013 -1.3306909,-0.01272 -0.022593,2.75e-4 -0.3886306,5.02e-4 -0.8134126,5.02e-4 -0.4247828,0 -0.7982132,1.23e-4 -0.8298459,2.74e-4 -0.03163,1.51e-4 -0.2867492,0.0017 -0.5669248,0.0033 -0.4940239,0.003 -0.5150502,3.51e-4 -0.6961374,-0.08857 C 4.2018641,21.086584 3.9960226,20.79825 3.962671,20.47511 3.931496,20.173075 3.805704,20.192551 5.7715344,20.19506 c 3.987444,0.0051 4.0643272,0.004 4.0643272,-0.05622 0,-0.03015 -0.016222,-0.147926 -0.036026,-0.261718 L 9.7638113,19.670275 8.608478,19.656835 c -0.6354335,-0.0075 -1.17382,-0.01316 -1.1964147,-0.01282 -0.022593,3.43e-4 -0.3923283,4.35e-4 -0.8216298,2.05e-4 -0.4293013,-2.31e-4 -0.8101262,8.07e-4 -0.8462775,0.0022 -0.036149,0.0016 -0.287571,0.0032 -0.5587085,0.0038 -0.4740703,10e-4 -0.5001397,-0.0024 -0.6797049,-0.09061 C 4.2018734,19.410429 3.9960319,19.122096 3.9626804,18.798957 3.931312,18.495036 3.6747505,18.520283 6.8015674,18.5196 c 1.5113853,-3.32e-4 2.7522417,-0.0049 2.7574552,-0.01013 0.00523,-0.0052 -0.00645,-0.123455 -0.026057,-0.262754 l -0.035536,-0.253274 -1.0057074,-0.01363 c -0.5531383,-0.0076 -1.0315879,-0.01348 -1.0632207,-0.01331 -0.3015565,0.0017 -1.6115987,0.0013 -1.6432593,-3.89e-4 -0.022593,-0.0012 -0.244123,0.0051 -0.4922849,0.01415 -0.3521009,0.01282 -0.4904352,0.005 -0.6298237,-0.0355 -0.3673737,-0.106789 -0.6624606,-0.45389 -0.700678,-0.824175 -0.031234,-0.302604 -0.173044,-0.280628 1.7943947,-0.278065 0.9510408,0.0012 2.1321743,0.0016 2.6247412,5.41e-4 l 0.8955762,-0.0017 v -0.228476 -0.228475 l -0.8357329,-0.0098 C 7.6569262,16.365418 7.6001454,16.360701 7.5150241,16.297094 7.2975288,16.134567 7.2897787,16.106123 7.278652,15.429523 c -0.00819,-0.500226 -4.747e-4,-0.641722 0.040533,-0.739864 0.045726,-0.109434 0.045702,-0.131018 -2.129e-4,-0.219808 -0.044181,-0.08544 -0.049105,-0.27093 -0.037188,-1.402292 0.01326,-1.259639 0.016554,-1.31554 0.09729,-1.649375 C 7.6038363,10.488769 8.0360449,9.7199868 8.6999034,9.0687643 9.2297029,8.5490502 9.8324837,8.1748183 10.493184,7.955421 c 0.67778,-0.2250694 0.695739,-0.2269979 2.250786,-0.2417001 1.395881,-0.013198 1.413377,-0.012548 1.467671,0.054501 0.07174,0.08859 0.04192,0.1957996 -0.06677,0.2401089 -0.732399,0.2985717 -0.985344,0.5975126 -1.102722,1.3032398 l -0.01854,0.1113468 0.475892,-0.016155 c 0.437124,-0.014842 0.480482,-0.011126 0.532257,0.046128 0.05346,0.059079 0.05157,0.077025 -0.03679,0.3484896 -0.210188,0.645746 -0.615918,1.293385 -1.13624,1.813707 -0.86399,0.863991 -1.94319,1.337632 -3.1954108,1.402409 L 9.24429,13.039169 v 0.667341 0.66734 l 0.6490879,0.01035 c 0.4695171,0.0076 0.6779031,0.0232 0.7532481,0.05682 0.07211,0.03218 0.125564,0.03694 0.173695,0.01545 0.06893,-0.03076 0.06869,-0.03217 -0.02692,-0.162315 -0.369489,-0.502899 -0.18623,-1.212539 0.382626,-1.48165 0.830055,-0.39268 1.710487,0.494949 1.306817,1.317498 -0.05323,0.108455 -0.102414,0.208282 -0.109301,0.221839 -0.0069,0.01355 1.498445,0.02464 3.345195,0.02464 1.846749,0 3.352086,-0.01113 3.345194,-0.02464 -0.174205,-0.342669 -0.202914,-0.431403 -0.204687,-0.632655 -0.004,-0.462925 0.298402,-0.849154 0.759516,-0.969799 0.718915,-0.188097 1.39763,0.523667 1.182136,1.2397 -0.02464,0.08189 -0.09201,0.217493 -0.149703,0.301345 -0.09152,0.13302 -0.09786,0.155159 -0.04978,0.17361 0.03032,0.01163 0.123559,-0.0033 0.207217,-0.03337 0.120692,-0.04326 0.275982,-0.05447 0.751896,-0.05435 l 0.59979,1.63e-4 v -0.668584 -0.668741 l -0.402606,-0.01907 c -1.215484,-0.0576 -2.311038,-0.541838 -3.177784,-1.404605 -0.519491,-0.517107 -0.926695,-1.166504 -1.137436,-1.8139517 -0.08755,-0.2689539 -0.08984,-0.289875 -0.03806,-0.3470821 0.05006,-0.055307 0.09883,-0.059557 0.533227,-0.046495 l 0.478136,0.014386 -0.02043,-0.1438484 c -0.03016,-0.2122386 -0.0766,-0.3517984 -0.18719,-0.562447 -0.167596,-0.3192304 -0.394109,-0.4939252 -0.920131,-0.7096381 -0.06929,-0.028414 -0.09038,-0.059297 -0.09038,-0.1323389 0,-0.052402 0.02121,-0.1128752 0.04712,-0.1343854 0.03538,-0.029361 0.397885,-0.035786 1.454284,-0.025781 1.192272,0.011294 1.444707,0.022118 1.653021,0.070883 0.969726,0.2270057 1.738517,0.6404114 2.384215,1.2820746 0.628222,0.6242963 1.015535,1.26768 1.247435,2.072174 0.156952,0.54449 0.179156,0.796606 0.179701,2.040412 4.7e-4,1.074865 -0.0038,1.161067 -0.06299,1.277216 -0.06021,0.118103 -0.06061,0.128974 -0.0077,0.2098 0.04762,0.07267 0.05585,0.177486 0.05585,0.711127 0,0.587763 -0.0043,0.632965 -0.07232,0.742163 -0.03979,0.06395 -0.130527,0.148993 -0.201666,0.188975 -0.123738,0.06955 -0.164403,0.0727 -0.938281,0.0727 h -0.808897 v 0.230056 0.230057 l 0.912009,0.0018 c 0.501605,9.29e-4 1.684241,6.96e-4 2.628081,-5.73e-4 l 1.716074,-0.0022 0.05342,0.08152 c 0.04488,0.0685 0.04771,0.108132 0.01768,0.248146 -0.05026,0.234343 -0.138963,0.392772 -0.306258,0.546979 -0.236295,0.217808 -0.389771,0.259051 -0.945716,0.254132 -0.562603,-0.005 -0.441887,-0.0049 -1.372123,-0.0013 -0.411225,0.0016 -0.777261,0.0016 -0.813412,5.9e-5 -0.03615,-0.0016 -0.520326,0.0032 -1.075942,0.01046 l -1.010211,0.01327 -0.01605,0.07302 c -0.03349,0.152306 -0.07715,0.434911 -0.06855,0.443671 0.0049,0.005 1.253327,0.0092 2.77421,0.0093 l 2.765242,2.49e-4 0.05227,0.07978 c 0.04365,0.06661 0.04637,0.107276 0.01653,0.246405 -0.06961,0.324646 -0.258157,0.568916 -0.561805,0.727895 -0.138428,0.07247 -0.181547,0.07721 -0.673737,0.07396 -0.289213,-0.0019 -0.555421,-0.0026 -0.591573,-0.0013 -0.09578,0.003 -1.532827,0.0027 -1.610394,-5.46e-4 -0.03615,-0.0014 -0.58446,0.0032 -1.218462,0.01035 l -1.152732,0.01305 -0.03899,0.250795 c -0.02144,0.137938 -0.03357,0.256224 -0.02692,0.262859 0.0067,0.0067 1.315679,0.01228 2.908986,0.01256 l 2.896923,4.96e-4 0.05222,0.07971 c 0.0436,0.06653 0.04632,0.107231 0.01649,0.246329 -0.05201,0.242529 -0.142827,0.39917 -0.327883,0.565552 -0.245147,0.220408 -0.416799,0.263366 -0.977693,0.244672 -0.250694,-0.0083 -0.485387,-0.01348 -0.521539,-0.01139 -0.05308,0.003 -0.496256,0.003 -1.635043,-4.22e-4 -0.0226,-6.6e-5 -0.620102,0.0055 -1.327796,0.01236 l -1.286713,0.01248 -0.0361,0.207355 c -0.01986,0.114045 -0.0361,0.232026 -0.0361,0.262177 0,0.06001 0.197976,0.06257 4.345261,0.05624 l 1.73248,-0.0027 0.05344,0.08156 c 0.04492,0.06855 0.04774,0.108144 0.0177,0.248187 -0.05201,0.24253 -0.142828,0.399171 -0.327884,0.565553 -0.28016,0.251888 -0.313012,0.256372 -1.860749,0.254012 -4.010002,-0.0061 -4.190309,-0.0033 -4.190309,0.06458 0,0.114492 -0.292081,0.641823 -0.460541,0.831473 -0.18911,0.212898 -0.52385,0.447602 -0.789,0.553209 -0.400853,0.159658 -0.44158,0.16122 -4.123917,0.158167 -1.897965,-0.0016 -3.532624,-0.01491 -3.632575,-0.02963 z m 7.562518,-0.758627 c 0.297319,-0.08907 0.488433,-0.360331 0.489703,-0.695045 0.0022,-0.609593 -0.693278,-0.930269 -1.168388,-0.538644 -0.325304,0.268142 -0.326053,0.835188 -0.0014,1.094197 0.209985,0.167551 0.433483,0.213389 0.680131,0.139492 z m 0.594,-1.40939 c 0.152817,-0.04245 0.340333,-0.247572 0.369773,-0.404501 0.0511,-0.272392 -0.144031,-0.585718 -0.393973,-0.632607 -0.241139,-0.04524 -0.439953,0.03234 -0.586756,0.228972 -0.05132,0.06875 -0.06777,0.139985 -0.06777,0.293755 0,0.246636 0.08792,0.392533 0.292534,0.48546 0.155003,0.07039 0.21949,0.07522 0.386183,0.02892 z M 19.225093,22.21394 c 0.192838,-0.126352 0.216221,-0.438864 0.0456,-0.60948 -0.173085,-0.173086 -0.483309,-0.146955 -0.613454,0.05167 -0.07403,0.112989 -0.07408,0.347373 -7.6e-5,0.460305 0.114277,0.174407 0.380737,0.220155 0.567926,0.09751 z m -7.36774,-7.898585 c 0.465076,-0.211279 0.528203,-0.868575 0.110002,-1.145329 -0.186281,-0.123275 -0.486633,-0.143668 -0.678008,-0.04604 -0.16522,0.08429 -0.284653,0.236213 -0.335298,0.426513 -0.13908,0.522591 0.411112,0.988451 0.903308,0.764852 z m 8.292201,-0.02404 c 0.236183,-0.117695 0.350777,-0.311582 0.350942,-0.593782 1.01e-4,-0.172723 -0.01461,-0.223536 -0.09984,-0.344804 -0.202285,-0.287818 -0.564735,-0.376782 -0.872607,-0.214183 -0.362788,0.1916 -0.449255,0.718659 -0.167405,1.020413 0.207998,0.222686 0.506984,0.272848 0.788914,0.132356 z"
   id="path9" /><path
   style="fill:#ffffff;stroke-width:0.0389122"
   d="m 10.709751,13.515386 c -0.0272,-0.01094 -0.07607,-0.07136 -0.108591,-0.134249 -0.04958,-0.09588 -0.05101,-0.131301 -0.0088,-0.219324 0.0691,-0.144181 0.237529,-0.199896 0.373806,-0.123657 0.283934,0.158847 0.04724,0.599398 -0.256397,0.47723 z"
   id="path10" /><path
   style="fill:#ffffff;stroke-width:0.0389122"
   d="m 20.453584,13.460781 c -0.196503,-0.15457 -0.0851,-0.464122 0.167033,-0.464122 0.244561,0 0.344962,0.31382 0.152503,0.476674 -0.105716,0.08945 -0.19428,0.08597 -0.319536,-0.01255 z"
   id="path11" /></svg>
