<?xml version="1.0" encoding="UTF-8" standalone="no"?>
<!-- Generator: Adobe Illustrator 18.0.0, SVG Export Plug-In . SVG Version: 6.00 Build 0)  -->

<svg
   version="1.1"
   id="Capa_1"
   x="0px"
   y="0px"
   viewBox="0 0 598.07573 418.82858"
   xml:space="preserve"
   sodipodi:docname="temperature-3.2.svg"
   inkscape:version="1.4.3 (fcd0343856, 2026-01-01)"
   width="598.07574"
   height="418.82858"
   xmlns:inkscape="http://www.inkscape.org/namespaces/inkscape"
   xmlns:sodipodi="http://sodipodi.sourceforge.net/DTD/sodipodi-0.dtd"
   xmlns="http://www.w3.org/2000/svg"
   xmlns:svg="http://www.w3.org/2000/svg"><defs
   id="defs19" /><sodipodi:namedview
   id="namedview19"
   pagecolor="#ffffff"
   bordercolor="#000000"
   borderopacity="0.25"
   inkscape:showpageshadow="2"
   inkscape:pageopacity="0.0"
   inkscape:pagecheckerboard="0"
   inkscape:deskcolor="#d1d1d1"
   inkscape:zoom="2.3456897"
   inkscape:cx="299.27232"
   inkscape:cy="209.53326"
   inkscape:window-width="2560"
   inkscape:window-height="1371"
   inkscape:window-x="1920"
   inkscape:window-y="32"
   inkscape:window-maximized="1"
   inkscape:current-layer="Capa_1" />
















<g
   id="g1"
   transform="matrix(1.0205497,0,0,1.0205497,46.041807,-43.582205)"><g
     id="g4">
	<path
   d="M 465.045,203.644 C 382.228,54.791 203.578,54.361 151.047,103.451 c 0.953,2.032 1.924,4.129 2.928,6.405 11.322,25.628 26.916,71.366 31.449,109.221 3.33,-9.44 5.908,-14.9 13.49,-24.067 9.815,-11.924 27.434,-13.635 39.367,-3.819 11.917,9.819 13.637,27.449 3.82,39.373 -4.686,5.65 -19.605,10.376 -17.99,21.58 -0.048,1.521 0.632,3.213 1.264,4.997 24.744,-2.25 46.635,-14.179 61.779,-31.935 4.049,-1.142 13.456,-3.578 26.086,-5.57 -0.498,-1.251 -3.021,-4.901 -4.58,-16.414 -0.535,-5.424 -0.211,-10.888 0.775,-16.356 3.291,-14.757 10.888,-27.798 24.23,-39.339 11.655,-10.13 29.324,-8.894 39.443,2.768 13.01,14.96 6.257,37.645 -9.877,43.626 -7.758,3.605 -8.021,3.812 -10.994,6.508 -2.92,3.384 -2.408,4.067 -2.885,5.143 -0.522,1.036 -0.877,6.014 1.135,11.312 32.711,0.437 69.279,9.506 88.517,43.301 43.706,76.827 5.913,107.647 -19.71,127.058 -15.273,11.571 -44.429,23.252 -76.158,8.637 -12.09,-5.569 -34.893,-19.404 -38.673,-52.084 -2.464,-21.306 9.978,-39.723 12.369,-43.139 13.438,-17.09 44.728,-23.659 69.444,-3.387 13.676,11.217 11.427,32.803 7.742,40.686 -12.139,25.967 -42.236,15.979 -48.891,11.702 -4.494,-2.819 -9.201,3.227 -5.457,6.882 4.074,3.998 7.705,8.528 18.297,11.764 6.77,1.747 16.03,2.954 25.635,-1.248 43.176,-18.271 38.964,-74.435 -1.308,-93.265 -42.346,-20.281 -97.059,14.168 -94.706,71.08 1.529,12.33 1.223,42.631 47.822,67.478 11.664,6.219 24.34,8.761 35.887,9.085 29.176,0.821 45.764,-5.441 64.02,-15.118 21.818,-11.565 104.685,-67.918 29.728,-202.672 z"
   id="path1" />
	<path
   d="m 329.16,247.335 c 15.732,-3.143 17.318,0.944 22.121,-3.151 3.547,-3.046 3.966,-8.404 0.924,-11.957 v -0.011 l -4.665,-7.634 c -0.536,-1.352 -4.727,-9.668 -4.5,-14.882 -0.911,-10.495 7.53,-18.779 16.726,-22.112 13.443,-4.949 17.783,-21.474 8.91,-32.34 -7.177,-8.802 -20.129,-10.122 -28.941,-2.929 l -1.926,1.569 c -3.424,2.805 -6.807,6.161 -9.863,10.129 -16.314,20.364 -18.07,46.504 -0.598,66.865 -2.299,0.452 -31.482,4.667 -52.598,34.072 -2.965,3.418 -2.641,8.605 0.76,11.611 3.432,3.012 8.648,2.688 11.664,-0.73 l 0.983,-1.116 c 19.022,-24.134 38.232,-27.052 41.003,-27.384 z"
   id="path2" />
	<path
   d="m 231.239,275.462 -5.864,-6.751 c -3.786,-6.258 -10.313,-13.859 -6.057,-25.556 5.684,-11.649 12.551,-11.888 17.327,-17.311 7.479,-8.544 6.625,-21.544 -1.913,-29.028 -8.551,-7.489 -21.553,-6.639 -29.035,1.911 -2.309,2.646 -5.998,6.636 -9.68,13.489 -12.602,22.569 -10.26,48.67 10.361,66.081 -0.423,0.16 -0.89,0.251 -1.313,0.412 -3.238,1.016 -27.842,10.228 -44.795,41.86 -2.36,3.863 -1.18,8.926 2.676,11.33 3.869,2.404 8.957,1.221 11.369,-2.648 16.29,-29.416 41.76,-38.099 52.257,-38.826 7.482,-0.692 10.474,-10.114 4.679,-14.956 z"
   id="path3" />
	<path
   d="m 120.892,75.954 c -2.234,0.007 -3.984,2.065 -5.069,6.617 -25.795,108.58 -78.168,154.138 -109.407,172.278 -4.275,2.477 -6.752,7.189 -6.379,12.11 0.372,4.932 3.531,9.214 8.129,11.031 53.938,21.297 123.586,33.471 162.846,-9.564 27.92,-30.615 -30.295,-192.472 -50.12,-192.472 z"
   id="path4" />
</g><g
     id="g5">
</g><g
     id="g6">
</g><g
     id="g7">
</g><g
     id="g8">
</g><g
     id="g9">
</g><g
     id="g10">
</g><g
     id="g11">
</g><g
     id="g12">
</g><g
     id="g13">
</g><g
     id="g14">
</g><g
     id="g15">
</g><g
     id="g16">
</g><g
     id="g17">
</g><g
     id="g18">
</g><g
     id="g19">
</g><path
     style="fill:#ffffff;stroke-width:0.426314"
     d="M 87.181183,296.88159 C 65.939758,295.22698 46.28411,291.03953 23.660419,283.34909 9.1893805,278.42997 6.4876229,277.25253 4.0283892,274.79329 c -2.5212079,-2.52121 -3.60207535,-5.15384 -3.60207535,-8.77345 0,-5.27456 2.13470235,-8.43964 8.23017475,-12.2027 28.8503834,-17.81092 52.7783774,-43.71438 72.2139314,-78.17583 14.071064,-24.94961 24.98767,-53.16704 33.74194,-87.216798 1.15042,-4.474565 2.33133,-8.599152 2.62424,-9.165747 1.66039,-3.211774 3.71422,-3.731373 6.86097,-1.73576 8.71925,5.529582 23.77595,35.695875 35.78057,71.686845 13.46144,40.35861 20.25068,78.22284 17.86384,99.62823 -1.16119,10.41364 -3.63302,16.12511 -9.55455,22.07704 -13.88033,13.95159 -31.69604,22.17943 -54.57479,25.20434 -4.52108,0.59776 -22.052221,1.10324 -26.431457,0.76213 z"
     id="path19" /><path
     style="fill:#ffffff;stroke-width:0.426314"
     d="m 364.07203,420.75539 c -16.14064,-1.95303 -30.16708,-7.96045 -45.61558,-19.53684 -20.99611,-15.73348 -30.53105,-34.77019 -30.45647,-60.80694 0.0274,-9.55535 0.91678,-15.28708 3.63839,-23.44726 9.37418,-28.10656 34.24507,-47.50795 62.41528,-48.68918 25.44019,-1.06676 49.21241,14.51597 57.04315,37.39186 2.26883,6.62793 2.64291,9.07337 2.60855,17.05256 -0.0287,6.67424 -0.15205,7.90977 -1.17008,11.72363 -4.17312,15.63388 -16.17842,28.06795 -32.38161,33.53813 -3.2908,1.11097 -4.76559,1.35808 -9.04745,1.51595 -11.64185,0.42924 -21.54178,-3.39764 -29.40597,-11.36707 -2.70759,-2.74381 -2.97451,-3.17109 -2.97451,-4.76143 0,-1.4322 0.24922,-1.9698 1.38256,-2.98244 1.78243,-1.59261 2.79535,-1.55598 6.34434,0.22939 6.11007,3.07377 12.73333,4.57368 20.17728,4.56936 9.19505,-0.005 15.50016,-2.37625 21.1414,-7.94986 6.82624,-6.74441 9.51579,-14.68292 9.00594,-26.58201 -0.26928,-6.28438 -1.04086,-9.63085 -3.30788,-14.34674 -3.19626,-6.64895 -8.55546,-11.50391 -17.88687,-16.20392 -7.46682,-3.76086 -14.82197,-5.46934 -23.44726,-5.44641 -12.1729,0.0324 -22.81445,3.92298 -31.43776,11.49383 -6.7746,5.94777 -13.78314,20.46112 -15.9291,32.98617 -3.36048,19.61365 4.75932,41.95447 20.08277,55.25575 9.73949,8.4542 22.46279,14.6589 35.41564,17.27093 4.16903,0.84072 6.13051,0.97959 13.61046,0.96362 7.79734,-0.0166 9.31656,-0.14106 14.09323,-1.15414 16.23911,-3.4441 29.193,-10.7257 45.98755,-25.85036 12.64172,-11.38475 20.89009,-24.89447 23.91865,-39.1755 1.29899,-6.12531 1.58136,-16.59376 0.64624,-23.95842 -1.27952,-10.07708 -4.85896,-22.35205 -9.81595,-33.6618 -2.99312,-6.82904 -8.87945,-17.99036 -12.01509,-22.78235 -13.3049,-20.33296 -33.97047,-32.69995 -62.37405,-37.32679 -4.85584,-0.791 -10.0745,-1.30284 -20.13164,-1.9745 l -3.70429,-0.24739 -0.66543,-2.92567 c -1.30498,-5.73755 -0.58877,-9.21471 2.637,-12.80254 1.64753,-1.83245 3.0271,-2.69357 9.01993,-5.63015 6.58847,-3.22846 7.31216,-3.70277 10.52533,-6.89832 5.59403,-5.56336 8.01572,-11.56044 8.01346,-19.84457 -9.4e-4,-3.43332 -0.22725,-5.22128 -0.97129,-7.67365 -2.63019,-8.66918 -9.26178,-15.69326 -17.60912,-18.65133 -2.48895,-0.88202 -4.14594,-1.14188 -8.2447,-1.29302 -6.11939,-0.22566 -8.93886,0.35523 -14.17103,2.9196 -2.9461,1.44393 -4.4118,2.58383 -8.89734,6.91961 -2.95361,2.855 -6.86771,7.18535 -8.69799,9.62301 -5.5786,7.42985 -10.3471,17.78072 -12.14379,26.3603 -1.11476,5.32316 -1.3044,14.0112 -0.42151,19.3111 0.75197,4.51407 2.36771,10.3055 3.4789,12.46968 0.33107,0.6448 0.41795,1.17236 0.19306,1.17236 -1.12306,0 -12.95156,2.3534 -18.58398,3.69746 l -6.39471,1.52598 -5.75523,5.59482 c -3.16538,3.07715 -7.19405,6.68406 -8.9526,8.01534 -9.97241,7.5495 -21.54551,13.09263 -33.63646,16.11074 -4.22708,1.05516 -6.60012,1.48826 -12.72615,2.32264 -0.8206,0.11177 -1.05302,-0.18179 -1.59868,-2.01923 -1.45737,-4.90751 -0.30014,-9.20239 3.49906,-12.98611 1.1242,-1.11962 4.32283,-3.65822 7.10807,-5.64131 2.78523,-1.9831 5.90084,-4.5622 6.92357,-5.73134 6.92437,-7.9156 8.11987,-20.88328 2.86288,-31.05384 -2.35719,-4.56037 -7.45095,-9.49276 -12.12591,-11.74174 -11.07011,-5.32551 -23.87638,-3.3418 -32.31896,5.00624 -5.25273,5.19391 -10.46095,13.22487 -13.53246,20.86679 l -1.78146,4.43226 -0.28063,-2.07697 c -4.02656,-29.80093 -16.05439,-71.34646 -29.91403,-103.3265 -1.98153,-4.57222 -3.67626,-8.50496 -3.76607,-8.73944 -0.22213,-0.57991 4.22251,-4.216466 9.30732,-7.615167 15.74134,-10.521539 37.91573,-17.595179 64.44592,-20.558277 8.21785,-0.917833 28.07916,-1.261766 37.08931,-0.642265 54.02585,3.7146 103.16517,23.332062 144.33081,57.619929 6.78189,5.6488 22.80956,21.62823 28.62113,28.535 28.48646,33.85473 50.67892,78.71093 57.67041,116.5655 2.89142,15.65526 3.19404,33.25385 0.81791,47.56533 -0.93318,5.62058 -3.23369,14.45454 -5.06728,19.45837 -3.75705,10.2529 -10.91732,22.89214 -17.95802,31.69929 -3.67526,4.59736 -12.92308,13.83892 -17.63952,17.62757 -12.92953,10.38614 -31.94335,19.99734 -47.04199,23.779 -9.28391,2.32529 -15.08246,2.98845 -27.56293,3.15228 -6.21352,0.0816 -12.73613,-0.0258 -14.49467,-0.23859 z"
     id="path20" /><path
     style="fill:#ffffff;stroke-width:0.426314"
     d="m 164.8883,332.52808 c -3.09607,-0.93272 -5.44141,-4.17843 -5.44474,-7.53494 -0.003,-2.63489 1.41479,-5.54525 6.26542,-12.8648 7.29347,-11.00578 17.57592,-21.20037 27.52524,-27.29002 3.85366,-2.3587 9.07189,-4.95689 11.28985,-5.62128 0.99651,-0.29851 1.81183,-0.69063 1.81183,-0.87139 0,-0.18075 -1.17273,-1.44531 -2.60607,-2.81014 -10.18307,-9.69625 -16.00398,-24.26249 -15.13171,-37.86554 0.82658,-12.89034 6.4774,-26.12465 15.79821,-36.99962 4.51793,-5.27126 8.2183,-7.52683 13.88283,-8.46231 7.59036,-1.25352 16.29829,2.88123 20.24262,9.61172 4.59134,7.83452 3.54988,17.97881 -2.48233,24.17899 -0.82646,0.84948 -3.29163,2.79362 -5.47815,4.3203 -6.77918,4.73339 -11.02934,10.12995 -12.29662,15.61341 -0.79631,3.44562 -0.35043,9.05235 0.98231,12.35187 1.79169,4.43577 5.60349,10.29199 9.71443,14.92465 2.12443,2.39404 4.13761,5.01101 4.47374,5.81548 0.85975,2.05766 0.76009,4.3237 -0.28513,6.48281 -1.54175,3.18483 -3.43472,4.17785 -9.97473,5.23256 -10.65299,1.718 -23.73323,8.76841 -33.17272,17.88049 -5.70396,5.50611 -8.70266,9.12728 -12.588,15.20101 -1.63725,2.55942 -3.51787,5.30627 -4.17916,6.10411 -2.06451,2.49085 -5.33417,3.51033 -8.34712,2.60264 z"
     id="path21" /><path
     style="fill:#ffffff;stroke-width:0.426314"
     d="m 277.72584,277.58162 c -3.53416,-1.60534 -5.43003,-5.41052 -4.48606,-9.00389 0.54275,-2.06608 3.32255,-5.94673 8.06043,-11.25249 10.8235,-12.12081 25.57652,-21.13968 40.96617,-25.04359 2.68165,-0.68025 4.94895,-1.31004 5.03843,-1.39952 0.0895,-0.0895 -1.01531,-1.75147 -2.45508,-3.6933 -3.16239,-4.26511 -6.40839,-10.80296 -7.83632,-15.78331 -4.29077,-14.96543 -0.79225,-31.13425 9.86005,-45.56943 2.9885,-4.04978 11.06609,-12.07404 14.31455,-14.22005 8.46187,-5.59009 18.80075,-4.64779 25.80001,2.35147 5.20179,5.2018 7.19561,12.35547 5.3831,19.31417 -0.93489,3.58927 -2.60848,6.47302 -5.39583,9.29747 -1.97121,1.99744 -3.41834,2.93027 -7.67543,4.94766 -6.2391,2.95665 -9.84801,5.57485 -12.44339,9.02748 -3.08504,4.104 -3.84924,6.55699 -3.84426,12.3395 0.004,4.48234 0.1249,5.23151 1.41184,8.73943 1.83631,5.00539 3.2054,7.73263 6.45027,12.849 2.15244,3.39386 2.70427,4.62547 2.86489,6.39393 0.27177,2.99213 -0.45631,4.88958 -2.65325,6.91464 -2.20238,2.03009 -2.54822,2.10042 -11.52698,2.3442 -10.60549,0.28795 -18.22377,2.18914 -26.32639,6.56992 -8.22377,4.44628 -16.03917,11.00257 -23.68257,19.86716 -4.92999,5.71766 -7.69052,6.88721 -11.82418,5.00955 z"
     id="path22" /></g></svg>
