<?xml version="1.0" encoding="UTF-8" standalone="no"?>
<!-- Generator: Adobe Illustrator 19.0.0, SVG Export Plug-In . SVG Version: 6.00 Build 0)  -->

<svg
   version="1.1"
   id="Layer_1"
   x="0px"
   y="0px"
   viewBox="0 0 32 32"
   xml:space="preserve"
   sodipodi:docname="frame-4.svg"
   inkscape:version="1.4.3 (fcd0343856, 2026-01-01)"
   width="32"
   height="32"
   xmlns:inkscape="http://www.inkscape.org/namespaces/inkscape"
   xmlns:sodipodi="http://sodipodi.sourceforge.net/DTD/sodipodi-0.dtd"
   xmlns="http://www.w3.org/2000/svg"
   xmlns:svg="http://www.w3.org/2000/svg"><defs
   id="defs19" /><sodipodi:namedview
   id="namedview19"
   pagecolor="#ffffff"
   bordercolor="#000000"
   borderopacity="0.25"
   inkscape:showpageshadow="2"
   inkscape:pageopacity="0.0"
   inkscape:pagecheckerboard="0"
   inkscape:deskcolor="#d1d1d1"
   inkscape:zoom="25.698912"
   inkscape:cx="18.600009"
   inkscape:cy="21.693525"
   inkscape:window-width="2560"
   inkscape:window-height="1371"
   inkscape:window-x="1920"
   inkscape:window-y="32"
   inkscape:window-maximized="1"
   inkscape:current-layer="Layer_1"
   showguides="true"><sodipodi:guide
     position="6.9652753,-7.5736593"
     orientation="1,0"
     id="guide1"
     inkscape:locked="false" /><sodipodi:guide
     position="25.48746,-7.495835"
     orientation="1,0"
     id="guide2"
     inkscape:locked="false" /><sodipodi:guide
     position="42.453159,25.968616"
     orientation="0,-1"
     id="guide3"
     inkscape:locked="false" /><sodipodi:guide
     position="39.962781,5.8121212"
     orientation="0,-1"
     id="guide4"
     inkscape:locked="false" /><sodipodi:guide
     position="15.564861,14.839741"
     orientation="1,0"
     id="guide5"
     inkscape:locked="false" /></sodipodi:namedview>

















<path
   d="m 26.759645,16.387501 h -3.507711 c 0,-0.0022 0.0012,-0.0043 0.0011,-0.0066 a 6.5272703,6.5272703 0 0 0 -0.4325,-2.098429 c 0,-0.0014 -0.0017,-0.0024 -0.0024,-0.0038 l 3.34369,-1.38538 a 0.25947171,0.25947171 0 1 0 -0.197199,-0.479157 l -3.352202,1.389211 c -0.0012,-0.0031 -8.67e-4,-0.0066 -0.0024,-0.0095 a 6.5795107,6.5795107 0 0 0 -1.193606,-1.714244 c 0,0 -0.002,-10e-4 -0.0026,-0.0017 l 4.325221,-4.3272968 a 0.25791488,0.25791488 0 0 0 0,-0.3667201 0.26102854,0.26102854 0 0 0 -0.36672,0 l -4.333351,4.3349079 c -0.0026,-0.0026 -0.0036,-0.0062 -0.0064,-0.0086 a 6.5540827,6.5540827 0 0 0 -1.71074,-1.092551 c -0.0012,0 -0.0024,0 -0.0036,0 L 20.817761,6.9963543 A 0.25947171,0.25947171 0 1 0 20.338585,6.7991558 l -1.503379,3.6300092 c -0.0033,-0.0014 -0.0056,-0.0041 -0.0088,-0.0052 A 6.5482011,6.5482011 0 0 0 16.94314,10.068672 c -0.0024,0 -0.0047,0.0012 -0.0071,0.0012 V 5.762998 a 0.25947183,0.25947183 0 1 0 -0.518943,0 v 4.307231 c -0.0022,0 -0.0047,-0.0012 -0.0069,-0.0012 a 6.5469902,6.5469902 0 0 0 -1.890498,0.357206 c -0.0031,10e-4 -0.0056,0.0038 -0.0086,0.005 L 12.474865,5.5173646 a 0.25947171,0.25947171 0 0 0 -0.479157,0.1989285 l 2.032182,4.9019399 -0.0035,10e-4 a 6.6156639,6.6156639 0 0 0 -1.607686,1.005366 c -0.0038,0.0033 -0.0056,0.008 -0.009,0.01159 L 9.2505061,8.4805338 a 0.25791488,0.25791488 0 0 0 -0.3667195,0 0.26102854,0.26102854 0 0 0 0,0.3667199 l 3.1401274,3.1401273 v 0 a 6.6056307,6.6056307 0 0 0 -1.131297,1.511509 0.16744575,0.16744575 0 0 0 -0.0053,0.0173 l -4.124241,-1.7075 a 0.25947171,0.25947171 0 1 0 -0.1989286,0.479157 l 4.0903116,1.695216 a 6.5224267,6.5224267 0 0 0 -0.556135,2.397518 c 0,0.0025 0.0011,0.0045 0.0011,0.0067 H 5.9881166 a 0.25947171,0.25947171 0 1 0 0,0.518943 h 4.1112424 c 0,0.0024 -0.0012,0.0045 -0.0012,0.0069 a 6.5570229,6.5570229 0 0 0 0.364125,1.911615 c 0.0011,0.0031 0.0038,0.0053 0.005,0.0083 l -4.5777723,1.896219 a 0.25947171,0.25947171 0 1 0 0.1989279,0.479157 l 4.5686054,-1.89224 c 0,0.0016 0,0.0033 0.0011,0.0047 a 6.6234478,6.6234478 0 0 0 1.081651,1.682068 c 0.0024,0.0027 0.0061,0.004 0.0088,0.0066 l -2.7246045,2.724493 a 0.25947171,0.25947171 0 0 0 0.1833605,0.442832 0.26396923,0.26396923 0 0 0 0.1833597,-0.07611 l 2.7158043,-2.716669 c 0,0 0.0011,0.002 0.0017,0.0026 a 6.6224099,6.6224099 0 0 0 1.68743,1.181288 c 0.0033,0.0016 0.0071,0.0012 0.01055,0.0026 l -1.416023,3.417415 a 0.25947171,0.25947171 0 0 0 0.140114,0.339043 0.25428227,0.25428227 0 0 0 0.100329,0.02076 0.25947171,0.25947171 0 0 0 0.238714,-0.160872 l 1.411353,-3.407729 c 0.0012,0 0.0021,0.0016 0.0033,0.0021 a 6.6198151,6.6198151 0 0 0 1.753165,0.417403 0.16813766,0.16813766 0 0 0 0.0173,-0.002 v 3.83603 a 0.259472,0.259472 0 0 0 0.518944,0 V 23.22714 c 0.0346,0.0016 0.06919,0.0017 0.103788,0.0017 a 6.5194864,6.5194864 0 0 0 2.03201,-0.321745 c 0.0043,-0.0014 0.0073,-0.0048 0.01141,-0.0066 l 1.427787,3.443708 a 0.25947171,0.25947171 0 0 0 0.240443,0.160872 0.28489994,0.28489994 0 0 0 0.0986,-0.01903 0.25947171,0.25947171 0 0 0 0.140114,-0.339043 l -1.418445,-3.422601 v 0 a 6.5833164,6.5833164 0 0 0 1.854704,-1.170737 c 0.0024,-0.0022 0.0035,-0.0053 0.0057,-0.0078 l 1.693486,1.693486 a 0.25376333,0.25376333 0 0 0 0.183359,0.07611 0.25099563,0.25099563 0 0 0 0.18336,-0.07611 0.25791488,0.25791488 0 0 0 0,-0.36672 l -1.687431,-1.687951 c 0.0011,-0.0011 0.0026,-0.0014 0.0036,-0.0026 A 6.6026899,6.6026899 0 0 0 22.6756,19.359721 c 0,-0.0016 0,-0.0033 0.0011,-0.0048 l 3.399772,1.407202 a 0.25410929,0.25410929 0 0 0 0.100329,0.02076 0.25947171,0.25947171 0 0 0 0.0986,-0.499915 L 22.8709,18.872134 c 8.68e-4,-0.0022 0.0029,-0.004 0.0038,-0.0062 a 6.5343627,6.5343627 0 0 0 0.378483,-1.952784 c 0,-0.0022 -0.0011,-0.0045 -0.0011,-0.0067 h 3.507538 a 0.25947183,0.25947183 0 0 0 0,-0.518943 z M 14.366411,10.759905 a 0.08770144,0.08770144 0 0 1 -0.108286,-0.03702 c -0.0014,-0.004 -0.0043,-0.0073 -0.0059,-0.01107 q 0.08026,-0.03287 0.161737,-0.06331 a 0.08925826,0.08925826 0 0 1 -0.04757,0.1114 z m -2.092207,1.232318 c 0.08407,-0.07957 0.167446,-0.160527 0.255147,-0.235428 l 1.340605,1.340604 a 0.26102854,0.26102854 0 0 1 0,0.36672 0.25376333,0.25376333 0 0 1 -0.183361,0.07611 0.25099563,0.25099563 0 0 1 -0.183359,-0.07611 l -1.356173,-1.354442 c 0.04082,-0.04082 0.08528,-0.07767 0.127141,-0.117454 z m -1.308255,1.740882 v 0 c 0.02577,-0.05068 0.05189,-0.10154 0.07836,-0.151358 l 2.983925,1.236815 a 0.25947171,0.25947171 0 0 1 -0.0986,0.498186 0.29406794,0.29406794 0 0 1 -0.100329,-0.01903 l -3.015062,-1.248923 c 0.04774,-0.107074 0.09877,-0.211901 0.151706,-0.31569 z m -0.149976,5.517233 c -0.04636,-0.105518 -0.08926,-0.213113 -0.130427,-0.321571 v 0 c -0.02024,-0.05345 -0.041,-0.10673 -0.05985,-0.161046 l 2.183022,-0.904691 a 0.25947171,0.25947171 0 1 1 0.198928,0.479158 z m 2.30065,1.122648 -0.889123,0.889123 C 12.102954,21.141022 11.983596,21.018205 11.869429,20.88847 l 0.880473,-0.882204 a 0.26102854,0.26102854 0 0 1 0.366721,0 0.25791488,0.25791488 0 0 1 0,0.36672 z m -2.84554,-3.466542 q -0.0052,-0.129736 -0.0052,-0.259472 c 0,-0.02906 0.0014,-0.05812 0.0017,-0.08649 v 0 c 0,-0.05743 0.0012,-0.114859 0.0035,-0.172981 h 4.364315 a 0.25947171,0.25947171 0 0 1 0,0.518943 z m 5.763732,1.638132 -1.688296,4.075435 c -0.05363,-0.02128 -0.105346,-0.04671 -0.158451,-0.06919 v 0 q -0.08009,-0.0346 -0.159143,-0.06919 v 0 c -0.05189,-0.02352 -0.106383,-0.04428 -0.157932,-0.06919 l 1.684837,-4.066787 a 0.25947171,0.25947171 0 1 1 0.479157,0.198929 z m 0.537971,4.509617 c -0.117109,-0.0012 -0.233006,-0.0073 -0.348557,-0.01505 v 0 c -0.05691,-0.0038 -0.113821,-0.0074 -0.170386,-0.01263 v -0.892582 a 0.25947183,0.25947183 0 0 1 0.518943,0 z m 0.363261,-8.553916 a 0.259472,0.259472 0 0 1 -0.518944,0 v -4.258796 q 0.129735,-0.0052 0.259472,-0.0052 0.129735,0 0.259472,0.0052 z m 3.982025,-2.660451 c 0.04307,0.0384 0.08217,0.08009 0.124028,0.11953 v 0 c 0.08441,0.07905 0.169867,0.157067 0.249611,0.240271 l -1.83187,1.83187 a 0.26396923,0.26396923 0 0 1 -0.18336,0.07611 0.25947171,0.25947171 0 0 1 -0.18336,-0.442831 z m -2.501307,-0.399586 0.352881,-0.852797 c 0.164332,0.05535 0.325205,0.117627 0.482618,0.188549 l -0.356342,0.861447 a 0.25947171,0.25947171 0 0 1 -0.240443,0.160872 0.28489994,0.28489994 0 0 1 -0.0986,-0.01903 0.25947171,0.25947171 0 0 1 -0.140115,-0.339043 z m 0.03114,4.087544 4.006243,-1.658888 c 0.07438,0.155682 0.143574,0.314825 0.205847,0.475697 l -4.013161,1.662349 a 0.25947171,0.25947171 0 1 1 -0.198929,-0.479158 z m 0.369487,7.159862 v 0 c -0.0538,0.01885 -0.107421,0.03805 -0.16191,0.05518 l -0.382289,-0.92199 a 0.2605096,0.2605096 0 0 1 0.140115,-0.339043 0.25756892,0.25756892 0 0 1 0.339042,0.140115 l 0.390938,0.942747 c -0.106902,0.04411 -0.21588,0.08459 -0.325896,0.122991 z m 2.379528,-1.503898 c -0.08165,0.0813 -0.162602,0.163641 -0.247882,0.240963 L 18.30606,18.781559 a 0.25947171,0.25947171 0 0 1 0.366721,-0.36672 l 2.648341,2.648342 c -0.03979,0.04152 -0.0832,0.07992 -0.124027,0.121087 z m 1.182846,-2.232667 a 0.25704997,0.25704997 0 0 1 0.332123,-0.143574 c -0.01955,0.05414 -0.04065,0.107594 -0.0614,0.161218 v 0 c -0.04169,0.107594 -0.08493,0.21467 -0.132331,0.319669 a 0.25947171,0.25947171 0 0 1 -0.138386,-0.337313 z m -0.714411,-2.044637 a 0.25947171,0.25947171 0 0 1 0,-0.518943 h 1.414985 q 0.0052,0.129736 0.0052,0.259471 0,0.129736 -0.0052,0.259472 z"
   id="path1"
   style="display:none;stroke-width:0.172981" /><path
   style="fill:#ffffff;stroke-width:0.0389122"
   d="m 16.155326,27.187359 c -0.08454,-0.08999 -0.08461,-0.09154 -0.08461,-2.038725 0,-2.130186 0.01486,-1.995903 -0.220815,-1.995903 -0.175112,0 -0.840869,-0.150602 -1.212638,-0.274312 -0.199854,-0.0665 -0.368406,-0.115164 -0.37456,-0.108134 -0.0062,0.007 -0.329288,0.783241 -0.718075,1.724915 -0.388786,0.941674 -0.730852,1.736212 -0.760146,1.765639 -0.128279,0.128862 -0.381573,0.02443 -0.380898,-0.157038 1.87e-4,-0.05007 0.317564,-0.85604 0.705283,-1.791057 0.38772,-0.935017 0.704903,-1.714233 0.704852,-1.731591 -5.1e-5,-0.01736 -0.09725,-0.08233 -0.216,-0.144378 C 13.25259,22.256437 12.729642,21.897908 12.399,21.614944 l -0.305814,-0.261717 -1.407557,1.40561 c -0.7741568,0.773086 -1.4337482,1.40561 -1.4657587,1.40561 -0.1195121,0 -0.2311659,-0.117927 -0.2311659,-0.244153 0,-0.109787 0.1491317,-0.272349 1.3878276,-1.512808 1.293837,-1.29568 1.384096,-1.394898 1.332741,-1.465035 -0.0303,-0.04138 -0.157206,-0.207966 -0.282019,-0.370197 -0.234661,-0.305011 -0.726415,-1.131628 -0.726415,-1.221073 0,-0.02791 -0.01494,-0.05075 -0.0332,-0.05075 -0.01826,0 -1.0686126,0.429006 -2.3341192,0.953348 -1.2655066,0.524341 -2.3335029,0.953347 -2.373325,0.953347 -0.1741131,0 -0.2675974,-0.279637 -0.1331059,-0.398156 0.037453,-0.033 1.0923471,-0.483584 2.3442092,-1.001286 1.2518621,-0.517702 2.2831089,-0.948272 2.2916599,-0.956823 0.0086,-0.0086 -0.02987,-0.177931 -0.08538,-0.376399 -0.121414,-0.434107 -0.204945,-0.8775 -0.242085,-1.285015 l -0.02749,-0.30157 H 8.01999 c -2.2961221,0 -2.2609914,0.0036 -2.2609914,-0.229648 0,-0.244785 -0.070761,-0.237297 2.2426629,-0.237297 h 2.1003425 l 0.0492,-0.448519 c 0.05778,-0.526748 0.184538,-1.074574 0.355406,-1.536001 0.06736,-0.181915 0.125491,-0.364544 0.129173,-0.405843 0.0057,-0.06388 -0.29713,-0.201203 -2.028311,-0.919801 -1.1192522,-0.464592 -2.0700239,-0.876405 -2.1128262,-0.915141 -0.1025415,-0.0928 -0.082099,-0.240978 0.046419,-0.336485 l 0.1011019,-0.07513 2.0390666,0.844146 c 1.1214864,0.464281 2.0776137,0.858944 2.1247267,0.877029 0.07671,0.02945 0.104649,0.0015 0.267403,-0.267004 0.197837,-0.326444 0.606707,-0.864798 0.774489,-1.019762 0.236809,-0.218718 0.329103,-0.09842 -1.415328,-1.844727 C 8.7489925,8.688352 8.7303912,8.6656483 8.904219,8.5083364 9.0727308,8.3558352 9.0919182,8.3716713 10.75921,10.039335 c 0.877274,0.87747 1.612633,1.595368 1.634133,1.595329 0.0215,-3.8e-5 0.174919,-0.101835 0.340932,-0.226214 0.348329,-0.260974 0.834514,-0.556849 1.117999,-0.680375 0.132328,-0.05766 0.191435,-0.104653 0.181087,-0.143969 -0.0084,-0.0321 -0.473604,-1.1615281 -1.033675,-2.5098342 -1.095025,-2.6361468 -1.072997,-2.5662373 -0.841805,-2.6715753 0.203886,-0.092897 0.214617,-0.071874 1.302976,2.5526378 0.935095,2.2549237 1.035557,2.4779307 1.108909,2.4615797 0.04436,-0.0099 0.255764,-0.06247 0.469781,-0.116852 0.381905,-0.09704 0.712781,-0.155124 1.157637,-0.203223 l 0.223745,-0.02419 V 7.9016147 c 0,-2.1374549 0.0012,-2.1726186 0.08065,-2.2735609 0.10401,-0.1322272 0.240551,-0.1322272 0.344561,0 0.0794,0.1009423 0.08065,0.136106 0.08065,2.2735609 v 2.1710333 l 0.223744,0.0238 c 0.463015,0.04924 0.99572,0.145809 1.304815,0.236528 0.175872,0.05162 0.338943,0.09422 0.36238,0.09467 0.02344,4.49e-4 0.380809,-0.8177984 0.794161,-1.8183271 0.413352,-1.0005288 0.777743,-1.8497865 0.809758,-1.8872395 0.119385,-0.1396635 0.396357,-0.039171 0.396357,0.1438085 0,0.038271 -0.33458,0.8773951 -0.743511,1.8647194 -0.40893,0.9873242 -0.751513,1.8150817 -0.761294,1.8394607 -0.01,0.02487 0.144148,0.129575 0.351088,0.238518 0.426903,0.224742 0.806786,0.473434 1.135788,0.743548 l 0.231946,0.190429 2.198536,-2.1903529 c 1.209196,-1.2046939 2.235184,-2.2010922 2.279975,-2.2142181 0.105803,-0.031006 0.288227,0.1099604 0.288227,0.2227243 0,0.059018 -0.652559,0.7368612 -2.198536,2.2837222 -1.209195,1.2098855 -2.198537,2.2120575 -2.198537,2.2270485 0,0.01499 0.09221,0.1306 0.204915,0.256909 0.28975,0.324728 0.655107,0.848527 0.831444,1.192009 0.08275,0.161194 0.1637,0.293156 0.17988,0.293247 0.01618,9.2e-5 0.789949,-0.315021 1.719487,-0.700251 0.929538,-0.385231 1.723445,-0.700419 1.764238,-0.700419 0.175487,0 0.270428,0.279622 0.134871,0.397224 -0.03745,0.03249 -0.821046,0.369839 -1.741319,0.749661 -0.920272,0.379822 -1.678974,0.695861 -1.686003,0.702309 -0.007,0.0064 0.04101,0.173546 0.106754,0.371328 0.13834,0.416171 0.258073,1.006797 0.297273,1.466404 l 0.02738,0.321026 h 1.821641 1.82164 l 0.06058,0.08648 c 0.08365,0.119421 0.07593,0.196822 -0.02949,0.295856 -0.08978,0.08434 -0.09572,0.08461 -1.882215,0.08461 h -1.792155 l -0.02688,0.321026 c -0.03364,0.401762 -0.151202,0.993321 -0.274646,1.382051 -0.05197,0.163658 -0.09082,0.299417 -0.08634,0.301685 0.0045,0.0023 0.769187,0.318207 1.699337,0.702088 0.930149,0.38388 1.733905,0.734361 1.786123,0.778847 0.116099,0.09891 0.09323,0.254891 -0.05125,0.349558 -0.09092,0.05957 -0.156447,0.03603 -1.850342,-0.664868 -0.965846,-0.399645 -1.760723,-0.720516 -1.766393,-0.713046 -0.0057,0.0075 -0.08476,0.153665 -0.175754,0.324878 -0.220486,0.414863 -0.528155,0.871807 -0.817252,1.213765 -0.130136,0.153931 -0.23661,0.293524 -0.23661,0.310207 0,0.01668 0.393986,0.425681 0.875524,0.908885 0.481538,0.483204 0.875523,0.90912 0.875523,0.946479 0,0.08784 -0.171135,0.258951 -0.25899,0.258951 -0.03738,0 -0.471561,-0.402203 -0.964844,-0.893785 l -0.896878,-0.893784 -0.272385,0.219337 c -0.456969,0.367972 -1.075235,0.741101 -1.606482,0.969524 -0.0061,0.0026 0.314195,0.790052 0.711758,1.749847 0.397562,0.959796 0.717738,1.778962 0.711502,1.82037 -0.0062,0.04141 -0.05949,0.111106 -0.118347,0.154884 l -0.107009,0.0796 -0.105793,-0.07898 c -0.08376,-0.06254 -0.253626,-0.434835 -0.815712,-1.787829 -0.390456,-0.939864 -0.715568,-1.72384 -0.722471,-1.742169 -0.0069,-0.01833 -0.130168,0.003 -0.273921,0.0474 -0.413092,0.127591 -0.902274,0.207725 -1.428548,0.234012 l -0.486402,0.0243 -0.0094,1.965064 c -0.0094,1.948655 -0.01012,1.965632 -0.09186,2.03316 -0.111445,0.09207 -0.199412,0.08564 -0.300498,-0.02196 z m 0.421251,-4.64443 c 0,-0.440405 -0.01109,-0.544228 -0.0644,-0.603139 -0.08713,-0.09628 -0.303183,-0.0927 -0.402547,0.0067 -0.0698,0.0698 -0.07782,0.129707 -0.07782,0.580976 0,0.569865 -0.02572,0.531121 0.359937,0.542178 l 0.184833,0.0053 z m 2.363913,0.121903 c 0.112359,-0.03974 0.204289,-0.09308 0.204289,-0.118546 0,-0.08076 -0.383796,-0.957485 -0.452276,-1.033155 -0.146383,-0.161751 -0.442703,-0.03229 -0.442703,0.193415 0,0.06067 0.0714,0.283925 0.158664,0.49613 0.08727,0.212206 0.175062,0.427007 0.195102,0.477337 0.02004,0.05033 0.05808,0.08376 0.08454,0.07429 0.02645,-0.0095 0.14003,-0.04973 0.252388,-0.08947 z m -3.711413,-2.110793 c 0.462903,-1.118957 0.841642,-2.077655 0.841642,-2.130441 0,-0.212343 -0.305938,-0.335026 -0.457218,-0.183346 -0.06639,0.06657 -1.782916,4.164854 -1.755251,4.190754 0.04976,0.04658 0.485414,0.20511 0.505032,0.183772 0.01328,-0.01445 0.402892,-0.941783 0.865795,-2.060739 z m 5.90995,0.72763 c 0.101658,-0.08713 0.184833,-0.179287 0.184833,-0.204784 0,-0.0255 -0.610367,-0.655807 -1.35637,-1.400689 -1.286986,-1.285051 -1.362927,-1.353687 -1.484543,-1.341724 -0.170352,0.01676 -0.293048,0.175571 -0.255141,0.330246 0.01832,0.07477 0.45605,0.540452 1.356509,1.443137 0.731199,0.733008 1.33855,1.332628 1.349666,1.33249 0.01112,-1.38e-4 0.103388,-0.07154 0.205046,-0.158676 z m -8.417412,-0.480458 c 0.406663,-0.407641 0.482575,-0.50244 0.482575,-0.602636 0,-0.165745 -0.110803,-0.275553 -0.278052,-0.275553 -0.121738,0 -0.185469,0.04858 -0.597108,0.455148 -0.253453,0.250331 -0.46071,0.47359 -0.460572,0.49613 2.92e-4,0.04769 0.304199,0.410648 0.343841,0.410648 0.01471,0 0.2439,-0.217682 0.509316,-0.483737 z m 9.916491,-1.752361 c 0.100007,-0.248776 0.0803,-0.312628 -0.08379,-0.271444 -0.197973,0.04969 -0.276068,0.268206 -0.15674,0.438572 0.08777,0.12531 0.136616,0.09137 0.240532,-0.167128 z M 11.970788,18.795728 c 0.617376,-0.256184 1.144536,-0.495922 1.171467,-0.532752 0.114075,-0.156007 -0.01535,-0.440448 -0.201019,-0.441797 -0.122145,-8.87e-4 -2.31628,0.908272 -2.317317,0.9602 -0.0015,0.07449 0.163226,0.480137 0.194957,0.480137 0.01618,0 0.534535,-0.209605 1.151912,-0.465788 z m 2.854742,-1.946766 c 0.09515,-0.09515 0.10203,-0.297878 0.01342,-0.395785 -0.06099,-0.06739 -0.184688,-0.07116 -2.334729,-0.07116 h -2.27033 v 0.272386 0.272385 h 2.256905 c 2.205022,0 2.258694,-0.0018 2.334729,-0.07783 z m 8.288289,-0.19456 v -0.272386 h -0.784907 c -0.675758,0 -0.794803,0.009 -0.856068,0.0644 -0.09628,0.08713 -0.0927,0.303182 0.0067,0.402546 0.07264,0.07264 0.129708,0.07783 0.856068,0.07783 h 0.778243 z m -2.477245,-1.445096 c 1.094964,-0.452375 2.004116,-0.834243 2.020338,-0.848595 0.03113,-0.02754 -0.160856,-0.507985 -0.202994,-0.507985 -0.01351,0 -0.94291,0.380999 -2.065333,0.846665 -1.801858,0.747547 -2.046789,0.859227 -2.0922,0.953974 -0.08972,0.187188 0.02752,0.378442 0.231985,0.378442 0.06455,0 1.013241,-0.370125 2.108204,-0.822501 z m -6.511462,0.04426 c 0.08786,-0.08786 0.10204,-0.263761 0.02918,-0.362027 -0.04277,-0.05769 -2.822608,-1.239431 -3.049491,-1.296375 -0.07459,-0.01872 -0.102633,0.0074 -0.187468,0.17485 -0.05487,0.108275 -0.09976,0.221269 -0.09976,0.251098 0,0.06516 2.960426,1.305584 3.1227,1.308413 0.05885,10e-4 0.142029,-0.03316 0.184833,-0.07596 z m 2.745075,-0.562458 0.09551,-0.09551 v -2.18085 -2.180849 h -0.292782 -0.292781 l 0.01067,2.201992 0.01067,2.201991 0.09186,0.07437 c 0.124918,0.101129 0.262286,0.09342 0.376851,-0.02114 z m 3.488659,-1.527886 0.964713,-0.961892 -0.183219,-0.186017 c -0.100771,-0.102309 -0.201528,-0.186016 -0.223906,-0.186016 -0.05365,0 -1.828647,1.784542 -1.884272,1.894409 -0.06502,0.128436 -0.05261,0.200806 0.05248,0.305896 0.197674,0.197675 0.227076,0.177684 1.274203,-0.86638 z m -6.449958,0.291727 c 0.131869,-0.18827 0.0966,-0.242182 -0.648192,-0.99094 -0.389822,-0.391895 -0.720827,-0.712537 -0.735566,-0.712537 -0.01474,0 -0.111668,0.07769 -0.215397,0.172635 l -0.188597,0.172634 0.71948,0.722345 c 0.67495,0.677638 0.7284,0.722345 0.863589,0.722345 0.104806,0 0.160629,-0.02359 0.204683,-0.08648 z m 4.948202,-1.715765 c 0.04601,-0.04922 0.404426,-0.895212 0.404426,-0.954571 0,-0.0474 -0.451813,-0.214451 -0.499805,-0.184791 -0.02079,0.01285 -0.119483,0.22907 -0.219326,0.480496 -0.15562,0.391881 -0.175654,0.472562 -0.140345,0.56519 0.06578,0.172551 0.330421,0.227031 0.45505,0.09368 z M 14.422981,10.71862 c 0.01267,-0.03303 0.01362,-0.06946 0.0021,-0.08098 -0.02924,-0.02924 -0.183244,0.05773 -0.183244,0.10348 0,0.0618 0.156233,0.04239 0.181133,-0.0225 z"
   id="path25" /></svg>
