<?xml version="1.0" encoding="UTF-8" standalone="no"?>
<!-- Generator: Adobe Illustrator 19.0.0, SVG Export Plug-In . SVG Version: 6.00 Build 0)  -->

<svg
   version="1.1"
   id="Layer_1"
   x="0px"
   y="0px"
   viewBox="0 0 32 32"
   xml:space="preserve"
   sodipodi:docname="frame-1.svg"
   inkscape:version="1.4.3 (fcd0343856, 2026-01-01)"
   width="32"
   height="32"
   xmlns:inkscape="http://www.inkscape.org/namespaces/inkscape"
   xmlns:sodipodi="http://sodipodi.sourceforge.net/DTD/sodipodi-0.dtd"
   xmlns="http://www.w3.org/2000/svg"
   xmlns:svg="http://www.w3.org/2000/svg"><defs
   id="defs19" /><sodipodi:namedview
   id="namedview19"
   pagecolor="#ffffff"
   bordercolor="#000000"
   borderopacity="0.25"
   inkscape:showpageshadow="2"
   inkscape:pageopacity="0.0"
   inkscape:pagecheckerboard="0"
   inkscape:deskcolor="#d1d1d1"
   inkscape:zoom="36.34375"
   inkscape:cx="11.528805"
   inkscape:cy="18.008598"
   inkscape:window-width="2560"
   inkscape:window-height="1371"
   inkscape:window-x="1920"
   inkscape:window-y="32"
   inkscape:window-maximized="1"
   inkscape:current-layer="Layer_1"
   showguides="true"
   showgrid="false"><sodipodi:guide
     position="6.9652753,-7.5736593"
     orientation="1,0"
     id="guide1"
     inkscape:locked="false" /><sodipodi:guide
     position="25.48746,-7.495835"
     orientation="1,0"
     id="guide2"
     inkscape:locked="false" /><sodipodi:guide
     position="42.453159,25.968616"
     orientation="0,-1"
     id="guide3"
     inkscape:locked="false" /><sodipodi:guide
     position="39.962781,5.8121212"
     orientation="0,-1"
     id="guide4"
     inkscape:locked="false" /><sodipodi:guide
     position="15.564861,14.839741"
     orientation="1,0"
     id="guide5"
     inkscape:locked="false" /></sodipodi:namedview>

















<path
   style="display:none;fill:#ffffff;stroke-width:0.0358663"
   d="m 11.521587,27.212386 c -0.05582,-0.05582 -0.06067,-0.259842 -0.06067,-2.550813 V 22.17143 h -0.392412 c -0.274543,0 -0.401128,0.01347 -0.421428,0.04483 -0.01596,0.02466 -0.03709,0.585517 -0.04695,1.246354 l -0.01794,1.201519 -0.103085,0.223173 c -0.125615,0.271949 -0.407439,0.55058 -0.6857711,0.678005 -0.2361682,0.108121 -0.5654077,0.151859 -0.6451231,0.0857 -0.047618,-0.03952 -0.054372,-0.314231 -0.053683,-2.183824 7.639e-4,-2.073939 0.003,-2.143498 0.073847,-2.300015 0.090077,-0.198994 0.2217494,-0.341304 0.4095599,-0.442647 0.1337653,-0.07218 0.2022701,-0.07818 1.0132213,-0.08869 l 0.869757,-0.01127 v -0.804682 -0.804681 l -0.815958,-2e-4 c -0.476943,-1.23e-4 -0.8755571,-0.01646 -0.9594163,-0.03933 -0.188726,-0.05146 -0.4875931,-0.355088 -0.5477134,-0.556434 -0.030211,-0.101181 -0.04408,-0.457708 -0.04408,-1.133195 0,-1.180936 0.031486,-1.104285 -0.4536092,-1.104285 -0.1888858,0 -0.4031143,-0.0236 -0.5172367,-0.05696 C 7.5975511,15.971179 7.224825,15.528984 7.1391565,14.957705 7.0945462,14.660223 7.033474,14.671506 8.6251485,14.683152 l 1.3889345,0.01017 0.175509,0.108548 c 0.108609,0.06717 0.216883,0.175421 0.284055,0.28399 l 0.108547,0.175446 0.01794,1.072909 c 0.02108,1.261204 -0.01207,1.174608 0.449624,1.174608 0.23777,0 0.303547,-0.01226 0.351808,-0.06559 0.05307,-0.05864 0.05936,-0.211845 0.05936,-1.445984 v -1.380393 l -0.197218,-0.08174 c -0.379843,-0.157437 -0.628316,-0.57598 -0.574448,-0.967641 0.04868,-0.353964 0.361605,-0.717371 0.673033,-0.781616 0.116688,-0.02407 0.127823,-0.06901 0.02517,-0.101594 -0.146467,-0.04648 -0.645889,-0.456732 -0.841878,-0.691552 C 10.305795,11.705412 10.055184,11.214543 9.9467397,10.81976 9.8713371,10.545265 9.8679,10.466762 9.8674511,9.0085124 9.8669975,7.537478 9.8697923,7.4741668 9.9474448,7.1972662 10.250085,6.1180704 11.009987,5.3582188 12.088577,5.0562739 c 0.284689,-0.079697 0.309901,-0.080419 3.227963,-0.092531 1.933302,-0.00803 3.063184,9.863e-4 3.297525,0.02629 1.204449,0.1300649 2.163396,0.9311593 2.536338,2.1188312 0.08308,0.2645936 0.08407,0.2870782 0.08407,1.9175809 v 1.649847 l -0.118397,0.34073 c -0.06512,0.187402 -0.18398,0.451569 -0.264136,0.58704 -0.193994,0.32787 -0.596501,0.74741 -0.921602,0.960601 -0.210546,0.13807 -0.250497,0.177722 -0.197265,0.195792 0.351292,0.119244 0.579601,0.332074 0.679782,0.633691 0.07265,0.218724 0.05198,0.493566 -0.05254,0.698429 -0.0945,0.185235 -0.370999,0.428043 -0.547734,0.480994 l -0.138289,0.04143 v 2.148656 c 0,1.412535 0.01272,2.172423 0.03713,2.218031 0.03281,0.06131 0.0778,0.06938 0.387356,0.06938 0.224578,0 0.365669,-0.01544 0.393267,-0.04303 0.03171,-0.03171 0.04325,-0.355186 0.04383,-1.228419 7.41e-4,-1.114881 0.0052,-1.194979 0.07385,-1.346778 0.09008,-0.198994 0.221751,-0.341303 0.409561,-0.442647 0.137153,-0.074 0.194304,-0.07789 1.299081,-0.08822 0.824049,-0.0077 1.177827,0.0011 1.23303,0.03063 0.06984,0.03738 0.07567,0.06312 0.05963,0.262993 -0.0499,0.621626 -0.551468,1.120454 -1.209721,1.203107 -0.185464,0.02329 -0.281785,0.05296 -0.313732,0.09665 -0.03534,0.04834 -0.0461,0.337962 -0.0461,1.24093 0,1.298954 -0.0051,1.333782 -0.225982,1.564284 -0.250942,0.26179 -0.303174,0.273544 -1.271434,0.286097 l -0.869757,0.01127 v 0.607417 0.607418 h 0.861181 c 0.803031,0 0.872119,0.0052 1.023169,0.07614 0.19511,0.09171 0.384404,0.303078 0.441198,0.49264 0.02879,0.09609 0.04163,0.614591 0.04163,1.681594 0,1.334774 -0.0074,1.548745 -0.05437,1.587792 -0.07816,0.06487 -0.413412,0.01786 -0.641223,-0.08991 -0.370025,-0.17505 -0.64075,-0.489837 -0.753819,-0.876507 -0.04066,-0.13905 -0.05696,-0.346194 -0.05696,-0.72373 0,-0.433017 -0.01022,-0.539142 -0.05636,-0.585283 -0.04403,-0.04403 -0.138185,-0.05636 -0.430395,-0.05636 h -0.374034 v 1.932387 c 0,1.683032 -0.007,1.938209 -0.05437,1.977514 -0.07736,0.06421 -0.419987,0.0175 -0.652518,-0.08896 -0.267856,-0.122628 -0.527452,-0.380188 -0.665303,-0.660082 l -0.116253,-0.236041 -0.01082,-1.462406 -0.01082,-1.462407 h -0.356806 -0.356806 v 1.916283 c 0,2.197202 0.02224,2.052442 -0.310055,2.018146 -0.42671,-0.04404 -0.863166,-0.359266 -1.077479,-0.778197 l -0.100916,-0.197265 -0.01794,-4.913678 c -0.01423,-3.89961 -0.0274,-4.930256 -0.06383,-4.994006 -0.02525,-0.04418 -0.09646,-0.106474 -0.158255,-0.138431 -0.0919,-0.04752 -0.136655,-0.05082 -0.245746,-0.01814 -0.249984,0.0749 -0.229756,-0.335144 -0.249495,5.057446 l -0.01794,4.899209 -0.08197,0.202736 c -0.166071,0.410747 -0.447389,0.677595 -0.861365,0.817053 -0.273928,0.09228 -0.443334,0.09505 -0.521626,0.0086 -0.05403,-0.0597 -0.05936,-0.28832 -0.05936,-2.546505 v -2.480915 h -0.357539 -0.35754 l -0.01009,2.053344 -0.01009,2.053344 -0.103696,0.204688 c -0.207912,0.410399 -0.647569,0.72669 -1.070855,0.770377 -0.151706,0.01566 -0.20543,0.007 -0.253228,-0.0408 z m 6.646321,-8.086836 v -2.687218 l -0.09063,-0.107714 c -0.04985,-0.05924 -0.137862,-0.118086 -0.195583,-0.130764 -0.135763,-0.02982 -0.336223,0.06397 -0.390271,0.18259 -0.02935,0.0644 -0.04083,0.825403 -0.04083,2.704142 v 2.614515 l 0.07971,0.05584 c 0.05556,0.03891 0.164239,0.05584 0.358663,0.05584 h 0.278948 z m -4.526322,1.460591 c 0.03248,-0.03248 0.04303,-0.551905 0.04303,-2.11774 v -2.0747 l -0.08658,-0.08658 c -0.167383,-0.167383 -0.40036,-0.153576 -0.538901,0.03194 -0.07239,0.09694 -0.07412,0.142101 -0.08372,2.194547 l -0.0098,2.095571 h 0.316463 c 0.198316,0 0.332531,-0.01607 0.359502,-0.04304 z m 4.051094,-5.893616 c 0.108141,-0.124458 0.11088,-0.36575 0.0054,-0.478929 l -0.07526,-0.08078 0.123262,0.02313 c 0.258171,0.04844 0.528938,-0.173947 0.529252,-0.434675 3.31e-4,-0.274782 -0.303648,-0.493954 -0.573116,-0.413219 -0.279296,0.08368 -0.396656,0.448938 -0.220711,0.686917 l 0.07878,0.106561 h -0.139648 c -0.28463,0 -0.433244,0.312058 -0.269943,0.566823 0.112261,0.175139 0.399636,0.187961 0.541942,0.02418 z m -5.771268,-0.474861 c 0.232157,-0.107817 0.376194,-0.454937 0.293168,-0.706509 -0.129734,-0.393097 -0.535775,-0.559011 -0.898562,-0.367164 -0.294517,0.155743 -0.4056,0.539155 -0.240073,0.828627 0.180656,0.315927 0.496029,0.407333 0.845467,0.245046 z m 7.901038,0.0059 c 0.226858,-0.114721 0.346927,-0.372064 0.308225,-0.660612 -0.07135,-0.531965 -0.809071,-0.679752 -1.118689,-0.224107 -0.1053,0.154963 -0.124819,0.449974 -0.04049,0.612043 0.161639,0.310665 0.537607,0.431138 0.850958,0.272676 z m -6.830199,-2.128959 c 0.240446,-0.146609 0.317018,-0.403228 0.195326,-0.65461 -0.130273,-0.269109 -0.443782,-0.37055 -0.7131,-0.230737 -0.325717,0.169092 -0.344764,0.681942 -0.03275,0.881829 0.147766,0.09466 0.398416,0.09627 0.550526,0.0035 z M 11.507463,11.47071 c 0.212961,-0.08898 0.419316,-0.400495 0.419316,-0.633003 0,-0.232507 -0.206355,-0.544021 -0.419316,-0.633002 -0.138947,-0.05806 -0.397854,-0.06302 -0.537372,-0.01031 -0.121822,0.04603 -0.287744,0.19778 -0.350439,0.320514 -0.175251,0.343071 -0.03266,0.775152 0.311859,0.944976 0.143474,0.07072 0.420146,0.07592 0.575952,0.01082 z m 1.112499,-0.780665 c 0.133433,-0.06824 0.202232,-0.184354 0.203075,-0.342747 0.0015,-0.284744 -0.258468,-0.4637265 -0.516806,-0.3557859 -0.154103,0.064389 -0.235588,0.1844809 -0.235588,0.3472109 0,0.279433 0.306537,0.475481 0.549319,0.351322 z M 11.629816,9.8606061 C 11.954422,9.536 11.736844,8.9947175 11.281756,8.9947175 c -0.23347,0 -0.408441,0.1148649 -0.486561,0.3194181 -0.143897,0.3767873 0.112047,0.7183864 0.515857,0.6884984 0.161454,-0.01195 0.21057,-0.033834 0.318764,-0.1420279 z m 1.328527,-0.4977763 c 0.448031,-0.2168884 0.491712,-0.8935637 0.07546,-1.1690245 -0.244586,-0.1618589 -0.608289,-0.1483431 -0.836391,0.031081 -0.294101,0.231341 -0.310634,0.7890902 -0.03089,1.042066 0.197158,0.1782912 0.536653,0.2193993 0.791816,0.095877 z"
   id="path14" /><path
   style="display:inline;fill:#ffffff;stroke-width:0.0389122"
   d="m 19.715036,13.625918 c -0.08659,-0.09568 -0.0812,-0.223335 0.01343,-0.317962 0.09858,-0.09858 0.158424,-0.09799 0.286593,0.0028 0.117081,0.09209 0.128798,0.175827 0.04195,0.299814 -0.07479,0.106777 -0.25202,0.114718 -0.341972,0.01532 z"
   id="path15" /><path
   style="display:inline;fill:#ffffff;stroke-width:0.0389122"
   d="m 11.175001,13.670469 c -0.09422,-0.03769 -0.131901,-0.208388 -0.06765,-0.306446 0.12885,-0.19665 0.410648,-0.129606 0.410648,0.0977 0,0.185804 -0.158786,0.282441 -0.342996,0.208746 z"
   id="path16" /><path
   style="display:inline;fill:#ffffff;stroke-width:0.0290716"
   d="M 11.85578,26.687038 C 10.841597,26.596701 9.7366579,26.285859 8.8468682,25.840572 7.578987,25.206071 6.4811742,24.248049 5.7321824,23.122499 5.0306171,22.068216 4.594899,20.735913 4.5412829,19.481065 c -0.016465,-0.385357 -0.00642,-0.494833 0.1889373,-2.058549 0.11348,-0.90835 0.2198301,-1.676776 0.2363332,-1.707614 0.016503,-0.03084 0.064576,-0.06474 0.1068279,-0.07535 0.060004,-0.01506 0.090342,-0.0036 0.1385798,0.05252 0.054813,0.06372 0.08224,0.23666 0.2438975,1.537928 0.1001764,0.806372 0.1895558,1.515189 0.1986199,1.57515 l 0.016481,0.109018 h 0.4893807 0.4893811 l 0.028492,-0.109018 c 0.015671,-0.05995 0.095332,-0.370664 0.1770256,-0.690451 0.081693,-0.319787 0.162607,-0.617575 0.179809,-0.661748 0.035907,-0.09221 0.1418981,-0.130455 0.2389604,-0.08622 0.056394,0.02569 0.088388,0.119281 0.2323414,0.679604 0.091818,0.357393 0.1796682,0.698864 0.1952222,0.758824 l 0.02828,0.109019 H 9.0078826 10.285914 V 18.598823 18.283476 L 9.5663909,18.101743 C 9.1706532,18.001793 8.818426,17.902025 8.7836621,17.88004 c -0.080482,-0.0509 -0.1087154,-0.139154 -0.068527,-0.214242 0.035719,-0.06674 0.085413,-0.08261 0.9457418,-0.302061 l 0.6105041,-0.155724 0.0081,-0.361815 0.0081,-0.361817 -1.0401333,-0.194228 C 8.355994,16.123691 8.2000197,16.08703 8.1564176,16.03371 c -0.027981,-0.03422 -0.050876,-0.07895 -0.050876,-0.09938 0,-0.02044 0.022893,-0.06539 0.050874,-0.0999 0.043811,-0.05402 0.1951927,-0.08974 1.0901853,-0.257184 L 10.285913,15.382794 V 15.032168 14.681544 L 8.825944,14.485387 C 7.7320035,14.338412 7.3529999,14.277491 7.3142207,14.242396 c -0.073969,-0.06695 -0.06668,-0.201516 0.013656,-0.252107 0.040053,-0.02522 0.5894744,-0.110425 1.4172402,-0.219778 0.743507,-0.09822 1.3943481,-0.186099 1.4463141,-0.195284 l 0.09448,-0.0167 v -0.345624 c 0,-0.23798 -0.01025,-0.345623 -0.03292,-0.345623 -0.06665,0 -3.3851747,-0.377796 -3.4475649,-0.392486 -0.1323698,-0.03117 -0.1591784,-0.239941 -0.039065,-0.304222 0.030564,-0.01635 0.8644009,-0.121123 1.8529714,-0.232814 1.0954994,-0.12377 1.9222815,-0.231096 2.1171895,-0.274835 0.600046,-0.134658 0.8983,-0.166824 1.69664,-0.182986 l 0.766349,-0.01551 -0.01962,-0.308809 C 13.150049,10.685697 13.056461,10.083957 12.946495,9.6548974 12.438468,7.6727094 11.177815,6.2466682 9.6801209,5.9599961 9.3696799,5.900573 8.7862179,5.9081189 8.4816195,5.9754875 7.7987638,6.1265191 7.2517367,6.4512327 6.6756803,7.0474869 5.7648233,7.9902813 5.1843926,9.4243235 5.0657376,11.025094 l -0.019681,0.265508 0.1042287,0.03441 c 0.1705575,0.05629 0.3848615,0.271039 0.4534705,0.454411 0.075067,0.200638 0.075578,0.345723 0.0019,0.542624 -0.062666,0.16748 -0.2378901,0.359497 -0.4047302,0.443513 -0.3902853,0.196539 -0.9332819,-0.04973 -1.0614754,-0.481391 -0.057429,-0.193383 -0.057394,-0.268504 2.108e-4,-0.46248 0.057725,-0.194382 0.2931086,-0.443453 0.4688426,-0.496103 l 0.1165965,-0.03493 0.019334,-0.299028 C 4.7836044,10.385891 4.9456641,9.6007779 5.1553887,9.0007538 5.2967257,8.596386 5.6447196,7.887187 5.8615067,7.5617095 6.951965,5.9245298 8.5750912,5.2292024 10.12602,5.7348457 c 0.585983,0.1910457 1.055941,0.4936152 1.569866,1.0107197 0.522806,0.5260384 0.863549,1.0245922 1.165081,1.7046734 0.388215,0.8755866 0.651895,2.0443192 0.651895,2.8894532 v 0.181478 l 0.254377,0.03493 c 0.848069,0.116467 1.774884,0.421122 2.614764,0.859509 0.358586,0.187168 0.896898,0.528162 1.142334,0.723614 l 0.130418,0.10386 0.596372,-0.589521 c 0.637941,-0.630613 0.679821,-0.659215 0.963141,-0.657796 0.269487,0.0014 0.287618,0.01709 2.084465,1.810431 0.94488,0.943033 1.729899,1.74997 1.773368,1.822881 0.06505,0.1091 0.07787,0.164611 0.07722,0.334324 -5.29e-4,0.140225 -0.01741,0.235138 -0.0543,0.305251 -0.02944,0.05597 -0.29557,0.345773 -0.59139,0.644025 -0.476036,0.479944 -0.574662,0.606053 -0.473978,0.606053 0.01345,0 0.912083,-0.637376 1.996957,-1.416391 1.084872,-0.779017 2.030313,-1.44621 2.100979,-1.482652 0.07066,-0.03643 0.176025,-0.06626 0.234132,-0.06626 0.159908,0 0.387374,0.126715 0.484534,0.26992 l 0.08314,0.122546 v 4.132932 4.132931 l -0.0876,0.126058 c -0.15444,0.222235 -0.456227,0.317026 -0.690994,0.217039 -0.05146,-0.02191 -0.983141,-0.701236 -2.070418,-1.509607 l -1.976871,-1.469768 -0.08612,0.08457 -0.08612,0.08457 0.554599,0.560162 c 0.305029,0.308089 0.577427,0.6048 0.605327,0.659359 0.02791,0.05456 0.05741,0.172778 0.06556,0.262712 0.02937,0.323977 0.07386,0.27135 -1.861188,2.202069 -1.427949,1.424756 -1.771769,1.753418 -1.866635,1.784347 -0.159942,0.05214 -0.388427,0.04524 -0.509508,-0.0154 -0.05555,-0.02782 -0.366031,-0.314209 -0.689965,-0.636422 -0.578549,-0.575482 -0.590192,-0.585071 -0.658269,-0.542235 -0.03811,0.02397 -0.244042,0.161323 -0.457611,0.305194 -0.724913,0.488347 -1.648927,0.90062 -2.509796,1.119816 -0.722749,0.184025 -1.148761,0.238436 -1.933999,0.247012 -0.37575,0.0041 -0.742052,0.0023 -0.814005,-0.0042 z m -5.1088585,-4.18471 c 0.5610022,-0.191152 0.7080784,-0.956582 0.2596509,-1.351305 -0.388506,-0.341977 -1.0087348,-0.221526 -1.2390336,0.240622 -0.1058608,0.212436 -0.1057371,0.501824 3.056e-4,0.714624 0.1799929,0.361198 0.5921149,0.527911 0.9790771,0.396059 z m -0.586607,-1.71437 c 0.2809217,-0.145269 0.390501,-0.523809 0.2374194,-0.82016 -0.1380943,-0.267338 -0.5182824,-0.378843 -0.7923492,-0.232389 -0.3562416,0.190367 -0.4239033,0.668063 -0.1343736,0.948686 0.1728148,0.167499 0.4774749,0.213406 0.6893034,0.10386 z m 1.1923352,-0.0792 C 7.6137213,20.53435 7.6122138,20.171994 7.3496697,19.99509 7.2109223,19.9016 6.9521679,19.91457 6.8385527,20.02071 c -0.2181558,0.203811 -0.2106421,0.485431 0.018086,0.677893 0.121726,0.102422 0.3508535,0.107114 0.4959996,0.01015 z M 17.565574,19.968543 c 0.06263,-0.04426 0.141215,-0.132807 0.174617,-0.196766 0.05929,-0.113508 0.06074,-0.151706 0.06074,-1.598937 0,-0.815458 -0.01005,-1.518388 -0.02222,-1.562066 -0.03078,-0.109968 -0.190567,-0.284756 -0.303443,-0.331919 -0.210796,-0.08807 -0.298327,-0.06467 -1.706811,0.456326 -0.736906,0.272583 -1.38785,0.528747 -1.446544,0.569255 -0.238099,0.164327 -0.314822,0.36904 -0.314822,0.840015 0,0.490893 0.08545,0.706419 0.343908,0.867467 0.05868,0.03657 0.695402,0.283199 1.414923,0.548071 0.719522,0.264871 1.327846,0.489272 1.35183,0.498668 0.09648,0.03779 0.334654,-0.01015 0.447834,-0.09012 z m -4.393278,-4.44359 c 0.263761,-0.08988 0.45735,-0.354446 0.480105,-0.656145 0.03465,-0.459483 -0.292579,-0.8096 -0.756685,-0.8096 -0.234085,0 -0.351332,0.04307 -0.511738,0.187989 -0.170385,0.153932 -0.249721,0.33531 -0.248276,0.567612 0.0014,0.21831 0.05073,0.351396 0.188643,0.508466 0.197662,0.225124 0.540105,0.306572 0.847951,0.201678 z M 10.941345,13.43549 c 0.150823,-0.150823 0.04651,-0.422861 -0.162129,-0.422861 -0.115556,0 -0.26073,0.137409 -0.26073,0.246785 0,0.08293 0.04735,0.190807 0.09883,0.225184 0.07409,0.04947 0.252471,0.02245 0.324024,-0.04911 z m 9.070341,0 c 0.105066,-0.105067 0.0975,-0.250331 -0.01808,-0.347598 -0.175279,-0.147484 -0.404772,-0.05005 -0.404772,0.171846 0,0.221936 0.266084,0.332527 0.422859,0.175752 z"
   id="path17" /><path
   style="display:inline;fill:#ffffff;stroke-width:0.027515"
   d="m 13.154304,15.117073 c -0.06828,-0.05745 -0.08466,-0.0923 -0.08466,-0.180162 0,-0.229731 0.252088,-0.326202 0.418236,-0.160054 0.07242,0.07242 0.08162,0.09768 0.0676,0.185726 -0.03319,0.20849 -0.241616,0.288753 -0.401179,0.15449 z"
   id="path18" /></svg>
