<?xml version="1.0" encoding="UTF-8" standalone="no"?>
<!-- Generator: Adobe Illustrator 19.0.0, SVG Export Plug-In . SVG Version: 6.00 Build 0)  -->

<svg
   version="1.1"
   id="Layer_1"
   x="0px"
   y="0px"
   viewBox="0 0 87.959791 101.51541"
   xml:space="preserve"
   sodipodi:docname="temperature-1.svg"
   inkscape:version="1.4.3 (fcd0343856, 2026-01-01)"
   width="87.959785"
   height="101.5154"
   xmlns:inkscape="http://www.inkscape.org/namespaces/inkscape"
   xmlns:sodipodi="http://sodipodi.sourceforge.net/DTD/sodipodi-0.dtd"
   xmlns="http://www.w3.org/2000/svg"
   xmlns:svg="http://www.w3.org/2000/svg"><defs
   id="defs23" /><sodipodi:namedview
   id="namedview23"
   pagecolor="#ffffff"
   bordercolor="#000000"
   borderopacity="0.25"
   inkscape:showpageshadow="2"
   inkscape:pageopacity="0.0"
   inkscape:pagecheckerboard="0"
   inkscape:deskcolor="#d1d1d1"
   inkscape:zoom="2.27148"
   inkscape:cx="43.583919"
   inkscape:cy="-19.15051"
   inkscape:window-width="2560"
   inkscape:window-height="1371"
   inkscape:window-x="1920"
   inkscape:window-y="32"
   inkscape:window-maximized="1"
   inkscape:current-layer="Layer_1" />



















<g
   id="g24"
   transform="matrix(0.15354511,0,0,0.15354511,4.672268,11.453874)"><g
     id="g2">
	<g
   id="g1">
		<path
   d="m 420.181,432.039 h -30.073 c -13.311,37.401 -43.183,67.012 -80.754,79.96 H 420.18 c 22.045,0 39.98,-17.934 39.98,-39.98 10e-4,-22.047 -17.934,-39.98 -39.979,-39.98 z"
   id="path1" />
	</g>
</g><g
     id="g4">
	<g
   id="g3">
		<path
   d="M 350.999,0 H 230.344 C 158.223,0 99.55,58.674 99.55,130.794 v 273.225 c 0,46.663 -36.478,81.275 -36.815,81.59 l -28.572,26.381 216.458,0.011 h 12.843 V 238.087 h 10e-4 c 0,-56.652 46.09,-102.742 102.742,-102.742 h 1.014 V 0 Z m -62.853,100.431 c -13.347,0 -24.205,-10.858 -24.205,-24.205 0,-13.346 10.858,-24.204 24.205,-24.204 13.346,0 24.204,10.858 24.204,24.204 0,13.347 -10.857,24.205 -24.204,24.205 z"
   id="path2" />
	</g>
</g><g
     id="g6">
	<g
   id="g5">
		<path
   d="m 366.207,165.762 c -39.88,0 -72.325,32.445 -72.325,72.325 v 246.89 c 42.257,-11.833 73.339,-50.69 73.339,-96.673 V 165.762 Z"
   id="path4" />
	</g>
</g><g
     id="g8">
	<g
   id="g7">
		<polygon
   points="397.638,88.769 477.838,0 397.638,0 "
   id="polygon6" />
	</g>
</g><g
     id="g9">
</g><g
     id="g10">
</g><g
     id="g11">
</g><g
     id="g12">
</g><g
     id="g13">
</g><g
     id="g14">
</g><g
     id="g15">
</g><g
     id="g16">
</g><g
     id="g17">
</g><g
     id="g18">
</g><g
     id="g19">
</g><g
     id="g20">
</g><g
     id="g21">
</g><g
     id="g22">
</g><g
     id="g23">
</g><path
     style="fill:#ffffff;stroke-width:0.440242"
     d="m 35.888156,510.74642 c 0.721742,-0.68999 7.651738,-7.10211 15.39999,-14.24921 7.748252,-7.1471 15.474492,-14.62131 17.169422,-16.60935 16.620591,-19.49491 26.852092,-40.59504 30.434932,-62.76504 0.733636,-4.53964 0.797462,-13.89078 1.039595,-152.3175 0.235345,-134.54388 0.322045,-147.86949 0.988375,-151.91039 2.59755,-15.752602 5.96897,-26.482861 12.44054,-39.594704 5.65362,-11.45462 11.37243,-20.019089 19.2973,-28.899545 11.16587,-12.512259 23.89176,-22.358337 38.48522,-29.776208 14.43797,-7.3388303 27.45205,-11.343095 44.17362,-13.5916539 4.87008,-0.65488155 13.41971,-0.75363523 78.65418,-0.90850592 l 73.19016,-0.17375805 V 67.484357 135.01816 l -5.65938,0.27071 c -7.33412,0.35081 -13.84909,1.33435 -21.03832,3.17607 -36.10674,9.24974 -64.64148,37.78462 -73.88818,73.88855 -3.35611,13.10402 -3.05684,-1.61704 -3.19864,157.33939 l -0.12694,142.3081 H 148.91296 34.575898 Z M 294.96187,99.639462 C 309.17345,95.74689 316.59201,79.179723 310.13494,65.754921 303.037,50.997692 283.66922,47.255608 271.70729,58.330242 c -3.14987,2.916217 -5.11909,5.857643 -6.53729,9.764739 -5.19819,14.320861 4.54014,30.31589 19.66298,32.296079 3.04914,0.39925 6.99662,0.10634 10.12889,-0.751598 z"
     id="path24" /><path
     style="fill:#ffffff;stroke-width:0.440242"
     d="m 294.18485,357.12423 0.11666,-127.53824 1.02508,-4.82925 c 2.1638,-10.19385 6.49434,-20.31805 12.09376,-28.27356 3.52067,-5.00207 12.1981,-13.66986 17.25783,-17.23865 10.78896,-7.6098 24.29141,-12.30075 37.76187,-13.11902 l 4.74376,-0.28816 -0.1406,115.52023 c -0.15635,128.46141 0.0804,118.53334 -3.12998,131.22514 -6.37181,25.18962 -22.35405,47.08106 -44.33735,60.73043 -6.82067,4.23494 -16.57564,8.72235 -23.18982,10.66761 l -2.31787,0.6817 z"
     id="path25" /><path
     style="fill:#ffffff;stroke-width:0.440242"
     d="M 397.9784,43.907623 V 0 h 39.69849 39.69848 l -0.8858,0.99054359 C 467.6578,10.866693 400.90415,84.800626 399.68117,86.060756 l -1.70277,1.754495 z"
     id="path26" /><path
     style="fill:#000000;stroke-width:0.440242"
     d="m 315.65322,509.9257 c 16.6901,-6.77461 30.39942,-15.93826 43.61348,-29.15231 13.22452,-13.22452 22.72668,-27.4507 29.05559,-43.50063 l 1.95189,-4.94992 16.9493,0.003 c 14.85748,0.003 17.44358,0.105 20.95428,0.82955 19.84983,4.09667 33.81181,23.18744 31.47141,43.03207 -1.99054,16.87803 -13.66548,30.1293 -30.4605,34.57319 l -3.69517,0.97772 -57.45153,0.12118 -57.45152,0.12117 z"
     id="path27" /><path
     style="fill:#ffffff;stroke-width:0.440242"
     d="m 284.81457,99.916568 c -9.78675,-1.475135 -17.70238,-8.799704 -19.98761,-18.495156 -2.83405,-12.023878 4.5892,-24.526095 16.6966,-28.120385 4.33531,-1.28701 10.43553,-1.145173 14.53891,0.338046 9.32507,3.370657 16.03649,12.798051 16.06232,22.562361 0.009,3.341431 -1.44125,8.765615 -3.14976,11.782019 -4.66064,8.228451 -14.96692,13.318837 -24.16046,11.933115 z"
     id="path28" /><path
     style="fill:#ffffff;stroke-width:0.440242"
     d="m 315.21298,510.07147 c 17.95366,-7.42664 30.7312,-15.9172 44.05947,-29.2771 9.68401,-9.70699 16.43299,-18.65025 22.79564,-30.2071 2.4194,-4.39449 6.06847,-12.40178 7.57363,-16.61912 l 0.58921,-1.6509 h 16.81223 c 18.54764,0 21.2378,0.26385 27.56711,2.70384 6.48853,2.50136 13.6457,8.07409 17.77084,13.83675 2.5613,3.57803 5.25266,9.30788 6.39553,13.61596 1.20941,4.55888 1.33581,13.49754 0.2536,17.93426 -3.67481,15.0656 -14.39853,26.10845 -29.3237,30.19634 l -4.21304,1.15392 -57.45153,0.11265 -57.45152,0.11265 z"
     id="path29" /><path
     style="fill:#000000;stroke-width:0.440242"
     d="m 284.81457,99.916568 c -9.78675,-1.475135 -17.70238,-8.799704 -19.98761,-18.495156 -2.83896,-12.044727 4.56821,-24.519863 16.6966,-28.120385 4.33531,-1.28701 10.43553,-1.145173 14.53891,0.338046 9.32507,3.370657 16.03649,12.798051 16.06232,22.562361 0.009,3.341431 -1.44125,8.765615 -3.14976,11.782019 -4.66064,8.228451 -14.96692,13.318837 -24.16046,11.933115 z"
     id="path30" /></g></svg>
